<svg id="a6cea9b9-2b91-4a5d-a9dd-824371dc2c54" data-name="Layer 1" xmlns="http://www.w3.org/2000/svg" viewBox="0 0 447.42 511.12"><title>4Artboard 2</title><path d="M213.8,511.12c9.94-1.88,20.06-3.1,29.79-5.77,28.05-7.69,56.06-15.57,83.84-24.2,11-3.42,21.38-3.69,32.24-.29,13.81,4.32,27.73,8.25,41.62,12.3,15.21,4.43,25.21-1.13,28.92-16.28q8.42-34.4,16.55-68.88c2.79-11.79-3.37-22-15.05-24.63-38.28-8.65-76.61-17.1-114.9-25.7-23.43-5.27-45.21-1.83-62.84,15C241,385,225.89,389.08,209.11,390.25c-9.62.68-19.32.75-28.84,2.08-12,1.67-19.71,8.86-20.68,17.86s5.11,17.66,16.14,22.25c14.54,6.06,29.9,5.59,45.27,5.24a106,106,0,0,0,55.6-17c4.89-3.11,10.31-5.41,15.58-7.89,4-1.87,7.59-1.26,9.86,2.82s.55,7.11-2.69,9.56c-23.11,17.55-48.48,28.95-78.12,29-13.83,0-27.67.52-41.22-3-10.16-2.62-19.38-7.1-26.83-14.68-13-13.29-13.93-31.66-2.32-46.17.6-.75,1.18-1.52,2.09-2.7-15-5.7-29.56-11.26-44.13-16.78-12.13-4.6-24.25-9.23-36.42-13.73-11.6-4.28-20-2-25.48,6.64s-4,19.23,3.81,27.31a3,3,0,0,1,.91,2.25c-7.33-2.86-14.64-5.76-22-8.59-12.25-4.72-24.22.88-28.46,13.26-3.15,9.2-.06,17.6,9.07,22.92q23.94,14,48.18,27.4c32.92,18.2,65.86,36.48,101.53,48.85,15.18,5.27,31,8.69,46.53,13a21.12,21.12,0,0,1,2.29.92Z" style="fill:#fff"/><path d="M224,322.25c-81.77.95-159.59-62.14-161.34-159.92C61.2,79.68,125.23,1.38,223.09,0,306-1.14,382.8,63.32,385.28,160.91,384.49,243.3,322,321.11,224,322.25Zm6.54-299.74C148.11,19,87.76,84.86,85.15,155c-3,81,60.77,141.1,130.66,144.71,84.95,4.4,148.33-65.36,146.47-138.71C363.51,87.14,302.83,25.62,230.56,22.51Z" style="fill:#fff"/><path d="M210.65,138.33c6.83,0,13.66-.11,20.49,0,8.11.17,11.14,3.17,10.33,11.08-1.64,16-3.69,32-5.62,48-1.37,11.38-3.07,22.72-4.15,34.12-.46,4.86,1.43,9.29,6.27,11.54,5.84,2.72,11.46,1.84,16.36-2.17a22.57,22.57,0,0,0,4.54-5.86c2.38-3.91,6-4.39,9.53-2.87,4,1.71,2.62,5.05,1.37,8.11-6.73,16.55-24.25,30.17-44.74,30-23.51-.23-37.66-17.9-35.93-37.87q2.88-33.26,6.08-66.5c.64-6.8-1.31-9.11-8.11-9.33-4.09-.13-9.49,1.48-10.38-4.82s4.52-12.93,11-13.25c7.64-.38,15.32-.09,23-.09Z" style="fill:#fff"/><path d="M230,113.75c-17.76-.24-31.11-13.9-30.57-31.82.5-16.64,12.84-29.87,31.11-30.06,17.38-.18,31.3,15,30.89,32.1C261,100.44,246.73,114,230,113.75Z" style="fill:#fff"/></svg>