<svg id="e7790d81-47f6-45cf-86d1-efddc1af33fb" data-name="artwork" xmlns="http://www.w3.org/2000/svg" xmlns:xlink="http://www.w3.org/1999/xlink" viewBox="0 0 80 80"><defs><linearGradient id="1b14c730-d685-4c03-a3c5-8936e433c9db" x1="11.73" y1="68.27" x2="68.27" y2="11.73" gradientUnits="userSpaceOnUse"><stop offset="0" stop-color="#c64df9"/><stop offset="1" stop-color="#525ffc"/></linearGradient><linearGradient id="8ae4dc20-f386-488e-b22d-89da94c82bb6" x1="26.09" y1="57.12" x2="53.93" y2="29.28" xlink:href="#1b14c730-d685-4c03-a3c5-8936e433c9db"/></defs><title>4Artboard 4</title><path d="M40,80A40,40,0,1,1,80,40,40,40,0,0,1,40,80ZM40,1A39,39,0,1,0,79,40,39.06,39.06,0,0,0,40,1Z" style="fill:url(#1b14c730-d685-4c03-a3c5-8936e433c9db)"/><g id="87cbf944-ca00-4470-aaf2-b738d46e0b4f" data-name="&lt;Group&gt;"><path id="5621cd7c-77a1-4f10-8b14-ee9ce1562025" data-name="&lt;Compound Path&gt;" d="M40,25l16.05,6.42v2.16H53.92a1,1,0,0,1-.35.76,1.09,1.09,0,0,1-.82.29H27.25a1.39,1.39,0,0,1-.82-.29.94.94,0,0,1-.35-.76H23.92V31.42ZM28.24,35.74H32.5V48.58h2.16V35.74h4.26V48.58h2.16V35.74h4.26V48.58H47.5V35.74h4.26V48.58h1a1.39,1.39,0,0,1,.82.29.94.94,0,0,1,.35.76v1.05H26.14V49.63a1,1,0,0,1,.35-.76,1.09,1.09,0,0,1,.82-.29h1V35.74ZM54.91,51.79a1.39,1.39,0,0,1,.82.29,1,1,0,0,1,.35.76V55H24V52.84a1,1,0,0,1,.35-.76,1.09,1.09,0,0,1,.82-.29Z" style="fill:url(#8ae4dc20-f386-488e-b22d-89da94c82bb6)"/></g></svg>