<svg id="17ca0b0d-a2ea-410c-892b-f038ddce52f0" data-name="Livello 1" xmlns="http://www.w3.org/2000/svg" viewBox="0 0 512 512.22"><title>4Artboard 2</title><path d="M0,247c2-6.18,6.19-8.29,12.59-8,8.64.43,17.32.12,26,.1,10.07,0,12.46,2.3,12.3,12.25-.61,36.58,7.43,71.17,25.54,102.94C109.86,413,160.13,448.42,227,458.11c107.75,15.62,207.14-54.83,229.72-161.63,23-109-48.51-219-157.93-241.4-66.89-13.67-126.7,2.37-178.72,46.79-1,.85-1.92,1.81-3.26,3.09,1.31,1.4,2.48,2.73,3.73,4,9.65,9.67,19.26,19.38,29,29,3,3,4.51,6.31,3,10.32-1.6,4.16-5.21,5.12-9.37,5.12-32.66,0-65.32,0-98,0-8.29,0-10.92-2.84-10.93-11.26q0-48.24,0-96.48c0-1,0-2,0-3,.1-3.82,1.59-6.92,5.28-8.29s6.79-.52,9.57,2.32C59.48,47.2,69.94,57.7,80.62,68.49c1.48-1.14,2.69-1.94,3.75-2.89C121,32.73,163.56,12.15,211.93,3.48,219.58,2.11,227.31,1.15,235,0h40c3.11.43,6.21.91,9.32,1.29,44.86,5.47,85.93,20.84,122.25,47.86C461,89.65,495.08,143.2,507.9,210c1.65,8.61,2.75,17.33,4.1,26v40a32,32,0,0,0-1,4.33,250.22,250.22,0,0,1-19.85,77.51c-45.1,104.09-155.51,171.3-278.71,150.66-60-10-110.11-38.87-149.93-84.9C29.78,385.76,9.94,341.84,3,292.2c-1.17-8.38-2-16.8-3-25.2Z" style="fill:#fff"/><path d="M265.06,106.36v21.83q42.33.67,68.78,23.48l-26.79,27.78q-15.87-17.52-42-17.53v66.8a206.18,206.18,0,0,1,25.63,9.42A137.39,137.39,0,0,1,312.52,251a51.87,51.87,0,0,1,17.2,20.34q5.78,12.24,5.79,28.11,0,32.74-20.5,51.26t-49.93,19.18v23.81H247.21V369.92q-47.62-1.66-77.71-30.75l29.1-27.78a69.68,69.68,0,0,0,22.49,17.36q13.56,6.78,26.12,7.11V262.45q-33.73-9.25-51.42-24.14t-17.69-44q0-28.1,20.5-45.8t48.61-19.68V106.36ZM247.21,224.09V161.92a35.58,35.58,0,0,0-21,9.09q-8.43,7.77-8.43,21.33Q217.77,215.49,247.21,224.09Zm17.86,43.65v68.12q13.89-.66,22.32-10.09t8.43-24q0-13.56-7.94-21.33T265.06,267.74Z" style="fill:#fff"/></svg>