<svg id="88b08182-97ac-4eda-9604-5f776672852d" data-name="Layer 1" xmlns="http://www.w3.org/2000/svg" viewBox="0 0 57.99 19"><title>4Artboard 3</title><path d="M6.32,0V1.44A6.89,6.89,0,0,1,10.86,3L9.09,4.83A3.57,3.57,0,0,0,6.32,3.67V8.09A13.59,13.59,0,0,1,8,8.71a9.08,9.08,0,0,1,1.44.85,3.43,3.43,0,0,1,1.14,1.34A4.31,4.31,0,0,1,11,12.77a4.33,4.33,0,0,1-1.36,3.39,4.92,4.92,0,0,1-3.3,1.27V19H5.14V17.42a7.48,7.48,0,0,1-5.14-2l1.92-1.84A4.61,4.61,0,0,0,3.41,14.7a4.1,4.1,0,0,0,1.73.47V10.32a9,9,0,0,1-3.4-1.6A3.58,3.58,0,0,1,.57,5.82a3.81,3.81,0,0,1,1.35-3,5.37,5.37,0,0,1,3.21-1.3V0ZM5.14,7.78V3.67a2.36,2.36,0,0,0-1.39.6,1.82,1.82,0,0,0-.56,1.41Q3.19,7.21,5.14,7.78Zm1.18,2.89v4.5a2,2,0,0,0,1.48-.67,2.29,2.29,0,0,0,.56-1.59,1.88,1.88,0,0,0-.52-1.41A3.89,3.89,0,0,0,6.32,10.67Z" style="fill:#3cce6c"/><path d="M40.89,10.4h14l-4.83,4.83a.9.9,0,1,0,1.27,1.27l6.36-6.36h0l.11-.14,0-.07,0-.08a.8.8,0,0,0,0-.09l0-.07a.9.9,0,0,0,0-.18h0a.91.91,0,0,0,0-.17l0-.08a.84.84,0,0,0,0-.09l0-.09,0-.07-.11-.14L51.36,2.5a.9.9,0,1,0-1.27,1.27L54.92,8.6h-14a.9.9,0,0,0,0,1.8Z" style="fill:#3cce6c"/><rect x="18.37" y="8.6" width="8" height="1.8" rx="0.9" ry="0.9" style="fill:#3cce6c"/><rect x="29.18" y="8.6" width="8" height="1.8" rx="0.9" ry="0.9" style="fill:#3cce6c"/></svg>