<svg id="b7a7f9d5-7eab-4698-bb98-4c4356c8105a" data-name="artwork" xmlns="http://www.w3.org/2000/svg" xmlns:xlink="http://www.w3.org/1999/xlink" viewBox="0 0 80 80"><defs><linearGradient id="43d2df3d-4e86-4a50-bc68-dfffb681af24" x1="11.73" y1="68.27" x2="68.27" y2="11.73" gradientUnits="userSpaceOnUse"><stop offset="0" stop-color="#ff9f74"/><stop offset="1" stop-color="#ff6a75"/></linearGradient><linearGradient id="9f7d8180-9881-4743-b5be-733550ff8672" x1="24.9" y1="56.3" x2="46.63" y2="34.57" xlink:href="#43d2df3d-4e86-4a50-bc68-dfffb681af24"/><linearGradient id="d702fd52-409f-413b-b994-e4fdbcaf60a6" x1="43.8" y1="44.27" x2="57.12" y2="30.95" xlink:href="#43d2df3d-4e86-4a50-bc68-dfffb681af24"/></defs><title>4Artboard 4</title><path d="M40,80A40,40,0,1,1,80,40,40,40,0,0,1,40,80ZM40,1A39,39,0,1,0,79,40,39.06,39.06,0,0,0,40,1Z" style="fill:url(#43d2df3d-4e86-4a50-bc68-dfffb681af24)"/><path d="M40.4,41.36h0a.15.15,0,0,1,0-.26A7.82,7.82,0,1,0,30.8,28.73,7.47,7.47,0,0,0,28,33.86a7.73,7.73,0,0,0,3.17,7.24.15.15,0,0,1,0,.26l-.18.06a14.54,14.54,0,0,0-5.48,3.23A10.45,10.45,0,0,0,22.26,50c-.07.32-.12.64-.19,1v1.13a.15.15,0,0,0,0,0,1.14,1.14,0,0,1,.06.21,3.6,3.6,0,0,0,2.2,3,8,8,0,0,0,3,.72c1.74.09,3.49.16,5.23.16q5.47,0,10.94-.09a9.83,9.83,0,0,0,3.34-.63,3.79,3.79,0,0,0,2.63-3.76,8.54,8.54,0,0,0-1.65-5.1A14,14,0,0,0,40.4,41.36Z" style="fill:url(#9f7d8180-9881-4743-b5be-733550ff8672)"/><path d="M58.28,43.05a14,14,0,0,0-7.39-5.31h0a.15.15,0,0,1,0-.26,7.82,7.82,0,1,0-9.56-12.37,8.2,8.2,0,0,0-1.53,1.66,7.78,7.78,0,0,1,4.67,2.57,7.87,7.87,0,0,1-1.29,11.48.15.15,0,0,0,0,.26h0a14,14,0,0,1,7.39,5.31,8.54,8.54,0,0,1,1.65,5.1,4.93,4.93,0,0,1-.13,1.08l1.86,0a9.83,9.83,0,0,0,3.34-.63,3.79,3.79,0,0,0,2.63-3.76A8.54,8.54,0,0,0,58.28,43.05Z" style="fill:url(#d702fd52-409f-413b-b994-e4fdbcaf60a6)"/></svg>