<svg id="cbedb19e-a591-416a-88e7-972fc531f59d" data-name="artwork" xmlns="http://www.w3.org/2000/svg" xmlns:xlink="http://www.w3.org/1999/xlink" viewBox="0 0 140.5 45"><defs><linearGradient id="9e8933d4-7545-4685-97af-de84ba100ecb" x1="23.91" y1="176.77" x2="7.13" y2="159.99" gradientTransform="matrix(1, 0, 0, -1, 0, 188.96)" gradientUnits="userSpaceOnUse"><stop offset="0" stop-color="#00a0ff"/><stop offset="0.01" stop-color="#00a1ff"/><stop offset="0.26" stop-color="#00beff"/><stop offset="0.51" stop-color="#00d2ff"/><stop offset="0.76" stop-color="#00dfff"/><stop offset="1" stop-color="#00e3ff"/></linearGradient><linearGradient id="a29328d2-709d-4283-8484-8b11a898efa8" x1="35.95" y1="165.48" x2="11.75" y2="165.48" gradientTransform="matrix(1, 0, 0, -1, 0, 188.96)" gradientUnits="userSpaceOnUse"><stop offset="0" stop-color="#ffe000"/><stop offset="0.41" stop-color="#ffbd00"/><stop offset="0.78" stop-color="orange"/><stop offset="1" stop-color="#ff9c00"/></linearGradient><linearGradient id="186e4a5e-a8d2-4247-8d17-d8089552d697" x1="26.94" y1="163.18" x2="4.18" y2="140.43" gradientTransform="matrix(1, 0, 0, -1, 0, 188.96)" gradientUnits="userSpaceOnUse"><stop offset="0" stop-color="#ff3a44"/><stop offset="1" stop-color="#c31162"/></linearGradient><linearGradient id="619916cf-f9a2-4e95-87f0-f38312714c2f" x1="9.41" y1="185.3" x2="19.57" y2="175.14" gradientTransform="matrix(1, 0, 0, -1, 0, 188.96)" gradientUnits="userSpaceOnUse"><stop offset="0" stop-color="#32a071"/><stop offset="0.07" stop-color="#2da771"/><stop offset="0.48" stop-color="#15cf74"/><stop offset="0.8" stop-color="#06e775"/><stop offset="1" stop-color="#00f076"/></linearGradient></defs><title>4Artboard 2</title><rect width="140.5" height="45" rx="22.5" ry="22.5"/><path d="M49.53,13.72a2.71,2.71,0,0,1-.75,2,2.91,2.91,0,0,1-2.2.89,3.09,3.09,0,0,1-3.12-3.13,3.09,3.09,0,0,1,3.12-3.13,3.1,3.1,0,0,1,1.23.25,2.47,2.47,0,0,1,.94.67l-.53.53a2,2,0,0,0-1.64-.71,2.32,2.32,0,0,0-2.33,2.4,2.36,2.36,0,0,0,4,1.73,1.89,1.89,0,0,0,.5-1.22H46.58v-.72h2.91A2.54,2.54,0,0,1,49.53,13.72Z" style="fill:#fff;stroke:#fff;stroke-miterlimit:10;stroke-width:0.2px"/><path d="M54.14,11.22H51.41v1.9h2.46v.72H51.41v1.9h2.73v.74h-3.5v-6h3.5Z" style="fill:#fff;stroke:#fff;stroke-miterlimit:10;stroke-width:0.2px"/><path d="M57.39,16.48h-.77V11.22H54.95v-.74h4.12v.74H57.39Z" style="fill:#fff;stroke:#fff;stroke-miterlimit:10;stroke-width:0.2px"/><path d="M62.05,16.48v-6h.77v6Z" style="fill:#fff;stroke:#fff;stroke-miterlimit:10;stroke-width:0.2px"/><path d="M66.24,16.48h-.77V11.22H63.8v-.74h4.12v.74H66.24Z" style="fill:#fff;stroke:#fff;stroke-miterlimit:10;stroke-width:0.2px"/><path d="M75.72,15.71a3.12,3.12,0,0,1-4.4,0,3.07,3.07,0,0,1-.88-2.22,3.07,3.07,0,0,1,.88-2.22,3.1,3.1,0,0,1,4.4,0,3.23,3.23,0,0,1,0,4.45Zm-3.83-.5a2.31,2.31,0,0,0,3.26,0,2.35,2.35,0,0,0,.67-1.72,2.35,2.35,0,0,0-.67-1.72,2.31,2.31,0,0,0-3.26,0,2.35,2.35,0,0,0-.67,1.72A2.35,2.35,0,0,0,71.89,15.2Z" style="fill:#fff;stroke:#fff;stroke-miterlimit:10;stroke-width:0.2px"/><path d="M77.69,16.48v-6h.94l2.92,4.67h0l0-1.16V10.48h.77v6h-.8l-3.05-4.89h0l0,1.16v3.74Z" style="fill:#fff;stroke:#fff;stroke-miterlimit:10;stroke-width:0.2px"/><path d="M70.25,25.23a4.25,4.25,0,1,0,4.27,4.25A4.19,4.19,0,0,0,70.25,25.23Zm0,6.83a2.58,2.58,0,1,1,2.4-2.58A2.46,2.46,0,0,1,70.25,32.06Zm-9.31-6.83a4.25,4.25,0,1,0,4.27,4.25A4.19,4.19,0,0,0,60.94,25.23Zm0,6.83a2.58,2.58,0,1,1,2.4-2.58A2.46,2.46,0,0,1,60.94,32.06ZM49.86,26.54v1.8h4.32a3.77,3.77,0,0,1-1,2.27,4.42,4.42,0,0,1-3.33,1.32,4.8,4.8,0,0,1,0-9.6,4.6,4.6,0,0,1,3.25,1.29l1.27-1.27a6.29,6.29,0,0,0-4.53-1.82,6.61,6.61,0,1,0,0,13.21,6,6,0,0,0,4.61-1.85A6,6,0,0,0,56,27.66a5.87,5.87,0,0,0-.1-1.13Zm45.31,1.4a4,4,0,0,0-3.64-2.71,4,4,0,0,0-4,4.25,4.16,4.16,0,0,0,4.22,4.25,4.23,4.23,0,0,0,3.54-1.88l-1.45-1a2.43,2.43,0,0,1-2.09,1.18,2.16,2.16,0,0,1-2.06-1.29l5.69-2.35Zm-5.8,1.42a2.33,2.33,0,0,1,2.22-2.48,1.65,1.65,0,0,1,1.58.9Zm-4.62,4.12h1.87V21H84.74Zm-3.06-7.3h-.06a3,3,0,0,0-2.24-1,4.26,4.26,0,0,0,0,8.51,2.9,2.9,0,0,0,2.24-1h.06v.61c0,1.63-.87,2.5-2.27,2.5a2.35,2.35,0,0,1-2.14-1.51L75.64,35a4.05,4.05,0,0,0,3.77,2.51c2.19,0,4-1.29,4-4.43V25.49H81.68Zm-2.14,5.88a2.59,2.59,0,0,1,0-5.16,2.4,2.4,0,0,1,2.27,2.59A2.38,2.38,0,0,1,79.54,32.06ZM103.92,21H99.45v12.5h1.87V28.74h2.61a3.89,3.89,0,1,0,0-7.76Zm0,6h-2.65V22.72H104A2.14,2.14,0,1,1,104,27Zm11.53-1.8a3.5,3.5,0,0,0-3.33,1.91l1.66.69a1.77,1.77,0,0,1,1.7-.92,1.8,1.8,0,0,1,2,1.61v.13a4.13,4.13,0,0,0-1.95-.48c-1.79,0-3.6,1-3.6,2.81a2.89,2.89,0,0,0,3.1,2.75,2.63,2.63,0,0,0,2.38-1.22h.06v1h1.8V28.67C119.3,26.45,117.64,25.21,115.5,25.21Zm-.23,6.85c-.61,0-1.46-.31-1.46-1.06,0-1,1.06-1.33,2-1.33a3.32,3.32,0,0,1,1.7.42A2.26,2.26,0,0,1,115.27,32.06Zm10.58-6.58-2.14,5.42h-.06l-2.22-5.42h-2l3.33,7.58-1.9,4.21h1.95l5.13-11.79Zm-16.81,8h1.87V21h-1.87Z" style="fill:#fff"/><path d="M12.55,11a2,2,0,0,0-.46,1.4V34.54a2,2,0,0,0,.46,1.4l.07.07L25,23.63v-.29L12.62,10.95Z" style="fill:url(#9e8933d4-7545-4685-97af-de84ba100ecb)"/><path d="M29.14,27.76,25,23.63v-.29l4.13-4.13.09.05L34.13,22c1.4.79,1.4,2.09,0,2.89l-4.89,2.78Z" style="fill:url(#a29328d2-709d-4283-8484-8b11a898efa8)"/><path d="M29.24,27.71,25,23.48,12.55,35.94a1.63,1.63,0,0,0,2.08.06l14.61-8.3" style="fill:url(#186e4a5e-a8d2-4247-8d17-d8089552d697)"/><path d="M29.24,19.26,14.63,11a1.63,1.63,0,0,0-2.08.06L25,23.48Z" style="fill:url(#619916cf-f9a2-4e95-87f0-f38312714c2f)"/><path d="M29.14,27.61,14.63,35.86a1.67,1.67,0,0,1-2,0h0l-.07.07h0l.07.07h0a1.66,1.66,0,0,0,2,0l14.61-8.3Z" style="opacity:0.2;isolation:isolate"/><path d="M12.55,35.8a2,2,0,0,1-.46-1.4v.15a2,2,0,0,0,.46,1.4l.07-.07Z" style="opacity:0.12;isolation:isolate"/><path d="M34.13,24.78l-5,2.83.09.09,4.89-2.78a1.75,1.75,0,0,0,1-1.44h0A1.86,1.86,0,0,1,34.13,24.78Z" style="opacity:0.12;isolation:isolate"/><path d="M14.63,11.1l19.5,11.08a1.86,1.86,0,0,1,1,1.3h0a1.75,1.75,0,0,0-1-1.44L14.63,11c-1.4-.79-2.54-.13-2.54,1.47v.15C12.09,11,13.23,10.31,14.63,11.1Z" style="fill:#fff;opacity:0.25;isolation:isolate"/></svg>