<svg id="e44c4a15-e282-47cb-aade-909caa092341" data-name="Layer 1" xmlns="http://www.w3.org/2000/svg" viewBox="0 0 37 37"><title>4Artboard 1</title><path d="M18.5,1A17.5,17.5,0,1,1,1,18.5,17.52,17.52,0,0,1,18.5,1m0-1A18.5,18.5,0,1,0,37,18.5,18.5,18.5,0,0,0,18.5,0Z" style="fill:#898fb0"/><path d="M18.5,14.74a3.75,3.75,0,0,0-3.76,3.76,3.75,3.75,0,0,0,3.76,3.76,3.75,3.75,0,0,0,3.76-3.76,3.75,3.75,0,0,0-3.76-3.76Zm1.73,5.49a2.44,2.44,0,1,1,.72-1.73A2.35,2.35,0,0,1,20.23,20.23Z" style="fill:#58637e"/><path d="M22.42,13.71A.88.88,0,1,0,23,14,.85.85,0,0,0,22.42,13.71Z" style="fill:#58637e"/><path d="M25.79,15.47A4.48,4.48,0,0,0,24.6,12.4a4.48,4.48,0,0,0-3.08-1.18q-.84,0-3,0t-3,0A4.48,4.48,0,0,0,12.4,12.4a4.48,4.48,0,0,0-1.18,3.07q0,.84,0,3t0,3A4.48,4.48,0,0,0,12.4,24.6a4.49,4.49,0,0,0,3.08,1.18q.84,0,3,0t3,0A4.48,4.48,0,0,0,24.6,24.6a4.48,4.48,0,0,0,1.18-3.07q0-.84,0-3T25.79,15.47Zm-1.27,3.76q0,.66,0,1c0,.23,0,.54,0,.92a7.65,7.65,0,0,1-.1,1,3.81,3.81,0,0,1-.18.68,2.5,2.5,0,0,1-1.39,1.39,3.81,3.81,0,0,1-.68.18,7.5,7.5,0,0,1-1,.1l-.92,0H16.76l-.92,0a7.5,7.5,0,0,1-1-.1,3.81,3.81,0,0,1-.68-.18,2.5,2.5,0,0,1-1.39-1.39,3.81,3.81,0,0,1-.18-.68,7.48,7.48,0,0,1-.1-1c0-.38,0-.69,0-.92s0-.57,0-1,0-.69,0-.73,0-.29,0-.73,0-.78,0-1,0-.54,0-.92a7.5,7.5,0,0,1,.1-1,3.81,3.81,0,0,1,.18-.68,2.5,2.5,0,0,1,1.39-1.39,3.81,3.81,0,0,1,.68-.18,7.58,7.58,0,0,1,1-.1l.92,0h3.48l.92,0a7.58,7.58,0,0,1,1,.1,3.81,3.81,0,0,1,.68.18,2.5,2.5,0,0,1,1.39,1.39,3.81,3.81,0,0,1,.18.68,7.67,7.67,0,0,1,.1,1q0,.58,0,.92t0,1q0,.66,0,.73S24.52,18.79,24.52,19.23Z" style="fill:#58637e"/></svg>