<svg id="9e744ef7-79a6-4258-9eb1-bdc9d1fa9230" data-name="Layer 1" xmlns="http://www.w3.org/2000/svg" xmlns:xlink="http://www.w3.org/1999/xlink" viewBox="0 0 95 120"><defs><linearGradient id="b0b184b5-1959-4c99-9d20-5f4a07ddfa0f" x1="47.5" y1="108" x2="47.5" y2="13" gradientUnits="userSpaceOnUse"><stop offset="0" stop-color="#ff9f74"/><stop offset="1" stop-color="#ff6a75"/></linearGradient><linearGradient id="61b22cb2-d2da-41eb-9f46-c7698df7e5d7" x1="47.5" y1="51" x2="47.5" y2="2.5" xlink:href="#b0b184b5-1959-4c99-9d20-5f4a07ddfa0f"/><linearGradient id="821c17e6-1c13-4f26-bae6-50b29e0fda57" x1="47.5" y1="117" x2="47.5" y2="45" gradientUnits="userSpaceOnUse"><stop offset="0" stop-color="#ffcdb7"/><stop offset="0.19" stop-color="#ffdbcc"/><stop offset="0.51" stop-color="#ffefe8"/><stop offset="0.79" stop-color="#fffbf9"/><stop offset="1" stop-color="#fff"/></linearGradient><linearGradient id="3e536d73-3c91-4d1c-93e8-97f8d3f9cd41" x1="47.5" y1="59" x2="47.5" y2="24" gradientUnits="userSpaceOnUse"><stop offset="0" stop-color="#ff7d38"/><stop offset="1" stop-color="#ff6a48"/></linearGradient><linearGradient id="ad64a073-503e-45e9-b0d8-16163b4fbcde" x1="30" y1="74" x2="30" y2="70" xlink:href="#3e536d73-3c91-4d1c-93e8-97f8d3f9cd41"/><linearGradient id="a88b7e2f-680d-4366-bd7d-bc03617b22f2" x1="52" y1="73" x2="52" y2="71" xlink:href="#3e536d73-3c91-4d1c-93e8-97f8d3f9cd41"/><linearGradient id="bd3567d7-a683-4476-97a8-2c5ba9aabff7" x1="30" y1="86" x2="30" y2="82" xlink:href="#3e536d73-3c91-4d1c-93e8-97f8d3f9cd41"/><linearGradient id="ff9af4f9-cb02-40e5-bc39-5ee24b9c54e5" x1="52" y1="85" x2="52" y2="83" xlink:href="#3e536d73-3c91-4d1c-93e8-97f8d3f9cd41"/><linearGradient id="60413c04-7eeb-4467-98c5-9ed9e0c36d3b" x1="30" y1="98" x2="30" y2="94" xlink:href="#3e536d73-3c91-4d1c-93e8-97f8d3f9cd41"/><linearGradient id="f6d9006c-f991-49ee-9b9e-c8465a50f501" x1="52" y1="97" x2="52" y2="95" xlink:href="#3e536d73-3c91-4d1c-93e8-97f8d3f9cd41"/></defs><title>4Artboard 1</title><circle cx="47.5" cy="60.5" r="47.5" style="fill:url(#b0b184b5-1959-4c99-9d20-5f4a07ddfa0f)"/><rect x="21" y="2.5" width="53" height="48.5" rx="5" ry="5" style="fill:url(#61b22cb2-d2da-41eb-9f46-c7698df7e5d7)"/><rect x="21" y="45" width="53" height="72" rx="5" ry="5" style="fill:url(#821c17e6-1c13-4f26-bae6-50b29e0fda57)"/><path d="M76.58,60q0,25.78,0,51.56a8.1,8.1,0,0,1-8.32,8.4q-20.74,0-41.48,0a8.1,8.1,0,0,1-8.35-8.49q0-43.35,0-86.71c0-5.39,0-10.78,0-16.17C18.44,3.45,21.88,0,27,0H67.93c5.17,0,8.63,3.39,8.64,8.56Q76.6,34.29,76.58,60Zm-3,0q0-3.18,0-6.35,0-22.17,0-44.34a5.49,5.49,0,0,0-5.8-5.89c-1.5,0-3,0-4.49,0a1.16,1.16,0,0,0-1.33.95c-.68,2.37-2.07,3.54-4.48,3.56q-10,.08-19.9,0A4.28,4.28,0,0,1,33.1,4.43a1.2,1.2,0,0,0-1.37-1c-1.46,0-2.91,0-4.37,0a5.52,5.52,0,0,0-5.9,5.92q0,50.46,0,100.93c0,4.17,2.16,6.32,6.32,6.32H67.35c3.94,0,6.19-2.24,6.19-6.23Q73.55,85.16,73.55,60Z" style="fill:#fff"/><path d="M47.5,59A17.5,17.5,0,1,1,65,41.5,17.5,17.5,0,0,1,47.5,59Z" style="fill:url(#3e536d73-3c91-4d1c-93e8-97f8d3f9cd41)"/><path d="M47,39.86a2.31,2.31,0,0,0-1.21-.73c-4.15-.51-4.21,5.79-.62,5.88A2.31,2.31,0,0,0,47,44v.83h1.39V39.24c-.61,0-1.21.13-1.39.61Zm5.41,3.3-.93-2.95a1.27,1.27,0,0,0-1.3-.93h-.73l2.12,5.55h1.67l2.12-5.55h-.73a1.27,1.27,0,0,0-1.3.93l-.93,2.95ZM41.22,40.84c-1.22-.59-2.17-.6-2.4-.29-.62.81,3.1.9,2.88,2.8s-2.22,1.79-3.54,1.54c-.72-.1-.94-.81-.75-1.73,1.29.67,2.37.59,2.63.3.7-.76-1.92-.78-2.59-1.86-1.09-1.74,1.49-3.2,3.45-2.3.38.17.52.66.34,1.54ZM56.37,37v7.83h1.46V37.68c0-.36-.54-.68-.84-.68ZM47,41.31v1.45a1.53,1.53,0,1,1,0-1.45Z" style="fill:#fff;fill-rule:evenodd"/><path d="M30,74a2,2,0,1,1,2-2A2,2,0,0,1,30,74Z" style="fill:url(#ad64a073-503e-45e9-b0d8-16163b4fbcde)"/><rect x="37" y="71" width="30" height="2" rx="1" ry="1" style="fill:url(#a88b7e2f-680d-4366-bd7d-bc03617b22f2)"/><path d="M30,86a2,2,0,1,1,2-2A2,2,0,0,1,30,86Z" style="fill:url(#bd3567d7-a683-4476-97a8-2c5ba9aabff7)"/><rect x="37" y="83" width="30" height="2" rx="1" ry="1" style="fill:url(#ff9af4f9-cb02-40e5-bc39-5ee24b9c54e5)"/><path d="M30,98a2,2,0,1,1,2-2A2,2,0,0,1,30,98Z" style="fill:url(#60413c04-7eeb-4467-98c5-9ed9e0c36d3b)"/><rect x="37" y="95" width="30" height="2" rx="1" ry="1" style="fill:url(#f6d9006c-f991-49ee-9b9e-c8465a50f501)"/></svg>