<svg id="24de16e4-8a03-480d-beb4-7a0a140a6985" data-name="Layer 1" xmlns="http://www.w3.org/2000/svg" xmlns:xlink="http://www.w3.org/1999/xlink" viewBox="0 0 95 120"><defs><linearGradient id="84c9d7c1-45f9-4f96-92b8-8bcce615d8b5" x1="47.5" y1="108" x2="47.5" y2="13" gradientUnits="userSpaceOnUse"><stop offset="0" stop-color="#c64df9"/><stop offset="1" stop-color="#525ffc"/></linearGradient><linearGradient id="110bc163-1a18-4085-ac38-14a0609969f5" x1="47.5" y1="117.5" x2="47.5" y2="2.5" xlink:href="#84c9d7c1-45f9-4f96-92b8-8bcce615d8b5"/></defs><title>4Artboard 1</title><circle cx="47.5" cy="60.5" r="47.5" style="fill:url(#84c9d7c1-45f9-4f96-92b8-8bcce615d8b5)"/><rect x="21" y="2.5" width="53" height="115" rx="5" ry="5" style="fill:url(#110bc163-1a18-4085-ac38-14a0609969f5)"/><path d="M76.58,60q0,25.78,0,51.56a8.1,8.1,0,0,1-8.32,8.4q-20.74,0-41.48,0a8.1,8.1,0,0,1-8.35-8.49q0-43.35,0-86.71c0-5.39,0-10.78,0-16.17C18.44,3.45,21.88,0,27,0H67.93c5.17,0,8.63,3.39,8.64,8.56Q76.6,34.29,76.58,60Zm-3,0q0-3.18,0-6.35,0-22.17,0-44.34a5.49,5.49,0,0,0-5.8-5.89c-1.5,0-3,0-4.49,0a1.16,1.16,0,0,0-1.33.95c-.68,2.37-2.07,3.54-4.48,3.56q-10,.08-19.9,0A4.28,4.28,0,0,1,33.1,4.43a1.2,1.2,0,0,0-1.37-1c-1.46,0-2.91,0-4.37,0a5.52,5.52,0,0,0-5.9,5.92q0,50.46,0,100.93c0,4.17,2.16,6.32,6.32,6.32H67.35c3.94,0,6.19-2.24,6.19-6.23Q73.55,85.16,73.55,60Z" style="fill:#fff"/><path d="M55.65,49.18a8.35,8.35,0,1,0-16.3,0A8.35,8.35,0,1,0,47.5,63.36a8.35,8.35,0,1,0,8.15-14.18Z" style="fill:#3364ae;fill-rule:evenodd"/><path d="M42,48.76a8.32,8.32,0,0,1,5.55,2.11,8.37,8.37,0,0,1,8.15-1.69,8.35,8.35,0,1,0-16.3,0A8.34,8.34,0,0,1,42,48.76Z" style="fill:#3364ae;fill-rule:evenodd"/><path d="M47.5,50.87a8.37,8.37,0,0,0-8.15-1.69,8.37,8.37,0,0,0,5.55,6.11A8.35,8.35,0,0,1,47.5,50.87Z" style="fill:#78298a;fill-rule:evenodd"/><path d="M44.89,55.29a8.37,8.37,0,0,1-5.55-6.11A8.35,8.35,0,1,0,47.5,63.36a8.37,8.37,0,0,1-2.61-8.07Z" style="fill:#d91918;fill-rule:evenodd"/><path d="M44.89,55.29a8.37,8.37,0,0,0,2.61,8.07,8.37,8.37,0,0,0,2.61-8.07,8.4,8.4,0,0,1-5.21,0Z" style="fill:#e95506;fill-rule:evenodd"/><path d="M50.31,57.11a8.33,8.33,0,0,1-2.81,6.25,8.35,8.35,0,1,0,8.15-14.18,8.37,8.37,0,0,1-5.55,6.11A8.38,8.38,0,0,1,50.31,57.11Z" style="fill:#f39d00;fill-rule:evenodd"/><path d="M50.11,55.29a8.37,8.37,0,0,0,5.55-6.11,8.37,8.37,0,0,0-8.15,1.69A8.35,8.35,0,0,1,50.11,55.29Z" style="fill:#23923b;fill-rule:evenodd"/><path d="M50.11,55.29a8.35,8.35,0,0,0-2.61-4.42,8.35,8.35,0,0,0-2.61,4.42,8.4,8.4,0,0,0,5.21,0Z" style="fill:#191b1f;fill-rule:evenodd"/><path d="M46.81,70a3.15,3.15,0,0,0-1.66-1c-5.66-.69-5.74,7.91-.85,8a3.15,3.15,0,0,0,2.5-1.36v1.13H48.7V69.14c-.83,0-1.65.17-1.89.84Zm7.37,4.5-1.27-4a1.73,1.73,0,0,0-1.78-1.27h-1L53,76.77h2.28l2.9-7.58h-1a1.73,1.73,0,0,0-1.78,1.27l-1.27,4ZM38.93,71.32c-1.66-.8-3-.82-3.28-.4-.85,1.1,4.23,1.22,3.93,3.82-.28,2.4-3,2.44-4.83,2.1-1-.13-1.29-1.11-1-2.35,1.76.91,3.23.8,3.59.41,1-1-2.62-1.07-3.54-2.54-1.48-2.38,2-4.37,4.7-3.14.52.24.7.89.46,2.1ZM59.6,66.09V76.77h2V67c0-.49-.73-.93-1.14-.93ZM46.81,72v2c-1.52,2-3.92.94-3.92-1S45.33,70,46.81,72Z" style="fill:#fff;fill-rule:evenodd"/></svg>