<svg id="405d1272-a88e-4cb5-b594-d03bd7c567ec" data-name="artwork" xmlns="http://www.w3.org/2000/svg" xmlns:xlink="http://www.w3.org/1999/xlink" viewBox="0 0 80 80"><defs><linearGradient id="1e55b65c-7f2b-44d4-ad01-25771b922eb5" x1="11.73" y1="68.27" x2="68.27" y2="11.73" gradientUnits="userSpaceOnUse"><stop offset="0" stop-color="#c64df9"/><stop offset="1" stop-color="#525ffc"/></linearGradient><linearGradient id="43185acd-d18c-4ef4-aa4a-7dd18c7f647a" x1="29.08" y1="58.05" x2="50.92" y2="36.21" xlink:href="#1e55b65c-7f2b-44d4-ad01-25771b922eb5"/><linearGradient id="ec8df9a1-315f-4b1e-ad96-1d681e226517" x1="35.2" y1="31.21" x2="44.8" y2="21.61" xlink:href="#1e55b65c-7f2b-44d4-ad01-25771b922eb5"/></defs><title>4Artboard 4</title><path d="M40,80A40,40,0,1,1,80,40,40,40,0,0,1,40,80ZM40,1A39,39,0,1,0,79,40,39.06,39.06,0,0,0,40,1Z" style="fill:url(#1e55b65c-7f2b-44d4-ad01-25771b922eb5)"/><path d="M46.66,32H33.34S24,40,24,49.32c0,5.33,4,8,6.66,8H49.32c2.66,0,6.66-2.66,6.66-8C56,40,46.66,32,46.66,32ZM41.33,50.52v2.13H38.67V50.52c-2-.37-3.19-1.57-3.26-3.33h2.31c.11.92,1,1.52,2.39,1.52s2.12-.6,2.12-1.46-.57-1.15-2-1.45l-1.48-.32c-2.08-.43-3.1-1.52-3.1-3.25a3.45,3.45,0,0,1,3-3.41V36.67h2.66v2.15a3.55,3.55,0,0,1,3.06,3.28H42.15A1.9,1.9,0,0,0,40,40.6c-1.19,0-2,.55-2,1.42,0,.7.54,1.11,1.88,1.39l1.37.29c2.29.48,3.28,1.47,3.28,3.24S43.37,50.13,41.33,50.52Z" style="fill:url(#43185acd-d18c-4ef4-aa4a-7dd18c7f647a)"/><path d="M33.34,29.35H46.66l1.23-3.5A1.33,1.33,0,0,0,46.66,24H43A4,4,0,0,0,37,24h-3.7a1.33,1.33,0,0,0-1.24,1.83Z" style="fill:url(#ec8df9a1-315f-4b1e-ad96-1d681e226517)"/></svg>