<svg id="5139d98f-3363-4aa0-8200-ed7bb922b809" data-name="Layer 1" xmlns="http://www.w3.org/2000/svg" xmlns:xlink="http://www.w3.org/1999/xlink" viewBox="0 0 25 25"><defs><linearGradient id="a7711a3c-4d18-43da-9bfd-0fb3a246a0a4" x1="18.75" y1="1.67" x2="6.25" y2="23.33" gradientUnits="userSpaceOnUse"><stop offset="0" stop-color="#525ffc"/><stop offset="1" stop-color="#c64df9"/></linearGradient></defs><title>4Artboard 1</title><circle cx="12.5" cy="12.5" r="12.5" style="fill:url(#a7711a3c-4d18-43da-9bfd-0fb3a246a0a4)"/><path d="M22.57,10.47l-.06-.08-.16-.18L18.17,6a.46.46,0,0,0-.53-.15.48.48,0,0,0-.26.48q0,.71,0,1.43,0,.4,0,.79s0,0,0,.06v1H13.66v.84h4.58V7.37l3.25,3.25-3.25,3.25q0-.33,0-.65v-.6c0-.39-.16-.55-.55-.55H7.63v-.45c0-.51,0-1,0-1.48a.49.49,0,0,0-.26-.52.47.47,0,0,0-.56.17L5.28,11.32,2.64,14l-.16.18-.06.08,0,0v.24l0,0,.05.07.13.15,2.67,2.67L6.83,19a.52.52,0,0,0,.36.19.41.41,0,0,0,.15,0,.47.47,0,0,0,.29-.49q0-.7,0-1.4,0-.3,0-.6V15.41h3.72v-.84H6.76v3.05L3.51,14.38l3.26-3.26v.15c0,.36,0,.73,0,1.1s.15.55.55.55H17.37v.7c0,.43,0,.87,0,1.31a.51.51,0,0,0,.2.41.37.37,0,0,0,.34,0,.71.71,0,0,0,.27-.18L22.4,11l.13-.15.05-.07,0,0v-.24Z" style="fill:#fff"/></svg>