<svg id="9c6286cd-b58e-4e6f-b302-13b3edf8f081" data-name="artwork" xmlns="http://www.w3.org/2000/svg" xmlns:xlink="http://www.w3.org/1999/xlink" viewBox="0 0 80 80"><defs><linearGradient id="ccab3d89-8276-417b-a3ce-65f31d3e4e68" x1="11.73" y1="68.27" x2="68.27" y2="11.73" gradientUnits="userSpaceOnUse"><stop offset="0" stop-color="#ff9f74"/><stop offset="1" stop-color="#ff6a75"/></linearGradient><linearGradient id="021f737b-195b-4c87-9c94-4a9dc51142ea" x1="27.91" y1="52" x2="52" y2="27.91" xlink:href="#ccab3d89-8276-417b-a3ce-65f31d3e4e68"/><linearGradient id="1b1f7cf5-71a5-4f49-ac5b-c5cfb98040ee" x1="27.53" y1="36.06" x2="36.06" y2="27.53" xlink:href="#ccab3d89-8276-417b-a3ce-65f31d3e4e68"/><linearGradient id="693460d5-b817-491a-ab99-3dff1686fa2a" x1="43.94" y1="52.47" x2="52.47" y2="43.94" xlink:href="#ccab3d89-8276-417b-a3ce-65f31d3e4e68"/></defs><title>4Artboard 4</title><path d="M40,80A40,40,0,1,1,80,40,40,40,0,0,1,40,80ZM40,1A39,39,0,1,0,79,40,39.06,39.06,0,0,0,40,1Z" style="fill:url(#ccab3d89-8276-417b-a3ce-65f31d3e4e68)"/><path d="M52,27.91a2.24,2.24,0,0,0-3.17,0L27.91,48.83A2.24,2.24,0,1,0,31.08,52L52,31.08A2.24,2.24,0,0,0,52,27.91Z" style="fill:url(#021f737b-195b-4c87-9c94-4a9dc51142ea)"/><path d="M31.79,37.83a6,6,0,1,0-6-6A6,6,0,0,0,31.79,37.83Zm0-9.08a3,3,0,1,1-3,3A3.05,3.05,0,0,1,31.79,28.75Z" style="fill:url(#1b1f7cf5-71a5-4f49-ac5b-c5cfb98040ee)"/><path d="M48.21,42.17a6,6,0,1,0,6,6A6,6,0,0,0,48.21,42.17Zm0,9.08a3,3,0,1,1,3-3A3.05,3.05,0,0,1,48.21,51.25Z" style="fill:url(#693460d5-b817-491a-ab99-3dff1686fa2a)"/></svg>