<svg id="75a9b22b-8f95-41d0-9eba-b01d17a318a5" data-name="Layer 1" xmlns="http://www.w3.org/2000/svg" xmlns:xlink="http://www.w3.org/1999/xlink" viewBox="0 0 25 25"><defs><linearGradient id="a9f5866d-a90c-4eef-b9e3-bddb0329f887" x1="18.75" y1="1.67" x2="6.25" y2="23.33" gradientUnits="userSpaceOnUse"><stop offset="0" stop-color="#ff6a75"/><stop offset="1" stop-color="#ff9f74"/></linearGradient></defs><title>4Artboard 1</title><circle cx="12.5" cy="12.5" r="12.5" style="fill:url(#a9f5866d-a90c-4eef-b9e3-bddb0329f887)"/><path d="M18.6,6.43h-.11a8.24,8.24,0,0,1-5.7-1.37.51.51,0,0,0-.57,0A8.24,8.24,0,0,1,6.49,6.44H6.24l-.05,0,0,0-.05,0,0,0h0l0,0,0,0H6l0,0,0,0,0,0v.11a.22.22,0,0,0,0,0,.24.24,0,0,0,0,0v5.74a8.42,8.42,0,0,0,5.77,8l.67.22.16,0,.16,0,.67-.22a8.42,8.42,0,0,0,5.77-8V6.94A.5.5,0,0,0,18.6,6.43Zm-.5,1.06v5.18a7.42,7.42,0,0,1-5.08,7l-.51.17L12,19.72a7.41,7.41,0,0,1-5.08-7V7.49l.66,0A9.23,9.23,0,0,0,12.5,6.09,9.3,9.3,0,0,0,18.09,7.49Z" style="fill:#fff"/><path d="M14.54,11.36A2,2,0,1,0,11.25,13l-.18,2.34a.5.5,0,0,0,.5.54h1.87a.5.5,0,0,0,.5-.54L13.75,13A2,2,0,0,0,14.54,11.36Zm-1.82,1.4.16,2.09h-.78l.16-2.09a.5.5,0,0,0-.26-.48,1,1,0,1,1,1,0A.5.5,0,0,0,12.73,12.76Z" style="fill:#fff"/></svg>