<svg id="9590be5a-030f-4bd3-9348-2be524fb0a11" data-name="Layer 1" xmlns="http://www.w3.org/2000/svg" viewBox="0 0 97.99 34"><title>4Artboard 2</title><path d="M28.32,13.07a10.73,10.73,0,1,0-20.94,0A10.73,10.73,0,1,0,17.85,31.29,10.73,10.73,0,1,0,28.32,13.07Z" style="fill:#3365af;fill-rule:evenodd"/><path d="M10.73,12.54a10.69,10.69,0,0,1,7.12,2.71,10.75,10.75,0,0,1,10.47-2.17,10.73,10.73,0,1,0-20.94,0A10.72,10.72,0,0,1,10.73,12.54Z" style="fill:#3365af;fill-rule:evenodd"/><path d="M17.85,15.24A10.75,10.75,0,0,0,7.38,13.07a10.75,10.75,0,0,0,7.12,7.85A10.72,10.72,0,0,1,17.85,15.24Z" style="fill:#792a8b;fill-rule:evenodd"/><path d="M14.5,20.92a10.75,10.75,0,0,1-7.12-7.85A10.73,10.73,0,1,0,17.85,31.29,10.75,10.75,0,0,1,14.5,20.92Z" style="fill:#da1918;fill-rule:evenodd"/><path d="M14.5,20.92a10.75,10.75,0,0,0,3.35,10.37A10.75,10.75,0,0,0,21.2,20.92a10.79,10.79,0,0,1-6.7,0Z" style="fill:#ea5506;fill-rule:evenodd"/><path d="M21.46,23.27a10.7,10.7,0,0,1-3.61,8A10.73,10.73,0,1,0,28.32,13.07a10.75,10.75,0,0,1-7.12,7.85A10.77,10.77,0,0,1,21.46,23.27Z" style="fill:#f49e00;fill-rule:evenodd"/><path d="M21.2,20.92a10.75,10.75,0,0,0,7.12-7.85,10.75,10.75,0,0,0-10.47,2.17A10.72,10.72,0,0,1,21.2,20.92Z" style="fill:#25933a;fill-rule:evenodd"/><path d="M21.2,20.92a10.72,10.72,0,0,0-3.35-5.68,10.72,10.72,0,0,0-3.35,5.68,10.79,10.79,0,0,0,6.7,0Z" style="fill:#1a1b1f;fill-rule:evenodd"/><path d="M72.54,12.56a5.42,5.42,0,0,0-2.85-1.72c-9.75-1.19-9.88,13.61-1.46,13.81a5.42,5.42,0,0,0,4.31-2.34v1.94H75.8V11.11c-1.43,0-2.83.3-3.26,1.44Zm12.7,7.74-2.18-6.92A3,3,0,0,0,80,11.19H78.29l5,13H87.2l5-13H90.48a3,3,0,0,0-3.06,2.19L85.24,20.3ZM59,14.86c-2.85-1.38-5.09-1.41-5.65-.68-1.46,1.89,7.29,2.11,6.76,6.58-.49,4.13-5.2,4.2-8.32,3.62-1.69-.22-2.21-1.91-1.76-4.05,3,1.57,5.56,1.38,6.18.7,1.66-1.79-4.51-1.84-6.09-4.38-2.55-4.09,3.49-7.53,8.1-5.4.89.41,1.21,1.54.79,3.61Zm35.6-9V24.24H98V7.45c0-.84-1.26-1.61-2-1.61ZM72.54,16v3.41c-2.61,3.46-6.76,1.61-6.76-1.74S70,12.56,72.54,16Z" style="fill:#1a1b1f;fill-rule:evenodd"/></svg>