<svg id="edddff40-3fa3-45a7-91a2-32ac27dd7832" data-name="Layer 1" xmlns="http://www.w3.org/2000/svg" viewBox="0 0 392.54 452.34"><title>4Artboard 2</title><path d="M392.42,347.49a11.35,11.35,0,0,1-3.14,7.25Q344,399.6,298.34,444.09a11,11,0,0,1-6.83,3c-45,.18-90,.13-135,.12h0a4,4,0,0,1-4-4V423.09a4.12,4.12,0,0,1,4.12-4.11H264.55V329.29a14.21,14.21,0,0,1,14.21-14.21h85.16V55A27.07,27.07,0,0,0,336.85,28H112.27A27.07,27.07,0,0,0,85.2,55V333.59a14,14,0,0,1-14,14h0a14,14,0,0,1-14-14V15.22A15.22,15.22,0,0,1,72.33,0H374.68a17.87,17.87,0,0,1,17.87,17.87Zm-99.25,62.34,67.39-66.17H293.17Z" style="fill:#fff"/><path d="M67.6,419.18c7.51-7.6,13.67-13.91,19.9-20.15,21.07-21.1,42.06-42.29,63.39-63.14a21.81,21.81,0,0,1,11.23-5.35c5.56-.89,10,2.37,12.51,7.36a13.5,13.5,0,0,1-1.13,14.65,29.15,29.15,0,0,1-3.38,3.67Q125.26,401.12,80.36,446c-8.41,8.41-15.76,8.45-24.07.16Q30.48,420.36,4.7,394.54c-4.23-4.24-5.87-9.23-3.83-15.05a13.36,13.36,0,0,1,11.8-9.39c5-.59,9,1.49,12.47,5,12.67,12.78,25.45,25.44,38.12,38.22C64.78,414.85,65.86,416.79,67.6,419.18Z" style="fill:#fff"/><rect x="144.68" y="149.21" width="166.08" height="28.2" rx="14.1" ry="14.1" transform="translate(-48.78 208.86) rotate(-45)" style="fill:#fff"/><path d="M172.56,64.45a44.1,44.1,0,1,0,44.1,44.1A44.1,44.1,0,0,0,172.56,64.45Zm0,64.05a20,20,0,1,1,20-20A20,20,0,0,1,172.56,128.5Z" style="fill:#fff"/><path d="M281.84,173.72a44.1,44.1,0,1,0,44.1,44.1A44.1,44.1,0,0,0,281.84,173.72Zm0,64.05a20,20,0,1,1,20-20A20,20,0,0,1,281.84,237.78Z" style="fill:#fff"/></svg>