<svg id="018f8882-2ba9-431b-bedd-9df8ea9fa99c" data-name="Layer 1" xmlns="http://www.w3.org/2000/svg" xmlns:xlink="http://www.w3.org/1999/xlink" viewBox="0 0 25 25"><defs><linearGradient id="ba0e0d11-6aaa-4a8c-a863-1ed169646364" x1="18.75" y1="1.67" x2="6.25" y2="23.33" gradientUnits="userSpaceOnUse"><stop offset="0" stop-color="#3fcf65"/><stop offset="1" stop-color="#25c89c"/></linearGradient></defs><title>4Artboard 1</title><circle cx="12.5" cy="12.5" r="12.5" style="fill:url(#ba0e0d11-6aaa-4a8c-a863-1ed169646364)"/><path d="M18.9,5.87l.74,5.18-5.17-.74,1.67-1.63a5.09,5.09,0,0,0-4.76-1.43C8.46,7.91,7.11,9.89,7,12.86c-.34,0-.69-.09-1-.15-.51-.09-.51-.1-.49-.62a6.89,6.89,0,0,1,5.3-6.34,6.81,6.81,0,0,1,6.27,1.63c.15.13.23.14.36,0C17.89,6.88,18.38,6.4,18.9,5.87Z" style="fill:#fff"/><path d="M6.1,19.32l-.74-5.19,5.12.73L8.85,16.49a5.14,5.14,0,0,0,4.9,1.15c2.62-.76,3.87-2.64,4-5.35l1,.11c.6.06.61.06.55.66a6.66,6.66,0,0,1-3.83,5.62A6.67,6.67,0,0,1,8,17.82c-.19-.14-.28-.13-.43,0C7.1,18.33,6.62,18.8,6.1,19.32Z" style="fill:#fff"/></svg>