<svg id="5c482a81-3f6f-4535-bcd6-6f8dcd977bac" data-name="Layer 1" xmlns="http://www.w3.org/2000/svg" viewBox="0 0 37 37"><title>4Artboard 1</title><path d="M18.5,1A17.5,17.5,0,1,1,1,18.5,17.52,17.52,0,0,1,18.5,1m0-1A18.5,18.5,0,1,0,37,18.5,18.5,18.5,0,0,0,18.5,0Z" style="fill:#898fb0"/><path d="M27.24,14.72q.21.58-1.37,2.68l-.59.78-.5.66a4.43,4.43,0,0,0-.28.45.6.6,0,0,0-.11.38,2.07,2.07,0,0,0,.12.31,1.31,1.31,0,0,0,.3.39l.52.48,0,0a9.07,9.07,0,0,1,1.74,2l.06.11a1.2,1.2,0,0,1,.06.24.7.7,0,0,1,0,.31.45.45,0,0,1-.23.25,1.06,1.06,0,0,1-.54.11l-2.34,0a1,1,0,0,1-.51,0,2.2,2.2,0,0,1-.47-.2L23,23.63a4.25,4.25,0,0,1-.64-.58q-.37-.39-.63-.71a3,3,0,0,0-.56-.53.58.58,0,0,0-.52-.14l-.07,0a.77.77,0,0,0-.16.13,1.16,1.16,0,0,0-.2.27,1.88,1.88,0,0,0-.15.47,3,3,0,0,0-.06.71.92.92,0,0,1,0,.25.62.62,0,0,1-.07.17l0,0a.73.73,0,0,1-.48.2h-1A4.17,4.17,0,0,1,17,23.8a5.15,5.15,0,0,1-1.2-.48,10.86,10.86,0,0,1-.94-.6,5.4,5.4,0,0,1-.64-.52L14,22l-.25-.27q-.16-.18-.65-.83t-1-1.38q-.47-.73-1.12-1.93T9.79,15.08a.73.73,0,0,1-.06-.25.29.29,0,0,1,0-.15l0-.05a.63.63,0,0,1,.52-.17l2.5,0,.21.06.15.08,0,0a.6.6,0,0,1,.22.29c.12.3.26.62.42.94s.28.57.37.74l.15.26q.26.55.51.95a4.71,4.71,0,0,0,.44.63,2.19,2.19,0,0,0,.38.35.58.58,0,0,0,.31.13.67.67,0,0,0,.25,0l0,0,.11-.2a1.52,1.52,0,0,0,.12-.43q0-.26.09-.74a7.22,7.22,0,0,0,0-1.14,4.42,4.42,0,0,0-.08-.67,1.79,1.79,0,0,0-.13-.42l-.06-.11a1.12,1.12,0,0,0-.78-.39c-.08,0-.06-.09,0-.22a1.08,1.08,0,0,1,.35-.27A6,6,0,0,1,18.17,14a6.07,6.07,0,0,1,1.23.12,1,1,0,0,1,.31.12.49.49,0,0,1,.19.22,1.42,1.42,0,0,1,.1.29,2.09,2.09,0,0,1,0,.42q0,.26,0,.5t0,.64q0,.41,0,.75,0,.1,0,.38c0,.19,0,.33,0,.44a3.68,3.68,0,0,0,0,.37,1,1,0,0,0,.11.36.6.6,0,0,0,.21.22l.15,0c.05,0,.13,0,.24-.1a3.3,3.3,0,0,0,.35-.31,4.78,4.78,0,0,0,.47-.61q.28-.42.62-1a14.85,14.85,0,0,0,1-2.05.63.63,0,0,1,.09-.16.41.41,0,0,1,.1-.1l0,0,0,0,.12,0h.18l2.63,0a1.43,1.43,0,0,1,.58,0,.53.53,0,0,1,.28.15Z" style="fill:#58637e"/></svg>