<svg xmlns="http://www.w3.org/2000/svg" xmlns:xlink="http://www.w3.org/1999/xlink" width="277.13" height="175" viewBox="0 0 277.13 175">
  <metadata><?xpacket begin="﻿" id="W5M0MpCehiHzreSzNTczkc9d"?>
<x:xmpmeta xmlns:x="adobe:ns:meta/" x:xmptk="Adobe XMP Core 5.6-c138 79.159824, 2016/09/14-01:09:01        ">
   <rdf:RDF xmlns:rdf="http://www.w3.org/1999/02/22-rdf-syntax-ns#">
      <rdf:Description rdf:about=""/>
   </rdf:RDF>
</x:xmpmeta>
                                                                                                    
                                                                                                    
                                                                                                    
                                                                                                    
                                                                                                    
                                                                                                    
                                                                                                    
                                                                                                    
                                                                                                    
                                                                                                    
                                                                                                    
                                                                                                    
                                                                                                    
                                                                                                    
                                                                                                    
                                                                                                    
                                                                                                    
                                                                                                    
                                                                                                    
                                                                                                    
                           
<?xpacket end="w"?></metadata>
<defs>
    <style>
      .cls-1, .cls-2, .cls-3, .cls-4 {
        fill-rule: evenodd;
      }

      .cls-1 {
        fill: url(#linear-gradient);
        filter: url(#filter);
      }

      .cls-2 {
        fill: url(#linear-gradient-2);
      }

      .cls-3 {
        fill: url(#linear-gradient-3);
      }

      .cls-4 {
        fill: #31c767;
      }
    </style>
    <linearGradient id="linear-gradient" x1="1351" y1="6981" x2="1479" y2="6853" gradientUnits="userSpaceOnUse">
      <stop offset="0" stop-color="#ff6a75"/>
      <stop offset="1" stop-color="#ff9f74"/>
    </linearGradient>
    <filter id="filter" x="1337" y="6830" width="157" height="175" filterUnits="userSpaceOnUse">
      <feGaussianBlur result="blur" stdDeviation="5" in="SourceAlpha"/>
      <feComposite result="composite"/>
      <feComposite result="composite-2"/>
      <feComposite result="composite-3"/>
      <feFlood result="flood" flood-color="#ff7474" flood-opacity="0.1"/>
      <feComposite result="composite-4" operator="in" in2="composite-3"/>
      <feBlend result="blend" in2="SourceGraphic"/>
      <feBlend result="blend-2" in="SourceGraphic"/>
    </filter>
    <linearGradient id="linear-gradient-2" x1="1422.472" y1="6934" x2="1435.528" y2="6920" gradientUnits="userSpaceOnUse">
      <stop offset="0" stop-color="#22c196"/>
      <stop offset="1" stop-color="#35c95b"/>
    </linearGradient>
    <linearGradient id="linear-gradient-3" x1="1422" y1="6950" x2="1436" y2="6936" xlink:href="#linear-gradient"/>
  </defs>
  <path class="cls-1" d="M1471.79,6956.76a64.381,64.381,0,0,1-40.06,31.08c-3.64.96-7.45,1.27-11.18,1.89-0.46.08-.92,0.18-1.38,0.27h-7.4c-2.61-.37-5.25-0.65-7.85-1.13a63.164,63.164,0,0,1-36.47-20.5,61.716,61.716,0,0,1-16.13-36.33c-2.08-22.8,5.78-41.79,23.07-56.69a62.754,62.754,0,0,1,34.04-14.77c0.19-.02.37-0.06,0.79-0.13v-3.64c-1.66,0-3.21.01-4.75,0a5.092,5.092,0,0,1-5.43-5.29,17.37,17.37,0,0,1,.19-3.54,4.8,4.8,0,0,1,4.75-3.95q11.52-.06,23.03,0a4.656,4.656,0,0,1,4.65,4.77c0.02,1.04.03,2.09,0,3.13a5.113,5.113,0,0,1-5.17,5.14c-1.61.04-3.21,0.01-4.92,0.01v3.5a92.832,92.832,0,0,1,9.25,1.81c4.11,1.23,8.12,2.81,12.13,4.36,1.06,0.41,1.55.31,2.16-.64,1.4-2.19,2.92-4.3,4.48-6.55,4.9,3.38,9.72,6.71,14.7,10.14-1.8,2.7-3.54,5.33-5.16,7.78,2.71,3.15,5.47,6.04,7.87,9.2a62.118,62.118,0,0,1,12,27.25l-10.3-.04a54.542,54.542,0,1,0-8.81,42.87h11.9Z" transform="translate(-1337 -6830)"/>
  <path class="cls-2" d="M1431.7,6927.86h13.49l-4.66,4.63a0.868,0.868,0,0,0-.08,1.22,0.89,0.89,0,0,0,1.23.08,0.6,0.6,0,0,1,.08-0.08l6.13-6.09h0l0.1-.14v-0.14a0.139,0.139,0,0,0,0-.09v-0.07a0.484,0.484,0,0,0,0-.17h0a0.43,0.43,0,0,0,0-.16v-0.08a0.11,0.11,0,0,0,0-.08v-0.16l-0.1-.13-6.1-6.1a0.871,0.871,0,0,0-1.23-.08,0.856,0.856,0,0,0-.08,1.21,0.6,0.6,0,0,0,.08.08l4.66,4.63h-13.49a0.86,0.86,0,1,0,0,1.72h-0.03Zm-20.84-1.72h5.98a0.869,0.869,0,0,1,.87.86h0a0.862,0.862,0,0,1-.87.86h-5.98a0.86,0.86,0,0,1-.86-0.86h0A0.866,0.866,0,0,1,1410.86,6926.14Zm10.42,0h5.98a0.86,0.86,0,0,1,.86.86h0a0.854,0.854,0,0,1-.86.86h-5.98a0.862,0.862,0,0,1-.87-0.86h0A0.869,0.869,0,0,1,1421.28,6926.14Z" transform="translate(-1337 -6830)"/>
  <path id="Shape_1507_copy" data-name="Shape 1507 copy" class="cls-3" d="M1426.3,6942.14h-13.49l4.65-4.63a0.859,0.859,0,0,0,.09-1.22,0.89,0.89,0,0,0-1.23-.08,0.6,0.6,0,0,1-.08.08l-6.13,6.09h0l-0.1.14v0.14a0.139,0.139,0,0,0,0,.09v0.07a0.484,0.484,0,0,0,0,.17h0a0.43,0.43,0,0,0,0,.16v0.08a0.11,0.11,0,0,0,0,.08v0.16l0.1,0.13,6.1,6.1a0.871,0.871,0,0,0,1.23.08,0.856,0.856,0,0,0,.08-1.21,0.647,0.647,0,0,1-.08-0.09l-4.66-4.62h13.49a0.86,0.86,0,1,0,0-1.72h0.03Zm20.84,1.72h-5.98a0.869,0.869,0,0,1-.87-0.86h0a0.862,0.862,0,0,1,.87-0.86h5.98a0.86,0.86,0,0,1,.86.86h0A0.866,0.866,0,0,1,1447.14,6943.86Zm-10.42,0h-5.98a0.86,0.86,0,0,1-.86-0.86h0a0.854,0.854,0,0,1,.86-0.86h5.98a0.862,0.862,0,0,1,.87.86h0A0.869,0.869,0,0,1,1436.72,6943.86Z" transform="translate(-1337 -6830)"/>
  <path id="_10_15_seconds" data-name="10–15 seconds" class="cls-4" d="M1464.58,6941.94h3.13v-16.01h-5.43v2.69h2.3v13.32Zm13.35,0.36c3.19,0,6.19-2.85,6.19-8.35,0-5.52-3-8.38-6.19-8.38s-6.19,2.86-6.19,8.35C1471.74,6939.45,1474.74,6942.3,1477.93,6942.3Zm0-14.04c1.34,0,3.07,1.51,3.07,5.66,0,4.18-1.7,5.69-3.07,5.69s-3.07-1.51-3.07-5.69C1474.86,6929.77,1476.58,6928.26,1477.93,6928.26Zm8.86,9.41h12v-2.5h-12v2.5Zm18.79,4.27h3.13v-16.01h-5.43v2.69h2.3v13.32Zm16.86-16.01h-7.39l-1.9,8.4a6.589,6.589,0,0,1,3.46-1.03,3.558,3.558,0,0,1,2.5.82,2.716,2.716,0,0,1,.93,2.2,3.362,3.362,0,0,1-.84,2.33,3.2,3.2,0,0,1-2.45.96,4.68,4.68,0,0,1-2.33-.6,4.743,4.743,0,0,1-1.65-1.44l-1.03,2.69a7.8,7.8,0,0,0,1.94,1.37,7.948,7.948,0,0,0,3.46.67,5.705,5.705,0,0,0,4.39-1.63,5.582,5.582,0,0,0,1.63-4.18,5.3,5.3,0,0,0-1.41-3.84,5.889,5.889,0,0,0-4.13-1.61,6.628,6.628,0,0,0-1.08.1l0.57-2.52h5.33v-2.69Zm17.17,6.39a5.193,5.193,0,0,0-3.31-1.11,4.311,4.311,0,0,0-2.72.75,3.073,3.073,0,0,0-1.08,2.35,2.782,2.782,0,0,0,.8,1.99,5.468,5.468,0,0,0,2.23,1.25l0.67,0.24a1.16,1.16,0,0,1,.91,1.06,1.231,1.231,0,0,1-1.44,1.12,3.181,3.181,0,0,1-2.3-1.2l-1.54,1.78a5.237,5.237,0,0,0,4.03,1.73,4.371,4.371,0,0,0,3.13-1.11,3.435,3.435,0,0,0,1.15-2.64,3.06,3.06,0,0,0-.53-1.73,5.349,5.349,0,0,0-2.64-1.48l-0.7-.22a1.029,1.029,0,0,1-.93-0.94,0.945,0.945,0,0,1,1.12-.84,2.437,2.437,0,0,1,1.71.7Zm10.41,6.29a2.676,2.676,0,0,1-2.43,1.36,2.491,2.491,0,0,1-2.09-.98,3.122,3.122,0,0,1-.5-1.75h7.78V6937a6.235,6.235,0,0,0-1.25-4.08,4.948,4.948,0,0,0-4.06-1.71,5.319,5.319,0,0,0-3.91,1.47,5.532,5.532,0,0,0-1.58,4.08,5.232,5.232,0,0,0,1.63,4.05,5.406,5.406,0,0,0,3.98,1.47,5.147,5.147,0,0,0,5.12-3.24Zm-4.92-3.25a2.495,2.495,0,0,1,4.92,0h-4.92Zm18.23-3.52a6.184,6.184,0,0,0-2.81-.63,5.366,5.366,0,0,0-5.54,5.57,5.357,5.357,0,0,0,1.65,3.99,6.006,6.006,0,0,0,6.7.86v-2.86a3.406,3.406,0,0,1-2.3.92,2.9,2.9,0,0,1-3.03-2.96,2.793,2.793,0,0,1,2.93-2.93,3.354,3.354,0,0,1,2.4.92v-2.88Zm7.6-.63a5.963,5.963,0,0,0-4.2,1.47,5.6,5.6,0,0,0,0,8.13,6.735,6.735,0,0,0,8.4,0,5.6,5.6,0,0,0,0-8.13A5.963,5.963,0,0,0,1570.93,6931.21Zm0,8.48a2.945,2.945,0,1,1,2.93-2.93A2.9,2.9,0,0,1,1570.93,6939.69Zm8.57,2.25h2.93v-5.3a3.607,3.607,0,0,1,.46-2.02,1.986,1.986,0,0,1,1.8-.91,1.885,1.885,0,0,1,1.37.53,2.958,2.958,0,0,1,.55,2.04v5.66h2.93v-6.53a4.387,4.387,0,0,0-.82-2.93,3.989,3.989,0,0,0-3.07-1.27,3.817,3.817,0,0,0-3.22,1.68v-1.34h-2.93v10.39Zm20.97-9.05a3.767,3.767,0,0,0-3.33-1.68,5.193,5.193,0,0,0-5.16,5.52,5.275,5.275,0,0,0,5.3,5.55,3.717,3.717,0,0,0,3.19-1.68v1.34h2.93v-17.5h-2.93v8.45Zm-2.59.91a2.946,2.946,0,1,1-2.88,2.93A2.831,2.831,0,0,1,1597.88,6933.8Zm15.73-1.48a5.193,5.193,0,0,0-3.31-1.11,4.311,4.311,0,0,0-2.72.75,3.073,3.073,0,0,0-1.08,2.35,2.782,2.782,0,0,0,.8,1.99,5.468,5.468,0,0,0,2.23,1.25l0.67,0.24a1.16,1.16,0,0,1,.91,1.06,1.231,1.231,0,0,1-1.44,1.12,3.181,3.181,0,0,1-2.3-1.2l-1.54,1.78a5.237,5.237,0,0,0,4.03,1.73,4.371,4.371,0,0,0,3.13-1.11,3.435,3.435,0,0,0,1.15-2.64,3.06,3.06,0,0,0-.53-1.73,5.349,5.349,0,0,0-2.64-1.48l-0.7-.22a1.029,1.029,0,0,1-.93-0.94,0.945,0.945,0,0,1,1.12-.84,2.437,2.437,0,0,1,1.71.7Z" transform="translate(-1337 -6830)"/>
</svg>
