<svg id="26161b6a-74f3-4c7a-88c7-71ce8fcc7f66" data-name="cbedb19e-a591-416a-88e7-972fc531f59d" xmlns="http://www.w3.org/2000/svg" viewBox="0 0 235 75"><title>4Artboard 2</title><path d="M37.63,0H197.37A37.63,37.63,0,0,1,235,37.63h0a37.63,37.63,0,0,1-37.63,37.63H37.63A37.63,37.63,0,0,1,0,37.63H0A37.63,37.63,0,0,1,37.63,0Z"/><g id="84cc01b2-0ae6-4c6e-ad7b-b9b991c75958" data-name="9ea871c8-9ffa-4131-96eb-a1b1b08339df"><g id="0c0a8679-4abb-43b3-a93f-0c1ca1c63254" data-name="cf7ece8d-6c0e-4b6e-8e39-425bb29a1b54"><g id="88cb45b0-c8b9-434e-802d-dee51bf8f5fa" data-name="45b8ebed-6528-4875-ac25-3f3f50b0a0dd"><path id="2db7b14a-5af8-443a-a942-91cef7ea371b" data-name="128556b0-0f65-4dc7-b2b6-1d619617e327" d="M51.85,36.13a9,9,0,0,1,4.27-7.49,9.15,9.15,0,0,0-7.21-3.9c-3-.32-6,1.82-7.53,1.82s-4-1.79-6.52-1.67a9.6,9.6,0,0,0-8.1,4.85c-3.5,6.05-.89,14.94,2.46,19.84,1.67,2.39,3.63,5,6.19,5s3.45-1.67,6.47-1.67,3.88,1.67,6.49,1.54,4.38-2.41,6-4.82a19.8,19.8,0,0,0,2.74-5.59A8.65,8.65,0,0,1,51.85,36.13Z" style="fill:#fff"/><path id="da326c8f-7190-4199-8032-156bc839e084" data-name="d7de5815-cae1-42e2-8f13-a9a2c81fabd5" d="M46.83,21.51a8.8,8.8,0,0,0,2-6.31,9,9,0,0,0-5.79,3A8.36,8.36,0,0,0,41,24.27,7.41,7.41,0,0,0,46.83,21.51Z" style="fill:#fff"/></g></g><path d="M81.86,48.72H73.59l-2,5.84H68.18L76,33h3.61l7.79,21.58H83.83ZM74.48,46H81l-3.21-9.47h-.08Z" style="fill:#fff"/><path d="M104.19,46.7c0,4.88-2.61,8-6.56,8a5.34,5.34,0,0,1-5-2.76h0v7.79H89.37V38.82h3.13v2.61h0a5.59,5.59,0,0,1,5-2.78C101.56,38.67,104.19,41.81,104.19,46.7Zm-3.35,0c0-3.18-1.67-5.29-4.16-5.29S92.6,43.49,92.6,46.7,94.27,52,96.73,52s4.16-2.07,4.16-5.29Z" style="fill:#fff"/><path d="M121.5,46.7c0,4.88-2.61,8-6.56,8a5.34,5.34,0,0,1-5-2.76h0v7.79h-3.24V38.82h3.13v2.61h0a5.59,5.59,0,0,1,5-2.78C118.87,38.67,121.5,41.81,121.5,46.7Zm-3.35,0c0-3.18-1.67-5.29-4.16-5.29s-4.08,2.07-4.08,5.29S111.58,52,114,52s4.15-2.07,4.15-5.29Z" style="fill:#fff"/><path d="M132.94,48.51c.23,2.14,2.32,3.55,5.15,3.55s4.68-1.4,4.68-3.35c0-1.67-1.19-2.68-4-3.35L136,44.69c-4-1-5.8-2.81-5.8-5.82,0-3.73,3.24-6.27,7.84-6.27s7.69,2.53,7.81,6.31h-3.26c-.2-2.16-2-3.45-4.58-3.45s-4.38,1.32-4.38,3.23c0,1.52,1.14,2.43,3.91,3.11l2.38.59c4.43,1.1,6.27,2.78,6.27,6,0,4-3.21,6.56-8.36,6.56-4.78,0-8-2.48-8.23-6.37Z" style="fill:#fff"/><path d="M153.16,35.12v3.73h3v2.56h-3v8.66c0,1.35.6,2,1.91,2a10,10,0,0,0,1.05,0v2.54a8.86,8.86,0,0,1-1.79.15c-3.18,0-4.43-1.2-4.43-4.25V41.38h-2.27V38.82h2.29v-3.7Z" style="fill:#fff"/><path d="M157.88,46.7c0-5,2.91-8.06,7.46-8.06s7.46,3.11,7.46,8.06-2.89,8.06-7.46,8.06S157.88,51.65,157.88,46.7Zm11.71,0c0-3.35-1.56-5.4-4.16-5.4s-4.16,2-4.16,5.4,1.56,5.4,4.16,5.4S169.58,50.11,169.58,46.7Z" style="fill:#fff"/><path d="M175.46,38.82h3.08V41.5h0a3.75,3.75,0,0,1,3.78-2.84,5,5,0,0,1,1.1.12v3a4.52,4.52,0,0,0-1.46-.2,3.26,3.26,0,0,0-3.35,3.61v9.33h-3.16Z" style="fill:#fff"/><path d="M198.39,49.94c-.43,2.86-3.21,4.82-6.69,4.82-4.58,0-7.41-3.06-7.41-8s2.86-8.13,7.28-8.13,7.09,3,7.09,7.76v1.1H187.55v.2a4.1,4.1,0,0,0,3.71,4.45h.52A3.56,3.56,0,0,0,195.41,50Zm-10.91-4.78h7.86a3.78,3.78,0,0,0-3.56-4h-.28a4,4,0,0,0-4,3.95v0Z" style="fill:#fff"/></g><g id="8368f519-87eb-4435-bb2d-b7bd9a3048fb" data-name="16310d75-e40c-4881-b262-75111197f740"><path d="M74.08,16.73A4.58,4.58,0,0,1,79,21.88c0,3.35-1.79,5.22-4.88,5.22H70.33V16.73Zm-2.16,8.91h2a3.26,3.26,0,0,0,3.35-3.73,3.35,3.35,0,0,0-3-3.69l-.39,0h-2Z" style="fill:#fff"/><path d="M80.77,23.2a3.71,3.71,0,1,1,7.38,0,3.71,3.71,0,1,1-7.38,0Zm5.79,0c0-1.67-.77-2.69-2.09-2.69s-2.09,1-2.09,2.69.75,2.69,2.09,2.69S86.56,24.9,86.56,23.2Z" style="fill:#fff"/><path d="M98,27.11H96.29l-1.67-5.75H94.5l-1.67,5.75H91.24l-2.16-7.83h1.57l1.4,6h.12l1.67-6h1.49l1.67,6h.12l1.39-6h1.54Z" style="fill:#fff"/><path d="M101.93,19.29h1.49v1.24h.12a2.34,2.34,0,0,1,2.34-1.39A2.54,2.54,0,0,1,108.59,22v5H107V22.38c0-1.25-.55-1.89-1.67-1.89a1.79,1.79,0,0,0-1.87,2v4.58H102Z" style="fill:#fff"/><path d="M111,16.24h1.54V27.11H111Z" style="fill:#fff"/><path d="M114.72,23.2a3.71,3.71,0,1,1,7.38,0,3.71,3.71,0,1,1-7.38,0Zm5.79,0c0-1.67-.77-2.69-2.09-2.69s-2.09,1-2.09,2.69.75,2.69,2.09,2.69,2-1,2-2.69Z" style="fill:#fff"/><path d="M123.77,24.9c0-1.4,1.05-2.22,2.91-2.34l2.11-.12v-.7c0-.82-.55-1.29-1.67-1.29s-1.46.32-1.67.87H124c.15-1.34,1.42-2.21,3.19-2.21s3.13,1,3.13,2.63V27.1h-1.49V26h-.12a2.63,2.63,0,0,1-2.34,1.22,2.36,2.36,0,0,1-2.56-2.12Zm5-.67v-.65l-1.91.12c-1.07,0-1.57.43-1.57,1.12s.62,1.12,1.46,1.12a1.84,1.84,0,0,0,2-1.64v-.07Z" style="fill:#fff"/><path d="M132.32,23.2c0-2.48,1.27-4,3.24-4A2.58,2.58,0,0,1,138,20.54h.12v-4.3h1.54V27.11h-1.47V25.88H138a2.71,2.71,0,0,1-2.46,1.37C133.57,27.25,132.32,25.67,132.32,23.2Zm1.67,0c0,1.67.79,2.66,2.09,2.66s2.11-1,2.11-2.64-.82-2.66-2.11-2.66S134,21.56,134,23.2Z" style="fill:#fff"/><path d="M146,23.2a3.71,3.71,0,1,1,7.38,0,3.71,3.71,0,1,1-7.38,0Zm5.79,0c0-1.67-.77-2.69-2.09-2.69s-2.09,1-2.09,2.69.75,2.69,2.09,2.69,2.11-1,2.11-2.69Z" style="fill:#fff"/><path d="M155.45,19.29h1.49v1.24h.12a2.34,2.34,0,0,1,2.34-1.39A2.54,2.54,0,0,1,162.11,22v5h-1.54V22.38c0-1.25-.55-1.89-1.67-1.89a1.79,1.79,0,0,0-1.87,2v4.58h-1.54Z" style="fill:#fff"/><path d="M170.82,17.34v2h1.67v1.3h-1.67v4c0,.82.33,1.17,1.1,1.17h.59v1.29a5,5,0,0,1-.84,0c-1.67,0-2.41-.6-2.41-2.11V20.62H168v-1.3h1.24v-2Z" style="fill:#fff"/><path d="M174.64,16.24h1.52v4.32h.12a2.41,2.41,0,0,1,2.39-1.4,2.58,2.58,0,0,1,2.69,2.91v5h-1.54V22.45c0-1.25-.59-1.89-1.67-1.89a1.82,1.82,0,0,0-2,2v4.57h-1.54Z" style="fill:#fff"/><path d="M190.36,25A3.18,3.18,0,0,1,187,27.26a3.55,3.55,0,0,1-3.61-4,3.61,3.61,0,0,1,3.09-4h.5c2.17,0,3.5,1.49,3.5,3.95v.54H185v.08A2.07,2.07,0,0,0,186.86,26h.2a1.87,1.87,0,0,0,1.86-1Zm-5.44-2.53h3.95a1.89,1.89,0,0,0-1.67-2H187a2,2,0,0,0-2,2h0Z" style="fill:#fff"/></g></svg>