<svg id="6075ecd5-ad93-46fe-9063-ef1c911f0f99" data-name="artwork" xmlns="http://www.w3.org/2000/svg" viewBox="0 0 140.5 45"><title>4Artboard 3</title><rect width="140.5" height="45" rx="22.5" ry="22.5"/><g id="9ea871c8-9ffa-4131-96eb-a1b1b08339df" data-name=" Group "><g id="cf7ece8d-6c0e-4b6e-8e39-425bb29a1b54" data-name=" Group 2"><g id="45b8ebed-6528-4875-ac25-3f3f50b0a0dd" data-name=" Group 3"><path id="128556b0-0f65-4dc7-b2b6-1d619617e327" data-name=" Path " d="M31,21.6a5.35,5.35,0,0,1,2.55-4.48,5.47,5.47,0,0,0-4.31-2.33c-1.81-.19-3.57,1.09-4.5,1.09s-2.37-1.07-3.9-1A5.74,5.74,0,0,0,16,17.78c-2.09,3.62-.53,8.93,1.47,11.86,1,1.43,2.17,3,3.7,3s2.06-1,3.87-1,2.32,1,3.88.92,2.62-1.44,3.59-2.88a11.84,11.84,0,0,0,1.64-3.34A5.17,5.17,0,0,1,31,21.6Z" style="fill:#fff"/><path id="d7de5815-cae1-42e2-8f13-a9a2c81fabd5" data-name=" Path 2" d="M28,12.86a5.26,5.26,0,0,0,1.2-3.77,5.35,5.35,0,0,0-3.46,1.79,5,5,0,0,0-1.24,3.63A4.43,4.43,0,0,0,28,12.86Z" style="fill:#fff"/></g></g><path d="M48.94,29.13H44l-1.18,3.49H40.76l4.66-12.9h2.16l4.66,12.9H50.12Zm-4.41-1.61h3.9l-1.92-5.66h-.05Z" style="fill:#fff"/><path d="M62.29,27.92c0,2.92-1.56,4.8-3.92,4.8a3.19,3.19,0,0,1-3-1.65h0v4.66H53.43V23.21H55.3v1.56h0a3.34,3.34,0,0,1,3-1.66C60.72,23.12,62.29,25,62.29,27.92Zm-2,0c0-1.9-1-3.16-2.49-3.16S55.36,26,55.36,27.92s1,3.16,2.47,3.16,2.49-1.24,2.49-3.16Z" style="fill:#fff"/><path d="M72.64,27.92c0,2.92-1.56,4.8-3.92,4.8a3.19,3.19,0,0,1-3-1.65h0v4.66H63.78V23.21h1.87v1.56h0a3.34,3.34,0,0,1,3-1.66C71.07,23.12,72.64,25,72.64,27.92Zm-2,0c0-1.9-1-3.16-2.49-3.16S65.71,26,65.71,27.92s1,3.16,2.47,3.16S70.66,29.84,70.66,27.92Z" style="fill:#fff"/><path d="M79.48,29c.14,1.28,1.39,2.12,3.08,2.12s2.8-.84,2.8-2c0-1-.71-1.6-2.38-2l-1.67-.4c-2.37-.57-3.47-1.68-3.47-3.48,0-2.23,1.94-3.75,4.69-3.75S87.13,21,87.2,23.26H85.25c-.12-1.29-1.18-2.06-2.74-2.06s-2.62.79-2.62,1.93c0,.91.68,1.45,2.34,1.86l1.42.35C86.3,26,87.4,27,87.4,28.91c0,2.41-1.92,3.92-5,3.92-2.86,0-4.79-1.48-4.92-3.81Z" style="fill:#fff"/><path d="M91.57,21v2.23h1.79v1.53H91.57v5.18c0,.81.36,1.18,1.14,1.18a6,6,0,0,0,.63,0v1.52a5.3,5.3,0,0,1-1.07.09c-1.9,0-2.65-.72-2.65-2.54V24.74H88.26V23.21h1.37V21Z" style="fill:#fff"/><path d="M94.39,27.92c0-3,1.74-4.82,4.46-4.82s4.46,1.86,4.46,4.82-1.73,4.82-4.46,4.82S94.39,30.88,94.39,27.92Zm7,0c0-2-.93-3.23-2.49-3.23s-2.49,1.21-2.49,3.23.93,3.23,2.49,3.23,2.49-1.19,2.49-3.23Z" style="fill:#fff"/><path d="M104.9,23.21h1.84v1.6h0a2.24,2.24,0,0,1,2.26-1.7,3,3,0,0,1,.66.07V25a2.7,2.7,0,0,0-.87-.12,1.95,1.95,0,0,0-2,2.16v5.58H104.9Z" style="fill:#fff"/><path d="M118.61,29.86c-.26,1.71-1.92,2.88-4,2.88-2.74,0-4.43-1.83-4.43-4.77s1.71-4.86,4.35-4.86,4.24,1.79,4.24,4.64v.66h-6.64v.12a2.45,2.45,0,0,0,2.22,2.66h.31a2.13,2.13,0,0,0,2.17-1.32ZM112.09,27h4.7a2.26,2.26,0,0,0-2.13-2.38h-.17A2.38,2.38,0,0,0,112.09,27S112.09,27,112.09,27Z" style="fill:#fff"/></g><g id="16310d75-e40c-4881-b262-75111197f740" data-name=" Group 4"><path d="M44.29,10a2.74,2.74,0,0,1,2.92,3.08c0,2-1.07,3.12-2.92,3.12H42.05V10ZM43,15.33h1.17a1.95,1.95,0,0,0,2-2.23,2,2,0,0,0-2-2.22H43Z" style="fill:#fff"/><path d="M48.29,13.87a2.22,2.22,0,1,1,4.41,0,2.22,2.22,0,1,1-4.41,0Zm3.46,0c0-1-.46-1.61-1.25-1.61s-1.25.59-1.25,1.61.45,1.61,1.25,1.61,1.25-.59,1.25-1.61Z" style="fill:#fff"/><path d="M58.57,16.21h-1l-1-3.44h-.07l-1,3.44h-.95l-1.29-4.68h.94l.84,3.57h.07l1-3.57h.89l1,3.57h.07l.83-3.57h.92Z" style="fill:#fff"/><path d="M60.94,11.53h.89v.74h.07a1.4,1.4,0,0,1,1.4-.83,1.52,1.52,0,0,1,1.62,1.74v3H64v-2.8c0-.75-.33-1.13-1-1.13a1.07,1.07,0,0,0-1.12,1.19v2.74h-.92Z" style="fill:#fff"/><path d="M66.38,9.71h.92v6.5h-.92Z" style="fill:#fff"/><path d="M68.59,13.87a2.22,2.22,0,1,1,4.41,0,2.22,2.22,0,1,1-4.41,0Zm3.46,0c0-1-.46-1.61-1.25-1.61s-1.25.59-1.25,1.61.45,1.61,1.25,1.61S72,14.89,72,13.87Z" style="fill:#fff"/><path d="M74,14.89c0-.84.63-1.33,1.74-1.4L77,13.42V13c0-.49-.33-.77-1-.77s-.87.19-1,.52h-.89c.09-.8.85-1.32,1.91-1.32S77.89,12,77.89,13v3.2H77v-.66h-.07a1.57,1.57,0,0,1-1.4.73A1.41,1.41,0,0,1,74,15S74,14.93,74,14.89Zm3-.4V14.1l-1.14.07c-.64,0-.94.26-.94.67s.37.67.87.67a1.1,1.1,0,0,0,1.21-1Z" style="fill:#fff"/><path d="M79.11,13.87c0-1.48.76-2.41,1.94-2.41a1.54,1.54,0,0,1,1.43.82h.07V9.71h.92v6.5h-.88v-.74h-.07a1.62,1.62,0,0,1-1.47.82C79.86,16.29,79.11,15.35,79.11,13.87Zm1,0c0,1,.47,1.59,1.25,1.59s1.26-.61,1.26-1.58-.49-1.59-1.26-1.59-1.25.6-1.25,1.58Z" style="fill:#fff"/><path d="M87.29,13.87a2.22,2.22,0,1,1,4.41,0,2.22,2.22,0,1,1-4.41,0Zm3.46,0c0-1-.46-1.61-1.25-1.61s-1.25.59-1.25,1.61.45,1.61,1.25,1.61S90.76,14.89,90.76,13.87Z" style="fill:#fff"/><path d="M92.94,11.53h.89v.74h.07a1.4,1.4,0,0,1,1.4-.83,1.52,1.52,0,0,1,1.62,1.74v3H96v-2.8c0-.75-.33-1.13-1-1.13a1.07,1.07,0,0,0-1.12,1.19v2.74h-.92Z" style="fill:#fff"/><path d="M102.13,10.37v1.19h1v.78h-1v2.4c0,.49.2.7.66.7l.35,0v.77a3,3,0,0,1-.5,0c-1,0-1.44-.36-1.44-1.26V12.33h-.74v-.78h.74V10.37Z" style="fill:#fff"/><path d="M104.41,9.71h.91v2.58h.07a1.44,1.44,0,0,1,1.43-.84,1.54,1.54,0,0,1,1.61,1.74v3h-.92V13.42c0-.75-.35-1.13-1-1.13a1.09,1.09,0,0,0-1.18,1.19v2.73h-.92Z" style="fill:#fff"/><path d="M113.81,14.95a1.9,1.9,0,0,1-2,1.35,2.12,2.12,0,0,1-2.16-2.41,2.16,2.16,0,0,1,1.85-2.42l.3,0c1.3,0,2.09.89,2.09,2.36v.32h-3.3v.05a1.24,1.24,0,0,0,1.13,1.34h.12a1.12,1.12,0,0,0,1.11-.57Zm-3.25-1.51h2.36a1.13,1.13,0,0,0-1-1.21h-.11a1.2,1.2,0,0,0-1.21,1.18s0,0,0,0Z" style="fill:#fff"/></g></svg>