<svg id="57453cd7-92ab-441a-b8ae-b05b2a50b6dd" data-name="Layer 1" xmlns="http://www.w3.org/2000/svg" viewBox="0 0 254 241"><title>2Artboard 4</title><path d="M195.25,134.37a18.13,18.13,0,0,0-9.16-4.13L132.6,119.9l15.47,10.25-24.43,76.47-13.76-56.8,12.33-17.75-12.33-4.41-12.33,4.41,12.33,17.75h0l-13.76,56.8L71.7,130.16l15.47-10.25L33.67,130.24a18.11,18.11,0,0,0-9.16,4.13,15.21,15.21,0,0,0-5,8.09L0,228.59H33.61c9.94,10.31,37.74,11.68,71.08,12.4h10.37c33.35-.72,61.58-2.1,71.52-12.4H220L200.2,142.46A15.22,15.22,0,0,0,195.25,134.37ZM69,84.39c9.34,23.22,27.7,41.14,40.86,41.14s31.52-17.92,40.86-41.14A24.63,24.63,0,0,0,158,74.13c3.37-9,1.12-13.17-2.31-15,0-31.57-13-56.31-45.78-56.31S64.1,27.6,64.1,59.17c-3.43,1.79-5.68,6-2.31,15A24.7,24.7,0,0,0,69,84.39ZM188.11,51V46.75H163.8c.16,1.38.29,2.78.39,4.21Zm49.16-18.7H160.91c.41,1.37.77,2.78,1.11,4.21h75.25ZM251.12,2.88a9.82,9.82,0,0,0-7-2.88H136a46.13,46.13,0,0,1,12.71,9.82h95.48V78.54H217.86L197.94,98.43V78.54H165.7a35,35,0,0,1-6.31,9.82h28.71v27a2.81,2.81,0,0,0,4.79,2l29-29h22.24A9.82,9.82,0,0,0,254,78.53V9.82A9.78,9.78,0,0,0,251.12,2.88ZM237.26,17.77H154.59q1.22,2,2.31,4.21h80.37Z" style="fill:#fff"/></svg>