<svg id="88b08182-97ac-4eda-9604-5f776672852d" data-name="Layer 1" xmlns="http://www.w3.org/2000/svg" viewBox="0 0 57.99 19"><title>4Artboard 3</title><path d="M40.89,10.4h14l-4.83,4.83a.9.9,0,1,0,1.27,1.27l6.36-6.36h0l.11-.14,0-.07,0-.08a.8.8,0,0,0,0-.09l0-.07a.9.9,0,0,0,0-.18h0a.91.91,0,0,0,0-.17l0-.08a.84.84,0,0,0,0-.09l0-.09,0-.07-.11-.14L51.36,2.5a.9.9,0,1,0-1.27,1.27L54.92,8.6h-14a.9.9,0,0,0,0,1.8Z" style="fill:#3cce6c"/><rect x="18.37" y="8.6" width="8" height="1.8" rx="0.9" ry="0.9" style="fill:#3cce6c"/><rect x="29.18" y="8.6" width="8" height="1.8" rx="0.9" ry="0.9" style="fill:#3cce6c"/></svg>