<svg id="a26f685c-f84f-4e3a-9f9f-b5af86a81d95" data-name="Layer 1" xmlns="http://www.w3.org/2000/svg" viewBox="0 0 37 37"><title>4Artboard 1</title><path d="M18.5,1A17.5,17.5,0,1,1,1,18.5,17.52,17.52,0,0,1,18.5,1m0-1A18.5,18.5,0,1,0,37,18.5,18.5,18.5,0,0,0,18.5,0Z" style="fill:#898fb0"/><path d="M22.41,11.11v2.38H21a1.33,1.33,0,0,0-1,.32,1.49,1.49,0,0,0-.27,1v1.7h2.65L22,19.16h-2.3V26H16.9V19.16H14.59V16.49H16.9v-2a3.48,3.48,0,0,1,.94-2.6A3.42,3.42,0,0,1,20.35,11,15,15,0,0,1,22.41,11.11Z" style="fill:#58637e"/></svg>