<svg id="ca5527dd-21de-4b92-96f9-04537fa20c86" data-name="cbedb19e-a591-416a-88e7-972fc531f59d" xmlns="http://www.w3.org/2000/svg" xmlns:xlink="http://www.w3.org/1999/xlink" viewBox="0 0 235 75"><defs><linearGradient id="18ce2b30-25bb-479f-bc20-083e94df4ab6" x1="40.69" y1="-48.65" x2="12.73" y2="-20.69" gradientTransform="translate(0 68.96)" gradientUnits="userSpaceOnUse"><stop offset="0" stop-color="#00a0ff"/><stop offset="0.01" stop-color="#00a1ff"/><stop offset="0.26" stop-color="#00beff"/><stop offset="0.51" stop-color="#00d2ff"/><stop offset="0.76" stop-color="#00dfff"/><stop offset="1" stop-color="#00e3ff"/></linearGradient><linearGradient id="f456db9c-f3d3-484e-af16-c88daa7bf9e6" x1="60.77" y1="-29.82" x2="20.44" y2="-29.82" gradientTransform="translate(0 68.96)" gradientUnits="userSpaceOnUse"><stop offset="0" stop-color="#ffe000"/><stop offset="0.41" stop-color="#ffbd00"/><stop offset="0.78" stop-color="orange"/><stop offset="1" stop-color="#ff9c00"/></linearGradient><linearGradient id="c108859f-2706-4962-9bcf-db6bfb000212" x1="45.75" y1="-26" x2="7.82" y2="11.92" gradientTransform="translate(0 68.96)" gradientUnits="userSpaceOnUse"><stop offset="0" stop-color="#ff3a44"/><stop offset="1" stop-color="#c31162"/></linearGradient><linearGradient id="522273ea-e337-411e-8301-74c2fa280c4b" x1="16.52" y1="-62.85" x2="33.46" y2="-45.91" gradientTransform="translate(0 68.96)" gradientUnits="userSpaceOnUse"><stop offset="0" stop-color="#32a071"/><stop offset="0.07" stop-color="#2da771"/><stop offset="0.48" stop-color="#15cf74"/><stop offset="0.8" stop-color="#06e775"/><stop offset="1" stop-color="#00f076"/></linearGradient></defs><title>4Artboard 2</title><path d="M37.63,0H197.37A37.57,37.57,0,0,1,235,37.5h0A37.57,37.57,0,0,1,197.37,75H37.63A37.57,37.57,0,0,1,0,37.5H0A37.57,37.57,0,0,1,37.63,0Z"/><path d="M83.4,22.87a4.52,4.52,0,0,1-1.25,3.33,4.85,4.85,0,0,1-3.67,1.48,5.15,5.15,0,0,1-5.2-5.1s0-.08,0-.12a5.15,5.15,0,0,1,5.08-5.22h.12a5.17,5.17,0,0,1,2,.42,4.12,4.12,0,0,1,1.57,1.12l-.88.88a3.33,3.33,0,0,0-2.73-1.18,3.87,3.87,0,0,0-3.89,3.85q0,.08,0,.15a3.93,3.93,0,0,0,6.67,2.88,3.15,3.15,0,0,0,.83-2H78.49v-1.2h4.85A4.23,4.23,0,0,1,83.4,22.87Z" style="fill:#fff;stroke:#fff;stroke-miterlimit:10;stroke-width:0.20000000298023224px"/><path d="M91.09,18.7H86.54v3.17h4.1v1.2h-4.1v3.17h4.55v1.23H85.25v-10h5.83Z" style="fill:#fff;stroke:#fff;stroke-miterlimit:10;stroke-width:0.20000000298023224px"/><path d="M96.5,27.47H95.22V18.7H92.44V17.47H99.3V18.7H96.5Z" style="fill:#fff;stroke:#fff;stroke-miterlimit:10;stroke-width:0.20000000298023224px"/><path d="M104.27,27.47v-10h1.28v10Z" style="fill:#fff;stroke:#fff;stroke-miterlimit:10;stroke-width:0.20000000298023224px"/><path d="M111.25,27.47H110V18.7h-2.78V17.47h6.87V18.7h-2.8Z" style="fill:#fff;stroke:#fff;stroke-miterlimit:10;stroke-width:0.20000000298023224px"/><path d="M127.05,26.18a5.2,5.2,0,0,1-7.33,0,5.12,5.12,0,0,1-1.47-3.7A5.13,5.13,0,0,1,127,18.76l0,0a5.38,5.38,0,0,1,0,7.42Zm-6.38-.83a3.85,3.85,0,0,0,5.43,0,3.92,3.92,0,0,0,1.12-2.87,3.92,3.92,0,0,0-1.12-2.87,3.85,3.85,0,0,0-5.43,0,3.92,3.92,0,0,0-1.12,2.87,3.92,3.92,0,0,0,1.12,2.85Z" style="fill:#fff;stroke:#fff;stroke-miterlimit:10;stroke-width:0.20000000298023224px"/><path d="M130.34,27.47v-10h1.57l4.87,7.78h0V17.47h1.28v10h-1.33l-5.08-8.15h0v8.17Z" style="fill:#fff;stroke:#fff;stroke-miterlimit:10;stroke-width:0.20000000298023224px"/><path d="M117.94,42a7.08,7.08,0,1,0,7.12,7.08A7,7,0,0,0,118.17,42Zm0,11.38a4.3,4.3,0,1,1,4-4.59q0,.14,0,.29a4.1,4.1,0,0,1-3.89,4.3ZM102.42,42a7.08,7.08,0,1,0,7.12,7.08A7,7,0,0,0,102.66,42Zm0,11.38a4.3,4.3,0,1,1,4-4.59q0,.14,0,.29a4.1,4.1,0,0,1-3.89,4.3ZM84,44.23v3h7.2A6.28,6.28,0,0,1,89.49,51a7.37,7.37,0,0,1-5.55,2.2,8,8,0,0,1,0-16,7.67,7.67,0,0,1,5.42,2.15l2.12-2.12a10.48,10.48,0,0,0-7.55-3,11,11,0,1,0-.86,22q.43,0,.86,0A9.7,9.7,0,0,0,94.19,46.1,9.78,9.78,0,0,0,94,44.22Zm75.52,2.33a6.53,6.53,0,0,0-12.75,2.14q0,.22,0,.43a6.93,6.93,0,0,0,6.78,7.08h.25a7.05,7.05,0,0,0,5.9-3.13l-2.42-1.67a4,4,0,0,1-3.48,2,3.6,3.6,0,0,1-3.43-2.15l9.48-3.92Zm-9.67,2.37a3.88,3.88,0,0,1,3.62-4.13h.08a2.75,2.75,0,0,1,2.63,1.5Zm-7.7,6.87h3.12V35h-3.13ZM137,43.63h-.1A5,5,0,0,0,133.17,42a7.1,7.1,0,0,0,0,14.18,4.83,4.83,0,0,0,3.73-1.67h.1v1c0,2.72-1.45,4.17-3.78,4.17a3.92,3.92,0,0,1-3.57-2.52l-2.73,1.18a6.75,6.75,0,0,0,6.28,4.18c3.65,0,6.67-2.15,6.67-7.38V42.48H137Zm-3.57,9.8a4.32,4.32,0,0,1,0-8.6,4,4,0,0,1,3.79,4.2v.12a4,4,0,0,1-3.63,4.27h-.15ZM174.05,35H166.6V55.83h3.12V47.9h4.35a6.48,6.48,0,1,0,0-12.93Zm0,10h-4.42V37.87h4.55a3.57,3.57,0,0,1,0,7.13h-.13Zm19.22-3a5.83,5.83,0,0,0-5.55,3.18l2.77,1.15a3,3,0,0,1,2.83-1.53,3,3,0,0,1,3.33,2.63v.27a6.88,6.88,0,0,0-3.25-.8c-3,0-6,1.67-6,4.68a4.82,4.82,0,0,0,5,4.59h.13a4.38,4.38,0,0,0,4-2h.1V55.8h3v-8c.05-3.7-2.72-5.77-6.28-5.77Zm-.38,11.42c-1,0-2.43-.52-2.43-1.77,0-1.67,1.77-2.22,3.33-2.22a5.53,5.53,0,0,1,2.83.7,3.77,3.77,0,0,1-3.65,3.3Zm17.63-11-3.57,9h-.1l-3.7-9h-3.33l5.55,12.63-3.17,7h3.25L214,42.45Zm-28,13.33h3.12V35H182.5Z" style="fill:#fff"/><path d="M21.77,18.33A3.33,3.33,0,0,0,21,20.67v36.9a3.33,3.33,0,0,0,.77,2.33l.12.12L42.52,39.38V38.9L21.89,18.25Z" style="fill:url(#18ce2b30-25bb-479f-bc20-083e94df4ab6)"/><path d="M49.42,46.27l-6.9-6.88V38.9L49.4,32l.15.08,8.18,4.57c2.33,1.32,2.33,3.48,0,4.82l-8.15,4.63Z" style="fill:url(#f456db9c-f3d3-484e-af16-c88daa7bf9e6)"/><path d="M49.59,46.18l-7.07-7L21.77,59.9a2.72,2.72,0,0,0,3.47.1L49.59,46.17" style="fill:url(#c108859f-2706-4962-9bcf-db6bfb000212)"/><path d="M49.59,32.1,25.24,18.33a2.72,2.72,0,0,0-3.47.1l20.75,20.7Z" style="fill:url(#522273ea-e337-411e-8301-74c2fa280c4b)"/><path d="M49.42,46,25.24,59.77a2.78,2.78,0,0,1-3.33,0h0l-.12.12h0l.12.12h0a2.77,2.77,0,0,0,3.33,0L49.59,46.17Z" style="opacity:0.20000000298023224;isolation:isolate"/><path d="M21.77,59.67A3.33,3.33,0,0,1,21,57.33v.25a3.33,3.33,0,0,0,.77,2.33l.12-.12Z" style="opacity:0.11999999731779099;isolation:isolate"/><path d="M57.74,41.3,49.4,46l.15.15,8.15-4.63a2.92,2.92,0,0,0,1.67-2.4h0A3.1,3.1,0,0,1,57.74,41.3Z" style="opacity:0.11999999731779099;isolation:isolate"/><path d="M25.24,18.5,57.74,37a3.1,3.1,0,0,1,1.67,2.17h0a2.92,2.92,0,0,0-1.67-2.4l-32.5-18.4C22.9,17,21,18.12,21,20.78V21C21,18.33,22.9,17.18,25.24,18.5Z" style="fill:#fff;opacity:0.25;isolation:isolate"/></svg>