<svg id="742b6ab4-46ac-4035-ac47-c0eae057f5dc" data-name="ca5527dd-21de-4b92-96f9-04537fa20c86" xmlns="http://www.w3.org/2000/svg" xmlns:xlink="http://www.w3.org/1999/xlink" viewBox="0 0 237 75.91"><defs><linearGradient id="08877c00-b6c2-4aed-a79b-397eb835574b" x1="40.34" y1="55.44" x2="12.03" y2="27.13" gradientTransform="matrix(1, 0, 0, -1, 0, 76)" gradientUnits="userSpaceOnUse"><stop offset="0" stop-color="#00a0ff"/><stop offset="0.01" stop-color="#00a1ff"/><stop offset="0.26" stop-color="#00beff"/><stop offset="0.51" stop-color="#00d2ff"/><stop offset="0.76" stop-color="#00dfff"/><stop offset="1" stop-color="#00e3ff"/></linearGradient><linearGradient id="07bdfd57-a834-4646-8d69-a1963cb25961" x1="60.64" y1="36.39" x2="19.82" y2="36.39" gradientTransform="matrix(1, 0, 0, -1, 0, 76)" gradientUnits="userSpaceOnUse"><stop offset="0" stop-color="#ffe000"/><stop offset="0.41" stop-color="#ffbd00"/><stop offset="0.78" stop-color="orange"/><stop offset="1" stop-color="#ff9c00"/></linearGradient><linearGradient id="ef28b093-ccdf-4275-9dcb-4f8bb165a761" x1="45.45" y1="32.52" x2="7.06" y2="-5.87" gradientTransform="matrix(1, 0, 0, -1, 0, 76)" gradientUnits="userSpaceOnUse"><stop offset="0" stop-color="#ff3a44"/><stop offset="1" stop-color="#c31162"/></linearGradient><linearGradient id="b0065310-cf13-4603-95b9-51887fc1a2f3" x1="15.88" y1="69.83" x2="33.02" y2="52.69" gradientTransform="matrix(1, 0, 0, -1, 0, 76)" gradientUnits="userSpaceOnUse"><stop offset="0" stop-color="#32a071"/><stop offset="0.07" stop-color="#2da771"/><stop offset="0.48" stop-color="#15cf74"/><stop offset="0.8" stop-color="#06e775"/><stop offset="1" stop-color="#00f076"/></linearGradient></defs><title>2Artboard 1</title><rect width="237" height="75.91" rx="36.31" ry="36.31"/><path d="M118.5,42.56a7.17,7.17,0,1,0,7.2,7.17A7.07,7.07,0,0,0,118.5,42.56Zm0,11.52a4.36,4.36,0,1,1,4-4.35A4.15,4.15,0,0,1,118.5,54.08ZM102.79,42.56a7.17,7.17,0,1,0,7.2,7.17A7.07,7.07,0,0,0,102.79,42.56Zm0,11.52a4.36,4.36,0,1,1,4-4.35A4.15,4.15,0,0,1,102.79,54.08ZM84.1,44.76v3h7.28a6.35,6.35,0,0,1-1.66,3.83,7.46,7.46,0,0,1-5.63,2.23,8.1,8.1,0,0,1,0-16.2,7.76,7.76,0,0,1,5.49,2.17l2.15-2.15a10.62,10.62,0,0,0-7.64-3.07,11.14,11.14,0,1,0,0,22.28,10.19,10.19,0,0,0,7.77-3.13,10.06,10.06,0,0,0,2.64-7.12,9.9,9.9,0,0,0-.16-1.9Zm76.43,2.36a6.67,6.67,0,0,0-6.14-4.57,6.82,6.82,0,0,0-6.77,7.17,7,7,0,0,0,7.12,7.17,7.14,7.14,0,0,0,6-3.18l-2.45-1.63a4.1,4.1,0,0,1-3.53,2,3.65,3.65,0,0,1-3.48-2.17l9.59-4Zm-9.78,2.39a3.93,3.93,0,0,1,3.75-4.19,2.78,2.78,0,0,1,2.66,1.52Zm-7.8,7h3.15V35.39h-3.15Zm-5.16-12.31h-.11a5,5,0,0,0-3.78-1.6,7.18,7.18,0,0,0,0,14.35,4.89,4.89,0,0,0,3.78-1.63h.11v1c0,2.74-1.47,4.21-3.83,4.21A4,4,0,0,1,130.34,58l-2.74,1.14A6.84,6.84,0,0,0,134,63.35c3.7,0,6.82-2.17,6.82-7.47V43h-3Zm-3.61,9.92a4.36,4.36,0,0,1,0-8.7c2.15,0,3.83,1.85,3.83,4.38S136.32,54.08,134.17,54.08Zm41.13-18.7h-7.54V56.48h3.15v-8h4.4a6.56,6.56,0,1,0,0-13.1Zm.08,10.16H170.9V38.32h4.48a3.62,3.62,0,1,1,0,7.23Zm19.45-3a5.91,5.91,0,0,0-5.62,3.23L192,46.92a3,3,0,0,1,2.88-1.55c1.63,0,3.28,1,3.31,2.71v.22a7,7,0,0,0-3.28-.81c-3,0-6.08,1.65-6.08,4.75,0,2.82,2.47,4.64,5.24,4.64a4.44,4.44,0,0,0,4-2.06h.11v1.63h3V48.36C201.23,44.61,198.44,42.52,194.83,42.52Zm-.38,11.56c-1,0-2.47-.52-2.47-1.79,0-1.63,1.79-2.25,3.34-2.25a5.61,5.61,0,0,1,2.88.71A3.82,3.82,0,0,1,194.45,54.08ZM212.3,43l-3.61,9.14h-.11L204.84,43h-3.39l5.62,12.78-3.2,7.11h3.28L215.8,43ZM184,56.48h3.15V35.39H184Z" style="fill:#fff"/><path d="M21.17,18.59A3.38,3.38,0,0,0,20.39,21V58.26a3.38,3.38,0,0,0,.78,2.37l.12.12,20.9-20.9v-.49l-20.9-20.9Z" style="fill:url(#08877c00-b6c2-4aed-a79b-397eb835574b)"/><path d="M49.16,46.82l-7-7v-.49l7-7,.16.09,8.25,4.69c2.36,1.34,2.36,3.53,0,4.87l-8.25,4.69Z" style="fill:url(#07bdfd57-a834-4646-8d69-a1963cb25961)"/><path d="M49.32,46.73l-7.12-7.13-21,21c.78.82,2.06.92,3.51.1l24.64-14" style="fill:url(#ef28b093-ccdf-4275-9dcb-4f8bb165a761)"/><path d="M49.32,32.48l-24.64-14c-1.45-.82-2.73-.72-3.51.1l21,21Z" style="fill:url(#b0065310-cf13-4603-95b9-51887fc1a2f3)"/><path d="M49.16,46.58,24.67,60.49c-1.37.78-2.59.73-3.38,0h0l-.13.13h0l.12.12h0c.79.71,2,.76,3.38,0l24.64-14Z" style="opacity:0.2;isolation:isolate"/><path d="M21.17,60.39A3.38,3.38,0,0,1,20.39,58v.25a3.38,3.38,0,0,0,.78,2.37l.13-.13Z" style="opacity:0.12;isolation:isolate"/><path d="M57.57,41.8l-8.41,4.78.16.16L57.57,42a3,3,0,0,0,1.77-2.43h0A3.14,3.14,0,0,1,57.57,41.8Z" style="opacity:0.12;isolation:isolate"/><path d="M24.67,18.73l32.9,18.69a3.14,3.14,0,0,1,1.77,2.19h0a3,3,0,0,0-1.77-2.44L24.67,18.48c-2.36-1.34-4.29-.23-4.29,2.47v.25C20.39,18.5,22.32,17.39,24.67,18.73Z" style="fill:#fff;opacity:0.25;isolation:isolate"/><path d="M81.12,18.45a4.51,4.51,0,0,1,1.62,2.41H81.4a3.28,3.28,0,0,0-1.21-1.55,3.51,3.51,0,0,0-2-.58,3.15,3.15,0,0,0-2.92,1.8,4.48,4.48,0,0,0-.44,2,4.4,4.4,0,0,0,.44,2,3.16,3.16,0,0,0,2.92,1.8,3.51,3.51,0,0,0,2-.58,3.28,3.28,0,0,0,1.21-1.55h1.34a4.51,4.51,0,0,1-1.62,2.41,4.77,4.77,0,0,1-3,.88,4.65,4.65,0,0,1-2.44-.63,4.36,4.36,0,0,1-1.65-1.77,5.49,5.49,0,0,1-.59-2.58,5.56,5.56,0,0,1,.59-2.6,4.35,4.35,0,0,1,1.65-1.77,4.65,4.65,0,0,1,2.44-.63A4.78,4.78,0,0,1,81.12,18.45Z" style="fill:#fff"/><path d="M91.39,18.18A4.56,4.56,0,0,1,93.11,20a5.7,5.7,0,0,1,0,5.19,4.56,4.56,0,0,1-1.72,1.79,4.77,4.77,0,0,1-2.46.64,4.85,4.85,0,0,1-2.47-.64,4.53,4.53,0,0,1-1.73-1.79,5.69,5.69,0,0,1,0-5.19,4.53,4.53,0,0,1,1.73-1.79,4.85,4.85,0,0,1,2.47-.64A4.77,4.77,0,0,1,91.39,18.18Zm-4.27,1a3.22,3.22,0,0,0-1.25,1.34,4.81,4.81,0,0,0,0,4.07,3.21,3.21,0,0,0,1.25,1.34,3.54,3.54,0,0,0,1.82.47,3.47,3.47,0,0,0,1.8-.47A3.28,3.28,0,0,0,92,24.59a4.79,4.79,0,0,0,0-4.07,3.23,3.23,0,0,0-1.25-1.34,3.75,3.75,0,0,0-3.62,0Z" style="fill:#fff"/><path d="M105.27,17.83v9.65H104v-7.7l-3.08,7.7H99.8l-3.09-7.67v7.67H95.45V17.83H97l3.42,8.1,3.37-8.1Z" style="fill:#fff"/><path d="M108.57,17.66v9.81h-1.27V17.66Z" style="fill:#fff"/><path d="M118.24,27.48H117l-5.1-7.75v7.75h-1.27V17.66h1.27l5.1,7.77V17.66h1.27Z" style="fill:#fff"/><path d="M127.6,18.42a4.12,4.12,0,0,1,1.57,2.31h-1.34a3,3,0,0,0-1.16-1.43,3.39,3.39,0,0,0-1.93-.54,3.47,3.47,0,0,0-1.8.47,3.24,3.24,0,0,0-1.25,1.33,4.32,4.32,0,0,0-.45,2,4.37,4.37,0,0,0,.46,2.07A3.24,3.24,0,0,0,123,26a3.69,3.69,0,0,0,1.87.47,3.54,3.54,0,0,0,1.66-.39,3.2,3.2,0,0,0,1.23-1.13,3.87,3.87,0,0,0,.58-1.75h-3.86v-.95h4.93V23.4a4.86,4.86,0,0,1-.72,2.12A4.34,4.34,0,0,1,127,27a4.73,4.73,0,0,1-2.31.56,4.87,4.87,0,0,1-2.51-.63,4.39,4.39,0,0,1-1.69-1.77,5.86,5.86,0,0,1,0-5.19,4.45,4.45,0,0,1,1.69-1.77,4.81,4.81,0,0,1,2.49-.64A4.74,4.74,0,0,1,127.6,18.42Z" style="fill:#fff"/><path d="M140.41,26.22a2.52,2.52,0,0,1-1,1,3.45,3.45,0,0,1-1.68.38,4,4,0,0,1-1.73-.35,3.07,3.07,0,0,1-1.21-1,2.77,2.77,0,0,1-.52-1.41h1.35a1.91,1.91,0,0,0,1,1.47,2.18,2.18,0,0,0,1.09.26,1.74,1.74,0,0,0,1.28-.44A1.55,1.55,0,0,0,139.4,25a1.47,1.47,0,0,0-.31-1,2.23,2.23,0,0,0-.77-.59,10.62,10.62,0,0,0-1.25-.47,12.58,12.58,0,0,1-1.5-.58,2.56,2.56,0,0,1-1-.81,2.37,2.37,0,0,1-.4-1.43,2.48,2.48,0,0,1,.37-1.35,2.41,2.41,0,0,1,1.06-.9,3.82,3.82,0,0,1,1.62-.32,3.49,3.49,0,0,1,2.3.7,2.69,2.69,0,0,1,1,1.79h-1.36a1.84,1.84,0,0,0-.6-1,1.89,1.89,0,0,0-1.32-.45A1.81,1.81,0,0,0,136,19a1.59,1.59,0,0,0-.16,2,2.08,2.08,0,0,0,.74.56,11.63,11.63,0,0,0,1.23.45,12.5,12.5,0,0,1,1.52.58,2.58,2.58,0,0,1,1,.84,2.52,2.52,0,0,1,.4,1.5A2.62,2.62,0,0,1,140.41,26.22Z" style="fill:#fff"/><path d="M149.4,18.18A4.57,4.57,0,0,1,151.12,20a5.7,5.7,0,0,1,0,5.19,4.57,4.57,0,0,1-1.72,1.79,4.77,4.77,0,0,1-2.46.64,4.84,4.84,0,0,1-2.47-.64,4.54,4.54,0,0,1-1.73-1.79,5.7,5.7,0,0,1,0-5.19,4.54,4.54,0,0,1,1.73-1.79,4.84,4.84,0,0,1,2.47-.64A4.77,4.77,0,0,1,149.4,18.18Zm-4.27,1a3.23,3.23,0,0,0-1.25,1.34,4.82,4.82,0,0,0,0,4.07,3.22,3.22,0,0,0,1.25,1.34,3.54,3.54,0,0,0,1.82.47,3.48,3.48,0,0,0,1.8-.47A3.29,3.29,0,0,0,150,24.59a4.8,4.8,0,0,0,0-4.07,3.24,3.24,0,0,0-1.25-1.34,3.75,3.75,0,0,0-3.62,0Z" style="fill:#fff"/><path d="M160.41,18.18A4.57,4.57,0,0,1,162.13,20a5.7,5.7,0,0,1,0,5.19,4.57,4.57,0,0,1-1.72,1.79,4.77,4.77,0,0,1-2.46.64,4.84,4.84,0,0,1-2.47-.64,4.54,4.54,0,0,1-1.73-1.79,5.7,5.7,0,0,1,0-5.19,4.54,4.54,0,0,1,1.73-1.79,4.84,4.84,0,0,1,2.47-.64A4.77,4.77,0,0,1,160.41,18.18Zm-4.27,1a3.23,3.23,0,0,0-1.25,1.34,4.82,4.82,0,0,0,0,4.07,3.22,3.22,0,0,0,1.25,1.34,3.54,3.54,0,0,0,1.82.47,3.48,3.48,0,0,0,1.8-.47A3.29,3.29,0,0,0,161,24.59a4.8,4.8,0,0,0,0-4.07,3.24,3.24,0,0,0-1.25-1.34,3.75,3.75,0,0,0-3.62,0Z" style="fill:#fff"/><path d="M172.1,27.48h-1.27l-5.1-7.75v7.75h-1.27V17.66h1.27l5.1,7.77V17.66h1.27Z" style="fill:#fff"/><path d="M183.58,17.66v1h-2.77v8.78h-1.27V18.69h-2.77v-1Z" style="fill:#fff"/><path d="M191.79,18.18A4.57,4.57,0,0,1,193.51,20a5.7,5.7,0,0,1,0,5.19,4.57,4.57,0,0,1-1.72,1.79,4.77,4.77,0,0,1-2.46.64,4.84,4.84,0,0,1-2.47-.64,4.54,4.54,0,0,1-1.73-1.79,5.7,5.7,0,0,1,0-5.19,4.54,4.54,0,0,1,1.73-1.79,4.84,4.84,0,0,1,2.47-.64A4.77,4.77,0,0,1,191.79,18.18Zm-4.27,1a3.23,3.23,0,0,0-1.25,1.34,4.82,4.82,0,0,0,0,4.07,3.22,3.22,0,0,0,1.25,1.34,3.54,3.54,0,0,0,1.82.47,3.48,3.48,0,0,0,1.8-.47,3.29,3.29,0,0,0,1.25-1.34,4.8,4.8,0,0,0,0-4.07,3.24,3.24,0,0,0-1.25-1.34,3.75,3.75,0,0,0-3.62,0Z" style="fill:#fff"/></svg>