<svg id="27f3e233-daf0-44ce-bbbf-2eecb07aea52" data-name="Layer 1" xmlns="http://www.w3.org/2000/svg" viewBox="0 0 245 245"><title>2Artboard 2</title><path d="M120,114.91h5c16.05-.35,29.44-4,34.22-9l14.41-5L166,67.36a7.36,7.36,0,0,0-2.39-3.9,8.7,8.7,0,0,0-4.41-2l-25.76-5,7.45,4.95-11.76,36.9L122.5,70.92l-6.63,27.41-11.76-36.9,7.45-4.95-25.76,5a8.78,8.78,0,0,0-4.41,2A7.34,7.34,0,0,0,79,67.36l-7.64,33.57,14.41,5C90.56,110.91,103.94,114.57,120,114.91Zm2.5-54.69-5.94,2.13,5.94,8.56,5.94-8.56ZM102.82,39.34c4.5,11.2,13.34,19.85,19.68,19.85s15.18-8.65,19.67-19.86a11.85,11.85,0,0,0,3.48-5c1.62-4.33.54-6.36-1.12-7.22,0-15.23-6.26-27.17-22-27.17s-22,11.94-22,27.17c-1.64.86-2.73,2.88-1.11,7.22A11.86,11.86,0,0,0,102.82,39.34ZM42.21,162.23a10.88,10.88,0,0,0,7.39-20.36l4.8-9.26h66v8.93a10.89,10.89,0,1,0,4.15,0v-8.93h66l4.8,9.26a10.88,10.88,0,1,0,4-1l-5.61-12.37H124.57v-8.93h-4.15v8.93H51.19l-5.6,12.37a10.88,10.88,0,0,0-3.38,21.39Zm156.18-17.06a6.74,6.74,0,1,1-4.83,8.21A6.73,6.73,0,0,1,198.39,145.17Zm-75.89.32a6.73,6.73,0,1,1-6.73,6.74A6.75,6.75,0,0,1,122.5,145.48ZM38.41,150a6.73,6.73,0,1,1,4.84,8.21A6.74,6.74,0,0,1,38.41,150Zm23,60.73a5.78,5.78,0,0,0-2.94-1.33l-19.22-3.73a27.13,27.13,0,0,0,7.88-11,8,8,0,0,0,2.32-3.3c1.08-2.88.36-4.23-.74-4.8,0-10.14-4.17-18.1-14.68-18.1s-14.68,8-14.68,18.1c-1.1.57-1.82,1.92-.74,4.8a7.91,7.91,0,0,0,2.32,3.3,27,27,0,0,0,7.88,11L9.61,209.41a5.84,5.84,0,0,0-2.94,1.33,4.91,4.91,0,0,0-1.58,2.6L0,235.69,9.59,239c3.19,3.31,12.1,5.75,22.79,6h3.33c10.69-.23,19.61-2.66,22.79-6l9.59-3.33L63,213.34A4.83,4.83,0,0,0,61.42,210.74Zm178.49,2.6a4.92,4.92,0,0,0-1.59-2.6,5.82,5.82,0,0,0-2.94-1.33l-19.22-3.73a27,27,0,0,0,7.88-11,8,8,0,0,0,2.32-3.3c1.08-2.88.35-4.23-.74-4.8,0-10.14-4.17-18.1-14.68-18.1s-14.68,8-14.68,18.1c-1.1.57-1.82,1.92-.74,4.8a7.93,7.93,0,0,0,2.32,3.3,27.18,27.18,0,0,0,7.89,11l-19.22,3.73a5.81,5.81,0,0,0-2.94,1.33,4.9,4.9,0,0,0-1.59,2.6l-5.09,22.36,9.6,3.33c3.18,3.31,12.1,5.75,22.79,6h3.32c10.69-.23,19.6-2.67,22.79-6l9.59-3.33Zm-90-2.6a5.8,5.8,0,0,0-2.94-1.33l-19.22-3.73a27,27,0,0,0,7.88-11,7.92,7.92,0,0,0,2.32-3.3c1.09-2.88.36-4.23-.74-4.8,0-10.14-4.17-18.1-14.68-18.1s-14.68,8-14.68,18.1c-1.1.57-1.82,1.92-.74,4.8a8,8,0,0,0,2.32,3.3,27.1,27.1,0,0,0,7.89,11l-19.22,3.73a5.81,5.81,0,0,0-2.94,1.33,4.94,4.94,0,0,0-1.59,2.6l-5.08,22.36L98,239c3.19,3.31,12.1,5.75,22.79,6h3.33c10.69-.23,19.6-2.67,22.79-6l9.6-3.33-5.09-22.36A4.9,4.9,0,0,0,149.87,210.74Z" style="fill:#fff"/></svg>