<svg id="e3a0e8c8-c1fb-4c98-b2ac-950efe532095" data-name="Layer 1" xmlns="http://www.w3.org/2000/svg" viewBox="0 0 187.96 268"><title>2Artboard 3</title><path d="M187.93,17.74C187.92,7,180.74,0,170,0Q127.57,0,85.13,0C74.42,0,67.29,7.13,67.26,17.8c0,11.17,0,22.33,0,33.5q0,23,0,45.95Q34.36,109.5,1.51,121.85A6.48,6.48,0,0,0,0,123c.48.41.9,1,1.46,1.21Q34.34,136.6,67.25,148.9l4.93,1.84c.44.16.9.29,1.36.43h0l1.51-.54q35.14-13.15,70.27-26.33a7.58,7.58,0,0,0,1.66-1.22,6.82,6.82,0,0,0-1.61-1.27Q110.19,108.59,75,95.46a4.27,4.27,0,0,0-1.41-.24q0-38,0-75.93c0-7.5,4.74-12.22,12.24-12.27,3,0,6.05,0,9.07,0a2.49,2.49,0,0,1,2.85,2.16c1.28,4.64,4.35,7.13,9.21,7.17q20.65.15,41.31,0c5,0,7.89-2.47,9.3-7.37a2.4,2.4,0,0,1,2.77-2c3.1,0,6.21,0,9.31,0,7.35.08,12,4.79,12,12.21q0,45.94,0,91.87,0,6.58,0,13.16,0,52.16,0,104.31c0,8.27-4.68,12.92-12.85,12.92H144.45l1.08-.41a6.08,6.08,0,0,0,1.46-1.21c-.5-.4-1-.8-1.5-1.2a1.17,1.17,0,0,0-.3-.1c-7.8-2.93-15.59-5.89-23.43-8.74a5,5,0,0,0-3.16,0q-15.65,5.78-31.27,11.66L75.22,246l-.18.07a4,4,0,0,1-3,0q-21.76-8.2-43.56-16.29a4.52,4.52,0,0,0-2.86-.13c-8.08,2.93-16.13,6-24.17,9-.55.21-.95.82-1.41,1.24a6.06,6.06,0,0,0,1.41,1.09q35.34,13.27,70.69,26.48c.44.17.9.3,1.41.46.48-.16,1-.32,1.48-.5l50.54-18.92q22.57,0,45.15,0c10,0,17.26-7.38,17.26-17.41q0-53.41,0-106.82T187.93,17.74Zm-42.5,133.11c-7.79-3-15.62-5.84-23.4-8.81a4.75,4.75,0,0,0-3.66,0c-14.45,5.46-28.93,10.85-43.39,16.3a4.09,4.09,0,0,1-1.44.28,4.37,4.37,0,0,1-1.59-.32l-4.7-1.77Q47.91,149.24,28.56,142a4.58,4.58,0,0,0-3.51,0c-7.79,3-15.61,5.85-23.4,8.81A7.53,7.53,0,0,0,0,152a7,7,0,0,0,1.62,1.26q32.81,12.33,65.64,24.6l4.9,1.84c.44.17.9.29,1.35.44h0c.42-.14.82-.26,1.2-.4q35.36-13.23,70.7-26.48a6.94,6.94,0,0,0,1.55-1.16A6.44,6.44,0,0,0,145.43,150.85ZM121.76,171a5,5,0,0,0-3.16,0Q96.79,179.07,75,187.3a4.39,4.39,0,0,1-1.5.31,4.11,4.11,0,0,1-1.54-.29l-4.75-1.79Q47.87,178.23,28.45,171a4.52,4.52,0,0,0-2.86-.13c-8.08,2.93-16.13,6-24.17,9-.55.21-.95.82-1.41,1.24a6,6,0,0,0,1.41,1.09q32.92,12.36,65.85,24.67l4.84,1.81c.44.17.9.3,1.41.46h0c.47-.16,1-.31,1.44-.49L133,187c4.18-1.56,8.36-3.1,12.52-4.71a6.1,6.1,0,0,0,1.46-1.21c-.5-.4-1-.8-1.5-1.2a1.15,1.15,0,0,0-.3-.1C137.39,176.83,129.6,173.87,121.76,171Zm-53.56,66,4,1.48c.44.17.9.29,1.35.44.43-.14.84-.27,1.23-.41l1.85-.69Q111,225,145.44,212.1a6.92,6.92,0,0,0,1.55-1.16,6.44,6.44,0,0,0-1.57-1.29c-7.79-3-15.62-5.84-23.4-8.81a4.75,4.75,0,0,0-3.66,0c-14.45,5.46-28.93,10.85-43.39,16.3a4.07,4.07,0,0,1-1.44.28,4.37,4.37,0,0,1-1.6-.32l-4.69-1.76Q47.91,208,28.56,200.79a4.58,4.58,0,0,0-3.51,0c-7.79,3-15.61,5.85-23.4,8.81A7.53,7.53,0,0,0,0,210.85a7,7,0,0,0,1.62,1.26Q34.9,224.62,68.21,237.07Z" style="fill:#fff"/></svg>