<svg id="fa4d3194-6c24-4d1f-b7bd-96ffff05deea" data-name="Layer 1" xmlns="http://www.w3.org/2000/svg" viewBox="0 0 37 37"><title>4Artboard 1</title><path d="M18.5,1A17.5,17.5,0,1,1,1,18.5,17.52,17.52,0,0,1,18.5,1m0-1A18.5,18.5,0,1,0,37,18.5,18.5,18.5,0,0,0,18.5,0Z" style="fill:#898fb0"/><path d="M18,22.58,16.24,24.3a.92.92,0,0,1-.72.3.37.37,0,0,1-.37-.29c-.45-1.38-.9-2.76-1.34-4.15a.32.32,0,0,0-.24-.24l-3.14-1a1.79,1.79,0,0,1-.46-.21.33.33,0,0,1-.05-.55,2.13,2.13,0,0,1,.61-.38c1.28-.51,2.57-1,3.86-1.5l9.81-3.79a.7.7,0,0,1,1,.77A11.58,11.58,0,0,1,25,14.55q-1.06,5-2.13,10.06c-.17.8-.73,1-1.38.52L18.17,22.7Zm-2.46,1h0a.77.77,0,0,0,0-.09c.07-.76.14-1.52.21-2.28a.56.56,0,0,1,.2-.4l3-2.72,3.34-3a.94.94,0,0,0,.14-.25.94.94,0,0,0-.31,0,1.36,1.36,0,0,0-.37.18l-7.38,4.65a.22.22,0,0,0-.11.31c.18.52.35,1,.52,1.57Z" style="fill:#58637e"/></svg>