<svg xmlns="http://www.w3.org/2000/svg" xmlns:xlink="http://www.w3.org/1999/xlink" width="212" height="178" viewBox="0 0 212 178">
  <metadata><?xpacket begin="﻿" id="W5M0MpCehiHzreSzNTczkc9d"?>
<x:xmpmeta xmlns:x="adobe:ns:meta/" x:xmptk="Adobe XMP Core 5.6-c138 79.159824, 2016/09/14-01:09:01        ">
   <rdf:RDF xmlns:rdf="http://www.w3.org/1999/02/22-rdf-syntax-ns#">
      <rdf:Description rdf:about=""/>
   </rdf:RDF>
</x:xmpmeta>
                                                                                                    
                                                                                                    
                                                                                                    
                                                                                                    
                                                                                                    
                                                                                                    
                                                                                                    
                                                                                                    
                                                                                                    
                                                                                                    
                                                                                                    
                                                                                                    
                                                                                                    
                                                                                                    
                                                                                                    
                                                                                                    
                                                                                                    
                                                                                                    
                                                                                                    
                                                                                                    
                           
<?xpacket end="w"?></metadata>
<defs>
    <style>
      .cls-1, .cls-2 {
        fill-rule: evenodd;
      }

      .cls-1 {
        fill: url(#linear-gradient);
        filter: url(#filter);
      }

      .cls-2 {
        fill: url(#linear-gradient-2);
      }
    </style>
    <linearGradient id="linear-gradient" x1="871" y1="6875.969" x2="751" y2="6956.911" gradientUnits="userSpaceOnUse">
      <stop offset="0" stop-color="#c64df9"/>
      <stop offset="1" stop-color="#525ffc"/>
    </linearGradient>
    <filter id="filter" x="737" y="6828" width="149" height="178" filterUnits="userSpaceOnUse">
      <feGaussianBlur result="blur" stdDeviation="5" in="SourceAlpha"/>
      <feComposite result="composite"/>
      <feComposite result="composite-2"/>
      <feComposite result="composite-3"/>
      <feFlood result="flood" flood-color="#ad7cff" flood-opacity="0.1"/>
      <feComposite result="composite-4" operator="in" in2="composite-3"/>
      <feBlend result="blend" in2="SourceGraphic"/>
      <feBlend result="blend-2" in="SourceGraphic"/>
    </filter>
    <linearGradient id="linear-gradient-2" x1="868.29" y1="6944.91" x2="889.71" y2="6921.94" gradientUnits="userSpaceOnUse">
      <stop offset="0" stop-color="#22c196"/>
      <stop offset="1" stop-color="#35c95b"/>
    </linearGradient>
  </defs>
  <path class="cls-1" d="M858.155,6956.13c-6.7,8.45-14.911,15.21-23.894,21.02-7.253,4.68-14.713,9.05-22.106,13.51a1.8,1.8,0,0,1-1.53.09c-12.074-7.22-24.266-14.27-34.952-23.56-7.253-6.3-13.662-13.32-18.3-21.84a49.335,49.335,0,0,1-6.338-23.61c-0.068-14.74-.03-29.49-0.035-44.23,0-3.48,0-6.96,0-10.5a8.627,8.627,0,0,1,1.233-.15c10.214,0.46,19.635-2.61,28.818-6.62a141.394,141.394,0,0,0,29.889-17.58c0.289-.22.587-0.43,0.9-0.66,2.62,2.02,5.124,4.11,7.788,5.98,11.3,7.91,23.3,14.43,36.835,17.54,4.011,0.92,8.232.92,12.358,1.32a19.885,19.885,0,0,0,2.046.01c0.045,0.56.1,0.93,0.1,1.29,0,16.1.041,29.13-.02,45.23h-8.878c-0.138-11.99.015-23.98,0.015-35.97v-1.63c-3.18-.67-6.252-1.16-9.239-1.97-14.461-3.89-27.47-10.8-39.608-19.46a2.268,2.268,0,0,0-3.122-.09c-12.768,8.53-26.26,15.57-41.164,19.58-2.929.78-5.938,1.27-8.955,1.9-0.024.28-.069,0.53-0.069,0.79,0.009,15.38-.011,30.76.054,46.14a36.733,36.733,0,0,0,2.719,13.11c3.329,8.62,8.945,15.61,15.583,21.85,9.681,9.1,20.944,15.94,32.294,22.65a2.385,2.385,0,0,0,1.959-.23c4.629-2.73,9.255-5.46,13.8-8.33a114.325,114.325,0,0,0,19.144-14.73Z" transform="translate(-737 -6828)"/>
  <path class="cls-2" d="M845.636,6925.81l-0.263-3.87h3.256l-0.3,3.87,3.454-1.49,1.019,3.16-3.651.88,2.4,2.96-2.565,1.98-2.006-3.3-1.974,3.3-2.565-1.98,2.4-2.92-3.651-.89,1.02-3.19Zm19.241,0-0.264-3.87h3.257l-0.3,3.87,3.453-1.49,1.02,3.16-3.651.88,2.4,2.96-2.565,1.98-2.007-3.3-1.973,3.3-2.566-1.98,2.4-2.92-3.651-.89,1.02-3.19Zm19.24,0-0.263-3.87h3.256l-0.3,3.87,3.454-1.49,1.019,3.16-3.651.88,2.4,2.96-2.565,1.98-2.006-3.3-1.974,3.3-2.565-1.98,2.4-2.92-3.651-.89,1.019-3.19Zm19.241,0-0.264-3.87h3.257l-0.3,3.87,3.453-1.49,1.02,3.16-3.651.88,2.4,2.96-2.566,1.98-2.006-3.3-1.973,3.3-2.566-1.98,2.4-2.92-3.65-.89,1.019-3.19Zm19.24,0-0.263-3.87h3.256l-0.295,3.87,3.453-1.49,1.019,3.16-3.65.88,2.4,2.96-2.565,1.98-2.006-3.3-1.974,3.3-2.565-1.98,2.4-2.92-3.651-.89,1.02-3.19Zm19.241,0-0.263-3.87h3.256l-0.3,3.87,3.453-1.49,1.02,3.16-3.651.88,2.4,2.96-2.565,1.98-2.007-3.3-1.973,3.3-2.566-1.98,2.4-2.92-3.65-.89,1.019-3.19Zm6.222,19.11H840.434v-1.15H948.061v1.15ZM811.6,6930.67c0-.95,0-1.86,0-2.76a5.831,5.831,0,0,1,4.426-5.73,5.763,5.763,0,0,1,6.984,5.73c0,0.9,0,1.81,0,2.76h1.3a1.157,1.157,0,0,1,1.29,1.34q0,5.535,0,11.07a1.15,1.15,0,0,1-1.2,1.27q-7.08,0-14.162-.01a1.135,1.135,0,0,1-1.234-1.26q0-5.565,0-11.14a1.146,1.146,0,0,1,1.227-1.27H811.6Zm2.71-.02h5.961c0-.97.013-1.9,0-2.84a2.994,2.994,0,0,0-2.6-2.94,2.9,2.9,0,0,0-3.234,2.37A30.023,30.023,0,0,0,814.308,6930.65Zm4.655,10.63c-0.023-.14-0.035-0.24-0.058-0.34-0.244-1.11-.482-2.22-0.743-3.32a0.321,0.321,0,0,1,.168-0.41,1.961,1.961,0,0,0,.827-2.08,1.885,1.885,0,0,0-3.656-.19,1.962,1.962,0,0,0,.728,2.23,0.326,0.326,0,0,1,.145.42c-0.155.63-.288,1.26-0.427,1.89l-0.4,1.8h3.412Z" transform="translate(-737 -6828)"/>
</svg>
