<svg id="Appstore" xmlns="http://www.w3.org/2000/svg" viewBox="0 0 595.3 190.6">
  <defs>
    <style>
      .cls-1 {
        fill: #fff;
      }
    </style>
  </defs>
  <path id="Path_480" data-name="Path 480" d="M95.3,0H500a95.342,95.342,0,0,1,95.3,95.3h0A95.342,95.342,0,0,1,500,190.6H95.3A95.278,95.278,0,0,1,0,95.3H0A95.342,95.342,0,0,1,95.3,0Z"/>
  <g id="c84cc01b2-0ae6-4c6e-ad7b-b9b991c75958_1_">
    <g id="c0c0a8679-4abb-43b3-a93f-0c1ca1c63254_1_">
      <g id="c88cb45b0-c8b9-434e-802d-dee51bf8f5fa_1_">
        <path id="c2db7b14a-5af8-443a-a942-91cef7ea371b_1_" class="cls-1" d="M131.3,91.5a22.69,22.69,0,0,1,10.8-19,23.456,23.456,0,0,0-18.3-9.9c-7.6-.8-15.2,4.6-19.1,4.6s-10-4.5-16.4-4.2A24.29,24.29,0,0,0,67.8,75.3c-8.9,15.3-2.3,37.8,6.2,50.3,4.2,6.1,9.2,12.7,15.7,12.7s8.7-4.2,16.4-4.2,9.8,4.2,16.4,3.9,11.1-6.1,15.2-12.2a49.225,49.225,0,0,0,6.9-14.2A22.138,22.138,0,0,1,131.3,91.5Z"/>
        <path id="cda326c8f-7190-4199-8032-156bc839e084_1_" class="cls-1" d="M118.6,54.5a22.662,22.662,0,0,0,5.1-16A22.727,22.727,0,0,0,109,46.1a21.14,21.14,0,0,0-5.2,15.4A18.778,18.778,0,0,0,118.6,54.5Z"/>
      </g>
    </g>
    <path id="Path_481" data-name="Path 481" class="cls-1" d="M207.4,123.4H186.5l-5.1,14.8h-8.6l19.8-54.6h9.1l19.7,54.7h-9Zm-18.7-6.9h16.5l-8.1-24h-.2Z"/>
    <path id="Path_482" data-name="Path 482" class="cls-1" d="M263.9,118.3c0,12.4-6.6,20.3-16.6,20.3a13.678,13.678,0,0,1-12.7-7h0v19.7h-8.3v-53h7.9v6.6h0a14.058,14.058,0,0,1,12.7-7C257.3,98,263.9,105.9,263.9,118.3Zm-8.5,0c0-8.1-4.2-13.4-10.5-13.4s-10.3,5.3-10.3,13.4,4.2,13.4,10.5,13.4,10.5-5.2,10.5-13.4Z"/>
    <path id="Path_483" data-name="Path 483" class="cls-1" d="M307.8,118.3c0,12.4-6.6,20.3-16.6,20.3a13.678,13.678,0,0,1-12.7-7h0v19.7h-8.2v-53h7.9v6.6h0a14.058,14.058,0,0,1,12.7-7C301.1,98,307.8,105.9,307.8,118.3Zm-8.5,0c0-8.1-4.2-13.4-10.5-13.4s-10.3,5.2-10.3,13.4,4.2,13.4,10.4,13.4c6,0,10.4-5.2,10.4-13.4Z"/>
    <path id="Path_484" data-name="Path 484" class="cls-1" d="M336.8,122.9c.6,5.4,5.9,9,13,9,7.2,0,11.9-3.5,11.9-8.5,0-4.2-3-6.8-10.1-8.5l-7-1.7c-10.1-2.5-14.7-7.1-14.7-14.7,0-9.4,8.2-15.9,19.9-15.9s19.5,6.4,19.8,16h-8.3c-.5-5.5-5.1-8.7-11.6-8.7s-11.1,3.3-11.1,8.2c0,3.9,2.9,6.2,9.9,7.9l6,1.5c11.2,2.8,15.9,7,15.9,15.2,0,10.1-8.1,16.6-21.2,16.6-12.1,0-20.3-6.3-20.8-16.1Z"/>
    <path id="Path_485" data-name="Path 485" class="cls-1" d="M388,89v9.4h7.6v6.5H388v21.9c0,3.4,1.5,5.1,4.8,5.1h2.7v6.4a22.823,22.823,0,0,1-4.5.4c-8.1,0-11.2-3-11.2-10.8V104.8H374V98.3h5.8V89Z"/>
    <path id="Path_486" data-name="Path 486" class="cls-1" d="M399.9,118.3c0-12.7,7.4-20.4,18.9-20.4s18.9,7.9,18.9,20.4-7.3,20.4-18.9,20.4S399.9,130.8,399.9,118.3Zm29.7,0c0-8.5-4-13.7-10.5-13.7s-10.5,5.1-10.5,13.7,4,13.7,10.5,13.7,10.5-5.1,10.5-13.7Z"/>
    <path id="Path_487" data-name="Path 487" class="cls-1" d="M444.5,98.3h7.8v6.8h0a9.464,9.464,0,0,1,9.6-7.2,13.329,13.329,0,0,1,2.8.3v7.6a11.415,11.415,0,0,0-3.7-.5,8.136,8.136,0,0,0-8.5,8v24.8h-8Z"/>
    <path id="Path_488" data-name="Path 488" class="cls-1" d="M502.5,126.5c-1.1,7.2-8.1,12.2-16.9,12.2-11.6,0-18.8-7.8-18.8-20.3s7.2-20.6,18.4-20.6,18,7.6,18,19.7v2.8H475.1v.5a10.417,10.417,0,0,0,9.4,11.3h1.3a9.087,9.087,0,0,0,9.2-5.4Zm-27.6-12.1h19.9a9.533,9.533,0,0,0-9-10.1h-.7a10.116,10.116,0,0,0-10.1,10h0Z"/>
  </g>
  <g id="c8368f519-87eb-4435-bb2d-b7bd9a3048fb_1_">
    <path id="Path_489" data-name="Path 489" class="cls-1" d="M187.7,42.4A11.565,11.565,0,0,1,200.2,53a9.662,9.662,0,0,1-.1,2.4c0,8.5-4.5,13.2-12.4,13.2h-9.6V42.4Zm-5.5,22.5h5.1a8.268,8.268,0,0,0,8.6-7.9,7.568,7.568,0,0,0-.1-1.5,8.441,8.441,0,0,0-7.5-9.3h-6.2Z"/>
    <path id="Path_490" data-name="Path 490" class="cls-1" d="M204.6,58.8a9.4,9.4,0,1,1,18.7-1.9,6.054,6.054,0,0,1,0,1.9,9.4,9.4,0,1,1-18.7,1.9A6.054,6.054,0,0,1,204.6,58.8Zm14.7,0c0-4.2-2-6.8-5.3-6.8s-5.3,2.5-5.3,6.8,1.9,6.8,5.3,6.8S219.3,63.1,219.3,58.8Z"/>
    <path id="Path_491" data-name="Path 491" class="cls-1" d="M248.2,68.7h-4.3l-4.2-14.6h-.3l-4.2,14.6h-4l-5.5-19.8h4l3.5,15.2h.3l4.2-15.2h3.8l4.2,15.2h.3l3.5-15.2h3.9Z"/>
    <path id="Path_492" data-name="Path 492" class="cls-1" d="M258.2,48.9H262V52h.3a5.927,5.927,0,0,1,5.9-3.5,6.462,6.462,0,0,1,6.9,5.9v14h-4V56.7q0-4.8-4.2-4.8a4.639,4.639,0,0,0-4.8,4.3V68.6h-3.7Z"/>
    <path id="Path_493" data-name="Path 493" class="cls-1" d="M281.2,41.1h3.9V68.6h-3.9Z"/>
    <path id="Path_494" data-name="Path 494" class="cls-1" d="M290.6,58.8a9.4,9.4,0,1,1,18.7-1.9,6.054,6.054,0,0,1,0,1.9,9.4,9.4,0,1,1-18.7,1.9A6.054,6.054,0,0,1,290.6,58.8Zm14.7,0c0-4.2-2-6.8-5.3-6.8s-5.3,2.5-5.3,6.8,1.9,6.8,5.3,6.8,5.1-2.5,5.1-6.8Z"/>
    <path id="Path_495" data-name="Path 495" class="cls-1" d="M313.5,63.1c0-3.5,2.7-5.6,7.4-5.9l5.3-.3V55.1c0-2.1-1.4-3.3-4.2-3.3s-3.7.8-4.2,2.2h-3.7c.4-3.4,3.6-5.6,8.1-5.6s7.9,2.5,7.9,6.7V68.7h-3.8V65.9H326a6.69,6.69,0,0,1-5.9,3.1,5.958,5.958,0,0,1-6.5-5.4Zm12.7-1.7V59.8l-4.8.3c-2.7,0-4,1.1-4,2.8s1.6,2.8,3.7,2.8a4.754,4.754,0,0,0,5.1-4.2v-.1Z"/>
    <path id="Path_496" data-name="Path 496" class="cls-1" d="M335.2,58.8c0-6.3,3.2-10.1,8.2-10.1a6.618,6.618,0,0,1,6.2,3.4h.3v-11h3.9V68.6H350V65.5h-.5a7,7,0,0,1-6.2,3.5C338.3,69,335.2,65,335.2,58.8Zm4.2,0c0,4.2,2,6.7,5.3,6.7S350,63,350,58.8s-2.1-6.7-5.3-6.7c-3.3,0-5.3,2.5-5.3,6.7Z"/>
    <path id="Path_497" data-name="Path 497" class="cls-1" d="M369.8,58.8a9.4,9.4,0,1,1,18.7-1.9,6.054,6.054,0,0,1,0,1.9,9.4,9.4,0,1,1-18.7,1.9Zm14.7,0c0-4.2-2-6.8-5.3-6.8s-5.3,2.5-5.3,6.8,1.9,6.8,5.3,6.8,5.4-2.6,5.3-6.8Z"/>
    <path id="Path_498" data-name="Path 498" class="cls-1" d="M393.8,48.9h3.8V52h.3a5.927,5.927,0,0,1,5.9-3.5,6.462,6.462,0,0,1,6.9,5.9v14h-3.9V56.7q0-4.8-4.2-4.8a4.639,4.639,0,0,0-4.8,4.3V68.6h-3.9Z"/>
    <path id="Path_499" data-name="Path 499" class="cls-1" d="M432.7,43.9V49h4.2v3.3h-4.2V62.4c0,2.1.8,3,2.8,3H437v3.3a7.388,7.388,0,0,1-2.1,0c-4.2,0-6.1-1.5-6.1-5.3V52.2h-3.2V48.9h3.1V43.8Z"/>
    <path id="Path_500" data-name="Path 500" class="cls-1" d="M442.4,41.1h3.9V52h.3a6.055,6.055,0,0,1,6.1-3.5,6.581,6.581,0,0,1,6.9,6.2V68.6h-3.9V56.9c0-3.2-1.5-4.8-4.2-4.8a4.676,4.676,0,0,0-5.1,4.1V68.8h-3.9Z"/>
    <path id="Path_501" data-name="Path 501" class="cls-1" d="M482.2,63.3a8.033,8.033,0,0,1-8.5,5.7,8.965,8.965,0,0,1-9.2-8.8,6.6,6.6,0,0,1,.1-1.4,9.142,9.142,0,0,1,7.8-10.1h1.3c5.5,0,8.9,3.8,8.9,10v1.4H468.7v.2a5.275,5.275,0,0,0,4.7,5.5h.5a4.8,4.8,0,0,0,4.7-2.5h3.6Zm-13.8-6.4h10a4.831,4.831,0,0,0-4.2-5.1h-.5a5.121,5.121,0,0,0-5.1,5.1h-.2Z"/>
  </g>
</svg>
