<svg xmlns="http://www.w3.org/2000/svg" xmlns:xlink="http://www.w3.org/1999/xlink" viewBox="0 0 235 75">
  <defs>
    <style>
      .cls-1, .cls-2, .cls-9 {
        fill: #fff;
      }

      .cls-1 {
        stroke: #fff;
        stroke-miterlimit: 10;
        stroke-width: 0.2px;
      }

      .cls-3 {
        fill: url(#linear-gradient);
      }

      .cls-4 {
        fill: url(#linear-gradient-2);
      }

      .cls-5 {
        fill: url(#linear-gradient-3);
      }

      .cls-6 {
        fill: url(#linear-gradient-4);
      }

      .cls-7 {
        opacity: 0.2;
      }

      .cls-8 {
        opacity: 0.12;
      }

      .cls-9 {
        opacity: 0.25;
      }
    </style>
    <linearGradient id="linear-gradient" x1="0.915" y1="6.632" x2="-0.376" y2="5.96" gradientUnits="objectBoundingBox">
      <stop offset="0" stop-color="#00a0ff"/>
      <stop offset="0.007" stop-color="#00a1ff"/>
      <stop offset="0.26" stop-color="#00beff"/>
      <stop offset="0.512" stop-color="#00d2ff"/>
      <stop offset="0.76" stop-color="#00dfff"/>
      <stop offset="1" stop-color="#00e3ff"/>
    </linearGradient>
    <linearGradient id="linear-gradient-2" x1="1.077" y1="17.2" x2="-1.307" y2="17.2" gradientUnits="objectBoundingBox">
      <stop offset="0" stop-color="#ffe000"/>
      <stop offset="0.409" stop-color="#ffbd00"/>
      <stop offset="0.775" stop-color="orange"/>
      <stop offset="1" stop-color="#ff9c00"/>
    </linearGradient>
    <linearGradient id="linear-gradient-3" x1="0.864" y1="10.839" x2="-0.499" y2="9.074" gradientUnits="objectBoundingBox">
      <stop offset="0" stop-color="#ff3a44"/>
      <stop offset="1" stop-color="#c31162"/>
    </linearGradient>
    <linearGradient id="linear-gradient-4" x1="-0.186" y1="13.614" x2="0.423" y2="12.822" gradientUnits="objectBoundingBox">
      <stop offset="0" stop-color="#32a071"/>
      <stop offset="0.068" stop-color="#2da771"/>
      <stop offset="0.476" stop-color="#15cf74"/>
      <stop offset="0.801" stop-color="#06e775"/>
      <stop offset="1" stop-color="#00f076"/>
    </linearGradient>
  </defs>
  <g id="Googleplay" transform="translate(-2574 -904)">
    <path id="Path_502" data-name="Path 502" d="M37.621,0H197.379A37.577,37.577,0,0,1,235,37.5h0A37.577,37.577,0,0,1,197.379,75H37.621A37.552,37.552,0,0,1,0,37.5H0A37.577,37.577,0,0,1,37.621,0Z" transform="translate(2574 904)"/>
    <path id="Path_463" data-name="Path 463" class="cls-1" d="M61.56,22.47a4.589,4.589,0,0,1-1.185,3.376A5.249,5.249,0,0,1,51.4,22.132,5.2,5.2,0,0,1,56.649,16.9a4.52,4.52,0,0,1,2.032.506,3.686,3.686,0,0,1,1.524,1.182l-.847.844a3.162,3.162,0,0,0-2.709-1.182,3.374,3.374,0,0,0-2.709,1.182A3.472,3.472,0,0,0,52.755,22.3a3.472,3.472,0,0,0,1.185,2.869,4.367,4.367,0,0,0,2.709,1.182,3.72,3.72,0,0,0,2.879-1.182,2.791,2.791,0,0,0,.847-2.025H56.649V21.964H61.56Z" transform="translate(2598.877 903.413)"/>
    <path id="Path_464" data-name="Path 464" class="cls-1" d="M64.427,18.182H59.855v3.207h4.233V22.57H59.855v3.207h4.572v1.35H58.5V17h5.927Z" transform="translate(2603.8 903.482)"/>
    <path id="Path_465" data-name="Path 465" class="cls-1" d="M67.033,27.127H65.679V18.182H62.8V17h7.112v1.182H67.033Z" transform="translate(2606.781 903.482)"/>
    <path id="Path_466" data-name="Path 466" class="cls-1" d="M69.9,27.127V17h1.355V27.127Z" transform="translate(2611.703 903.482)"/>
    <path id="Path_467" data-name="Path 467" class="cls-1" d="M75.833,27.127H74.479V18.182H71.6V17h6.943v1.182H75.664v8.946Z" transform="translate(2612.882 903.482)"/>
    <path id="Path_468" data-name="Path 468" class="cls-1" d="M87.275,25.846A5.249,5.249,0,0,1,78.3,22.132a5.249,5.249,0,1,1,10.5,0A4.955,4.955,0,0,1,87.275,25.846ZM80.84,25a4,4,0,0,0,2.709,1.182A3.374,3.374,0,0,0,86.259,25a4.066,4.066,0,0,0,1.185-2.869,3.472,3.472,0,0,0-1.185-2.869,4,4,0,0,0-2.709-1.182,3.374,3.374,0,0,0-2.709,1.182,4.066,4.066,0,0,0-1.185,2.869A3.472,3.472,0,0,0,80.84,25Z" transform="translate(2617.527 903.413)"/>
    <path id="Path_469" data-name="Path 469" class="cls-1" d="M85.6,27.127V17h1.524l4.911,7.933h0V17h1.355V27.127H92.035l-5.249-8.271h0v8.271Z" transform="translate(2622.589 903.482)"/>
    <path id="Path_479" data-name="Path 479" class="cls-2" d="M96.82,35.033a7.113,7.113,0,0,0-7.281,7.258,7.216,7.216,0,0,0,7.281,7.258,7.113,7.113,0,0,0,7.281-7.258A7.014,7.014,0,0,0,96.82,35.033Zm0,11.478a4.4,4.4,0,0,1,0-8.777,4.1,4.1,0,0,1,4.064,4.389A4.2,4.2,0,0,1,96.82,46.511ZM81.072,35.033a7.113,7.113,0,0,0-7.281,7.258,7.216,7.216,0,0,0,7.281,7.258,7.113,7.113,0,0,0,7.281-7.258A7.014,7.014,0,0,0,81.072,35.033Zm0,11.478a4.4,4.4,0,0,1,0-8.777,4.1,4.1,0,0,1,4.064,4.389A4.2,4.2,0,0,1,81.072,46.511Zm-18.8-9.283v3.038h7.281a6.373,6.373,0,0,1-1.693,3.882,7.507,7.507,0,0,1-5.588,2.194,7.871,7.871,0,0,1-7.959-8.1,7.974,7.974,0,0,1,7.959-8.1,8.41,8.41,0,0,1,5.588,2.194l2.2-2.194a10.869,10.869,0,0,0-7.62-3.038A11.405,11.405,0,0,0,51.1,38.24,11.405,11.405,0,0,0,62.445,49.38a9.76,9.76,0,0,0,7.789-3.207,10.142,10.142,0,0,0,2.709-7.089,6.309,6.309,0,0,0-.169-1.857h-10.5Zm76.877,2.363a6.575,6.575,0,0,0-6.1-4.557c-3.725,0-6.773,2.869-6.773,7.258a7.074,7.074,0,0,0,7.112,7.258,6.95,6.95,0,0,0,5.927-3.207l-2.371-1.688A4.13,4.13,0,0,1,133.4,46.68a3.675,3.675,0,0,1-3.556-2.194l9.652-4.051Zm-9.821,2.363a4.106,4.106,0,0,1,3.725-4.22,3,3,0,0,1,2.709,1.519Zm-7.959,6.92h3.217v-21.1h-3.217Zm-5.08-12.322h0a5.584,5.584,0,0,0-3.895-1.688,7.263,7.263,0,0,0-6.943,7.258,7,7,0,0,0,6.943,7.089,4.868,4.868,0,0,0,3.725-1.688h.169v1.013c0,2.7-1.524,4.22-3.895,4.22a3.761,3.761,0,0,1-3.556-2.532l-2.709,1.182a6.985,6.985,0,0,0,6.435,4.22c3.725,0,6.773-2.194,6.773-7.427V35.371h-3.048v1.182Zm-3.725,9.959a4.4,4.4,0,0,1,0-8.777c2.2,0,3.895,1.857,3.895,4.389S114.769,46.511,112.568,46.511Zm41.317-18.736h-7.62v21.1h3.217V40.941h4.4a6.592,6.592,0,1,0,0-13.166Zm.169,10.127h-4.572V30.645h4.572a3.714,3.714,0,0,1,3.725,3.545A3.869,3.869,0,0,1,154.054,37.9Zm19.473-3.038c-2.371,0-4.741,1.013-5.588,3.207l2.879,1.182a2.994,2.994,0,0,1,2.879-1.519,3.18,3.18,0,0,1,3.387,2.7V40.6a6.733,6.733,0,0,0-3.217-.844c-3.048,0-6.1,1.688-6.1,4.726,0,2.869,2.54,4.726,5.249,4.726a4.769,4.769,0,0,0,4.064-2.025h.169v1.688H180.3v-8.1C179.962,37.059,177.083,34.864,173.527,34.864Zm-.339,11.646c-1.016,0-2.54-.506-2.54-1.857,0-1.688,1.863-2.194,3.387-2.194a6.565,6.565,0,0,1,2.879.675A3.939,3.939,0,0,1,173.188,46.511Zm17.78-11.14-3.556,9.115h-.169l-3.725-9.115h-3.387L185.719,48.2,182.5,55.288h3.217l8.636-19.917Zm-28.448,13.5h3.217v-21.1H162.52Z" transform="translate(2598.669 910.43)"/>
    <path id="Path_471" data-name="Path 471" class="cls-3" d="M20.747,17.5a3.333,3.333,0,0,0-.847,2.363v37.3a3.333,3.333,0,0,0,.847,2.363l.169.169,21-20.93V38.43L20.747,17.5Z" transform="translate(2577.038 903.826)"/>
    <path id="Path_472" data-name="Path 472" class="cls-4" d="M39.843,40.147,32.9,33.227V32.72l6.943-6.92.169.169,8.3,4.726c2.371,1.35,2.371,3.545,0,4.895l-8.467,4.557Z" transform="translate(2586.051 909.536)"/>
    <path id="Path_473" data-name="Path 473" class="cls-5" d="M48.678,37.089,41.566,30,20.4,51.1c.847.844,2.032.844,3.556.169L48.678,37.089" transform="translate(2577.384 912.425)"/>
    <path id="Path_474" data-name="Path 474" class="cls-6" d="M48.678,31.736,23.956,17.726c-1.524-.844-2.709-.675-3.556.169l21.167,20.93Z" transform="translate(2577.384 903.6)"/>
    <path id="Path_475" data-name="Path 475" class="cls-7" d="M48.509,34.1,23.956,47.941a2.776,2.776,0,0,1-3.387,0h0l-.169.169h0l.169.169h0a2.776,2.776,0,0,0,3.387,0L48.509,34.1Z" transform="translate(2577.384 915.245)"/>
    <path id="Path_476" data-name="Path 476" class="cls-8" d="M20.677,43.263A3.293,3.293,0,0,1,20,40.9v.169a3.333,3.333,0,0,0,.847,2.363v-.169Z" transform="translate(2577.107 919.923)"/>
    <path id="Path_477" data-name="Path 477" class="cls-8" d="M45.467,32.194,37,36.92l.169.169,8.3-4.726A2.806,2.806,0,0,0,47.16,30h0C47.16,30.844,46.483,31.519,45.467,32.194Z" transform="translate(2588.893 912.425)"/>
    <path id="Path_478" data-name="Path 478" class="cls-9" d="M24.233,17.9l33.02,18.736c1.016.675,1.693,1.35,1.693,2.194h0a2.806,2.806,0,0,0-1.693-2.363L24.233,17.729C21.863,16.378,20,17.56,20,20.26v.169C20,17.729,21.863,16.547,24.233,17.9Z" transform="translate(2577.107 903.597)"/>
  </g>
</svg>
