<svg xmlns="http://www.w3.org/2000/svg" xmlns:xlink="http://www.w3.org/1999/xlink" viewBox="0 0 172 55">
  <defs>
    <style>
      .cls-1, .cls-2, .cls-9 {
        fill: #fff;
      }

      .cls-1 {
        stroke: #fff;
        stroke-miterlimit: 10;
        stroke-width: 0.2px;
      }

      .cls-3 {
        fill: url(#linear-gradient);
      }

      .cls-4 {
        fill: url(#linear-gradient-2);
      }

      .cls-5 {
        fill: url(#linear-gradient-3);
      }

      .cls-6 {
        fill: url(#linear-gradient-4);
      }

      .cls-7 {
        opacity: 0.2;
      }

      .cls-8 {
        opacity: 0.12;
      }

      .cls-9 {
        opacity: 0.25;
      }
    </style>
    <linearGradient id="linear-gradient" x1="0.915" y1="6.632" x2="-0.376" y2="5.96" gradientUnits="objectBoundingBox">
      <stop offset="0" stop-color="#00a0ff"/>
      <stop offset="0.007" stop-color="#00a1ff"/>
      <stop offset="0.26" stop-color="#00beff"/>
      <stop offset="0.512" stop-color="#00d2ff"/>
      <stop offset="0.76" stop-color="#00dfff"/>
      <stop offset="1" stop-color="#00e3ff"/>
    </linearGradient>
    <linearGradient id="linear-gradient-2" x1="1.077" y1="17.2" x2="-1.307" y2="17.2" gradientUnits="objectBoundingBox">
      <stop offset="0" stop-color="#ffe000"/>
      <stop offset="0.409" stop-color="#ffbd00"/>
      <stop offset="0.775" stop-color="orange"/>
      <stop offset="1" stop-color="#ff9c00"/>
    </linearGradient>
    <linearGradient id="linear-gradient-3" x1="0.864" y1="10.839" x2="-0.499" y2="9.074" gradientUnits="objectBoundingBox">
      <stop offset="0" stop-color="#ff3a44"/>
      <stop offset="1" stop-color="#c31162"/>
    </linearGradient>
    <linearGradient id="linear-gradient-4" x1="-0.186" y1="13.614" x2="0.423" y2="12.822" gradientUnits="objectBoundingBox">
      <stop offset="0" stop-color="#32a071"/>
      <stop offset="0.068" stop-color="#2da771"/>
      <stop offset="0.476" stop-color="#15cf74"/>
      <stop offset="0.801" stop-color="#06e775"/>
      <stop offset="1" stop-color="#00f076"/>
    </linearGradient>
  </defs>
  <g id="Googleplay" transform="translate(-2574 -904)">
    <path id="Path_502" data-name="Path 502" d="M27.535,0h116.93A27.53,27.53,0,0,1,172,27.5h0A27.53,27.53,0,0,1,144.465,55H27.535A27.511,27.511,0,0,1,0,27.5H0A27.53,27.53,0,0,1,27.535,0Z" transform="translate(2574 904)"/>
    <path id="Path_463" data-name="Path 463" class="cls-1" d="M58.836,20.985a3.369,3.369,0,0,1-.868,2.476A3.842,3.842,0,0,1,51.4,20.737,3.806,3.806,0,0,1,55.242,16.9a3.3,3.3,0,0,1,1.487.371,2.7,2.7,0,0,1,1.115.866l-.62.619a2.312,2.312,0,0,0-1.983-.866,2.467,2.467,0,0,0-1.983.866,2.548,2.548,0,0,0-.868,2.1,2.548,2.548,0,0,0,.868,2.1,3.193,3.193,0,0,0,1.983.866,2.72,2.72,0,0,0,2.107-.866,2.049,2.049,0,0,0,.62-1.485H55.242v-.866h3.594Z" transform="translate(2578.428 899.063)"/>
    <path id="Path_464" data-name="Path 464" class="cls-1" d="M62.838,17.866H59.491v2.352h3.1v.866h-3.1v2.352h3.346v.99H58.5V17h4.338Z" transform="translate(2580.128 899.087)"/>
    <path id="Path_465" data-name="Path 465" class="cls-1" d="M65.9,24.427h-.992v-6.56H62.8V17h5.205v.866H65.9Z" transform="translate(2581.157 899.087)"/>
    <path id="Path_466" data-name="Path 466" class="cls-1" d="M69.9,24.427V17h.991v7.427Z" transform="translate(2582.856 899.087)"/>
    <path id="Path_467" data-name="Path 467" class="cls-1" d="M74.7,24.427h-.992v-6.56H71.6V17h5.081v.866H74.574v6.56Z" transform="translate(2583.263 899.087)"/>
    <path id="Path_468" data-name="Path 468" class="cls-1" d="M84.869,23.46A3.842,3.842,0,0,1,78.3,20.737a3.842,3.842,0,1,1,6.569,2.723Zm-4.71-.619a2.926,2.926,0,0,0,1.983.866,2.467,2.467,0,0,0,1.983-.866,2.984,2.984,0,0,0,.868-2.1,2.548,2.548,0,0,0-.868-2.1,2.926,2.926,0,0,0-1.983-.866,2.467,2.467,0,0,0-1.983.866,2.984,2.984,0,0,0-.868,2.1A2.548,2.548,0,0,0,80.159,22.841Z" transform="translate(2584.867 899.063)"/>
    <path id="Path_469" data-name="Path 469" class="cls-1" d="M85.6,24.427V17h1.115l3.594,5.818h0V17H91.3v7.427H90.31l-3.842-6.065h0v6.065Z" transform="translate(2586.615 899.087)"/>
    <path id="Path_479" data-name="Path 479" class="cls-2" d="M84.563,32.918a5.211,5.211,0,0,0-5.329,5.322,5.286,5.286,0,0,0,5.329,5.322,5.211,5.211,0,0,0,5.329-5.322A5.139,5.139,0,0,0,84.563,32.918Zm0,8.417a3.228,3.228,0,0,1,0-6.437,3,3,0,0,1,2.974,3.218A3.074,3.074,0,0,1,84.563,41.335ZM73.037,32.918a5.211,5.211,0,0,0-5.329,5.322,5.286,5.286,0,0,0,5.329,5.322,5.211,5.211,0,0,0,5.329-5.322A5.139,5.139,0,0,0,73.037,32.918Zm0,8.417a3.228,3.228,0,0,1,0-6.437,3,3,0,0,1,2.974,3.218A3.074,3.074,0,0,1,73.037,41.335ZM59.28,34.527v2.228h5.329A4.678,4.678,0,0,1,63.37,39.6a5.489,5.489,0,0,1-4.09,1.609,5.766,5.766,0,0,1-5.825-5.941,5.842,5.842,0,0,1,5.825-5.941,6.149,6.149,0,0,1,4.09,1.609l1.611-1.609A7.947,7.947,0,0,0,59.4,27.1a8.355,8.355,0,0,0-8.3,8.169,8.355,8.355,0,0,0,8.3,8.169,7.137,7.137,0,0,0,5.7-2.352,7.446,7.446,0,0,0,1.983-5.2,4.636,4.636,0,0,0-.124-1.362H59.28Zm56.267,1.733a4.814,4.814,0,0,0-4.462-3.342,4.988,4.988,0,0,0-4.957,5.322,5.183,5.183,0,0,0,5.205,5.322,5.085,5.085,0,0,0,4.338-2.352l-1.735-1.238a3.022,3.022,0,0,1-2.6,1.485,2.689,2.689,0,0,1-2.6-1.609l7.064-2.971Zm-7.188,1.733a3.009,3.009,0,0,1,2.727-3.094,2.193,2.193,0,0,1,1.983,1.114Zm-5.825,5.075h2.355V27.6h-2.355Zm-3.718-9.036h0a4.083,4.083,0,0,0-2.851-1.238,5.322,5.322,0,0,0-5.081,5.322,5.128,5.128,0,0,0,5.081,5.2,3.56,3.56,0,0,0,2.727-1.238h.124v.743c0,1.98-1.115,3.094-2.851,3.094a2.753,2.753,0,0,1-2.6-1.857l-1.983.866a5.113,5.113,0,0,0,4.71,3.094c2.727,0,4.957-1.609,4.957-5.446V33.165H98.816v.866Zm-2.727,7.3a3.228,3.228,0,0,1,0-6.437,2.979,2.979,0,0,1,2.851,3.218A2.979,2.979,0,0,1,96.089,41.335ZM126.329,27.6h-5.577V43.067h2.355V37.25h3.222a4.834,4.834,0,1,0,0-9.655Zm.124,7.427h-3.346V29.7h3.346a2.721,2.721,0,0,1,2.727,2.6A2.834,2.834,0,0,1,126.453,35.022Zm14.253-2.228a4.167,4.167,0,0,0-4.09,2.352l2.107.866A2.19,2.19,0,0,1,140.83,34.9a2.328,2.328,0,0,1,2.479,1.98V37a4.921,4.921,0,0,0-2.355-.619c-2.231,0-4.462,1.238-4.462,3.466a3.629,3.629,0,0,0,3.842,3.466,3.489,3.489,0,0,0,2.974-1.485h.124v1.238h2.231V37.126A4.688,4.688,0,0,0,140.706,32.794Zm-.248,8.541c-.744,0-1.859-.371-1.859-1.362,0-1.238,1.363-1.609,2.479-1.609a4.8,4.8,0,0,1,2.107.5A2.885,2.885,0,0,1,140.458,41.335Zm13.013-8.169-2.6,6.684h-.124l-2.727-6.684H145.54l4.09,9.407-2.355,5.2h2.355l6.321-14.606Zm-20.821,9.9h2.355V27.6H132.65Z" transform="translate(2578.356 901.489)"/>
    <path id="Path_471" data-name="Path 471" class="cls-3" d="M20.52,17.5a2.447,2.447,0,0,0-.62,1.733V46.588a2.447,2.447,0,0,0,.62,1.733l.124.124L36.012,33.1v-.248L20.52,17.5Z" transform="translate(2570.888 899.206)"/>
    <path id="Path_472" data-name="Path 472" class="cls-4" d="M37.981,36.321,32.9,31.246v-.371L37.981,25.8l.124.124,6.073,3.466c1.735.99,1.735,2.6,0,3.59l-6.2,3.342Z" transform="translate(2574 901.179)"/>
    <path id="Path_473" data-name="Path 473" class="cls-5" d="M41.1,35.2,35.892,30,20.4,45.472c.62.619,1.487.619,2.6.124L41.1,35.2" transform="translate(2571.008 902.178)"/>
    <path id="Path_474" data-name="Path 474" class="cls-6" d="M41.1,27.852,23,17.578a2.011,2.011,0,0,0-2.6.124L35.892,33.051Z" transform="translate(2571.008 899.128)"/>
    <path id="Path_475" data-name="Path 475" class="cls-7" d="M40.973,34.1,23,44.25a2.029,2.029,0,0,1-2.479,0h0l-.124.124h0l.124.124h0A2.029,2.029,0,0,0,23,44.5L40.973,34.1Z" transform="translate(2571.008 903.153)"/>
    <path id="Path_476" data-name="Path 476" class="cls-8" d="M20.5,42.633A2.418,2.418,0,0,1,20,40.9v.124a2.447,2.447,0,0,0,.62,1.733v-.124Z" transform="translate(2570.912 904.77)"/>
    <path id="Path_477" data-name="Path 477" class="cls-8" d="M43.2,31.609,37,35.075l.124.124L43.2,31.733A2.058,2.058,0,0,0,44.436,30h0C44.436,30.619,43.94,31.114,43.2,31.609Z" transform="translate(2574.981 902.178)"/>
    <path id="Path_478" data-name="Path 478" class="cls-9" d="M23.1,17.7,47.266,31.442c.744.5,1.239.99,1.239,1.609h0a2.058,2.058,0,0,0-1.239-1.733L23.1,17.579c-1.735-.99-3.1-.124-3.1,1.857v.124C20,17.579,21.363,16.713,23.1,17.7Z" transform="translate(2570.912 899.127)"/>
  </g>
</svg>
