<svg xmlns="http://www.w3.org/2000/svg" xmlns:xlink="http://www.w3.org/1999/xlink" viewBox="0 0 620 688.07">
    <defs>
        <linearGradient id="bb83b94f-4c91-437d-bd11-bf454057beb8" x1="108.61" y1="479.67" x2="108.61" y2="293.31"
                        gradientUnits="userSpaceOnUse">
            <stop offset="0" stop-color="#bbfaf1" stop-opacity="0"/>
            <stop offset="1" stop-color="#80b6ff"/>
        </linearGradient>
        <linearGradient id="ccdc4fb2-b603-43f5-a85e-d5dcf3d7a576" x1="285.38" y1="574.65" x2="285.38" y2="493.43"
                        xlink:href="#bb83b94f-4c91-437d-bd11-bf454057beb8"/>
        <linearGradient id="c64db88e-58d9-44ff-8af4-d3bfd387e6e5" x1="446.97" y1="654.04" x2="446.97" y2="595.1"
                        xlink:href="#bb83b94f-4c91-437d-bd11-bf454057beb8"/>
        <linearGradient id="ef9f29b1-834d-4731-9d69-fb995e3a61f8" x1="418.14" y1="352.56" x2="440.76" y2="391.73"
                        gradientUnits="userSpaceOnUse">
            <stop offset="0" stop-color="#4acbfa"/>
            <stop offset="1" stop-color="#7399f9"/>
        </linearGradient>
        <linearGradient id="aed93c33-a209-48ed-8399-7e39126ba57d" x1="301.25" y1="339.14" x2="301.25" y2="241.98"
                        xlink:href="#ef9f29b1-834d-4731-9d69-fb995e3a61f8"/>
        <linearGradient id="7c0f675d-6225-4dd1-84b9-193cf038e91e" x1="554.56" y1="347" x2="554.56" y2="509.06"
                        xlink:href="#ef9f29b1-834d-4731-9d69-fb995e3a61f8"/>
        <linearGradient id="39404e6f-e039-48fe-a91f-ddb4cea19c7f" x1="-10.63" y1="412.29" x2="345.72" y2="302.83"
                        gradientUnits="userSpaceOnUse">
            <stop offset="0" stop-color="#dcfaf6"/>
            <stop offset="1" stop-color="#d2e5ff"/>
        </linearGradient>
        <linearGradient id="ad543cf7-ced1-4c5a-96f3-98b7188cb596" x1="240.93" y1="341.09" x2="-191.29" y2="433.76"
                        xlink:href="#39404e6f-e039-48fe-a91f-ddb4cea19c7f"/>
        <linearGradient id="9e93495e-9672-4e95-877b-0b5b747a5641" x1="-10.63" y1="394.15" x2="345.72" y2="284.69"
                        gradientUnits="userSpaceOnUse">
            <stop offset="0" stop-color="#bbfaf1"/>
            <stop offset="1" stop-color="#80b6ff"/>
        </linearGradient>
        <linearGradient id="0e709cdf-c2f7-43b7-bf50-4144850bb0dc" x1="240.93" y1="322.95" x2="-191.29" y2="415.61"
                        xlink:href="#9e93495e-9672-4e95-877b-0b5b747a5641"/>
        <linearGradient id="429e99cf-16d2-4469-86e0-bac5f3dc5e62" x1="-10.63" y1="375.68" x2="345.72" y2="266.23"
                        gradientUnits="userSpaceOnUse">
            <stop offset="0" stop-color="#8afae9"/>
            <stop offset="1" stop-color="#398dff"/>
        </linearGradient>
        <linearGradient id="f7fdfb6b-f366-4178-86b3-a84cdb10fdb0" x1="240.93" y1="304.49" x2="-191.29" y2="397.15"
                        xlink:href="#429e99cf-16d2-4469-86e0-bac5f3dc5e62"/>
        <linearGradient id="54976551-deaa-49a2-8240-0e67cecb05cb" x1="-10.63" y1="357.22" x2="345.72" y2="247.76"
                        gradientUnits="userSpaceOnUse">
            <stop offset="0" stop-color="#4ae0fa"/>
            <stop offset="1" stop-color="#002fff"/>
        </linearGradient>
        <linearGradient id="a6ff0e59-849b-43ec-9076-6f919815baf2" x1="240.93" y1="286.02" x2="-191.29" y2="378.69"
                        xlink:href="#54976551-deaa-49a2-8240-0e67cecb05cb"/>
        <linearGradient id="f9925620-247f-4328-9b3c-487323a0f004" x1="87.14" y1="285.18" x2="209" y2="287.49"
                        gradientUnits="userSpaceOnUse">
            <stop offset="0" stop-color="#ffa56f"/>
            <stop offset="1" stop-color="#fece74"/>
        </linearGradient>
        <linearGradient id="babf5b04-0239-49fc-bf10-201f8292ed43" x1="100.62" y1="282.81" x2="196.14" y2="303.92"
                        xlink:href="#f9925620-247f-4328-9b3c-487323a0f004"/>
        <linearGradient id="fa507bfb-1ed3-4625-b1f0-df65c07d9d03" x1="152.65" y1="307.47" x2="103.48" y2="279.37"
                        gradientUnits="userSpaceOnUse">
            <stop offset="0" stop-color="#ff6f76"/>
            <stop offset="1" stop-color="#fe9b74"/>
        </linearGradient>
        <linearGradient id="af74bf4f-d122-4a94-8b69-e7c45e4141d6" x1="164.83" y1="514.27" x2="521.18" y2="404.81"
                        gradientUnits="userSpaceOnUse">
            <stop offset="0" stop-color="#ebfaf7"/>
            <stop offset="1" stop-color="#dbf0ff"/>
        </linearGradient>
        <linearGradient id="d3a45ed7-9488-4d8f-ac2a-bcd1c01dd904" x1="416.39" y1="443.07" x2="-15.83" y2="535.74"
                        xlink:href="#af74bf4f-d122-4a94-8b69-e7c45e4141d6"/>
        <linearGradient id="d8ee2ca0-d45d-498d-87f3-f166f45e2188" x1="164.83" y1="495.8" x2="521.18" y2="386.35"
                        gradientUnits="userSpaceOnUse">
            <stop offset="0" stop-color="#e3faf4"/>
            <stop offset="1" stop-color="#bfe3ff"/>
        </linearGradient>
        <linearGradient id="b3cadc45-fda3-4311-b99c-46762a222335" x1="416.39" y1="424.61" x2="-15.83" y2="517.27"
                        xlink:href="#d8ee2ca0-d45d-498d-87f3-f166f45e2188"/>
        <linearGradient id="1763f2cc-91ae-4278-86f8-d822ef1c5735" x1="164.83" y1="477.34" x2="521.18" y2="367.88"
                        gradientUnits="userSpaceOnUse">
            <stop offset="0" stop-color="#dcfaf2"/>
            <stop offset="1" stop-color="#94ceff"/>
        </linearGradient>
        <linearGradient id="7b3695d2-1750-4295-a3a4-fe6eb5bd2a87" x1="416.39" y1="406.15" x2="-15.83" y2="498.81"
                        xlink:href="#1763f2cc-91ae-4278-86f8-d822ef1c5735"/>
        <linearGradient id="a80f73f2-233f-484a-9bc9-76615b9aa773" x1="164.83" y1="458.61" x2="521.18" y2="349.15"
                        gradientUnits="userSpaceOnUse">
            <stop offset="0" stop-color="#cdfaee"/>
            <stop offset="1" stop-color="#7dc3ff"/>
        </linearGradient>
        <linearGradient id="716afb74-269a-46c9-aa00-dae847c5b521" x1="416.39" y1="387.41" x2="-15.83" y2="480.08"
                        xlink:href="#a80f73f2-233f-484a-9bc9-76615b9aa773"/>
        <linearGradient id="1f1e2dff-fa1b-4b32-ac14-21b2043a28d5" x1="164.83" y1="439.42" x2="521.18" y2="329.96"
                        gradientUnits="userSpaceOnUse">
            <stop offset="0" stop-color="#b9fae9"/>
            <stop offset="1" stop-color="#69bbff"/>
        </linearGradient>
        <linearGradient id="5529f2df-8d9e-4668-9ea9-57064f073c5e" x1="416.39" y1="368.22" x2="-15.83" y2="460.89"
                        xlink:href="#1f1e2dff-fa1b-4b32-ac14-21b2043a28d5"/>
        <linearGradient id="372136e1-89c9-43bc-82b9-9c1cfde8a45d" x1="164.83" y1="418.55" x2="521.18" y2="309.09"
                        xlink:href="#429e99cf-16d2-4469-86e0-bac5f3dc5e62"/>
        <linearGradient id="4cd18dba-ed20-43e2-bc2d-ba07ddd65d90" x1="416.39" y1="347.35" x2="-15.83" y2="440.02"
                        xlink:href="#429e99cf-16d2-4469-86e0-bac5f3dc5e62"/>
        <linearGradient id="960d0933-b757-4415-becf-187be9ef4508" x1="164.8" y1="397.28" x2="521.15" y2="287.82"
                        xlink:href="#54976551-deaa-49a2-8240-0e67cecb05cb"/>
        <linearGradient id="cdafd9af-3449-471d-8daa-434bef011106" x1="416.35" y1="326.08" x2="-15.87" y2="418.75"
                        xlink:href="#54976551-deaa-49a2-8240-0e67cecb05cb"/>
        <linearGradient id="49dcf300-e0dd-42ab-9557-efd337f730f1" x1="262.56" y1="325.25" x2="384.42" y2="327.55"
                        xlink:href="#f9925620-247f-4328-9b3c-487323a0f004"/>
        <linearGradient id="dfc4984a-5987-4bcf-aab6-8889366712cf" x1="276.04" y1="322.87" x2="371.57" y2="343.98"
                        xlink:href="#f9925620-247f-4328-9b3c-487323a0f004"/>
        <linearGradient id="72e4f044-2b50-46f2-9a2f-499fefd0ca3b" x1="271.25" y1="319.17" x2="333.47" y2="348.95"
                        xlink:href="#429e99cf-16d2-4469-86e0-bac5f3dc5e62"/>
        <linearGradient id="dd9a9fc2-1a89-4668-86c9-30e5fd79f978" x1="327.78" y1="607.04" x2="684.13" y2="497.58"
                        xlink:href="#39404e6f-e039-48fe-a91f-ddb4cea19c7f"/>
        <linearGradient id="29838f36-a91f-4ab3-9312-e2feca5ef350" x1="579.33" y1="535.84" x2="147.11" y2="628.51"
                        xlink:href="#39404e6f-e039-48fe-a91f-ddb4cea19c7f"/>
        <linearGradient id="66230994-ca08-4665-8135-1dbc6b58a51f" x1="327.74" y1="586.62" x2="684.09" y2="477.16"
                        xlink:href="#54976551-deaa-49a2-8240-0e67cecb05cb"/>
        <linearGradient id="544b0347-544f-4f2d-9577-d8cb6d98f0e5" x1="579.3" y1="515.42" x2="147.07" y2="608.09"
                        xlink:href="#54976551-deaa-49a2-8240-0e67cecb05cb"/>
        <linearGradient id="27f6eec2-6b31-45bc-a82c-1f80d47bd726" x1="425.51" y1="514.59" x2="547.37" y2="516.89"
                        xlink:href="#f9925620-247f-4328-9b3c-487323a0f004"/>
        <linearGradient id="6b6df552-69bf-44ab-a8ff-0fd29e65f6a6" x1="438.99" y1="512.21" x2="534.51" y2="533.33"
                        xlink:href="#f9925620-247f-4328-9b3c-487323a0f004"/>
        <linearGradient id="7ccda3a9-4947-4ec0-a6be-0db7a92c3aa0" x1="482.04" y1="523.15" x2="437.89" y2="544.89"
                        gradientUnits="userSpaceOnUse">
            <stop offset="0" stop-color="#826fff"/>
            <stop offset="1" stop-color="#c274fe"/>
        </linearGradient>
        <linearGradient id="34105549-a101-463f-8de3-e338957a1641" x1="553.5" y1="138.31" x2="422.66" y2="191.14"
                        gradientUnits="userSpaceOnUse">
            <stop offset="0" stop-color="#f5fbfd"/>
            <stop offset="1" stop-color="#82c2fe"/>
        </linearGradient>
        <linearGradient id="a3c5d04d-86b6-42a4-bb5d-b4944ca61322" x1="432.97" y1="26.29" x2="505.3" y2="336.74"
                        xlink:href="#34105549-a101-463f-8de3-e338957a1641"/>
        <linearGradient id="46a7a92a-2fac-49a2-9268-44146b83077c" x1="489.45" y1="41.88" x2="454.66" y2="155.61"
                        xlink:href="#fa507bfb-1ed3-4625-b1f0-df65c07d9d03"/>
        <linearGradient id="2e2c7583-ea33-45ab-bfb0-7fda815e8587" x1="506.11" y1="121.78" x2="446.57" y2="206.75"
                        xlink:href="#fa507bfb-1ed3-4625-b1f0-df65c07d9d03"/>
        <linearGradient id="28db91f5-2f18-4ea4-89a8-759db444da62" x1="475.04" y1="267.63" x2="463.24" y2="284.46"
                        xlink:href="#fa507bfb-1ed3-4625-b1f0-df65c07d9d03"/>
        <linearGradient id="ee1c0bda-9d13-48d7-9f6e-d16f2a4123e8" x1="510.59" y1="289.38" x2="498.79" y2="306.21"
                        xlink:href="#fa507bfb-1ed3-4625-b1f0-df65c07d9d03"/>
        <linearGradient id="7519cea8-73c0-4302-8ffb-096035633fe0" x1="438.77" y1="249" x2="426.97" y2="265.83"
                        xlink:href="#fa507bfb-1ed3-4625-b1f0-df65c07d9d03"/>
        <linearGradient id="5d6eeeaa-a2d7-4559-961b-93c6414d9fad" x1="-404.24" y1="418.8" x2="-404.24" y2="457.81"
                        gradientTransform="translate(955.89 -15.85) rotate(0.4)" gradientUnits="userSpaceOnUse">
            <stop offset="0" stop-color="#ffa56f"/>
            <stop offset="1" stop-color="#fece74" stop-opacity="0"/>
        </linearGradient>
        <linearGradient id="6af3a2dd-2510-4de3-b607-34c02ddb57ba" x1="5134.51" y1="434.72" x2="5135.12" y2="410.89"
                        gradientTransform="matrix(-1, -0.01, -0.01, 1, 5688.87, 16.83)"
                        xlink:href="#f9925620-247f-4328-9b3c-487323a0f004"/>
        <linearGradient id="8e3f9a34-73cc-420b-9315-249a6f687aa1" x1="5141.78" y1="403.81" x2="5138.51" y2="438.18"
                        gradientTransform="matrix(-1, -0.01, -0.01, 1, 5688.87, 16.83)"
                        xlink:href="#f9925620-247f-4328-9b3c-487323a0f004"/>
        <linearGradient id="ff9b74d7-c722-4acd-8b22-f41a85c03842" x1="539.47" y1="403.03" x2="552.63" y2="403.03"
                        xlink:href="#f9925620-247f-4328-9b3c-487323a0f004"/>
        <linearGradient id="5b23e85e-4c0c-48d2-8ed4-b0b1f0a3d8d2" x1="-611.25" y1="299.85" x2="-611.25" y2="338.85"
                        xlink:href="#5d6eeeaa-a2d7-4559-961b-93c6414d9fad"/>
        <linearGradient id="b969c167-59e8-4f7a-8ee6-0f5c697bd1e6" x1="5341.52" y1="315.76" x2="5342.13" y2="291.93"
                        gradientTransform="matrix(-1, -0.01, -0.01, 1, 5688.87, 16.83)"
                        xlink:href="#f9925620-247f-4328-9b3c-487323a0f004"/>
        <linearGradient id="f0be8fcf-ff15-4834-af07-620e7d09a9b9" x1="5348.79" y1="284.86" x2="5345.52" y2="319.22"
                        gradientTransform="matrix(-1, -0.01, -0.01, 1, 5688.87, 16.83)"
                        xlink:href="#f9925620-247f-4328-9b3c-487323a0f004"/>
        <linearGradient id="fb3955ea-701b-4e68-82c6-1de2c1d8a220" x1="333.28" y1="282.64" x2="346.44" y2="282.64"
                        xlink:href="#f9925620-247f-4328-9b3c-487323a0f004"/>
        <linearGradient id="56dbe1a3-782e-4d37-ac2a-86811c5d3ec6" x1="4642.75" y1="365.91" x2="4642.75" y2="406.47"
                        gradientTransform="matrix(-1, 0.01, 0.01, 1, 5067.4, -15.85)"
                        xlink:href="#5d6eeeaa-a2d7-4559-961b-93c6414d9fad"/>
        <linearGradient id="81674957-d621-4f7b-876a-d96bdcc9a0f2" x1="87.41" y1="382.46" x2="88.05" y2="357.69"
                        gradientTransform="translate(334.43 16.83) rotate(-0.4)"
                        xlink:href="#f9925620-247f-4328-9b3c-487323a0f004"/>
        <linearGradient id="05294673-bb2c-4230-95da-cea49eed4e00" x1="94.98" y1="350.33" x2="91.57" y2="386.06"
                        gradientTransform="translate(334.43 16.83) rotate(-0.4)"
                        xlink:href="#f9925620-247f-4328-9b3c-487323a0f004"/>
        <linearGradient id="2c072b3a-4b38-4ee1-8ded-16ed41bdccf9" x1="424.03" y1="385.52" x2="437.82" y2="385.52"
                        xlink:href="#f9925620-247f-4328-9b3c-487323a0f004"/>
        <linearGradient id="113542d6-09ab-418c-a77b-004e75ed21cd" x1="4851.73" y1="227.02" x2="4851.73" y2="267.57"
                        gradientTransform="matrix(-1, 0.01, 0.01, 1, 5067.4, -15.85)"
                        xlink:href="#5d6eeeaa-a2d7-4559-961b-93c6414d9fad"/>
        <linearGradient id="359d44e4-d9db-4e12-b383-7b95f4ae0c4d" x1="-121.57" y1="243.57" x2="-120.93" y2="218.79"
                        gradientTransform="translate(334.43 16.83) rotate(-0.4)"
                        xlink:href="#f9925620-247f-4328-9b3c-487323a0f004"/>
        <linearGradient id="9d096f7c-d763-4d86-b949-7f45860b264c" x1="-114.01" y1="211.44" x2="-117.41" y2="247.16"
                        gradientTransform="translate(334.43 16.83) rotate(-0.4)"
                        xlink:href="#f9925620-247f-4328-9b3c-487323a0f004"/>
        <linearGradient id="cbb59d39-039a-405f-bee6-ee865f51075f" x1="214.09" y1="248.08" x2="227.88" y2="248.08"
                        xlink:href="#f9925620-247f-4328-9b3c-487323a0f004"/>
        <linearGradient id="df41f349-5c82-4959-88b4-1e3bc976e1dd" x1="4524.76" y1="456.43" x2="4524.76" y2="496.98"
                        gradientTransform="matrix(-1, 0.01, 0.01, 1, 5067.4, -15.85)"
                        xlink:href="#5d6eeeaa-a2d7-4559-961b-93c6414d9fad"/>
        <linearGradient id="7bacebd4-333a-45b9-a625-cb20c1d39b71" x1="205.4" y1="472.97" x2="206.04" y2="448.2"
                        gradientTransform="translate(334.43 16.83) rotate(-0.4)"
                        xlink:href="#f9925620-247f-4328-9b3c-487323a0f004"/>
        <linearGradient id="a747193c-1927-4015-b0a2-22d042df2629" x1="212.96" y1="440.84" x2="209.56" y2="476.57"
                        gradientTransform="translate(334.43 16.83) rotate(-0.4)"
                        xlink:href="#f9925620-247f-4328-9b3c-487323a0f004"/>
        <linearGradient id="afd67ea9-e26d-4e6e-ab06-f919e8fb6121" x1="542.64" y1="475.22" x2="556.43" y2="475.22"
                        xlink:href="#f9925620-247f-4328-9b3c-487323a0f004"/>
    </defs>
    <title>5Artboard 7</title>
    <g id="33c27ca0-7dda-486d-ba6b-f8e526699423" data-name="Layer 76">
        <polyline points="0 379.83 0 481.9 217.21 483.58 217.13 370.12"
                  style="opacity:0.5;fill:url(#bb83b94f-4c91-437d-bd11-bf454057beb8)"/>
    </g>
    <g id="e21a1fc9-bdbc-49af-a59d-6507d445852d" data-name="Layer 75">
        <polyline points="176.77 484.63 176.77 624.59 393.98 626.9 393.9 471.32"
                  style="opacity:0.15;fill:url(#ccdc4fb2-b603-43f5-a85e-d5dcf3d7a576)"/>
    </g>
    <g id="06b37984-5e4b-47d8-a3bf-50417f2dfe47" data-name="Layer 74">
        <polyline points="338.37 574.13 338.37 686.22 555.58 688.07 555.5 563.47"
                  style="opacity:0.15;fill:url(#c64db88e-58d9-44ff-8af4-d3bfd387e6e5)"/>
    </g>
    <g class="lines" id="1f43888a-23ae-43f8-ad4d-8d56a2d67aa2" data-name="Layer 71">
        <path id="line1" d="M472.94,321.5v44.78a10.64,10.64,0,0,1-5.31,9.36l-82.2,46.22"
              style="fill:none;stroke-linecap:round;stroke-linejoin:round;stroke-dasharray:11;stroke:url(#ef9f29b1-834d-4731-9d69-fb995e3a61f8)"/>
        <!--<path id="line1" d="m 385.43,421.86 82.2,-46.22 a 10.64,10.64 0 0 0 5.31,-9.36 V 321.5"-->
              <!--style="fill:none;stroke-linecap:round;stroke-linejoin:round;stroke-dasharray:11;stroke:url(#ef9f29b1-834d-4731-9d69-fb995e3a61f8)"/>-->
        <path id="line1_f" d="M472.94,321.5v44.78a10.64,10.64,0,0,1-5.31,9.36l-82.2,46.22"
              style="fill:none;stroke-linecap:round;stroke-linejoin:round;stroke-dasharray:9,15;stroke-width:3;stroke-dashoffset:8;stroke:#fff"/>
        <path id="line2" d="M427.16,290.56l.24,37.68c0,7.6-8.45,12.95-15,9.14L252.1,244.5c-3.65-2.11-8.24-2.86-11.91-.79L175.1,281.29"
              style="fill:none;stroke-linecap:round;stroke-linejoin:round;stroke-dasharray:11;stroke:url(#aed93c33-a209-48ed-8399-7e39126ba57d)"/>
        <!--<path id="line2" d="m 175.1,281.29 65.09,-37.58 c 3.67,-2.07 8.26,-1.32 11.91,0.79 l 160.3,92.88 c 6.55,3.81 15,-1.54 15,-9.14 l -0.24,-37.68"-->
              <!--style="fill:none;stroke-linecap:round;stroke-linejoin:round;stroke-dasharray:11;stroke:url(#aed93c33-a209-48ed-8399-7e39126ba57d)"/>-->
        <path id="line2_f" d="M427.16,290.56l.24,37.68c0,7.6-8.45,12.95-15,9.14L252.1,244.5c-3.65-2.11-8.24-2.86-11.91-.79L175.1,281.29"
              style="fill:none;stroke-linecap:round;stroke-linejoin:round;stroke-dasharray:9,15;stroke-width:3;stroke-dashoffset:8;stroke:#fff"/>
        <path id="line3" d="M518.49,347.5l-.16,44.87a11.75,11.75,0,0,0,6.42,10.35l68.51,39a10.72,10.72,0,0,1,.13,18.62l-83,48.21"
              style="fill:none;stroke-linecap:round;stroke-linejoin:round;stroke-dasharray:11;stroke:url(#7c0f675d-6225-4dd1-84b9-193cf038e91e)"/>
        <!--<path id="line3" d="m 510.39,508.55 83,-48.21 a 10.72,10.72 0 0 0 -0.13,-18.62 l -68.51,-39 a 11.75,11.75 0 0 1 -6.42,-10.35 l 0.16,-44.87"-->
              <!--style="fill:none;stroke-linecap:round;stroke-linejoin:round;stroke-dasharray:11;stroke:url(#7c0f675d-6225-4dd1-84b9-193cf038e91e)"/>-->
        <path id="line3_f" d="M518.49,347.5l-.16,44.87a11.75,11.75,0,0,0,6.42,10.35l68.51,39a10.72,10.72,0,0,1,.13,18.62l-83,48.21"
              style="fill:none;stroke-linecap:round;stroke-linejoin:round;stroke-dasharray:9,15;stroke-width:3;stroke-dashoffset:8;stroke:#fff"/>
    </g>
    <g id="aa33709b-b84e-446a-b712-0a6a7f399b00" data-name="Layer 70">
        <path d="M91.83,437.21,2,385.34a3.4,3.4,0,0,1-2-2.92c0-.58,0-6.11,0-6.11a12.34,12.34,0,0,0,3.16-.93l110.64-60.76c3.4-2,8.58-2.18,11.52-.48l88,48.34a18.31,18.31,0,0,0,3.83.57s0,5.19,0,5.7c.08,1.35-.88,2.8-2.81,3.92l-111,64.08C100,438.7,94.77,438.91,91.83,437.21Z"
              style="fill:url(#39404e6f-e039-48fe-a91f-ddb4cea19c7f)"/>
        <path d="M91.83,431,2,379.14c-2.94-1.7-2.57-4.69.83-6.65l111-64.08c3.4-2,8.58-2.18,11.52-.48l89.84,51.87c2.94,1.7,2.57,4.69-.83,6.65l-111,64.08C100,432.49,94.77,432.7,91.83,431Z"
              style="fill:url(#ad543cf7-ced1-4c5a-96f3-98b7188cb596)"/>
    </g>
    <g id="f7b9df7e-ac8b-4bb2-81c8-752380bb24a4" data-name="Layer 69">
        <path d="M91.83,419.07,2,367.2a3.4,3.4,0,0,1-2-2.92c0-.58,0-6.11,0-6.11a12.34,12.34,0,0,0,3.16-.93l110.64-60.76c3.4-2,8.58-2.18,11.52-.48l88,48.34a18.31,18.31,0,0,0,3.83.57s0,5.19,0,5.7c.08,1.35-.88,2.8-2.81,3.92l-111,64.08C100,420.55,94.77,420.77,91.83,419.07Z"
              style="fill:url(#9e93495e-9672-4e95-877b-0b5b747a5641)"/>
        <path d="M91.83,412.86,2,361c-2.94-1.7-2.57-4.69.83-6.65l111-64.08c3.4-2,8.58-2.18,11.52-.48l89.84,51.87c2.94,1.7,2.57,4.69-.83,6.65l-111,64.08C100,414.35,94.77,414.56,91.83,412.86Z"
              style="fill:url(#0e709cdf-c2f7-43b7-bf50-4144850bb0dc)"/>
    </g>
    <g id="48d8e5dc-989f-4920-9f2a-db1583888120" data-name="Layer 68">
        <path d="M91.83,400.61,2,348.74a3.4,3.4,0,0,1-2-2.92c0-.58,0-6.11,0-6.11a12.34,12.34,0,0,0,3.16-.93L113.79,278c3.4-2,8.58-2.18,11.52-.48l88,48.34a18.31,18.31,0,0,0,3.83.57s0,5.19,0,5.7c.08,1.35-.88,2.8-2.81,3.92l-111,64.08C100,402.09,94.77,402.3,91.83,400.61Z"
              style="fill:url(#429e99cf-16d2-4469-86e0-bac5f3dc5e62)"/>
        <path d="M91.83,394.4,2,342.53c-2.94-1.7-2.57-4.69.83-6.65l111-64.08c3.4-2,8.58-2.18,11.52-.48l89.84,51.87c2.94,1.7,2.57,4.69-.83,6.65l-111,64.08C100,395.88,94.77,396.1,91.83,394.4Z"
              style="fill:url(#f7fdfb6b-f366-4178-86b3-a84cdb10fdb0)"/>
    </g>
    <g id="bf34b5bf-46d4-4106-95a3-d663b5c8c39a" data-name="Layer 67">
        <path d="M91.83,382.14,2,330.27a3.4,3.4,0,0,1-2-2.92c0-.58,0-6.11,0-6.11a12.34,12.34,0,0,0,3.16-.93l110.64-60.76c3.4-2,8.58-2.18,11.52-.48l88,48.34a18.31,18.31,0,0,0,3.83.57s0,5.19,0,5.7c.08,1.35-.88,2.8-2.81,3.92l-111,64.08C100,383.63,94.77,383.84,91.83,382.14Z"
              style="fill:url(#54976551-deaa-49a2-8240-0e67cecb05cb)"/>
        <path d="M91.83,375.94,2,324.07c-2.94-1.7-2.57-4.69.83-6.65l111-64.08c3.4-2,8.58-2.18,11.52-.48l89.84,51.87c2.94,1.7,2.57,4.69-.83,6.65l-111,64.08C100,377.42,94.77,377.63,91.83,375.94Z"
              style="fill:url(#a6ff0e59-849b-43ec-9076-6f919815baf2)"/>
        <path d="M90.67,302.73l-3.12-1.8,2.11-1.22,8.46,4.88L96,305.81,92.88,304l-8.81,5.09-2.22-1.28Z"
              style="fill:#fff"/>
        <path d="M98.15,313.42l-6-3.49c-.84.83-.64,1.61.63,2.35a9.62,9.62,0,0,0,3.42,1l-.64,1.32a11.17,11.17,0,0,1-4.63-1.39c-1.42-.82-2.08-1.68-2-2.59a3.14,3.14,0,0,1,1.86-2.37,8.3,8.3,0,0,1,4.2-1.08,8.19,8.19,0,0,1,4.23,1.06c1.17.67,1.78,1.45,1.8,2.3s-.56,1.64-1.82,2.36A10.21,10.21,0,0,1,98.15,313.42ZM93.66,309l4.1,2.36c.86-.72.74-1.52-.33-2.13A4.59,4.59,0,0,0,93.66,309Z"
              style="fill:#fff"/>
        <path d="M110.56,315.08l2,1.14-8.06,4.65-2-1.14.93-.54a6.92,6.92,0,0,1-3.7-.84c-1.15-.67-1.72-1.45-1.66-2.36A3.22,3.22,0,0,1,100,313.6a8.36,8.36,0,0,1,4.14-1.08,7.73,7.73,0,0,1,4.05,1,2.27,2.27,0,0,1,1.4,2.16Zm-3,1c0-.51-.28-.95-.93-1.32a4.31,4.31,0,0,0-2.31-.55,4.73,4.73,0,0,0-2.26.59,1.71,1.71,0,0,0-1,1.32c0,.51.28.95.93,1.32a4.31,4.31,0,0,0,2.29.54,4.72,4.72,0,0,0,2.31-.58A1.68,1.68,0,0,0,107.56,316.1Z"
              style="fill:#fff"/>
        <path d="M125.84,324.69c0,.71-.5,1.37-1.58,2l-4.87,2.81-2.08-1.2,4.48-2.59c1.23-.71,1.23-1.46.27-2a3.81,3.81,0,0,0-3.71.09l-4.42,2.55-2.09-1.21,4.47-2.58c1.2-.69,1.26-1.46.27-2a3.84,3.84,0,0,0-3.71.11l-4.41,2.54-2.08-1.2,8.06-4.65,2,1.18-1.15.67a5.94,5.94,0,0,1,3.83.62c1,.58,1.45,1.4.95,2.19a7.29,7.29,0,0,1,4.3.84C125.35,323.37,125.84,324,125.84,324.69Z"
              style="fill:#fff"/>
        <path d="M75.27,309.95c0,.71-.5,1.37-1.58,2l-4.86,2.81-2.08-1.2L71.22,311c1.23-.71,1.23-1.46.27-2a3.81,3.81,0,0,0-3.71.09l-4.42,2.55-2.09-1.2,4.47-2.58c1.2-.69,1.26-1.46.27-2a3.84,3.84,0,0,0-3.71.11l-4.41,2.54-2.08-1.2,8.06-4.65,2,1.18-1.15.67a5.93,5.93,0,0,1,3.83.62c1,.58,1.45,1.4.95,2.19a7.28,7.28,0,0,1,4.3.84C74.79,308.63,75.27,309.25,75.27,309.95Z"
              style="fill:#fff"/>
        <path d="M81.67,318.35l-6-3.49c-.84.83-.64,1.61.63,2.35a9.62,9.62,0,0,0,3.42,1L79,319.57a11.16,11.16,0,0,1-4.63-1.39c-1.42-.82-2.08-1.68-2-2.59a3.14,3.14,0,0,1,1.86-2.37,8.3,8.3,0,0,1,4.2-1.08,8.19,8.19,0,0,1,4.23,1.06c1.17.67,1.78,1.45,1.8,2.3s-.56,1.64-1.82,2.37A10.33,10.33,0,0,1,81.67,318.35ZM77.17,314l4.1,2.36c.86-.72.74-1.52-.33-2.13A4.59,4.59,0,0,0,77.17,314Z"
              style="fill:#fff"/>
        <path d="M99.36,323.85c0,.71-.5,1.37-1.58,2l-4.86,2.81-2.08-1.2,4.48-2.59c1.23-.71,1.23-1.46.27-2a3.81,3.81,0,0,0-3.71.09l-4.42,2.55-2.09-1.2,4.47-2.58c1.2-.69,1.26-1.46.27-2a3.84,3.84,0,0,0-3.71.11L82,322.33l-2.08-1.2,8.06-4.65,2,1.18-1.15.67a5.94,5.94,0,0,1,3.83.62c1,.58,1.45,1.4.95,2.19a7.28,7.28,0,0,1,4.3.84C98.87,322.53,99.36,323.15,99.36,323.85Z"
              style="fill:#fff"/>
        <path d="M109.15,329.9a3.1,3.1,0,0,1-1.87,2.41,8.48,8.48,0,0,1-4.17,1.08,7.84,7.84,0,0,1-4.07-1c-1-.59-1.45-1.3-1.32-2.14l-1,.58-2-1.17,11.24-6.49,2.08,1.2-4.11,2.37a6.59,6.59,0,0,1,3.59.76A2.66,2.66,0,0,1,109.15,329.9Zm-9.45-.08c0,.5.28.93.93,1.31a4.27,4.27,0,0,0,2.26.54,4.74,4.74,0,0,0,2.28-.6,1.7,1.7,0,0,0,1-1.31q0-.74-.93-1.31a4.22,4.22,0,0,0-2.28-.53,4.62,4.62,0,0,0-2.25.58A1.76,1.76,0,0,0,99.7,329.82Z"
              style="fill:#fff"/>
        <path d="M115.78,338l-6-3.49c-.84.83-.64,1.61.64,2.35a9.61,9.61,0,0,0,3.42,1l-.64,1.32a11.19,11.19,0,0,1-4.63-1.39c-1.42-.82-2.09-1.68-2-2.59a3.14,3.14,0,0,1,1.86-2.37,8.31,8.31,0,0,1,4.2-1.08,8.19,8.19,0,0,1,4.23,1.06c1.17.67,1.77,1.45,1.8,2.3s-.56,1.64-1.82,2.37A10.33,10.33,0,0,1,115.78,338Zm-4.49-4.39,4.1,2.36c.86-.72.74-1.52-.33-2.13A4.6,4.6,0,0,0,111.29,333.66Z"
              style="fill:#fff"/>
        <path d="M114,340.82l8.06-4.65,2,1.15-1.08.62a5.16,5.16,0,0,1,3.52.53,2.82,2.82,0,0,1,.8.67l-2.17,1a3.44,3.44,0,0,0-.8-.65,4.29,4.29,0,0,0-4.41.27L116.08,342Z"
              style="fill:#fff"/>
        <path d="M114.27,253l-10.69,6.17c-8.86,5.12-9.2,13.68-.27,18.77,5.75,3.28,13.79,4.41,21.12,3.41-7.75,6.69-6.52,15.83,3.72,21.74s26.06,6.62,37.65,2.15c-1.74,4.24.23,8.87,5.9,12.2,8.8,5.15,23.64,5,32.51-.16l10.58-6.11c3.22-1.86,3.22-4.91,0-6.77l-89-51.39A12.76,12.76,0,0,0,114.27,253Z"
              style="fill:url(#f9925620-247f-4328-9b3c-487323a0f004)"/>
        <text transform="matrix(0.87, 0.5, -0.87, 0.5, 110.62, 266.29)"
              style="font-size:17.710609436035156px;fill:#fff;font-family:Axiforma-Bold, Axiforma;font-weight:700">$
        </text>
        <text transform="matrix(0.87, 0.5, -0.87, 0.5, 178.56, 305.52)"
              style="font-size:17.710609436035156px;fill:#fff;font-family:Axiforma-Bold, Axiforma;font-weight:700">$
        </text>
        <path d="M165.64,305.64c13.1-7.57,13.1-19.83,0-27.4s-34.35-7.57-47.45,0-13.1,19.83,0,27.4S152.54,313.2,165.64,305.64Z"
              style="fill:url(#babf5b04-0239-49fc-bf10-201f8292ed43)"/>
        <path d="M37.79,325.92l4-.72a6,6,0,0,0,2.57,2.89,4.83,4.83,0,0,0,4.73.35c1.22-.7,1-1.77-.49-2.64l-2.09-1.2,2.93-1.69,1.8,1a4.59,4.59,0,0,0,4.42.32c1.18-.68.93-1.64-.4-2.41a11.54,11.54,0,0,0-4.53-1.15l.78-2.27a15.82,15.82,0,0,1,7.23,1.87,4.38,4.38,0,0,1,2.46,2.86c.18,1-.33,1.91-1.55,2.61a8.75,8.75,0,0,1-6.46.53l-.09.05c1.6,1.43,1.15,3-.82,4.19a9.13,9.13,0,0,1-5.15,1.08,12.33,12.33,0,0,1-5.61-1.68A8.1,8.1,0,0,1,37.79,325.92Z"
              style="fill:#fff"/>
        <path d="M68.43,334.67c.09,1.18-.64,2.21-2.22,3.13a10.6,10.6,0,0,1-5.66,1.32,12.39,12.39,0,0,1-6-1.65,7.27,7.27,0,0,1-3.68-4.23l3.93-.76a5.52,5.52,0,0,0,2.62,3.15,5.76,5.76,0,0,0,5.5.26c1.42-.82,1.29-2.1-.31-3a7.67,7.67,0,0,0-3.79-.94l-.38-2,9.1-4.23,8.67,5-3,1.74-6.23-3.6-3.57,1.65a10.19,10.19,0,0,1,2.6,1Q68.3,332.9,68.43,334.67Z"
              style="fill:#fff"/>
        <path d="M64.19,342.73l28.33-2.57,3.06,1.77-28.36,2.56Zm15-9.25a8.39,8.39,0,0,1,4.19,1,2.93,2.93,0,0,1,1.77,2.41,2.74,2.74,0,0,1-1.66,2.4,8,8,0,0,1-4.11.93,8.4,8.4,0,0,1-4.15-1,3.05,3.05,0,0,1-1.82-2.41A2.68,2.68,0,0,1,75,334.44,8.08,8.08,0,0,1,79.15,333.48Zm1.35,11a8.38,8.38,0,0,1,4.19,1,3,3,0,0,1,1.8,2.42,2.7,2.7,0,0,1-1.64,2.38,8,8,0,0,1-4.1.93,8.5,8.5,0,0,1-4.17-1,3.06,3.06,0,0,1-1.82-2.41,2.69,2.69,0,0,1,1.64-2.36A7.92,7.92,0,0,1,80.5,344.46Zm.64-6.49a1.15,1.15,0,0,0,0-2.18,4.14,4.14,0,0,0-3.79,0c-1.06.62-1,1.59,0,2.19A4.21,4.21,0,0,0,81.14,338Zm1.38,8.79a4.12,4.12,0,0,0-3.77,0c-1.09.63-1,1.58,0,2.18a4.13,4.13,0,0,0,3.79,0C83.61,348.33,83.59,347.37,82.52,346.75Z"
              style="fill:#fff"/>
        <path d="M160.42,302.62c10.22-5.9,10.22-15.47,0-21.37s-26.79-5.9-37,0-10.22,15.47,0,21.37S150.2,308.52,160.42,302.62Z"
              style="fill:#fff"/>
        <path d="M139.38,299.85c4.54.69,9.58,0,13.14-2,5.33-3.07,5.33-8.06,0-11.13s-14-3.07-19.29,0c-3.56,2.06-4.73,5-3.53,7.59-7.94-2.39-18-1.67-24.66,2.17-2.1,1.21-2.1,3.2,0,4.42L128,314.08a8.49,8.49,0,0,0,7.65,0C142.26,310.25,143.52,304.43,139.38,299.85Z"
              style="fill:url(#fa507bfb-1ed3-4625-b1f0-df65c07d9d03)"/>
    </g>
    <g id="eb6755d7-672f-43a9-899e-99c42d5c4411" data-name="Layer 65">
        <path d="M267.29,539.19l-89.84-51.87a3.4,3.4,0,0,1-2-2.92c0-.58,0-6.11,0-6.11a12.34,12.34,0,0,0,3.16-.93L289.25,416.6c3.4-2,8.58-2.18,11.52-.48l88,48.34a18.31,18.31,0,0,0,3.83.57s0,5.19,0,5.7c.08,1.35-.88,2.8-2.81,3.92l-111,64.08C275.41,540.68,270.23,540.89,267.29,539.19Z"
              style="fill:url(#af74bf4f-d122-4a94-8b69-e7c45e4141d6)"/>
        <path d="M267.29,533l-89.84-51.87c-2.94-1.7-2.57-4.69.83-6.65l111-64.08c3.4-2,8.58-2.18,11.52-.48l89.84,51.87c2.94,1.7,2.57,4.69-.83,6.65l-111,64.08C275.41,534.47,270.23,534.69,267.29,533Z"
              style="fill:url(#d3a45ed7-9488-4d8f-ac2a-bcd1c01dd904)"/>
    </g>
    <g id="e40af742-9f8a-4819-b7c7-e51331d39bee" data-name="Layer 64">
        <path d="M267.29,520.73l-89.84-51.87a3.4,3.4,0,0,1-2-2.92c0-.58,0-6.11,0-6.11a12.34,12.34,0,0,0,3.16-.93l110.64-60.76c3.4-2,8.58-2.18,11.52-.48l88,48.34a18.31,18.31,0,0,0,3.83.57s0,5.19,0,5.7c.08,1.35-.88,2.8-2.81,3.92l-111,64.08C275.41,522.21,270.23,522.43,267.29,520.73Z"
              style="fill:url(#d8ee2ca0-d45d-498d-87f3-f166f45e2188)"/>
        <path d="M267.29,514.52l-89.84-51.87c-2.94-1.7-2.57-4.69.83-6.65l111-64.08c3.4-2,8.58-2.18,11.52-.48l89.84,51.87c2.94,1.7,2.57,4.69-.83,6.65L278.81,514C275.41,516,270.23,516.22,267.29,514.52Z"
              style="fill:url(#b3cadc45-fda3-4311-b99c-46762a222335)"/>
    </g>
    <g id="bd58254a-1d9a-44fe-869f-00c43915127f" data-name="Layer 63">
        <path d="M267.29,502.27l-89.84-51.87a3.4,3.4,0,0,1-2-2.92c0-.58,0-6.11,0-6.11a12.34,12.34,0,0,0,3.16-.93l110.64-60.76c3.4-2,8.58-2.18,11.52-.48l88,48.34a18.31,18.31,0,0,0,3.83.57s0,5.19,0,5.7c.08,1.35-.88,2.8-2.81,3.92l-111,64.08C275.41,503.75,270.23,504,267.29,502.27Z"
              style="fill:url(#1763f2cc-91ae-4278-86f8-d822ef1c5735)"/>
        <path d="M267.29,496.06l-89.84-51.87c-2.94-1.7-2.57-4.69.83-6.65l111-64.08c3.4-2,8.58-2.18,11.52-.48l89.84,51.87c2.94,1.7,2.57,4.69-.83,6.65l-111,64.08C275.41,497.54,270.23,497.76,267.29,496.06Z"
              style="fill:url(#7b3695d2-1750-4295-a3a4-fe6eb5bd2a87)"/>
    </g>
    <g id="a2940cfd-4872-4444-96b6-de9635164b23" data-name="Layer 62">
        <path d="M267.29,483.53l-89.84-51.87a3.4,3.4,0,0,1-2-2.92c0-.58,0-6.11,0-6.11a12.34,12.34,0,0,0,3.16-.93l110.64-60.76c3.4-2,8.58-2.18,11.52-.48l88,48.34a18.31,18.31,0,0,0,3.83.57s0,5.19,0,5.7c.08,1.35-.88,2.8-2.81,3.92l-111,64.08C275.41,485,270.23,485.23,267.29,483.53Z"
              style="fill:url(#a80f73f2-233f-484a-9bc9-76615b9aa773)"/>
        <path d="M267.29,477.33l-89.84-51.87c-2.94-1.7-2.57-4.69.83-6.65l111-64.08c3.4-2,8.58-2.18,11.52-.48l89.84,51.87c2.94,1.7,2.57,4.69-.83,6.65l-111,64.08C275.41,478.81,270.23,479,267.29,477.33Z"
              style="fill:url(#716afb74-269a-46c9-aa00-dae847c5b521)"/>
    </g>
    <g id="eda13340-7841-4a5e-bed9-41dc921cdbd9" data-name="Layer 61">
        <path d="M267.29,464.34l-89.84-51.87a3.4,3.4,0,0,1-2-2.92c0-.58,0-6.11,0-6.11a12.34,12.34,0,0,0,3.16-.93l110.64-60.76c3.4-2,8.58-2.18,11.52-.48l88,48.34a18.31,18.31,0,0,0,3.83.57s0,5.19,0,5.7c.08,1.35-.88,2.8-2.81,3.92l-111,64.08C275.41,465.83,270.23,466,267.29,464.34Z"
              style="fill:url(#1f1e2dff-fa1b-4b32-ac14-21b2043a28d5)"/>
        <path d="M267.29,458.14l-89.84-51.87c-2.94-1.7-2.57-4.69.83-6.65l111-64.08c3.4-2,8.58-2.18,11.52-.48l89.84,51.87c2.94,1.7,2.57,4.69-.83,6.65l-111,64.08C275.41,459.62,270.23,459.83,267.29,458.14Z"
              style="fill:url(#5529f2df-8d9e-4668-9ea9-57064f073c5e)"/>
    </g>
    <g id="96b6224e-bdd6-4f38-a3f2-ceea0d96a400" data-name="Layer 60">
        <path d="M267.29,443.48,177.44,391.6a3.4,3.4,0,0,1-2-2.92c0-.58,0-6.11,0-6.11a12.34,12.34,0,0,0,3.16-.93l110.64-60.76c3.4-2,8.58-2.18,11.52-.48l88,48.34a18.31,18.31,0,0,0,3.83.57s0,5.19,0,5.7c.08,1.35-.88,2.8-2.81,3.92L278.81,443C275.41,445,270.23,445.17,267.29,443.48Z"
              style="fill:url(#372136e1-89c9-43bc-82b9-9c1cfde8a45d)"/>
        <path d="M267.29,437.27,177.44,385.4c-2.94-1.7-2.57-4.69.83-6.65l111-64.08c3.4-2,8.58-2.18,11.52-.48l89.84,51.87c2.94,1.7,2.57,4.69-.83,6.65l-111,64.08C275.41,438.75,270.23,439,267.29,437.27Z"
              style="fill:url(#4cd18dba-ed20-43e2-bc2d-ba07ddd65d90)"/>
    </g>
    <g id="2048ea5a-72f8-4a04-aa29-2170d35bb3d8" data-name="Layer 59">
        <path d="M267.25,422.2l-89.84-51.87a3.4,3.4,0,0,1-2-2.92c0-.58,0-6.11,0-6.11a12.34,12.34,0,0,0,3.16-.93l110.64-60.76c3.4-2,8.58-2.18,11.52-.48l88,48.34a18.31,18.31,0,0,0,3.83.57s0,5.19,0,5.7c.08,1.35-.88,2.8-2.81,3.92l-111,64.08C275.37,423.69,270.19,423.9,267.25,422.2Z"
              style="fill:url(#960d0933-b757-4415-becf-187be9ef4508)"/>
        <path d="M267.25,416l-89.84-51.87c-2.94-1.7-2.57-4.69.83-6.65l111-64.08c3.4-2,8.58-2.18,11.52-.48l89.84,51.87c2.94,1.7,2.57,4.69-.83,6.65l-111,64.08C275.37,417.48,270.19,417.69,267.25,416Z"
              style="fill:url(#cdafd9af-3449-471d-8daa-434bef011106)"/>
        <path d="M289.7,293.09,279,299.26c-8.86,5.12-9.2,13.68-.27,18.77,5.75,3.28,13.79,4.41,21.12,3.41-7.75,6.69-6.52,15.83,3.72,21.74s26.06,6.62,37.65,2.15c-1.74,4.24.23,8.87,5.9,12.2,8.8,5.15,23.64,5,32.51-.16l10.58-6.11c3.22-1.86,3.22-4.91,0-6.77l-89-51.39A12.76,12.76,0,0,0,289.7,293.09Z"
              style="fill:url(#49dcf300-e0dd-42ab-9557-efd337f730f1)"/>
        <text transform="matrix(0.87, 0.5, -0.87, 0.5, 286.04, 306.35)"
              style="font-size:17.710609436035156px;fill:#fff;font-family:Axiforma-Bold, Axiforma;font-weight:700">$
        </text>
        <text transform="matrix(0.87, 0.5, -0.87, 0.5, 353.98, 345.58)"
              style="font-size:17.710609436035156px;fill:#fff;font-family:Axiforma-Bold, Axiforma;font-weight:700">$
        </text>
        <path d="M341.07,345.7c13.1-7.57,13.1-19.83,0-27.4s-34.35-7.57-47.45,0-13.1,19.83,0,27.4S328,353.26,341.07,345.7Z"
              style="fill:url(#dfc4984a-5987-4bcf-aab6-8889366712cf)"/>
        <path d="M335.85,342.68c10.22-5.9,10.22-15.47,0-21.37s-26.79-5.9-37,0-10.22,15.47,0,21.37S325.63,348.59,335.85,342.68Z"
              style="fill:#fff"/>
        <path d="M314.8,339.91c4.54.69,9.58,0,13.14-2,5.33-3.07,5.33-8.06,0-11.13s-14-3.07-19.29,0c-3.56,2.06-4.73,5-3.53,7.59-7.94-2.39-18-1.67-24.66,2.17-2.1,1.21-2.1,3.2,0,4.42l22.92,13.24a8.49,8.49,0,0,0,7.65,0C317.69,350.31,318.94,344.49,314.8,339.91Z"
              style="fill:url(#72e4f044-2b50-46f2-9a2f-499fefd0ca3b)"/>
        <path d="M266.19,341.82l-3.12-1.8,2.11-1.22,8.46,4.88-2.12,1.22-3.12-1.8-8.81,5.09-2.22-1.28Z"
              style="fill:#fff"/>
        <path d="M273.68,352.51l-6-3.49c-.84.83-.64,1.61.64,2.35a9.59,9.59,0,0,0,3.42,1l-.64,1.32a11.17,11.17,0,0,1-4.63-1.39c-1.42-.82-2.08-1.68-2-2.59a3.14,3.14,0,0,1,1.86-2.37,8.31,8.31,0,0,1,4.2-1.08,8.2,8.2,0,0,1,4.23,1.06c1.17.67,1.78,1.45,1.8,2.31s-.56,1.64-1.82,2.36A10.53,10.53,0,0,1,273.68,352.51Zm-4.5-4.39,4.1,2.37c.86-.72.74-1.52-.33-2.13A4.6,4.6,0,0,0,269.18,348.12Z"
              style="fill:#fff"/>
        <path d="M286.09,354.17l2,1.14L280,360l-2-1.14.93-.54a6.93,6.93,0,0,1-3.7-.84c-1.15-.67-1.72-1.45-1.66-2.36a3.21,3.21,0,0,1,1.92-2.41,8.35,8.35,0,0,1,4.14-1.08,7.73,7.73,0,0,1,4.05,1,2.27,2.27,0,0,1,1.4,2.16Zm-3,1c0-.51-.28-.95-.93-1.32a4.32,4.32,0,0,0-2.31-.55,4.73,4.73,0,0,0-2.26.59,1.7,1.7,0,0,0-1,1.32c0,.51.28.95.93,1.32a4.3,4.3,0,0,0,2.29.54,4.72,4.72,0,0,0,2.31-.58A1.68,1.68,0,0,0,283.09,355.19Z"
              style="fill:#fff"/>
        <path d="M301.37,363.78c0,.71-.5,1.37-1.58,2l-4.87,2.81-2.08-1.2,4.48-2.59c1.23-.71,1.23-1.46.27-2a3.81,3.81,0,0,0-3.71.09l-4.42,2.55-2.09-1.2,4.46-2.58c1.2-.69,1.26-1.46.27-2a3.84,3.84,0,0,0-3.71.11L284,362.26l-2.08-1.2L290,356.4l2,1.18-1.15.67a5.93,5.93,0,0,1,3.83.62c1,.58,1.45,1.4.95,2.19a7.28,7.28,0,0,1,4.3.84C300.88,362.46,301.37,363.08,301.37,363.78Z"
              style="fill:#fff"/>
        <path d="M250.8,349c0,.71-.5,1.37-1.58,2l-4.87,2.81-2.08-1.2,4.48-2.59c1.23-.71,1.23-1.46.27-2a3.81,3.81,0,0,0-3.71.09l-4.42,2.55-2.09-1.2,4.47-2.58c1.2-.69,1.26-1.46.27-2a3.84,3.84,0,0,0-3.71.11l-4.41,2.54-2.09-1.2,8.06-4.65,2,1.18-1.15.67a5.94,5.94,0,0,1,3.83.62c1,.58,1.45,1.4.95,2.19a7.28,7.28,0,0,1,4.3.84C250.32,347.72,250.8,348.34,250.8,349Z"
              style="fill:#fff"/>
        <path d="M257.2,357.44l-6-3.49c-.84.83-.63,1.61.64,2.35a9.59,9.59,0,0,0,3.42,1l-.64,1.32a11.17,11.17,0,0,1-4.63-1.39c-1.42-.82-2.08-1.68-2-2.59a3.14,3.14,0,0,1,1.86-2.37,8.3,8.3,0,0,1,4.2-1.08,8.18,8.18,0,0,1,4.23,1.06c1.17.67,1.77,1.45,1.8,2.3s-.56,1.64-1.82,2.36A10.23,10.23,0,0,1,257.2,357.44Zm-4.5-4.39,4.1,2.37c.86-.72.74-1.52-.33-2.13A4.6,4.6,0,0,0,252.7,353.06Z"
              style="fill:#fff"/>
        <path d="M274.89,362.94c0,.71-.5,1.37-1.58,2l-4.87,2.81-2.08-1.2,4.48-2.59c1.23-.71,1.23-1.46.27-2a3.81,3.81,0,0,0-3.71.09L263,364.58l-2.09-1.2,4.47-2.58c1.2-.69,1.26-1.46.27-2a3.84,3.84,0,0,0-3.71.11l-4.41,2.54-2.09-1.2,8.06-4.65,2,1.18-1.15.67a5.94,5.94,0,0,1,3.83.62c1,.58,1.45,1.4.95,2.19a7.28,7.28,0,0,1,4.3.84C274.4,361.62,274.89,362.24,274.89,362.94Z"
              style="fill:#fff"/>
        <path d="M284.68,369a3.11,3.11,0,0,1-1.86,2.41,8.47,8.47,0,0,1-4.17,1.08,7.85,7.85,0,0,1-4.07-1c-1-.59-1.45-1.3-1.32-2.14l-1,.58-2-1.17,11.24-6.49,2.09,1.2-4.11,2.37a6.59,6.59,0,0,1,3.59.76A2.65,2.65,0,0,1,284.68,369Zm-9.45-.08q0,.74.93,1.31a4.26,4.26,0,0,0,2.26.54,4.74,4.74,0,0,0,2.28-.6,1.7,1.7,0,0,0,1-1.31q0-.74-.93-1.31a4.21,4.21,0,0,0-2.28-.53,4.62,4.62,0,0,0-2.25.58A1.76,1.76,0,0,0,275.23,368.91Z"
              style="fill:#fff"/>
        <path d="M291.31,377.14l-6-3.49c-.84.83-.64,1.61.64,2.35a9.61,9.61,0,0,0,3.42,1l-.64,1.32A11.17,11.17,0,0,1,284,377c-1.42-.82-2.09-1.68-2-2.59a3.14,3.14,0,0,1,1.86-2.37,8.3,8.3,0,0,1,4.2-1.08,8.2,8.2,0,0,1,4.23,1.06c1.17.67,1.77,1.45,1.8,2.31s-.56,1.64-1.82,2.36A10.68,10.68,0,0,1,291.31,377.14Zm-4.5-4.39,4.1,2.36c.86-.72.74-1.52-.33-2.13A4.6,4.6,0,0,0,286.81,372.75Z"
              style="fill:#fff"/>
        <path d="M289.52,379.91l8.06-4.65,2,1.15-1.08.62a5.16,5.16,0,0,1,3.52.53,2.81,2.81,0,0,1,.8.67l-2.17,1a3.42,3.42,0,0,0-.8-.65,4.29,4.29,0,0,0-4.41.27l-3.83,2.21Z"
              style="fill:#fff"/>
        <path d="M231,369.24l-2.73,1.58-1.77-1L222.7,372l-3.06-1.77,3.82-2.2-7.21-4.16,1.46-1.59,19-1.1,2.35,1.36-9.85,5.69Zm-9-5.17,4.13,2.38,5.1-2.95Z"
              style="fill:#fff"/>
        <path d="M230.18,375.24c-.44-2.1,1.24-4.07,4.37-5.88a19.79,19.79,0,0,1,4.9-2,13.8,13.8,0,0,1,10.21,1c4.57,2.64,2.68,6.11-1.84,8.72s-10.54,3.7-15.11,1.06A4.66,4.66,0,0,1,230.18,375.24Zm17.42-2.83c.44-.9.11-1.68-1-2.33a5.94,5.94,0,0,0-4-.58,14.1,14.1,0,0,0-4.73,1.75c-3.2,1.84-4.28,3.75-2,5s5.57.68,8.76-1.17A7.4,7.4,0,0,0,247.6,372.4Z"
              style="fill:#fff"/>
        <path d="M243.07,383.75l28.33-2.58,3.06,1.77-28.36,2.56Zm15-9.25a8.39,8.39,0,0,1,4.19,1A2.93,2.93,0,0,1,264,378a2.74,2.74,0,0,1-1.66,2.4,8,8,0,0,1-4.11.93,8.4,8.4,0,0,1-4.15-1,3.05,3.05,0,0,1-1.82-2.41,2.68,2.68,0,0,1,1.62-2.37A8.08,8.08,0,0,1,258,374.51Zm1.35,11a8.38,8.38,0,0,1,4.19,1,3,3,0,0,1,1.8,2.42,2.69,2.69,0,0,1-1.64,2.38,8,8,0,0,1-4.1.94,8.5,8.5,0,0,1-4.17-1.05,3.05,3.05,0,0,1-1.82-2.41,2.69,2.69,0,0,1,1.64-2.36A7.91,7.91,0,0,1,259.38,385.48ZM260,379a1.15,1.15,0,0,0,0-2.18,4.14,4.14,0,0,0-3.79,0c-1.06.62-1,1.59,0,2.19A4.2,4.2,0,0,0,260,379Zm1.38,8.79a4.12,4.12,0,0,0-3.77,0c-1.09.63-1,1.58,0,2.18a4.13,4.13,0,0,0,3.79,0C262.49,389.35,262.46,388.39,261.4,387.78Z"
              style="fill:#fff"/>
    </g>
    <g id="ef22ade5-bad3-4a61-bb87-2bc3ae09dec2" data-name="Layer 58">
        <path d="M430.23,632l-89.84-51.87a3.4,3.4,0,0,1-2-2.92c0-.58,0-6.11,0-6.11a12.34,12.34,0,0,0,3.16-.93L452.2,509.37c3.4-2,8.58-2.18,11.52-.48l88,48.34a18.31,18.31,0,0,0,3.83.57s0,5.19,0,5.7c.08,1.35-.88,2.8-2.81,3.92l-111,64.08C438.36,633.45,433.17,633.66,430.23,632Z"
              style="fill:url(#dd9a9fc2-1a89-4668-86c9-30e5fd79f978)"/>
        <path d="M430.23,625.76l-89.84-51.87c-2.94-1.7-2.57-4.69.83-6.65l111-64.08c3.4-2,8.58-2.18,11.52-.48l89.84,51.87c2.94,1.7,2.57,4.69-.83,6.65l-111,64.08C438.36,627.24,433.17,627.45,430.23,625.76Z"
              style="fill:url(#29838f36-a91f-4ab3-9312-e2feca5ef350)"/>
    </g>
    <g id="79b14f09-087c-4e80-ac18-3f502de81adb" data-name="Layer 57">
        <path d="M430.19,611.54l-89.84-51.87a3.4,3.4,0,0,1-2-2.92c0-.58,0-6.11,0-6.11a12.34,12.34,0,0,0,3.16-.93l110.64-60.76c3.4-2,8.58-2.18,11.52-.48l88,48.34a18.31,18.31,0,0,0,3.83.57s0,5.19,0,5.7c.08,1.35-.88,2.8-2.81,3.92l-111,64.08C438.32,613,433.13,613.24,430.19,611.54Z"
              style="fill:url(#66230994-ca08-4665-8135-1dbc6b58a51f)"/>
        <path d="M430.19,605.34l-89.84-51.87c-2.94-1.7-2.57-4.69.83-6.65l111-64.08c3.4-2,8.58-2.18,11.52-.48l89.84,51.87c2.94,1.7,2.57,4.69-.83,6.65l-111,64.08C438.32,606.82,433.13,607,430.19,605.34Z"
              style="fill:url(#544b0347-544f-4f2d-9577-d8cb6d98f0e5)"/>
        <path d="M452.64,482.43,442,488.6c-8.86,5.12-9.2,13.68-.27,18.77,5.75,3.28,13.79,4.41,21.12,3.41-7.75,6.69-6.52,15.83,3.72,21.74s26.06,6.62,37.65,2.15c-1.74,4.24.23,8.87,5.9,12.2,8.8,5.15,23.64,5,32.51-.16l10.58-6.11c3.22-1.86,3.22-4.91,0-6.77l-89-51.39A12.76,12.76,0,0,0,452.64,482.43Z"
              style="fill:url(#27f6eec2-6b31-45bc-a82c-1f80d47bd726)"/>
        <text transform="matrix(0.87, 0.5, -0.87, 0.5, 448.99, 495.69)"
              style="font-size:17.710609436035156px;fill:#fff;font-family:Axiforma-Bold, Axiforma;font-weight:700">$
        </text>
        <text transform="matrix(0.87, 0.5, -0.87, 0.5, 516.93, 534.92)"
              style="font-size:17.710609436035156px;fill:#fff;font-family:Axiforma-Bold, Axiforma;font-weight:700">$
        </text>
        <path d="M504,535c13.1-7.57,13.1-19.83,0-27.4s-34.35-7.57-47.45,0-13.1,19.83,0,27.4S490.91,542.6,504,535Z"
              style="fill:url(#6b6df552-69bf-44ab-a8ff-0fd29e65f6a6)"/>
        <path d="M498.79,532c10.22-5.9,10.22-15.47,0-21.37s-26.79-5.9-37,0-10.22,15.47,0,21.37S488.57,537.93,498.79,532Z"
              style="fill:#fff"/>
        <path d="M477.75,529.25c4.54.69,9.58,0,13.14-2,5.33-3.07,5.33-8.06,0-11.13s-14-3.07-19.29,0c-3.56,2.06-4.73,5-3.53,7.59-7.94-2.39-18-1.67-24.66,2.17-2.1,1.21-2.1,3.2,0,4.42l22.92,13.24a8.49,8.49,0,0,0,7.65,0C480.63,539.65,481.88,533.83,477.75,529.25Z"
              style="fill:url(#7ccda3a9-4947-4ec0-a6be-0db7a92c3aa0)"/>
        <path d="M429.14,531.16l-3.12-1.8,2.11-1.22,8.46,4.88-2.11,1.22-3.12-1.8-8.81,5.09-2.22-1.28Z"
              style="fill:#fff"/>
        <path d="M436.63,541.85l-6-3.49c-.84.83-.64,1.61.63,2.35a9.6,9.6,0,0,0,3.42,1l-.64,1.32a11.2,11.2,0,0,1-4.63-1.39c-1.42-.82-2.08-1.68-2-2.59a3.14,3.14,0,0,1,1.86-2.37,8.32,8.32,0,0,1,4.2-1.08,8.2,8.2,0,0,1,4.23,1.06c1.17.67,1.77,1.45,1.8,2.3s-.56,1.64-1.82,2.37A10.45,10.45,0,0,1,436.63,541.85Zm-4.5-4.39,4.1,2.36c.86-.72.74-1.52-.33-2.13A4.6,4.6,0,0,0,432.13,537.46Z"
              style="fill:#fff"/>
        <path d="M449,543.51l2,1.14L443,549.31l-2-1.14.93-.54a6.92,6.92,0,0,1-3.7-.84c-1.15-.67-1.72-1.45-1.66-2.36a3.22,3.22,0,0,1,1.92-2.41,8.35,8.35,0,0,1,4.14-1.08,7.73,7.73,0,0,1,4.05,1,2.27,2.27,0,0,1,1.4,2.16Zm-3,1c0-.51-.28-.95-.93-1.32a4.33,4.33,0,0,0-2.31-.55,4.73,4.73,0,0,0-2.26.59,1.71,1.71,0,0,0-1,1.32c0,.51.28.95.93,1.32a4.31,4.31,0,0,0,2.29.54,4.71,4.71,0,0,0,2.31-.58A1.68,1.68,0,0,0,446,544.53Z"
              style="fill:#fff"/>
        <path d="M464.31,553.12c0,.71-.5,1.37-1.58,2l-4.87,2.81-2.09-1.21,4.48-2.59c1.23-.71,1.23-1.46.27-2a3.81,3.81,0,0,0-3.71.09l-4.42,2.55-2.08-1.2,4.47-2.58c1.2-.69,1.26-1.46.27-2a3.84,3.84,0,0,0-3.71.11l-4.41,2.54-2.08-1.2,8.06-4.65,2,1.18-1.15.67a5.94,5.94,0,0,1,3.83.62c1,.58,1.45,1.4.95,2.19a7.29,7.29,0,0,1,4.3.84C463.83,551.8,464.31,552.42,464.31,553.12Z"
              style="fill:#fff"/>
        <path d="M413.75,538.38c0,.71-.5,1.37-1.58,2l-4.86,2.81-2.08-1.2,4.48-2.59c1.23-.71,1.23-1.46.27-2a3.81,3.81,0,0,0-3.71.09L401.83,540l-2.09-1.2,4.47-2.58c1.2-.69,1.26-1.46.27-2a3.84,3.84,0,0,0-3.71.11l-4.41,2.54-2.08-1.2,8.06-4.65,2,1.18-1.15.67a5.94,5.94,0,0,1,3.83.62c1,.58,1.45,1.4.95,2.19a7.28,7.28,0,0,1,4.3.84C413.26,537.06,413.75,537.68,413.75,538.38Z"
              style="fill:#fff"/>
        <path d="M420.14,546.79l-6-3.49c-.84.83-.64,1.61.63,2.35a9.6,9.6,0,0,0,3.42,1l-.64,1.32a11.19,11.19,0,0,1-4.63-1.39c-1.42-.82-2.08-1.68-2-2.59a3.14,3.14,0,0,1,1.86-2.37,8.32,8.32,0,0,1,4.2-1.08,8.19,8.19,0,0,1,4.23,1.06c1.17.67,1.78,1.45,1.8,2.31s-.56,1.64-1.82,2.36A10.56,10.56,0,0,1,420.14,546.79Zm-4.49-4.39,4.1,2.37c.86-.72.74-1.52-.33-2.13A4.6,4.6,0,0,0,415.65,542.4Z"
              style="fill:#fff"/>
        <path d="M437.83,552.28c0,.71-.5,1.37-1.58,2l-4.87,2.81-2.09-1.2,4.48-2.59c1.23-.71,1.23-1.46.27-2a3.81,3.81,0,0,0-3.71.09l-4.42,2.55-2.08-1.2,4.47-2.58c1.2-.69,1.26-1.46.27-2a3.84,3.84,0,0,0-3.71.11l-4.41,2.54-2.08-1.2,8.06-4.65,2,1.18-1.15.67a5.94,5.94,0,0,1,3.83.62c1,.58,1.45,1.4.95,2.19a7.29,7.29,0,0,1,4.3.84C437.34,551,437.83,551.58,437.83,552.28Z"
              style="fill:#fff"/>
        <path d="M447.63,558.33a3.1,3.1,0,0,1-1.87,2.41,8.47,8.47,0,0,1-4.17,1.08,7.84,7.84,0,0,1-4.07-1c-1-.59-1.45-1.3-1.32-2.14l-1,.58-2-1.17,11.24-6.49,2.08,1.2-4.11,2.37A6.59,6.59,0,0,1,446,556,2.65,2.65,0,0,1,447.63,558.33Zm-9.45-.08c0,.49.28.93.93,1.31a4.27,4.27,0,0,0,2.26.54,4.74,4.74,0,0,0,2.28-.6,1.71,1.71,0,0,0,1-1.31q0-.74-.93-1.31a4.2,4.2,0,0,0-2.28-.53,4.61,4.61,0,0,0-2.25.58A1.76,1.76,0,0,0,438.18,558.26Z"
              style="fill:#fff"/>
        <path d="M454.25,566.48l-6-3.49c-.84.83-.64,1.61.64,2.35a9.59,9.59,0,0,0,3.42,1l-.64,1.32A11.17,11.17,0,0,1,447,566.3c-1.42-.82-2.08-1.68-2-2.59a3.14,3.14,0,0,1,1.86-2.37,8.31,8.31,0,0,1,4.2-1.08,8.2,8.2,0,0,1,4.23,1.06c1.17.67,1.77,1.45,1.8,2.31s-.56,1.64-1.82,2.36A10.56,10.56,0,0,1,454.25,566.48Zm-4.49-4.39,4.1,2.37c.86-.72.74-1.52-.33-2.13A4.6,4.6,0,0,0,449.76,562.09Z"
              style="fill:#fff"/>
        <path d="M452.47,569.26l8.06-4.65,2,1.15-1.08.62a5.17,5.17,0,0,1,3.52.53,2.84,2.84,0,0,1,.8.67l-2.17,1.05a3.42,3.42,0,0,0-.8-.65,4.29,4.29,0,0,0-4.41.27l-3.83,2.21Z"
              style="fill:#fff"/>
        <path d="M383.34,556.52l6.1,3.52-3,1.74-10.69-6.17,2.73-1.58,10.45-.14c1,0,1.71,0,2.15,0a16.75,16.75,0,0,0,1.71-.22,5,5,0,0,0,1.64-.51c1.24-.72,1.15-1.77-.16-2.52a11.93,11.93,0,0,0-5.5-1.08l.56-2.4a16.52,16.52,0,0,1,8.3,1.84c1.55.9,2.37,1.91,2.42,3s-.62,2.1-2.08,2.95-4.46,1.4-8.63,1.45Z"
              style="fill:#fff"/>
        <path d="M407.24,563.29c.09,1.18-.64,2.22-2.22,3.13a10.6,10.6,0,0,1-5.66,1.32,12.37,12.37,0,0,1-6-1.65,7.27,7.27,0,0,1-3.68-4.23l3.93-.76a5.53,5.53,0,0,0,2.62,3.15,5.76,5.76,0,0,0,5.5.26c1.42-.82,1.29-2.1-.31-3a7.67,7.67,0,0,0-3.79-.93l-.38-2,9.1-4.23,8.67,5-3,1.74-6.23-3.6-3.57,1.65a10.23,10.23,0,0,1,2.6,1Q407.1,561.53,407.24,563.29Z"
              style="fill:#fff"/>
        <path d="M403,571.35l28.33-2.58,3.06,1.77L406,573.11Zm15-9.25a8.38,8.38,0,0,1,4.19,1,2.93,2.93,0,0,1,1.78,2.41,2.74,2.74,0,0,1-1.66,2.4,8,8,0,0,1-4.11.93,8.41,8.41,0,0,1-4.15-1,3.05,3.05,0,0,1-1.82-2.41,2.68,2.68,0,0,1,1.62-2.37A8.09,8.09,0,0,1,418,562.1Zm1.35,11a8.39,8.39,0,0,1,4.19,1,3,3,0,0,1,1.8,2.42,2.7,2.7,0,0,1-1.64,2.38,8,8,0,0,1-4.1.94,8.49,8.49,0,0,1-4.17-1.05,3.05,3.05,0,0,1-1.82-2.41A2.69,2.69,0,0,1,415.2,574,7.93,7.93,0,0,1,419.31,573.08Zm.64-6.5a1.15,1.15,0,0,0,0-2.18,4.14,4.14,0,0,0-3.79,0c-1.07.62-1,1.59,0,2.19A4.2,4.2,0,0,0,420,566.59Zm1.38,8.79a4.12,4.12,0,0,0-3.77,0c-1.09.63-1,1.58,0,2.18a4.13,4.13,0,0,0,3.79,0C422.41,576.95,422.39,576,421.33,575.37Z"
              style="fill:#fff"/>
    </g>
    <g class="phone" id="e8bd646d-25b9-4906-8f3e-96f174a142a3" data-name="Layer 56">
        <path d="M529.39,60.92,426.28,1.39c-3-1.72-5.7-1.79-7.79-.53h0L408.54,6.4l2.17,6.25L414.49,11V252.65c0,8.65,5.31,18.78,11.79,22.53L528.22,334,526,341.11v.33l10.57-5.88v0c2.77-1.29,4.56-4.73,4.56-9.74V83.45C541.18,74.8,535.87,64.67,529.39,60.92Z"
              style="fill:url(#34105549-a101-463f-8de3-e338957a1641)"/>
        <path d="M518.91,66.76,415.81,7.23C409.32,3.49,404,7.5,404,16.15V258.49c0,8.65,5.31,18.78,11.79,22.53l103.11,59.53c6.48,3.74,11.79-.27,11.79-8.91V89.29C530.7,80.64,525.4,70.5,518.91,66.76Z"
              style="fill:url(#a3c5d04d-86b6-42a4-bb5d-b4944ca61322)"/>
        <path d="M514.09,69.75l-7.21-4.17c-2.1-1.21-3.8-.23-3.8,2.19h0c0,2.58-1.81,3.63-4,2.34L439.56,35.78a8.94,8.94,0,0,1-4-7h0a8.4,8.4,0,0,0-3.8-6.58l-11.09-6.4c-6.43-3.71-11.68-.67-11.68,6.74V257.32c0,7.42,5.26,16.53,11.68,20.24l93.47,54c6.43,3.71,11.68.67,11.68-6.74V90C525.77,82.57,520.52,73.46,514.09,69.75Z"
              style="fill:#fff"/>
        <path d="M525.77,207.62V90c0-7.42-5.26-16.53-11.68-20.24l-7.21-4.17c-2.1-1.21-3.8-.23-3.8,2.19,0,2.58-1.81,3.63-4,2.34L439.56,35.78a8.94,8.94,0,0,1-4-7,8.4,8.4,0,0,0-3.8-6.58l-11.09-6.4c-6.43-3.71-11.68-.67-11.68,6.74V140.16c12.74,12.91,33.73,32.11,60.18,47.06C493.76,201.15,513.4,205.87,525.77,207.62Z"
              style="fill:url(#46a7a92a-2fac-49a2-9268-44146b83077c)"/>
        <path d="M511.7,202.67c0-28.28-19.85-62.66-44.34-76.8S423,123.2,423,151.48s19.85,62.66,44.34,76.8S511.7,231,511.7,202.67Z"
              style="fill:url(#2e2c7583-ea33-45ab-bfb0-7fda815e8587)"/>
        <path d="M476.14,283.66c0-5.6-3.93-12.42-8.79-15.22s-8.79-.53-8.79,5.07,3.93,12.42,8.79,15.22S476.14,289.26,476.14,283.66Z"
              style="fill:url(#28db91f5-2f18-4ea4-89a8-759db444da62)"/>
        <path d="M511.7,305.41c0-5.6-3.93-12.42-8.79-15.22s-8.79-.53-8.79,5.07,3.93,12.42,8.79,15.22S511.7,311,511.7,305.41Z"
              style="fill:url(#ee1c0bda-9d13-48d7-9f6e-d16f2a4123e8)"/>
        <path d="M439.88,265c0-5.6-3.93-12.42-8.79-15.22s-8.79-.53-8.79,5.07,3.93,12.42,8.79,15.22S439.88,270.63,439.88,265Z"
              style="fill:url(#7519cea8-73c0-4302-8ffb-096035633fe0)"/>
        <path d="M449.28,57.21l1-.82a6,6,0,0,0,2.08,2.42c.59.34,1,.25,1-.25a1.72,1.72,0,0,0-.54-1.06l-.9-.92c-.48-.49-.8-.83-1-1a4.5,4.5,0,0,1-1.3-3,1.35,1.35,0,0,1,.77-1.44,2.49,2.49,0,0,1,2,.45,7.14,7.14,0,0,1,2.64,2.77l-1,.89a5.1,5.1,0,0,0-1.73-1.86c-.51-.29-.86-.16-.86.24a1.75,1.75,0,0,0,.66,1.18c1,1,1.6,1.64,1.81,1.89a4.61,4.61,0,0,1,1.27,2.93q0,1.22-.83,1.53a2.61,2.61,0,0,1-2.17-.47A7.84,7.84,0,0,1,449.28,57.21Z"
              style="fill:#fff"/>
        <path d="M462.42,57.56l1.85,1.07v8.69l-1.85-1.07v-1a2.16,2.16,0,0,1-2.4-.18,7.17,7.17,0,0,1-2.68-2.85,8,8,0,0,1-1-3.89,2.86,2.86,0,0,1,1.06-2.62,2.48,2.48,0,0,1,2.67.25,6.5,6.5,0,0,1,2.4,2.65Zm-.58,2.23a4,4,0,0,0-1.5-1.6,1.39,1.39,0,0,0-1.52-.14,1.63,1.63,0,0,0-.58,1.43,4.35,4.35,0,0,0,.59,2.13,4,4,0,0,0,1.51,1.6,1.37,1.37,0,0,0,1.5.13,1.58,1.58,0,0,0,.61-1.43A4.39,4.39,0,0,0,461.84,59.79Z"
              style="fill:#fff"/>
        <path d="M471.13,62.59l2.14,1.24L470,70.61l-1.49-.86-3.26-10.56,2.14,1.24,1.89,6.72Z" style="fill:#fff"/>
        <path d="M476.19,74.2l-1.95-1.12V61l1.95,1.12Z" style="fill:#fff"/>
        <path d="M438.87,80.78l1.29-1.65A7.53,7.53,0,0,0,442.76,82c1.52.88,2.5.27,2.5-1.69V70.86l2.64,1.53v9.53c0,2-.46,3.2-1.39,3.67s-2.11.27-3.56-.57A11.19,11.19,0,0,1,438.87,80.78Z"
              style="fill:#fff"/>
        <path d="M451.18,79.7q1.47-.88,3.75.43a10.2,10.2,0,0,1,3.75,3.9,10,10,0,0,1,1.46,5c0,1.67-.48,2.8-1.46,3.36s-2.23.42-3.75-.45a10.28,10.28,0,0,1-3.75-3.88A10,10,0,0,1,449.72,83C449.72,81.39,450.2,80.26,451.18,79.7Zm3.75,9.57a1.78,1.78,0,0,0,1.91.18,2,2,0,0,0,.79-1.84,5.56,5.56,0,0,0-.79-2.72,5.2,5.2,0,0,0-1.91-2,1.82,1.82,0,0,0-1.93-.19,2,2,0,0,0-.77,1.83,5.63,5.63,0,0,0,.77,2.73A5.27,5.27,0,0,0,454.93,89.27Z"
              style="fill:#fff"/>
        <path d="M462.12,82.81c-.59-1-.59-2.22,0-2.54s1.63.26,2.22,1.28.59,2.2,0,2.54S462.71,83.83,462.12,82.81Zm2.36,14.38L462,95.74V84.49l2.52,1.45Z"
              style="fill:#fff"/>
        <path d="M466.73,98.49V87.25l2.47,1.42v1.57c.52-.79,1.68-.91,3.06-.11a7.65,7.65,0,0,1,2.7,2.77A7.87,7.87,0,0,1,476.05,97v6.87l-2.52-1.45V96.34a4.47,4.47,0,0,0-2.06-4c-1.34-.77-2.23-.11-2.23,1.56v6Z"
              style="fill:#fff"/>
        <path d="M485.15,108.47a4.25,4.25,0,0,1-2.88-.73,6.9,6.9,0,0,1-3.4-6.4V96.7l-1.59-.92V93.35l1.61.93v-4l2.5,1.44v4l3.22,1.86V100l-3.22-1.86v4.46a2.94,2.94,0,0,0,1.38,2.78,2.75,2.75,0,0,0,1.63.36Z"
              style="fill:#fff"/>
        <path d="M432.64,84.46,435,85.84V97.08l-2.39-1.38V94.4c-.84.57-1.88.48-3.11-.23a9.28,9.28,0,0,1-3.47-3.69,10.37,10.37,0,0,1-1.36-5c0-1.69.47-2.83,1.38-3.39s2.07-.47,3.45.32a8.4,8.4,0,0,1,3.11,3.42Zm-.75,2.89a5.2,5.2,0,0,0-1.95-2.07,1.8,1.8,0,0,0-2-.19,2.11,2.11,0,0,0-.75,1.86A5.64,5.64,0,0,0,428,89.7a5.19,5.19,0,0,0,1.95,2.07,1.78,1.78,0,0,0,1.95.18,2.05,2.05,0,0,0,.79-1.86A5.69,5.69,0,0,0,431.89,87.35Z"
              style="fill:#fff"/>
        <path d="M438.24,97.53a10,10,0,0,1-1.45-5.07c0-1.71.48-2.86,1.47-3.38s2.23-.38,3.77.51a10.59,10.59,0,0,1,4.54,5.76l-2,.11a6.08,6.08,0,0,0-2.48-3.15,1.89,1.89,0,0,0-2-.22,1.93,1.93,0,0,0-.79,1.82,5.52,5.52,0,0,0,.77,2.75,5.42,5.42,0,0,0,1.95,2c1,.59,2.05.49,2.48-.26l2,2.56c-.84,1.33-2.57,1.49-4.57.33A10.21,10.21,0,0,1,438.24,97.53Z"
              style="fill:#fff"/>
        <path d="M449,103.73a10,10,0,0,1-1.45-5.06c0-1.71.48-2.86,1.46-3.38s2.23-.38,3.77.5a10.59,10.59,0,0,1,4.54,5.76l-2,.11a6.08,6.08,0,0,0-2.48-3.15,1.88,1.88,0,0,0-2-.22,1.92,1.92,0,0,0-.79,1.81,5.52,5.52,0,0,0,.77,2.75,5.43,5.43,0,0,0,1.95,2c1,.59,2.05.48,2.48-.26l2,2.56c-.84,1.33-2.57,1.49-4.57.33A10.21,10.21,0,0,1,449,103.73Z"
              style="fill:#fff"/>
        <path d="M459.73,101.52q1.48-.88,3.75.43a10.21,10.21,0,0,1,3.75,3.9,10,10,0,0,1,1.46,5c0,1.67-.48,2.79-1.46,3.36s-2.23.42-3.75-.45a10.3,10.3,0,0,1-3.75-3.88,10,10,0,0,1-1.47-5.05C458.27,103.21,458.75,102.09,459.73,101.52Zm3.75,9.57a1.78,1.78,0,0,0,1.91.17,2,2,0,0,0,.79-1.84,5.55,5.55,0,0,0-.79-2.72,5.2,5.2,0,0,0-1.91-2,1.82,1.82,0,0,0-1.93-.19,2,2,0,0,0-.77,1.83,5.63,5.63,0,0,0,.77,2.73A5.27,5.27,0,0,0,463.48,111.09Z"
              style="fill:#fff"/>
        <path d="M470.35,112.72v-6.5l2.52,1.46v6.5a4,4,0,0,0,1.95,3.48c1.22.7,1.95.2,1.95-1.23v-6.5l2.52,1.46v6.5c0,3.16-1.68,4-4.47,2.43A8.74,8.74,0,0,1,470.35,112.72Z"
              style="fill:#fff"/>
        <path d="M481.44,123.88V112.63l2.47,1.42v1.57c.52-.79,1.68-.91,3.05-.11a7.64,7.64,0,0,1,2.7,2.77,7.87,7.87,0,0,1,1.11,4.11v6.87l-2.52-1.45v-6.09a4.47,4.47,0,0,0-2.06-4c-1.34-.77-2.23-.11-2.23,1.56v6Z"
              style="fill:#fff"/>
        <path d="M499.87,133.85a4.26,4.26,0,0,1-2.88-.73,6.9,6.9,0,0,1-3.4-6.4v-4.64l-1.59-.92v-2.44l1.61.93v-4l2.5,1.44v4l3.22,1.86v2.43l-3.22-1.86V128a2.94,2.94,0,0,0,1.38,2.78,2.75,2.75,0,0,0,1.63.36Z"
              style="fill:#fff"/>
        <g id="number1">
            <path d="M442.86,165.46v2.27l-2.78-1.6v3.21l-1.95-1.09V165l-2.81-1.62v-2.27l2.81,1.62V159.5l1.95,1.13v3.22Z"
                  style="fill:#fff"/>
            <path d="M450.31,164.22l1.63.94v12.61l-2.14-1.24v-9.26l-1.74.54-1.12-2.44Z" style="fill:#fff"/>
            <path d="M460.24,175.56a6.72,6.72,0,0,1,1.06,3.55,2.41,2.41,0,0,1-1.12,2.41c-.75.37-1.73.21-3-.5a11.85,11.85,0,0,1-3.66-3.51l.87-1.51a9.32,9.32,0,0,0,2.69,2.64c1.23.71,2,.29,2-.8a3.73,3.73,0,0,0-1.85-3,1.82,1.82,0,0,0-1.8-.2l-1.27-1.91.59-6,5.78,3.34v2.32l-4.15-2.4-.24,2.34a4,4,0,0,1,1.46.54A7.45,7.45,0,0,1,460.24,175.56Z"
                  style="fill:#fff"/>
            <path d="M464.44,184.26a11.77,11.77,0,0,1-1.94-6.71,8.12,8.12,0,0,1,.46-3c.61-1.56,2-2.12,4-1,3,1.76,4.42,5.59,4.42,9.07s-1.37,5.72-4.42,4A7.53,7.53,0,0,1,464.44,184.26Zm4.17-6.18a4,4,0,0,0-1.68-2.13c-.74-.43-1.3-.36-1.67.2a4.94,4.94,0,0,0-.56,2.66c0,2.46.74,4.57,2.23,5.43s2.25-.39,2.25-2.85A9.4,9.4,0,0,0,468.6,178.09Z"
                  style="fill:#fff"/>
            <path d="M474.6,190.13a11.77,11.77,0,0,1-1.94-6.71,8.12,8.12,0,0,1,.46-3c.61-1.56,2-2.12,4-1,3,1.76,4.42,5.59,4.42,9.07s-1.37,5.72-4.42,4A7.52,7.52,0,0,1,474.6,190.13Zm4.17-6.18a4,4,0,0,0-1.68-2.13c-.74-.43-1.3-.36-1.67.2a4.94,4.94,0,0,0-.56,2.66c0,2.46.74,4.57,2.23,5.43s2.25-.39,2.25-2.85A9.4,9.4,0,0,0,478.76,184Z"
                  style="fill:#fff"/>
            <path d="M490.42,193.12c.6,0,1-.41.89-1.5-.12-1.48-1.18-2.57-2.51-3.47v-2l-1-.6v1.91l-.83-.46v-1.92l-1-.6v2l-.66-.37h0l-1.43-.83v1.28s.76.42.75.43a1.17,1.17,0,0,1,.6.87v5.37c0,.14-.1.34-.39.17,0,0-.75-.43-.75-.43l-.21,1.31,1.35.78.74.43v2l1,.6v-2l.83.49v2l1,.6v-2c1.74.89,3,1.09,3.11-.71A3.75,3.75,0,0,0,490.42,193.12ZM487,188.45c.58.34,2.42,1.18,2.42,2.59s-1.84.13-2.42-.21Zm0,6.22V192c.7.4,2.9,1.44,2.9,3S487.66,195.07,487,194.67Z"
                  style="fill:#fff"/>
        </g>
        <g id="number2">
            <path d="M441,164.4v2.27l-2.78-1.6v3.21l-1.95-1.09v-3.24l-2.81-1.62v-2.27l2.81,1.62v-3.22l1.95,1.13v3.22Z"
                  style="fill:#fff"/>
            <path d="M445.34,172.91l.92-1.48a9.43,9.43,0,0,0,2.53,2.4c1.11.64,1.77.39,1.77-.56a3.18,3.18,0,0,0-1.69-2.54l-1.39-.8v-2.25l1.2.69c1,.58,1.66.36,1.66-.53a2.87,2.87,0,0,0-1.52-2.33,2.82,2.82,0,0,0-2.17-.28l-1-2.41a3.83,3.83,0,0,1,3.49.48,7.28,7.28,0,0,1,2.47,2.38,5.3,5.3,0,0,1,1,2.91c0,1.35-.77,2-1.85,1.77v.07a5.86,5.86,0,0,1,2.14,4.34c0,1.11-.37,1.78-1.09,2.06a3.4,3.4,0,0,1-2.84-.6A12.39,12.39,0,0,1,445.34,172.91Z"
                  style="fill:#fff"/>
            <path d="M456.1,179.45a11.77,11.77,0,0,1-1.93-6.71,8.1,8.1,0,0,1,.46-3c.61-1.56,2-2.12,4-1,3,1.76,4.42,5.59,4.42,9.07s-1.37,5.72-4.42,4A7.53,7.53,0,0,1,456.1,179.45Zm4.17-6.18a4,4,0,0,0-1.68-2.13c-.74-.43-1.3-.36-1.67.2a4.94,4.94,0,0,0-.56,2.66c0,2.46.74,4.57,2.23,5.43s2.25-.39,2.25-2.85A9.4,9.4,0,0,0,460.26,173.27Z"
                  style="fill:#fff"/>
            <path d="M466.26,185.32a11.77,11.77,0,0,1-1.94-6.71,8.12,8.12,0,0,1,.46-3c.61-1.56,2-2.12,4-1,3,1.76,4.42,5.59,4.42,9.07s-1.37,5.72-4.42,4A7.52,7.52,0,0,1,466.26,185.32Zm4.17-6.18a4,4,0,0,0-1.68-2.13c-.74-.43-1.3-.36-1.67.2a4.94,4.94,0,0,0-.56,2.66c0,2.46.74,4.57,2.23,5.43s2.25-.39,2.25-2.85A9.4,9.4,0,0,0,470.43,179.14Z"
                  style="fill:#fff"/>
            <path d="M476.42,191.18a11.77,11.77,0,0,1-1.94-6.71,8.1,8.1,0,0,1,.46-3c.61-1.56,2-2.12,4-1,3,1.76,4.42,5.59,4.42,9.07s-1.37,5.72-4.42,4A7.51,7.51,0,0,1,476.42,191.18Zm4.17-6.18a4,4,0,0,0-1.68-2.13c-.74-.43-1.3-.36-1.67.2a4.94,4.94,0,0,0-.56,2.66c0,2.46.74,4.57,2.23,5.43s2.25-.39,2.25-2.85A9.42,9.42,0,0,0,480.59,185Z"
                  style="fill:#fff"/>
            <path d="M490.42,193.12c.6,0,1-.41.89-1.5-.12-1.48-1.18-2.57-2.51-3.47v-2l-1-.6v1.91l-.83-.46v-1.92l-1-.6v2l-.66-.37h0l-1.43-.83v1.28s.76.42.75.43a1.17,1.17,0,0,1,.6.87v5.37c0,.14-.1.34-.39.17,0,0-.75-.43-.75-.43l-.21,1.31,1.35.78.74.43v2l1,.6v-2l.83.49v2l1,.6v-2c1.74.89,3,1.09,3.11-.71A3.75,3.75,0,0,0,490.42,193.12ZM487,188.45c.58.34,2.42,1.18,2.42,2.59s-1.84.13-2.42-.21Zm0,6.22V192c.7.4,2.9,1.44,2.9,3S487.66,195.07,487,194.67Z"
                  style="fill:#fff"/>
        </g>

    </g>
    <g class="bit">
        <path id="bit-sim" d="M550.19,405.13c1,0,1.58-.67,1.44-2.43-.19-2.41-1.91-4.17-4.08-5.64v-3.18l-1.68-1V396l-1.34-.75v-3.12l-1.68-1v3.18l-1.07-.6h0l-2.32-1.34v2.07s1.24.69,1.22.7a1.9,1.9,0,0,1,1,1.41v8.72c0,.23-.16.55-.63.28,0,0-1.22-.71-1.22-.71l-.33,2.12,2.19,1.26,1.2.7v3.22l1.68,1V410l1.34.79v3.17l1.68,1v-3.21c2.82,1.44,4.8,1.76,5-1.15A6.08,6.08,0,0,0,550.19,405.13Zm-5.62-7.57c.95.55,3.93,1.92,3.93,4.2s-3,.21-3.93-.33Zm0,10.09v-4.27c1.14.66,4.71,2.34,4.71,4.85S545.71,408.3,544.57,407.64Z"
              style="fill:url(#ff9b74d7-c722-4acd-8b22-f41a85c03842)"/>
    </g>
    <!--<g id="fd6b4a85-ac5c-48e8-abc6-efb6042f26aa" data-name="Layer 12">-->
        <!--<path d="M551.42,408.52c-3.86-2.27-7.37-2.47-9.9-1h0l-4.71,2.68h0c-2.88,1.25-4.72,4.46-4.75,9.24-.06,8.84,6.07,19.63,13.69,24.1,3.78,2.22,7.21,2.46,9.72,1.07h0l4.75-2.7v0c2.95-1.22,4.83-4.46,4.87-9.3C565.17,423.78,559,413,551.42,408.52Z"-->
              <!--style="opacity:0.42;fill:url(#5d6eeeaa-a2d7-4559-961b-93c6414d9fad)"/>-->
        <!--<path d="M538.6,386.76l-1.62-.6,4.71-2.68h0c2.53-1.5,6-1.29,9.9,1,7.62,4.47,13.75,15.26,13.69,24.1,0,4.84-1.92,8.08-4.87,9.3v0l-4.75,2.7V418.4l.27-.15a14,14,0,0,1-4.56-1.78c-7.62-4.47-13.75-15.26-13.69-24.1a12.92,12.92,0,0,1,1.3-5.92Z"-->
              <!--style="fill:url(#6af3a2dd-2510-4de3-b607-34c02ddb57ba)"/>-->
        <!--<path d="M532.25,395.41c-.06,8.84,6.07,19.63,13.69,24.1s13.85.93,13.91-7.9-6.07-19.63-13.69-24.1S532.31,386.57,532.25,395.41Z"-->
              <!--style="fill:url(#8e3f9a34-73cc-420b-9315-249a6f687aa1)"/>-->
        <!--<path d="M535.11,397.09c0,7,4.81,15.56,10.85,19.1s11,.74,11-6.27-4.81-15.56-10.85-19.1S535.16,390.08,535.11,397.09Z"-->
              <!--style="fill:#fff"/>-->
        <!--<path d="M550.19,405.13c1,0,1.58-.67,1.44-2.43-.19-2.41-1.91-4.17-4.08-5.64v-3.18l-1.68-1V396l-1.34-.75v-3.12l-1.68-1v3.18l-1.07-.6h0l-2.32-1.34v2.07s1.24.69,1.22.7a1.9,1.9,0,0,1,1,1.41v8.72c0,.23-.16.55-.63.28,0,0-1.22-.71-1.22-.71l-.33,2.12,2.19,1.26,1.2.7v3.22l1.68,1V410l1.34.79v3.17l1.68,1v-3.21c2.82,1.44,4.8,1.76,5-1.15A6.08,6.08,0,0,0,550.19,405.13Zm-5.62-7.57c.95.55,3.93,1.92,3.93,4.2s-3,.21-3.93-.33Zm0,10.09v-4.27c1.14.66,4.71,2.34,4.71,4.85S545.71,408.3,544.57,407.64Z"-->
              <!--style="fill:url(#ff9b74d7-c722-4acd-8b22-f41a85c03842)"/>-->
        <!--<path d="M345.24,288.13c-3.86-2.27-7.37-2.47-9.9-1h0l-4.71,2.68h0c-2.88,1.25-4.72,4.46-4.75,9.24-.06,8.84,6.07,19.63,13.69,24.1,3.78,2.22,7.21,2.46,9.72,1.07h0l4.75-2.7v0c2.95-1.22,4.83-4.46,4.87-9.3C359,303.39,352.86,292.6,345.24,288.13Z"-->
              <!--style="opacity:0.42;fill:url(#5b23e85e-4c0c-48d2-8ed4-b0b1f0a3d8d2)"/>-->
        <!--<path d="M332.41,266.38l-1.62-.6,4.71-2.68h0c2.53-1.5,6-1.29,9.9,1,7.62,4.47,13.75,15.26,13.69,24.1,0,4.84-1.92,8.08-4.87,9.3v0l-4.75,2.7V298l.27-.15a14,14,0,0,1-4.56-1.78c-7.62-4.47-13.75-15.26-13.69-24.1a12.92,12.92,0,0,1,1.3-5.92Z"-->
              <!--style="fill:url(#b969c167-59e8-4f7a-8ee6-0f5c697bd1e6)"/>-->
        <!--<path d="M326.06,275c-.06,8.84,6.07,19.63,13.69,24.1s13.85.93,13.91-7.9-6.07-19.63-13.69-24.1S326.12,266.19,326.06,275Z"-->
              <!--style="fill:url(#f0be8fcf-ff15-4834-af07-620e7d09a9b9)"/>-->
        <!--<path d="M328.92,276.7c0,7,4.81,15.56,10.85,19.1s11,.74,11-6.27S346,274,340,270.44,329,269.7,328.92,276.7Z"-->
              <!--style="fill:#fff"/>-->
        <!--<path d="M344,284.74c1,0,1.58-.67,1.44-2.43-.19-2.41-1.91-4.17-4.08-5.64v-3.18l-1.68-1v3.1l-1.34-.75v-3.12l-1.68-1V274l-1.07-.6h0L333.28,272v2.07s1.24.69,1.22.7a1.9,1.9,0,0,1,1,1.41v8.72c0,.23-.16.55-.63.28,0,0-1.22-.71-1.22-.71l-.33,2.12,2.19,1.26,1.2.7v3.22l1.68,1v-3.19l1.34.79v3.17l1.68,1v-3.21c2.82,1.44,4.8,1.76,5-1.15A6.08,6.08,0,0,0,344,284.74Zm-5.62-7.57c.95.55,3.93,1.92,3.93,4.2s-3,.21-3.93-.33Zm0,10.09V283c1.14.66,4.71,2.34,4.71,4.85S339.53,287.91,338.39,287.26Z"-->
              <!--style="fill:url(#fb3955ea-701b-4e68-82c6-1de2c1d8a220)"/>-->
        <!--<path d="M424.54,390.8c4-2.36,7.66-2.57,10.29-1h0l4.9,2.78h0c3,1.3,4.91,4.64,4.94,9.6.06,9.19-6.31,20.4-14.24,25.05-3.93,2.3-7.5,2.56-10.11,1.11h0l-4.94-2.81v0c-3.06-1.27-5-4.64-5.06-9.67C410.25,406.67,416.62,395.45,424.54,390.8Z"-->
              <!--style="opacity:0.42;fill:url(#56dbe1a3-782e-4d37-ac2a-86811c5d3ec6)"/>-->
        <!--<path d="M437.88,368.18l1.68-.62-4.9-2.78h0c-2.63-1.56-6.27-1.34-10.29,1-7.93,4.65-14.3,15.87-14.24,25.05,0,5,2,8.4,5.06,9.67v0l4.94,2.81v-2.28l-.28-.15a14.58,14.58,0,0,0,4.75-1.85c7.93-4.65,14.3-15.87,14.24-25.05a13.44,13.44,0,0,0-1.35-6.16Z"-->
              <!--style="fill:url(#81674957-d621-4f7b-876a-d96bdcc9a0f2)"/>-->
        <!--<path d="M444.48,377.17c.06,9.19-6.31,20.4-14.24,25.05s-14.4,1-14.46-8.22S422.09,373.6,430,369,444.42,368,444.48,377.17Z"-->
              <!--style="fill:url(#05294673-bb2c-4230-95da-cea49eed4e00)"/>-->
        <!--<path d="M441.51,378.91c.05,7.28-5,16.17-11.28,19.86s-11.42.77-11.47-6.51,5-16.17,11.28-19.86S441.46,371.63,441.51,378.91Z"-->
              <!--style="fill:#fff"/>-->
        <!--<path d="M435.26,381.69a5.68,5.68,0,0,0,1.51-4.29c-.2-2.29-2-2.06-4.27-1v-3.34l-1.76,1v3.25l-1.41.83v-3.27l-1.76,1v3.33l-1.12.66h0l-2.43,1.4v2.17s1.3-.78,1.28-.74c.71-.41.95-.07,1,.31v9.14a1.37,1.37,0,0,1-.66,1.05s-1.28.74-1.28.74l-.35,2.63,2.29-1.32,1.26-.71V398l1.76-1V393.6l1.41-.8v3.32l1.76-1v-3.37c3-1.9,5-4,5.29-7.31C438,381.73,436.94,381.18,435.26,381.69Zm-5.89-1.14c1-.57,4.12-2.74,4.12-.35s-3.12,3.83-4.12,4.4Zm0,10.57v-4.47c1.19-.69,4.93-3.24,4.93-.62S430.57,390.43,429.38,391.12Z"-->
              <!--style="fill:url(#2c072b3a-4b38-4ee1-8ded-16ed41bdccf9)"/>-->
        <!--<path d="M214.6,253.35c4-2.36,7.66-2.57,10.29-1h0l4.9,2.78h0c3,1.3,4.91,4.64,4.94,9.6.06,9.19-6.31,20.4-14.24,25.05-3.93,2.3-7.5,2.56-10.11,1.11h0l-4.94-2.81v0c-3.06-1.27-5-4.64-5.06-9.67C200.31,269.22,206.68,258,214.6,253.35Z"-->
              <!--style="opacity:0.42;fill:url(#113542d6-09ab-418c-a77b-004e75ed21cd)"/>-->
        <!--<path d="M227.94,230.73l1.68-.62-4.9-2.78h0c-2.63-1.56-6.27-1.34-10.29,1-7.93,4.65-14.3,15.87-14.24,25.05,0,5,2,8.4,5.06,9.67v0l4.94,2.81v-2.28l-.28-.15a14.58,14.58,0,0,0,4.75-1.85c7.93-4.65,14.3-15.87,14.24-25.05a13.44,13.44,0,0,0-1.35-6.16Z"-->
              <!--style="fill:url(#359d44e4-d9db-4e12-b383-7b95f4ae0c4d)"/>-->
        <!--<path d="M234.54,239.72c.06,9.19-6.31,20.4-14.24,25.05s-14.4,1-14.46-8.22,6.31-20.4,14.24-25.05S234.48,230.53,234.54,239.72Z"-->
              <!--style="fill:url(#9d096f7c-d763-4d86-b949-7f45860b264c)"/>-->
        <!--<path d="M231.57,241.47c.05,7.28-5,16.17-11.28,19.86s-11.42.77-11.47-6.51,5-16.17,11.28-19.86S231.52,234.18,231.57,241.47Z"-->
              <!--style="fill:#fff"/>-->
        <!--<path d="M225.32,244.24a5.68,5.68,0,0,0,1.51-4.29c-.2-2.29-2-2.06-4.27-1v-3.34l-1.76,1v3.25l-1.41.83v-3.27l-1.76,1v3.33l-1.12.66h0l-2.43,1.4V246s1.3-.78,1.28-.74c.71-.41.95-.07,1,.31v9.14a1.37,1.37,0,0,1-.66,1.05s-1.28.74-1.28.74l-.35,2.63,2.29-1.32,1.26-.71v3.37l1.76-1v-3.34l1.41-.8v3.32l1.76-1V254.3c3-1.9,5-4,5.29-7.31C228.06,244.28,227,243.74,225.32,244.24Zm-5.89-1.14c1-.57,4.12-2.74,4.12-.35s-3.12,3.83-4.12,4.4Zm0,10.57V249.2c1.19-.69,4.93-3.24,4.93-.62S220.63,253,219.44,253.67Z"-->
              <!--style="fill:url(#cbb59d39-039a-405f-bee6-ee865f51075f)"/>-->
        <!--<path d="M543.16,480.5c4-2.36,7.66-2.57,10.29-1h0l4.9,2.78h0c3,1.3,4.91,4.64,4.94,9.6.06,9.19-6.31,20.4-14.24,25.05-3.93,2.3-7.5,2.56-10.11,1.11h0L534,515.24v0c-3.06-1.27-5-4.64-5.06-9.67C528.86,496.36,535.23,485.15,543.16,480.5Z"-->
              <!--style="opacity:0.42;fill:url(#df41f349-5c82-4959-88b4-1e3bc976e1dd)"/>-->
        <!--<path d="M556.49,457.88l1.68-.62-4.9-2.78h0c-2.63-1.56-6.27-1.34-10.29,1-7.93,4.65-14.3,15.87-14.24,25.05,0,5,2,8.4,5.06,9.67v0l4.94,2.81v-2.28l-.28-.15a14.58,14.58,0,0,0,4.75-1.85c7.93-4.65,14.3-15.87,14.24-25.05a13.44,13.44,0,0,0-1.35-6.16Z"-->
              <!--style="fill:url(#7bacebd4-333a-45b9-a625-cb20c1d39b71)"/>-->
        <!--<path d="M563.09,466.87c.06,9.19-6.31,20.4-14.24,25.05s-14.4,1-14.46-8.22,6.31-20.4,14.24-25.05S563,457.68,563.09,466.87Z"-->
              <!--style="fill:url(#a747193c-1927-4015-b0a2-22d042df2629)"/>-->
        <!--<path d="M560.12,468.61c.05,7.28-5,16.17-11.28,19.86s-11.42.77-11.47-6.51,5-16.17,11.28-19.86S560.07,461.33,560.12,468.61Z"-->
              <!--style="fill:#fff"/>-->
        <!--<path d="M553.88,471.38a5.68,5.68,0,0,0,1.51-4.29c-.2-2.29-2-2.06-4.27-1v-3.34l-1.76,1v3.25l-1.41.83v-3.27l-1.76,1V469l-1.12.66h0l-2.43,1.4v2.17s1.3-.78,1.28-.74c.71-.41.95-.07,1,.31v9.14a1.37,1.37,0,0,1-.66,1.05s-1.28.74-1.28.74l-.35,2.63,2.29-1.32,1.26-.71v3.37l1.76-1V483.3l1.41-.8v3.32l1.76-1v-3.37c3-1.9,5-4,5.29-7.31C556.61,471.42,555.56,470.88,553.88,471.38ZM548,470.25c1-.57,4.12-2.74,4.12-.35s-3.12,3.83-4.12,4.4Zm0,10.57v-4.47c1.19-.69,4.93-3.24,4.93-.62S549.18,480.13,548,480.82Z"-->
              <!--style="fill:url(#afd67ea9-e26d-4e6e-ab06-f919e8fb6121)"/>-->
    <!--</g>-->
</svg>