<svg xmlns="http://www.w3.org/2000/svg" xmlns:xlink="http://www.w3.org/1999/xlink" viewBox="0 0 483.63 623.1">
    <defs>
        <linearGradient id="eac7d0fe-b7fa-4e15-b375-af9882854083" x1="432.07" y1="42.95" x2="432.07" y2="94.1"
                        gradientUnits="userSpaceOnUse">
            <stop offset="0" stop-color="#ffa352"/>
            <stop offset="1" stop-color="#fee557"/>
        </linearGradient>
        <linearGradient id="5734673a-3776-410a-a595-759ca06d9075" x1="432.07" y1="77.39" x2="432.07" y2="128.54"
                        xlink:href="#eac7d0fe-b7fa-4e15-b375-af9882854083"/>
        <linearGradient id="fb58650d-eac0-4ffc-af8b-752652d42b7b" x1="432.07" y1="110.39" x2="432.07" y2="161.54"
                        xlink:href="#eac7d0fe-b7fa-4e15-b375-af9882854083"/>
        <linearGradient id="510791af-9060-4d11-a474-cbef69c4303a" x1="201.72" y1="338.09" x2="251.17" y2="427.11"
                        gradientUnits="userSpaceOnUse">
            <stop offset="0" stop-color="#844fff"/>
            <stop offset="1" stop-color="#d298fe" stop-opacity="0"/>
        </linearGradient>
        <linearGradient id="01050c7f-ab64-493d-be1c-675aa15a9481" x1="131.76" y1="510.79" x2="381.18" y2="78.78"
                        gradientUnits="userSpaceOnUse">
            <stop offset="0" stop-color="#ff9352"/>
            <stop offset="1" stop-color="#fec457"/>
        </linearGradient>
        <radialGradient id="dc32e0eb-aee3-430d-b190-0467fa5176db" cx="421.1" cy="39.09" r="44.7"
                        gradientUnits="userSpaceOnUse">
            <stop offset="0" stop-color="#fe9b74"/>
            <stop offset="1" stop-color="#ff6f76"/>
        </radialGradient>
        <radialGradient id="9e45d44b-16c5-4482-ab6c-18dc8a469d25" cx="354.19" cy="74.17" r="15.63"
                        xlink:href="#dc32e0eb-aee3-430d-b190-0467fa5176db"/>
        <linearGradient id="428c25be-17db-4f2a-b749-63d0ef903802" x1="40.06" y1="528.24" x2="425.14" y2="129.24"
                        gradientUnits="userSpaceOnUse">
            <stop offset="0" stop-color="#844fff"/>
            <stop offset="1" stop-color="#d298fe"/>
        </linearGradient>
        <linearGradient id="5969d599-bf3e-477e-a34a-5d7e176db986" x1="295.17" y1="71.96" x2="232.18" y2="501.2"
                        xlink:href="#428c25be-17db-4f2a-b749-63d0ef903802"/>
        <linearGradient id="c3dc440d-3d07-473c-b9a0-576850b0e283" x1="374.42" y1="11.51" x2="367.92" y2="10.43"
                        gradientUnits="userSpaceOnUse">
            <stop offset="0" stop-color="#ffa56f"/>
            <stop offset="1" stop-color="#fece74"/>
        </linearGradient>
        <linearGradient id="3eff451c-634d-42df-8b1e-422cb7b29ade" x1="359.39" y1="69.73" x2="359.39" y2="-3.73"
                        gradientUnits="userSpaceOnUse">
            <stop offset="0" stop-color="#ff6f76"/>
            <stop offset="1" stop-color="#fe9b74"/>
        </linearGradient>
        <linearGradient id="0de89ec1-11da-45b2-afa1-2fb994e6932c" x1="380.45" y1="15.07" x2="346.46" y2="55.95"
                        xlink:href="#c3dc440d-3d07-473c-b9a0-576850b0e283"/>
        <linearGradient id="c70f0ff5-a8d3-43a4-aafd-7888fa691136" x1="21.31" y1="448.08" x2="372.36" y2="97.04"
                        xlink:href="#01050c7f-ab64-493d-be1c-675aa15a9481"/>
        <linearGradient id="ec411e96-1550-428c-b18c-4fab9589c6d4" x1="133.91" y1="191.49" x2="196.72" y2="254.3"
                        xlink:href="#eac7d0fe-b7fa-4e15-b375-af9882854083"/>
        <linearGradient id="fa2ef466-e50d-4c29-9c7c-3f2a50ca56c6" x1="99.65" y1="260.19" x2="144.14" y2="304.68"
                        xlink:href="#eac7d0fe-b7fa-4e15-b375-af9882854083"/>
        <linearGradient id="4dab4afd-1376-45c9-b44e-56a2c09713a9" x1="94.94" y1="298.18" x2="136.91" y2="340.15"
                        xlink:href="#eac7d0fe-b7fa-4e15-b375-af9882854083"/>
        <linearGradient id="bd2326c2-a0aa-4885-8aba-3fd9ef6bd126" x1="-329.68" y1="432.43" x2="-329.02" y2="406.93"
                        gradientTransform="translate(341.45 16.65) rotate(-0.4)"
                        xlink:href="#c3dc440d-3d07-473c-b9a0-576850b0e283"/>
        <linearGradient id="e18ea6be-b1a1-4cee-b5d6-d3e674a69391" x1="-321.9" y1="399.35" x2="-325.4" y2="436.13"
                        gradientTransform="translate(341.45 16.65) rotate(-0.4)"
                        xlink:href="#c3dc440d-3d07-473c-b9a0-576850b0e283"/>
        <linearGradient id="12fb7195-0e4c-4bd7-bfed-77f540e07963" x1="14.3" y1="437.81" x2="28.49" y2="437.81"
                        xlink:href="#c3dc440d-3d07-473c-b9a0-576850b0e283"/>
        <radialGradient id="d035bc3c-46d3-437f-897c-94418fa045a1" cx="186.31" cy="175.14" r="137.12"
                        xlink:href="#dc32e0eb-aee3-430d-b190-0467fa5176db"/>
    </defs>
    <title>5Artboard 8</title>
    <g id="13b04c7c-33d6-459c-bacc-6106937ba0d3" data-name="Layer 55">
        <path d="M475.08,44l-84.5,50a1,1,0,1,1-1-1.72h0Z" style="fill:url(#eac7d0fe-b7fa-4e15-b375-af9882854083)"/>
    </g>
    <g id="05427778-518b-485d-9b5f-2b881e19c73d" data-name="Layer 54">
        <path d="M475.08,78.39l-84.5,50a1,1,0,0,1-1-1.72h0Z" style="fill:url(#5734673a-3776-410a-a595-759ca06d9075)"/>
    </g>
    <g id="6a6d595e-26ba-4cca-93ba-7a0a4dab21a7" data-name="Layer 53">
        <path d="M475.08,111.39l-84.5,50a1,1,0,1,1-1-1.72h0Z" style="fill:url(#fb58650d-eac0-4ffc-af8b-752652d42b7b)"/>
    </g>
    <g id="7dc58dba-e4d6-4c9c-8415-4ebbf2a997d1" data-name="Layer 52">
        <polygon points="5.81 457.64 5.81 623.1 483.63 623.1 483.63 207.91 5.81 457.64"
                 style="opacity:0.24;fill:url(#510791af-9060-4d11-a474-cbef69c4303a)"/>
    </g>
    <g class="line1" id="1ecea8b0-6b66-4bcc-97d0-20ec743fda63" data-name="Layer 51">
        <path id="line1" d="M475.08,181.56a102.63,102.63,0,0,1-22-5.36A88.29,88.29,0,0,1,433,165.75a82.59,82.59,0,0,1-16.67-15.45c-1.2-1.48-2.35-3-3.42-4.58-.53-.8-1.05-1.59-1.54-2.46L410,140.76c-1.77-3.35-3.46-6.75-5-10.22-3.06-6.93-5.64-14-8.51-21a150.14,150.14,0,0,0-9.73-20.22,36.16,36.16,0,0,0-6.88-8.53,18.78,18.78,0,0,0-9.58-4.53,24.81,24.81,0,0,0-10.74.92,34.06,34.06,0,0,0-5.12,2l-1.23.62-1.2.68c-.81.44-1.58.94-2.36,1.44A61,61,0,0,0,334,97.51a142.05,142.05,0,0,0-11.42,19.31c-3.4,6.7-6.57,13.54-9.94,20.31a158.26,158.26,0,0,1-11.27,19.75,105,105,0,0,1-33.13,30.9,40.86,40.86,0,0,1-5.1,2.7c-1.76.8-3.57,1.42-5.38,2-3.62,1.18-7.26,2.16-10.78,3.36a35.47,35.47,0,0,0-9.82,4.83,25,25,0,0,0-6.8,8.38,62.87,62.87,0,0,0-4.23,10.28c-1.16,3.56-2.25,7.18-3.34,10.78-2.17,7.21-4.27,14.45-6.39,21.69-4.25,14.47-8.62,28.94-14,43.08q-2,5.3-4.24,10.53c-1.51,3.46-3,7-4.84,10.33a37.42,37.42,0,0,1-6.88,9.31A19.46,19.46,0,0,1,176,330.4a28.48,28.48,0,0,1-11.59-1c-3.7-1-7.25-2.28-10.84-3.21a27.19,27.19,0,0,0-10.79-1,22.58,22.58,0,0,0-9.88,4.19,45.46,45.46,0,0,0-8,7.56,107.46,107.46,0,0,0-6.6,9.06c-1.1,1.55-2.24,3.09-3.5,4.56a22.64,22.64,0,0,1-4.32,4,10.64,10.64,0,0,1-2.78,1.38l-.77.23-.8.11a8.56,8.56,0,0,1-1.6,0,14.66,14.66,0,0,1-5.72-1.93c-1.72-.93-3.29-2-4.89-2.9a14.4,14.4,0,0,0-4.89-2,11.49,11.49,0,0,0-5.12.37,20.36,20.36,0,0,0-4.79,2.38,47.51,47.51,0,0,0-8.2,7.4L69,361.73c-.65.7-1.26,1.41-1.85,2.12L65.34,366a23.62,23.62,0,0,0-1.74,2.17A72.52,72.52,0,0,0,53.14,387.8c-2.59,7-4.46,14.35-6.91,21.51-.59,1.8-1.32,3.55-2,5.33s-1.52,3.47-2.31,5.19-1.75,3.36-2.74,5l-1.56,2.38A22.9,22.9,0,0,1,36,429.51l-1.78,2.21a21.89,21.89,0,0,1-1.84,2.15c-1.33,1.34-2.62,2.72-4,4a96.6,96.6,0,0,1-9,6.87,96.47,96.47,0,0,0,8.81-7.06c1.33-1.33,2.58-2.73,3.88-4.09a21.67,21.67,0,0,0,1.78-2.18l1.71-2.23a22.57,22.57,0,0,0,1.56-2.34l1.49-2.38c.95-1.62,1.73-3.33,2.61-5s1.48-3.45,2.17-5.19,1.29-3.52,1.83-5.32c2.27-7.16,4-14.52,6.45-21.7A74.27,74.27,0,0,1,62,367a24.79,24.79,0,0,1,1.78-2.25l1.84-2.2.92-1.1.95-1,1.92-2.09a50.84,50.84,0,0,1,8.57-7.7A22.3,22.3,0,0,1,83.28,348a13.49,13.49,0,0,1,6.05-.43,16.33,16.33,0,0,1,5.54,2.22c1.67,1,3.23,2,4.84,2.87a12.78,12.78,0,0,0,4.91,1.69,7.33,7.33,0,0,0,4.67-1.42,20.73,20.73,0,0,0,3.93-3.67c1.2-1.39,2.3-2.88,3.38-4.41a108.81,108.81,0,0,1,6.72-9.21,47.41,47.41,0,0,1,8.4-7.89,24.57,24.57,0,0,1,10.75-4.53,29.6,29.6,0,0,1,3-.23c1,.06,2,0,2.93.18l1.45.18c.48.07,1,.18,1.43.27,1,.16,1.88.42,2.81.64,3.71,1,7.26,2.26,10.85,3.21a26.55,26.55,0,0,0,10.77,1,17.45,17.45,0,0,0,9.38-4.81,35.47,35.47,0,0,0,6.5-8.81c1.8-3.24,3.25-6.7,4.75-10.15s2.87-6.94,4.21-10.45c5.35-14.05,9.71-28.47,14-42.93,2.12-7.23,4.22-14.48,6.4-21.7,1.1-3.61,2.18-7.22,3.36-10.83a64.8,64.8,0,0,1,4.37-10.6,35.32,35.32,0,0,1,3.16-4.88,28.68,28.68,0,0,1,2-2.22c.34-.37.74-.66,1.1-1a12.77,12.77,0,0,1,1.14-.94A37.39,37.39,0,0,1,246.31,194c7.22-2.45,14.64-3.91,20.88-7.93a103,103,0,0,0,32.51-30.32,156.33,156.33,0,0,0,11.12-19.51c3.35-6.73,6.52-13.58,9.95-20.32a144,144,0,0,1,11.59-19.58,63,63,0,0,1,16.24-16.07c.81-.52,1.61-1,2.46-1.51l1.26-.71,1.29-.66a36.07,36.07,0,0,1,5.42-2.1,26.8,26.8,0,0,1,11.61-1,20.8,20.8,0,0,1,10.59,5,38.11,38.11,0,0,1,7.28,9,151.94,151.94,0,0,1,9.87,20.5c2.85,7,5.55,14,8.5,20.94,1.48,3.44,3,6.85,4.73,10.2l1.29,2.5c.41.78.92,1.58,1.41,2.36,1,1.56,2.1,3.07,3.25,4.54a81.29,81.29,0,0,0,16.08,15.55C445.74,173.74,460.21,179.2,475.08,181.56Z"
              style="fill:url(#01050c7f-ab64-493d-be1c-675aa15a9481)"/>
    </g>
    <g id="d582a6c0-49de-4eb6-9da8-afc0d59cd97b" data-name="Layer 50">
        <polygon points="475.07 7.89 367.62 71.17 366.62 69.44 475.07 7.89"
                 style="fill:url(#dc32e0eb-aee3-430d-b190-0467fa5176db)"/>
    </g>
    <g id="2303125f-dbd4-4ff1-a2b9-185e019d9b5b" data-name="Layer 49">
        <circle cx="359.82" cy="75.04" r="11.35" style="fill:url(#9e45d44b-16c5-4482-ab6c-18dc8a469d25)"/>
    </g>
    <g id="2c572157-c5e2-4c53-97e9-47c333906e13" data-name="Layer 48">
        <path d="M460.91,195a34.27,34.27,0,0,1-20.55-2.63,33.58,33.58,0,0,1-11.55-9S406.6,171,398.59,155.95l-.93-1.74a95.75,95.75,0,0,1-5.44-11.37,99.39,99.39,0,0,1-6.93-39.34L363.53,90.58s-1.31-.71-2-1c-7.11-3-15.48-1.32-22.32,2.3-12.13,6.41-20.59,18.07-27.25,30.07-7,12.68-12.56,26.16-19.69,38.79a104.8,104.8,0,0,1-40,40.21c-10.42,5.94-25.22,5.93-32.88,15.23-4.55,5.52-6.88,12.49-9,19.32-9.09,29.18-16.26,59.1-28.77,87-3.71,8.26-8.82,17.13-17.56,19.52-11.33,3.1-22.79-6.25-34.46-4.94-8.33.93-15.07,7.11-20.37,13.61-3.9,4.79-9.08,14.8-15.07,17.14s-11.62-4.21-17.21-6c-9.55-3-18.51,8-23.29,13.23C30.43,400.3,39.28,427.49,15.12,450.4a86.94,86.94,0,0,1-9.31,7.35L28.19,471c47.16-36.75,111.16-67.82,169.92-104.69C304,299.86,393.9,244.38,483.63,207.91Z"
              style="fill:url(#428c25be-17db-4f2a-b749-63d0ef903802)"/>
        <path d="M483.63,207.91A96.71,96.71,0,0,1,444.1,193c-15.83-10.64-22.91-23.35-23.13-23.75l-.93-1.74h0c-1.23-2.34-3.31-6.42-5.44-11.37-5.52-12.78-9.87-26.13-16.6-38.32-3.37-6.11-7.68-12.2-14.09-14.95-7.11-3-15.48-1.32-22.32,2.3-12.13,6.41-20.59,18.07-27.25,30.07-7,12.68-12.56,26.16-19.69,38.79a104.8,104.8,0,0,1-40,40.21c-10.42,5.94-25.22,5.93-32.88,15.23-4.55,5.52-6.88,12.49-9,19.32-9.09,29.18-16.26,59.1-28.77,87-3.71,8.26-8.82,17.13-17.56,19.52-11.33,3.1-22.79-6.25-34.46-4.94-8.33.93-15.07,7.11-20.37,13.61-3.9,4.79-9.08,14.8-15.07,17.14s-11.62-4.21-17.21-6c-9.55-3-18.51,8-23.29,13.23-23.27,25.26-14.42,52.45-38.58,75.36a44,44,0,0,1-4.18,3.43c-2.06,1.51-3.61,2.9-5.13,3.93,61.35-35.38,171.16-98.78,232.49-134.2C318,303.7,426.33,241.06,483.63,207.91Z"
              style="fill:url(#5969d599-bf3e-477e-a34a-5d7e176db986)"/>
    </g>
    <g id="dd81e13e-ca16-41d5-8304-34b75acd0f2a" data-name="Layer 47">
        <polygon points="376.18 11.33 367.6 6.18 354.81 12.43 376.18 11.33"
                 style="fill:url(#c3dc440d-3d07-473c-b9a0-576850b0e283)"/>
        <path d="M374.4,29.28,365,23.85a6,6,0,0,0-2.2-.73c-.33,0-2.2-.79-2.2-.79l2-1.56,3.91-3.08-4.23.33,5.61-1.88,4.2.47L370.37,15l-3.26-1.12L365,11.14l2.42-1.55.89-4.23L359.08,0l-6,3.49V8.82c-5.14,4.23-8.47,10.33-8.47,16.22,0,2.9.89,4.94,2.69,6.09l.22.11h0l9.25,5.36-1.81-4.44,2.63,3.13,1.84-2.38-.79,2.38a14,14,0,0,1,1.31-.65c.3,2.94-2.34,5.53-4.57,6.82a7.09,7.09,0,0,1-3.94,1l-3.92-2.27-4.71,7.94,1.92,1.65a17.87,17.87,0,0,0,2.76,2l5.41,3.1V56.1l9.25,5.36,4.14-3.28L364.07,53l2.41,2-.36-3.67,3.54-1.74,1.89-2.06-2.28.23,2.32-2.8-2-2.85,3.38,1s.81-2.58,1.45-2.83c.16.82.36.64.52,1.46l.11-2.81-2.7-3.14,3.71-.58-3.14-2.51,2.89-.92-8.14-2.11Z"
              style="fill:url(#3eff451c-634d-42df-8b1e-422cb7b29ade)"/>
        <path d="M368.09,52.11V58l-6,3.46V55.8c-4.43,1.73-7.81,1-10.09-2.25l4.71-7.94c1.71,2.58,4.81,3,7.86,1.24,2.81-1.62,4.57-4.4,4.57-6.82,0-1.92-1.1-2.5-3-2.53-.33,0-1,0-2.09.06a25.88,25.88,0,0,1-5.28-.19c-3.28-.69-4.9-3.05-4.9-7,0-5.88,3.33-12,8.47-16.22V8.85l6-3.49v5.33a8.71,8.71,0,0,1,7.86.63l-3.9,8.08a7,7,0,0,0-7,.28c-2.48,1.43-4.09,4-4.09,6.21a1.86,1.86,0,0,0,1.14,2,13.79,13.79,0,0,0,2.38.44c.33,0,1.43.05,3.29,0a28.35,28.35,0,0,1,4.14.14c3.19.47,4.81,2.67,4.81,6.57C376.89,41.2,373.37,47.74,368.09,52.11Z"
              style="fill:url(#0de89ec1-11da-45b2-afa1-2fb994e6932c)"/>
    </g>
    <g class="line" id="5099045c-2986-4232-b2d3-7491126e126b" data-name="Layer 46">
        <path id="line" d="M352.82,78.91C340.69,85.32,332.23,97,325.57,109c-7,12.68-12.56,26.16-19.69,38.79a104.8,104.8,0,0,1-40,40.21c-10.42,5.94-25.22,5.93-32.88,15.23-4.55,5.52-6.88,12.49-9,19.32-9.09,29.18-16.26,59.1-28.77,87-3.71,8.26-8.82,17.13-17.56,19.52-11.33,3.1-22.79-6.25-34.46-4.94-8.33.93-15.07,7.11-20.37,13.61-3.9,4.79-9.08,14.8-15.07,17.14s-11.62-4.21-17.21-6c-9.55-3-18.51,8-23.29,13.23C44,387.33,52.89,414.52,28.74,437.43c-1.92,1.82-4,3.47-4,3.47-2,1.57-3.75,2.86-5.28,3.88"
              style="fill:none;stroke-linecap:round;stroke-linejoin:round;stroke-width:2px;stroke:url(#c70f0ff5-a8d3-43a4-aafd-7888fa691136)"/>
    </g>
    <g id="6fdd1295-c832-404b-9f5c-5bd7bf7cf22c" data-name="Layer 45">
        <path d="M311,140,19.42,307.39,310,138.24a1,1,0,0,1,1,1.73Z"
              style="fill:url(#ec411e96-1550-428c-b18c-4fab9589c6d4)"/>
    </g>
    <g id="cd6f7157-13a1-404b-9a61-f3631bebd743" data-name="Layer 44">
        <path d="M224.16,224.62,19.42,341.83,223.16,222.89a1,1,0,1,1,1,1.73Z"
              style="fill:url(#fa2ef466-e50d-4c29-9c7c-3f2a50ca56c6)"/>
    </g>
    <g id="3593a6c0-e201-4178-bc3d-c93d20e0c0db" data-name="Layer 43">
        <path d="M212.22,264.8,19.42,375.11l191.79-112a1,1,0,1,1,1,1.73Z"
              style="fill:url(#4dab4afd-1376-45c9-b44e-56a2c09713a9)"/>
    </g>
    <g class="bit" id="f1d1c189-73fb-4ef2-9feb-ff7b61df40b8" data-name="Layer 42">
        <path d="M28.56,420l1.73-.64-5-2.86h0c-2.7-1.6-6.45-1.38-10.59,1C6.5,422.29-.06,433.84,0,443.3c0,5.18,2.05,8.65,5.21,10v0l5.09,2.89v-2.35l-.29-.16a15,15,0,0,0,4.89-1.9C23,447,29.61,435.43,29.55,426a13.83,13.83,0,0,0-1.39-6.34Z"
              style="fill:url(#bd2326c2-a0aa-4885-8aba-3fd9ef6bd126)"/>
        <path d="M35.36,429.21c.07,9.46-6.5,21-14.65,25.79s-14.83,1-14.89-8.46,6.5-21,14.65-25.79S35.29,419.75,35.36,429.21Z"
              style="fill:url(#e18ea6be-b1a1-4cee-b5d6-d3e674a69391)"/>
        <path d="M32.29,431c.05,7.5-5.15,16.65-11.62,20.44s-11.75.79-11.8-6.71S14,428.09,20.49,424.3,32.24,423.51,32.29,431Z"
              style="fill:#fff"/>
        <path d="M25.87,433.86a5.85,5.85,0,0,0,1.55-4.41c-.21-2.36-2.06-2.12-4.4-1V425l-1.81,1v3.34l-1.45.86V426.9l-1.81,1v3.43l-1.15.68h0l-2.5,1.44v2.23s1.34-.8,1.32-.76c.73-.42,1-.07,1,.31v9.41a1.41,1.41,0,0,1-.68,1.09s-1.32.76-1.32.76l-.36,2.7,2.36-1.36,1.29-.74v3.47l1.81-1v-3.44l1.45-.82v3.42l1.81-1v-3.47c3-2,5.18-4.08,5.44-7.53C28.68,433.9,27.6,433.34,25.87,433.86Zm-6.06-1.17c1-.59,4.24-2.82,4.24-.36s-3.21,3.94-4.24,4.53Zm0,10.88V439c1.23-.71,5.08-3.34,5.08-.63S21,442.86,19.81,443.57Z"
              style="fill:url(#12fb7195-0e4c-4bd7-bfed-77f540e07963)"/>
    </g>
    <g id="0cdabff0-ae01-40f1-9a8c-de2cd1e4d7da" data-name="Layer 41">
        <path d="M353.51,79.63,19.62,271.52,352.51,77.9a1,1,0,0,1,1,1.73Z"
              style="fill:url(#d035bc3c-46d3-437f-897c-94418fa045a1)"/>
    </g>
</svg>