<svg xmlns="http://www.w3.org/2000/svg" xmlns:xlink="http://www.w3.org/1999/xlink" viewBox="0 0 679.07 756.09">
    <defs>
        <linearGradient id="b2e1b3ec-b288-45a7-9969-4873c1ad3be3" x1="79.3" y1="365.26" x2="304" y2="365.26"
                        gradientUnits="userSpaceOnUse">
            <stop offset="0" stop-color="#4acbfa"/>
            <stop offset="1" stop-color="#7399f9"/>
        </linearGradient>
        <linearGradient id="a1f328db-ccb7-47d9-b135-4fdbc6f6ffe4" x1="79.3" y1="493.82" x2="304" y2="493.82"
                        xlink:href="#b2e1b3ec-b288-45a7-9969-4873c1ad3be3"/>
        <linearGradient id="bdf014d6-f160-4a70-afb5-aaf3dcc8c2bb" x1="79.3" y1="612.67" x2="304" y2="612.67"
                        xlink:href="#b2e1b3ec-b288-45a7-9969-4873c1ad3be3"/>
        <linearGradient id="970b9e5b-4667-4714-a5db-a7925a88b84a" x1="533.34" y1="328.88" x2="479.91" y2="421.44"
                        xlink:href="#b2e1b3ec-b288-45a7-9969-4873c1ad3be3"/>
        <linearGradient id="ad4f6e94-1c9d-454a-be53-99f7f42732c9" x1="220.01" y1="75.13" x2="-65.58" y2="842.87"
                        gradientTransform="matrix(0.87, -0.5, 0, 1.15, 82.96, -228.73)" gradientUnits="userSpaceOnUse">
            <stop offset="0" stop-color="#7de7f9"/>
            <stop offset="1" stop-color="#2c4af8"/>
        </linearGradient>
        <linearGradient id="47703768-c101-44e6-97e9-0627a888ec93" x1="175.02" y1="126.23" x2="-51.29" y2="484.5"
                        gradientTransform="matrix(0.87, -0.5, 0, 1.15, 115.68, -96.42)" gradientUnits="userSpaceOnUse">
            <stop offset="0" stop-color="#a1f1ff"/>
            <stop offset="1" stop-color="#4e75fe"/>
        </linearGradient>
        <linearGradient id="1ee8a376-93fe-406a-9528-fc0a64a1187a" x1="325.14" y1="36.06" x2="-42.29" y2="617.76"
                        gradientTransform="matrix(0.87, -0.5, 0, 1.15, 115.68, -96.42)"
                        xlink:href="#ad4f6e94-1c9d-454a-be53-99f7f42732c9"/>
        <linearGradient id="75072529-6a39-4d46-a89a-f461b714d47d" x1="382.84" y1="103.55" x2="231.36" y2="267.29"
                        gradientUnits="userSpaceOnUse">
            <stop offset="0" stop-color="#6ff8fd"/>
            <stop offset="1" stop-color="#2451fe"/>
        </linearGradient>
        <linearGradient id="04b62db3-45b3-4d0c-8544-e6c587a3b326" x1="378.64" y1="87.79" x2="1.79" y2="684.41"
                        gradientTransform="matrix(0.87, -0.5, 0, 1.15, 115.68, -96.42)" gradientUnits="userSpaceOnUse">
            <stop offset="0" stop-color="#4af3fa"/>
            <stop offset="1" stop-color="#0034f9"/>
        </linearGradient>
        <linearGradient id="600130d5-ff40-4a38-8c4e-88dcce2b5993" x1="112.93" y1="456.38" x2="289.61" y2="236.98"
                        xlink:href="#04b62db3-45b3-4d0c-8544-e6c587a3b326"/>
        <linearGradient id="77579553-942e-4c5c-a84b-abd8f110fb13" x1="132.96" y1="467.31" x2="306.12" y2="252.28"
                        xlink:href="#04b62db3-45b3-4d0c-8544-e6c587a3b326"/>
        <linearGradient id="8f22956e-c97d-4a8c-b297-e915b61f4235" x1="151.38" y1="482.98" x2="328.05" y2="263.59"
                        xlink:href="#04b62db3-45b3-4d0c-8544-e6c587a3b326"/>
        <linearGradient id="44cc1612-0ed8-40d7-9ce2-db22132c42aa" x1="507.08" y1="447.88" x2="293.46" y2="324.55"
                        xlink:href="#b2e1b3ec-b288-45a7-9969-4873c1ad3be3"/>
        <linearGradient id="9775dcb7-a06e-4d4a-88ca-76f7f4aef503" x1="472.36" y1="508" x2="258.75" y2="384.67"
                        xlink:href="#b2e1b3ec-b288-45a7-9969-4873c1ad3be3"/>
        <linearGradient id="c4c2d8ee-d389-4770-a47c-90a9ea6ecf5c" x1="443.48" y1="558.03" x2="229.87" y2="434.69"
                        xlink:href="#b2e1b3ec-b288-45a7-9969-4873c1ad3be3"/>
        <linearGradient id="2e190174-c67a-4036-b45e-9616e8283964" x1="327.07" y1="721.81" x2="296.35" y2="623.12"
                        gradientUnits="userSpaceOnUse">
            <stop offset="0" stop-color="#fe9b74" stop-opacity="0"/>
            <stop offset="1" stop-color="#ff6f76"/>
        </linearGradient>
        <linearGradient id="14559a95-449b-4626-a2fe-a461d10b7044" x1="450.26" y1="649.07" x2="419.54" y2="550.39"
                        xlink:href="#2e190174-c67a-4036-b45e-9616e8283964"/>
        <linearGradient id="c065315c-6f74-43e3-8207-ec369ec3c0ba" x1="569.72" y1="576.82" x2="538.99" y2="478.14"
                        xlink:href="#2e190174-c67a-4036-b45e-9616e8283964"/>
        <radialGradient id="7c65728c-25a1-4ef9-8237-aaf6ddcdf237" cx="324.38" cy="577.06" r="68.27"
                        gradientUnits="userSpaceOnUse">
            <stop offset="0" stop-color="#ff6f76"/>
            <stop offset="1" stop-color="#fe9b74"/>
        </radialGradient>
        <radialGradient id="f32ac58e-ec3a-4d42-8231-e54762622934" cx="306.48" cy="582.9" r="42.55"
                        gradientTransform="translate(-308.79 434.67) rotate(-47.49) scale(1 0.95)"
                        gradientUnits="userSpaceOnUse">
            <stop offset="0" stop-color="#fe9b74"/>
            <stop offset="1" stop-color="#ff6f76"/>
        </radialGradient>
        <radialGradient id="6514638b-d182-440f-8ec0-92145a06436e" cx="445.27" cy="495.64" r="62.68"
                        gradientTransform="matrix(-0.32, 0.95, -1.12, -0.38, 1141.68, 261.57)"
                        gradientUnits="userSpaceOnUse">
            <stop offset="0" stop-color="#ff9b6f"/>
            <stop offset="1" stop-color="#fec774"/>
        </radialGradient>
        <radialGradient id="876ac0f1-8bd0-48ed-9171-89441da4951e" cx="432.05" cy="508.22" r="51.85"
                        gradientTransform="translate(-215.78 500.49) rotate(-47.49) scale(1 0.95)"
                        gradientUnits="userSpaceOnUse">
            <stop offset="0" stop-color="#fec774"/>
            <stop offset="1" stop-color="#ff9b6f"/>
        </radialGradient>
        <radialGradient id="403338e3-0725-475b-8708-4944f4ea6088" cx="562.25" cy="429.94" r="55.63"
                        gradientTransform="translate(1123 -18.92) rotate(102.84) scale(1 1.04)"
                        gradientUnits="userSpaceOnUse">
            <stop offset="0" stop-color="#ff5e93"/>
            <stop offset="1" stop-color="#fe9db1"/>
        </radialGradient>
        <radialGradient id="736b3c73-07f5-4428-9b9a-1a3d8c77cbbb" cx="551.66" cy="436.4" r="51.85"
                        gradientTransform="translate(-126.69 562.94) rotate(-47.49) scale(1 0.95)"
                        gradientUnits="userSpaceOnUse">
            <stop offset="0" stop-color="#fe9db1"/>
            <stop offset="1" stop-color="#ff5e93"/>
        </radialGradient>
        <linearGradient id="4f7ab274-6882-4181-9dbc-00af3ffd7763" x1="353.26" y1="707.59" x2="353.26" y2="660.63"
                        xlink:href="#2e190174-c67a-4036-b45e-9616e8283964"/>
        <linearGradient id="2aeffb7c-68a6-4788-a942-9fbdcadca237" x1="474.15" y1="636.26" x2="474.15" y2="589.29"
                        xlink:href="#2e190174-c67a-4036-b45e-9616e8283964"/>
        <linearGradient id="d178327a-3566-47f4-92bd-48db319df7fb" x1="594.47" y1="563.04" x2="594.47" y2="516.07"
                        xlink:href="#2e190174-c67a-4036-b45e-9616e8283964"/>
        <linearGradient id="4bb8c1de-0545-4b44-8ab3-55d7b543d206" x1="343.81" y1="641.56" x2="363.77" y2="680.82"
                        gradientUnits="userSpaceOnUse">
            <stop offset="0" stop-color="#5fd1ed"/>
            <stop offset="1" stop-color="#6374ec"/>
        </linearGradient>
        <linearGradient id="a1b9ce8d-b216-4629-9151-3960b959af6e" x1="152.43" y1="1012.41" x2="192.28" y2="1009.54"
                        gradientTransform="matrix(0.87, -0.5, 0, 1.15, 204.54, -419.7)"
                        xlink:href="#4bb8c1de-0545-4b44-8ab3-55d7b543d206"/>
        <linearGradient id="c679e762-6638-4918-9cd1-40bd6d1aa25e" x1="333.95" y1="677.13" x2="334.11" y2="692.07"
                        xlink:href="#4bb8c1de-0545-4b44-8ab3-55d7b543d206"/>
        <linearGradient id="5c9fa0a7-3519-407f-b9d1-62a8ebefe1b4" x1="360.83" y1="627.45" x2="352.95" y2="640.46"
                        xlink:href="#4bb8c1de-0545-4b44-8ab3-55d7b543d206"/>
        <linearGradient id="e9fb883d-4730-46cb-ac77-32d2a0d024d9" x1="181.9" y1="1017.51" x2="181.95" y2="1021.66"
                        gradientTransform="matrix(0.87, -0.5, 0, 1.15, 196.92, -442.18)"
                        xlink:href="#4bb8c1de-0545-4b44-8ab3-55d7b543d206"/>
        <linearGradient id="0d7dbb6c-c3ae-4b2d-b5bf-f1f42787a112" x1="464.7" y1="570.22" x2="484.66" y2="609.48"
                        xlink:href="#4bb8c1de-0545-4b44-8ab3-55d7b543d206"/>
        <linearGradient id="3f952e95-a30b-4cdb-bfcf-d18406016ca4" x1="292.02" y1="1011.07" x2="331.87" y2="1008.21"
                        gradientTransform="matrix(0.87, -0.5, 0, 1.15, 204.54, -419.7)"
                        xlink:href="#4bb8c1de-0545-4b44-8ab3-55d7b543d206"/>
        <linearGradient id="f22cbe61-3460-4525-9542-835b35a93383" x1="454.83" y1="605.79" x2="455" y2="620.73"
                        xlink:href="#4bb8c1de-0545-4b44-8ab3-55d7b543d206"/>
        <linearGradient id="d237d574-f110-4371-bcd8-cccbb7276a33" x1="481.72" y1="556.11" x2="473.84" y2="569.12"
                        xlink:href="#4bb8c1de-0545-4b44-8ab3-55d7b543d206"/>
        <linearGradient id="0f5d7d64-e7d1-4964-9f8e-c10f5ca37838" x1="321.49" y1="1016.17" x2="321.54" y2="1020.32"
                        gradientTransform="matrix(0.87, -0.5, 0, 1.15, 196.92, -442.18)"
                        xlink:href="#4bb8c1de-0545-4b44-8ab3-55d7b543d206"/>
        <linearGradient id="57ccdbf7-e0d0-46fd-afe0-500b0c937900" x1="585.03" y1="497" x2="604.98" y2="536.26"
                        xlink:href="#4bb8c1de-0545-4b44-8ab3-55d7b543d206"/>
        <linearGradient id="f6ef5166-61f8-45a6-bcde-a49b276446ea" x1="430.95" y1="1007.83" x2="470.81" y2="1004.96"
                        gradientTransform="matrix(0.87, -0.5, 0, 1.15, 204.54, -419.7)"
                        xlink:href="#4bb8c1de-0545-4b44-8ab3-55d7b543d206"/>
        <linearGradient id="779c192f-c657-49ce-8044-baa817359e2e" x1="575.16" y1="532.58" x2="575.32" y2="547.52"
                        xlink:href="#4bb8c1de-0545-4b44-8ab3-55d7b543d206"/>
        <linearGradient id="4b71a61b-3b5e-40cc-a7fe-9f6c47457434" x1="602.04" y1="482.89" x2="594.16" y2="495.9"
                        xlink:href="#4bb8c1de-0545-4b44-8ab3-55d7b543d206"/>
        <linearGradient id="18a76b40-2a62-43ad-8ae1-16c40ee03412" x1="460.43" y1="1012.92" x2="460.47" y2="1017.08"
                        gradientTransform="matrix(0.87, -0.5, 0, 1.15, 196.92, -442.18)"
                        xlink:href="#4bb8c1de-0545-4b44-8ab3-55d7b543d206"/>
        <radialGradient id="634ab7d8-c615-4934-88d4-36b1c97fd412" cx="286.57" cy="634.74" r="30.37"
                        gradientTransform="matrix(1, 0, 0, 1, 0, 0)"
                        xlink:href="#f32ac58e-ec3a-4d42-8231-e54762622934"/>
        <linearGradient id="351bd4c0-73bc-4496-86fc-43ffdc41388d" x1="302.57" y1="621.49" x2="302.57" y2="646.8"
                        gradientUnits="userSpaceOnUse">
            <stop offset="0" stop-color="#fe9b74"/>
            <stop offset="1" stop-color="#ff6476"/>
        </linearGradient>
        <linearGradient id="bca4c0fe-1f98-4dcc-b4d5-6a9e91b84457" x1="296.84" y1="626.65" x2="310.07" y2="626.65"
                        gradientUnits="userSpaceOnUse">
            <stop offset="0" stop-color="#ff916f"/>
            <stop offset="1" stop-color="#fece69"/>
        </linearGradient>
        <linearGradient id="c4c36b7e-31f4-4557-afba-a39898c49035" x1="287.68" y1="621.49" x2="287.68" y2="646.8"
                        xlink:href="#351bd4c0-73bc-4496-86fc-43ffdc41388d"/>
        <linearGradient id="8cdf19cd-622c-4d14-8b75-f2cf41f55223" x1="281.94" y1="635.17" x2="295.17" y2="635.17"
                        xlink:href="#bca4c0fe-1f98-4dcc-b4d5-6a9e91b84457"/>
        <linearGradient id="3e7732ba-075a-4dfd-bb2a-3d1e8fcd7f62" x1="272.9" y1="621.49" x2="272.9" y2="646.8"
                        xlink:href="#351bd4c0-73bc-4496-86fc-43ffdc41388d"/>
        <linearGradient id="d4a2516a-49de-4c2b-8cf3-9e5d435a735d" x1="267.16" y1="643.79" x2="280.39" y2="643.79"
                        xlink:href="#bca4c0fe-1f98-4dcc-b4d5-6a9e91b84457"/>
        <radialGradient id="feaf8ec8-6389-4cdc-899f-58d3b6ad12e2" cx="405.55" cy="565.14" r="24.96"
                        gradientTransform="matrix(1, 0, 0, 1, 0, 0)"
                        xlink:href="#f32ac58e-ec3a-4d42-8231-e54762622934"/>
        <linearGradient id="41e2955f-19fa-4804-8f5e-1466904ca7af" x1="413.98" y1="547.55" x2="413.98" y2="573.23"
                        xlink:href="#351bd4c0-73bc-4496-86fc-43ffdc41388d"/>
        <linearGradient id="f9e6b431-6b12-481a-a7e6-95967eedff5b" x1="408.16" y1="561.43" x2="421.58" y2="561.43"
                        xlink:href="#bca4c0fe-1f98-4dcc-b4d5-6a9e91b84457"/>
        <linearGradient id="db59b6e0-8f16-4136-81c7-ef440a5385fd" x1="398.98" y1="547.55" x2="398.98" y2="573.23"
                        xlink:href="#351bd4c0-73bc-4496-86fc-43ffdc41388d"/>
        <linearGradient id="0224f6e6-8d17-45ef-b130-9708d4e7e1de" x1="393.16" y1="570.18" x2="406.58" y2="570.18"
                        xlink:href="#bca4c0fe-1f98-4dcc-b4d5-6a9e91b84457"/>
        <radialGradient id="0fb3f80c-1071-4da7-86a1-a8959d6893f1" cx="532.7" cy="487.08" r="30.37"
                        gradientTransform="matrix(1, 0, 0, 1, 0, 0)"
                        xlink:href="#f32ac58e-ec3a-4d42-8231-e54762622934"/>
        <linearGradient id="0e24380e-8e23-4437-904d-a034dc28e89f" x1="548.7" y1="473.82" x2="548.7" y2="499.13"
                        xlink:href="#351bd4c0-73bc-4496-86fc-43ffdc41388d"/>
        <linearGradient id="7187a3e2-9ec9-4693-a0d4-c5dea549741d" x1="542.97" y1="478.99" x2="556.2" y2="478.99"
                        xlink:href="#bca4c0fe-1f98-4dcc-b4d5-6a9e91b84457"/>
        <linearGradient id="0c42d715-99a8-4344-bc69-5f130e0fc0cd" x1="533.81" y1="473.82" x2="533.81" y2="499.13"
                        xlink:href="#351bd4c0-73bc-4496-86fc-43ffdc41388d"/>
        <linearGradient id="982b528c-1116-4115-aa6b-f0c16c5039e1" x1="528.07" y1="487.5" x2="541.3" y2="487.5"
                        xlink:href="#bca4c0fe-1f98-4dcc-b4d5-6a9e91b84457"/>
        <linearGradient id="420f7d53-2a6b-45ab-87ff-607f3f6d2874" x1="519.03" y1="473.82" x2="519.03" y2="499.13"
                        xlink:href="#351bd4c0-73bc-4496-86fc-43ffdc41388d"/>
        <linearGradient id="955b7faa-84df-4966-bee9-2df0b3bfc378" x1="513.29" y1="496.12" x2="526.52" y2="496.12"
                        xlink:href="#bca4c0fe-1f98-4dcc-b4d5-6a9e91b84457"/>
        <linearGradient id="ef08a518-50f6-4333-aa58-6289ad1c9cf7" x1="232.71" y1="559.04" x2="232.71" y2="598.38"
                        gradientUnits="userSpaceOnUse">
            <stop offset="0" stop-color="#ffa56f"/>
            <stop offset="1" stop-color="#fece74" stop-opacity="0"/>
        </linearGradient>
        <linearGradient id="358f490e-372a-4f66-8aaf-b1a05c6f28ef" x1="1081.37" y1="573.24" x2="1081.99" y2="549.2"
                        gradientTransform="matrix(-1, 0, 0, 1, 1316.93, 0)" gradientUnits="userSpaceOnUse">
            <stop offset="0" stop-color="#ffa56f"/>
            <stop offset="1" stop-color="#fece74"/>
        </linearGradient>
        <linearGradient id="9b9aa51e-466b-43a2-8dc6-6fe3b6ea87ba" x1="1088.7" y1="542.07" x2="1085.4" y2="576.72"
                        xlink:href="#358f490e-372a-4f66-8aaf-b1a05c6f28ef"/>
        <linearGradient id="38612624-a09a-4873-9692-1ccf18e279dc" x1="225.92" y1="560.42" x2="233.07" y2="560.42"
                        gradientTransform="matrix(1, 0, 0, 1, 0, 0)"
                        xlink:href="#358f490e-372a-4f66-8aaf-b1a05c6f28ef"/>
        <linearGradient id="a8df70e4-0cf6-4b8e-8590-a309a04adeab" x1="331.69" y1="362.6" x2="331.69" y2="401.93"
                        xlink:href="#ef08a518-50f6-4333-aa58-6289ad1c9cf7"/>
        <linearGradient id="62598d3b-829a-4101-afb4-dd391cf8256a" x1="982.39" y1="376.79" x2="983.01" y2="352.76"
                        xlink:href="#358f490e-372a-4f66-8aaf-b1a05c6f28ef"/>
        <linearGradient id="6eb96bb9-2bf8-495a-8854-c2e2b13f9706" x1="989.73" y1="345.62" x2="986.43" y2="380.28"
                        xlink:href="#358f490e-372a-4f66-8aaf-b1a05c6f28ef"/>
        <linearGradient id="dfff348c-4959-4afe-84bc-19c9021e6529" x1="324.9" y1="363.98" x2="332.04" y2="363.98"
                        gradientTransform="matrix(1, 0, 0, 1, 0, 0)"
                        xlink:href="#358f490e-372a-4f66-8aaf-b1a05c6f28ef"/>
        <linearGradient id="dac48ce3-0c8d-46cc-acf7-f2e8fdb2fbff" x1="457.77" y1="271.49" x2="457.77" y2="310.83"
                        xlink:href="#ef08a518-50f6-4333-aa58-6289ad1c9cf7"/>
        <linearGradient id="fbfaa3e3-bdb2-459b-a74e-d000c2a697f3" x1="856.31" y1="285.69" x2="856.93" y2="261.66"
                        xlink:href="#358f490e-372a-4f66-8aaf-b1a05c6f28ef"/>
        <linearGradient id="a31d04df-6fbb-47cf-ab0f-9a9415aea525" x1="863.64" y1="254.52" x2="860.34" y2="289.18"
                        xlink:href="#358f490e-372a-4f66-8aaf-b1a05c6f28ef"/>
        <linearGradient id="396d0f94-e7f3-4618-9d2c-3a2a0be68116" x1="450.98" y1="272.87" x2="458.13" y2="272.87"
                        gradientTransform="matrix(1, 0, 0, 1, 0, 0)"
                        xlink:href="#358f490e-372a-4f66-8aaf-b1a05c6f28ef"/>
        <linearGradient id="16416db9-9314-4887-b492-27d20c3acfae" x1="545.2" y1="319.26" x2="545.2" y2="358.59"
                        xlink:href="#ef08a518-50f6-4333-aa58-6289ad1c9cf7"/>
        <linearGradient id="4f20067b-4fa9-44b0-84c7-636e83215db5" x1="768.88" y1="333.45" x2="769.5" y2="309.42"
                        xlink:href="#358f490e-372a-4f66-8aaf-b1a05c6f28ef"/>
        <linearGradient id="bcf91080-3551-4d1c-b39a-815db1740197" x1="776.22" y1="302.29" x2="772.91" y2="336.94"
                        xlink:href="#358f490e-372a-4f66-8aaf-b1a05c6f28ef"/>
        <linearGradient id="439f36c5-b2bd-48fa-a296-e721443c1bfa" x1="538.41" y1="320.64" x2="545.55" y2="320.64"
                        gradientTransform="matrix(1, 0, 0, 1, 0, 0)"
                        xlink:href="#358f490e-372a-4f66-8aaf-b1a05c6f28ef"/>
        <linearGradient id="892e5361-2e5b-41a4-a46f-c3da5e5a21b6" x1="375.38" y1="503.85" x2="375.38" y2="543.18"
                        xlink:href="#ef08a518-50f6-4333-aa58-6289ad1c9cf7"/>
        <linearGradient id="c28f7461-7c44-4556-a6bd-065dec1d4397" x1="938.7" y1="518.04" x2="939.32" y2="494.01"
                        xlink:href="#358f490e-372a-4f66-8aaf-b1a05c6f28ef"/>
        <linearGradient id="de8f1f1e-7b76-4826-b959-6d4c513d1f4d" x1="946.04" y1="486.87" x2="942.73" y2="521.53"
                        xlink:href="#358f490e-372a-4f66-8aaf-b1a05c6f28ef"/>
        <linearGradient id="892cb6ce-b88b-4fd2-9cfc-4cda499d5b21" x1="368.59" y1="505.23" x2="375.73" y2="505.23"
                        gradientTransform="matrix(1, 0, 0, 1, 0, 0)"
                        xlink:href="#358f490e-372a-4f66-8aaf-b1a05c6f28ef"/>
        <linearGradient id="1fe32eb3-bd06-416a-a18b-0956d8005a40" x1="877.53" y1="432.02" x2="877.53" y2="471.35"
                        gradientTransform="matrix(-1, 0, 0, 1, 1272.25, 0)"
                        xlink:href="#ef08a518-50f6-4333-aa58-6289ad1c9cf7"/>
        <linearGradient id="cb0a58f9-514d-4bca-bcf8-22c16029b803" x1="391.88" y1="446.41" x2="392.5" y2="422.38"
                        gradientTransform="matrix(1, 0, 0, 1, 0, 0)"
                        xlink:href="#358f490e-372a-4f66-8aaf-b1a05c6f28ef"/>
        <linearGradient id="7a83e9c4-e68b-4add-9207-6e72f58ec4fe" x1="399.21" y1="415.24" x2="395.91" y2="449.9"
                        gradientTransform="matrix(1, 0, 0, 1, 0, 0)"
                        xlink:href="#358f490e-372a-4f66-8aaf-b1a05c6f28ef"/>
        <linearGradient id="8e5f7c44-6814-477e-97db-cc7d87b3c80b" x1="82.75" y1="-609.8" x2="60.24" y2="-630.66"
                        gradientTransform="matrix(0.87, -0.5, 0, 1.15, 335.71, 1185.53)"
                        xlink:href="#358f490e-372a-4f66-8aaf-b1a05c6f28ef"/>
        <linearGradient id="7e041f0d-8c7a-4773-b349-6ab0967b7606" x1="642.09" y1="431.04" x2="642.09" y2="470.37"
                        gradientTransform="matrix(-1, 0, 0, 1, 1272.25, 0)"
                        xlink:href="#ef08a518-50f6-4333-aa58-6289ad1c9cf7"/>
        <linearGradient id="d4799013-4da8-41f8-8f50-9e8cccef4c1f" x1="627.32" y1="445.43" x2="627.94" y2="421.4"
                        gradientTransform="matrix(1, 0, 0, 1, 0, 0)"
                        xlink:href="#358f490e-372a-4f66-8aaf-b1a05c6f28ef"/>
        <linearGradient id="a61f1436-a6df-4777-9017-5f302056f840" x1="634.66" y1="414.26" x2="631.36" y2="448.92"
                        gradientTransform="matrix(1, 0, 0, 1, 0, 0)"
                        xlink:href="#358f490e-372a-4f66-8aaf-b1a05c6f28ef"/>
        <linearGradient id="021393ea-e5bf-40bc-acd8-a7dbddfe5a71" x1="354.62" y1="-492.93" x2="332.11" y2="-513.79"
                        gradientTransform="matrix(0.87, -0.5, 0, 1.15, 335.71, 1185.53)"
                        xlink:href="#358f490e-372a-4f66-8aaf-b1a05c6f28ef"/>
        <linearGradient id="12818c20-95e3-4f36-8dfa-dfbedca1e2ae" x1="118.61" y1="492.01" x2="118.61" y2="531.35"
                        xlink:href="#ef08a518-50f6-4333-aa58-6289ad1c9cf7"/>
        <linearGradient id="b31b615d-a7fa-4a81-9467-8b23c790e5de" x1="1195.47" y1="506.21" x2="1196.09" y2="482.18"
                        xlink:href="#358f490e-372a-4f66-8aaf-b1a05c6f28ef"/>
        <linearGradient id="ee6649ea-6a26-4017-b3c7-e4a5763b3d44" x1="1202.8" y1="475.04" x2="1199.5" y2="509.69"
                        xlink:href="#358f490e-372a-4f66-8aaf-b1a05c6f28ef"/>
        <linearGradient id="0400511d-5c6c-46ab-8be5-ef2cef771594" x1="111.82" y1="493.39" x2="118.97" y2="493.39"
                        gradientTransform="matrix(1, 0, 0, 1, 0, 0)"
                        xlink:href="#358f490e-372a-4f66-8aaf-b1a05c6f28ef"/>
        <linearGradient id="820637b9-4dfe-409f-98d9-412309d566c2" x1="1088.49" y1="402.7" x2="1088.49" y2="442.04"
                        gradientTransform="matrix(-1, 0, 0, 1, 1272.25, 0)"
                        xlink:href="#ef08a518-50f6-4333-aa58-6289ad1c9cf7"/>
        <linearGradient id="208e48e3-469d-4b4e-b2aa-812a25ba37e1" x1="180.92" y1="417.1" x2="181.54" y2="393.07"
                        gradientTransform="matrix(1, 0, 0, 1, 0, 0)"
                        xlink:href="#358f490e-372a-4f66-8aaf-b1a05c6f28ef"/>
        <linearGradient id="13c28a07-67cd-4525-8f44-1a47b40ec332" x1="188.25" y1="385.93" x2="184.95" y2="420.58"
                        gradientTransform="matrix(1, 0, 0, 1, 0, 0)"
                        xlink:href="#358f490e-372a-4f66-8aaf-b1a05c6f28ef"/>
        <linearGradient id="6b8d1597-a9ac-416e-9cd5-0b6d2247aed4" x1="-160.84" y1="-740.67" x2="-183.35" y2="-761.52"
                        gradientTransform="matrix(0.87, -0.5, 0, 1.15, 335.71, 1185.53)"
                        xlink:href="#358f490e-372a-4f66-8aaf-b1a05c6f28ef"/>
    </defs>
    <title>4Artboard 2</title>
    <g id="5bce45d1-a414-436a-bd1e-ec7d5930d92f" data-name="Layer 40">
        <line x1="230.81" y1="362.51" x2="230.81" y2="368.01"
              style="fill:none;stroke-linecap:round;stroke-linejoin:round;stroke:url(#b2e1b3ec-b288-45a7-9969-4873c1ad3be3)"/>
        <path d="M230.81,379.13v11.93a3.86,3.86,0,0,1-1.93,3.34L81.73,479.32a3.86,3.86,0,0,0,0,6.69L293.92,608.52"
              style="fill:none;stroke-linecap:round;stroke-linejoin:round;stroke-dasharray:11.113426208496094,11.113426208496094;stroke:url(#a1f328db-ccb7-47d9-b135-4fdbc6f6ffe4)"/>
        <line x1="298.73" y1="611.3" x2="303.5" y2="614.05"
              style="fill:none;stroke-linecap:round;stroke-linejoin:round;stroke:url(#bdf014d6-f160-4a70-afb5-aaf3dcc8c2bb)"/>
    </g>
    <g id="3b1fe964-e4d9-4c4a-b54a-c245692100db" data-name="Layer 39">
        <path d="M359.88,288.92v23.15a3.86,3.86,0,0,0,5.79,3.34l69.72-40.28a3.86,3.86,0,0,1,3.86,0l237.9,137.35a3.86,3.86,0,0,1,0,6.69L576.56,476.66"
              style="fill:none;stroke-linecap:round;stroke-linejoin:round;stroke-dasharray:11;stroke:url(#970b9e5b-4667-4714-a5db-a7925a88b84a)"/>
    </g>
    <g id="cart1" data-name="Layer 38">
        <g style="opacity:0.29">
            <path d="M315.9,1.1,9.16,178.22C4.1,181.14,0,189,0,195.72V408.87c0,6.74,4.1,9.84,9.16,6.92L316.67,238.25c5.06-2.92,9.16-10.75,9.16-17.5L325.05,8C325.05,1.28,321-1.82,315.9,1.1Z"
                  style="fill:url(#ad4f6e94-1c9d-454a-be53-99f7f42732c9)"/>
            <path d="M300.44,31.42,23.83,191.12C20.61,193,18,198,18,202.27v12.44c0,4.3,2.61,6.27,5.84,4.41L300.44,59.42c3.22-1.86,5.84-6.86,5.84-11.15V35.83C306.28,31.53,303.67,29.56,300.44,31.42Z"
                  style="fill:#fefefe"/>
        </g>
        <line x1="30.68" y1="259.05" x2="35.01" y2="256.54"
              style="fill:none;stroke:#fff;stroke-linecap:round;stroke-linejoin:round;stroke-width:2px"/>
        <line x1="42.2" y1="252.38" x2="99.31" y2="219.31"
              style="fill:none;stroke:#fff;stroke-linecap:round;stroke-linejoin:round;stroke-width:2px;stroke-dasharray:9.229246139526367,8.30632209777832"/>
        <line x1="102.9" y1="217.23" x2="107.23" y2="214.73"
              style="fill:none;stroke:#fff;stroke-linecap:round;stroke-linejoin:round;stroke-width:2px"/>
        <line x1="30.68" y1="286.72" x2="35.01" y2="284.21"
              style="fill:none;stroke:#fff;stroke-linecap:round;stroke-linejoin:round;stroke-width:2px"/>
        <line x1="43.22" y1="279.46" x2="125.76" y2="231.7"
              style="fill:none;stroke:#fff;stroke-linecap:round;stroke-linejoin:round;stroke-width:2px;stroke-dasharray:10.537510871887207,9.483759880065918"/>
        <line x1="129.87" y1="229.33" x2="134.2" y2="226.82"
              style="fill:none;stroke:#fff;stroke-linecap:round;stroke-linejoin:round;stroke-width:2px"/>
        <line x1="30.68" y1="299.31" x2="35.01" y2="296.8"
              style="fill:none;stroke:#fff;stroke-linecap:round;stroke-linejoin:round;stroke-width:2px"/>
        <line x1="42.97" y1="292.19" x2="89.39" y2="265.3"
              style="fill:none;stroke:#fff;stroke-linecap:round;stroke-linejoin:round;stroke-width:2px;stroke-dasharray:10.217985153198242,9.196186065673828"/>
        <line x1="93.37" y1="263" x2="97.69" y2="260.49"
              style="fill:none;stroke:#fff;stroke-linecap:round;stroke-linejoin:round;stroke-width:2px"/>
        <line x1="30.68" y1="311.9" x2="35.01" y2="309.4"
              style="fill:none;stroke:#fff;stroke-linecap:round;stroke-linejoin:round;stroke-width:2px"/>
        <line x1="43.21" y1="304.65" x2="108.37" y2="266.93"
              style="fill:none;stroke:#fff;stroke-linecap:round;stroke-linejoin:round;stroke-width:2px;stroke-dasharray:10.529685974121094,9.476716995239258"/>
        <line x1="112.47" y1="264.56" x2="116.8" y2="262.06"
              style="fill:none;stroke:#fff;stroke-linecap:round;stroke-linejoin:round;stroke-width:2px"/>
        <line x1="30.68" y1="324.5" x2="35.01" y2="321.99"
              style="fill:none;stroke:#fff;stroke-linecap:round;stroke-linejoin:round;stroke-width:2px"/>
        <line x1="43.22" y1="317.25" x2="125.76" y2="269.48"
              style="fill:none;stroke:#fff;stroke-linecap:round;stroke-linejoin:round;stroke-width:2px;stroke-dasharray:10.537510871887207,9.483759880065918"/>
        <line x1="129.87" y1="267.11" x2="134.2" y2="264.61"
              style="fill:none;stroke:#fff;stroke-linecap:round;stroke-linejoin:round;stroke-width:2px"/>
        <line x1="30.68" y1="354.38" x2="35.01" y2="351.88"
              style="fill:none;stroke:#fff;stroke-linecap:round;stroke-linejoin:round;stroke-width:2px"/>
        <line x1="41.92" y1="347.88" x2="96.81" y2="316.09"
              style="fill:none;stroke:#fff;stroke-linecap:round;stroke-linejoin:round;stroke-width:2px;stroke-dasharray:8.8712739944458,7.9841461181640625"/>
        <line x1="100.26" y1="314.09" x2="104.59" y2="311.58"
              style="fill:none;stroke:#fff;stroke-linecap:round;stroke-linejoin:round;stroke-width:2px"/>
        <line x1="30.68" y1="366.98" x2="35.01" y2="364.47"
              style="fill:none;stroke:#fff;stroke-linecap:round;stroke-linejoin:round;stroke-width:2px"/>
        <line x1="42.58" y1="360.09" x2="118.67" y2="316.06"
              style="fill:none;stroke:#fff;stroke-linecap:round;stroke-linejoin:round;stroke-width:2px;stroke-dasharray:9.714241027832031,8.742816925048828"/>
        <line x1="122.45" y1="313.87" x2="126.78" y2="311.37"
              style="fill:none;stroke:#fff;stroke-linecap:round;stroke-linejoin:round;stroke-width:2px"/>
        <line x1="30.68" y1="379.57" x2="35.01" y2="377.07"
              style="fill:none;stroke:#fff;stroke-linecap:round;stroke-linejoin:round;stroke-width:2px"/>
        <line x1="42.58" y1="372.69" x2="102.7" y2="337.88"
              style="fill:none;stroke:#fff;stroke-linecap:round;stroke-linejoin:round;stroke-width:2px;stroke-dasharray:9.71610164642334,8.744491577148438"/>
        <line x1="106.48" y1="335.69" x2="110.81" y2="333.18"
              style="fill:none;stroke:#fff;stroke-linecap:round;stroke-linejoin:round;stroke-width:2px"/>
        <line x1="30.68" y1="243.95" x2="35.01" y2="241.44"
              style="fill:none;stroke:#fff;stroke-linecap:round;stroke-linejoin:round;stroke-width:2px"/>
        <line x1="43.42" y1="236.58" x2="127.98" y2="187.65"
              style="fill:none;stroke:#fff;stroke-linecap:round;stroke-linejoin:round;stroke-width:2px;stroke-dasharray:10.794384956359863,9.714946746826172"/>
        <line x1="132.18" y1="185.22" x2="136.51" y2="182.72"
              style="fill:none;stroke:#fff;stroke-linecap:round;stroke-linejoin:round;stroke-width:2px"/>
    </g>
    <g id="cart2" data-name="Layer 37">
        <path d="M225,98.37l-90.79,52.42c-2.47,1.43-4.48,5.26-4.48,8.56V293.21c0,3.3,2,4.82,4.48,3.39L225,244.17c2.47-1.43,4.48-5.26,4.48-8.56V101.76C229.46,98.46,227.46,96.94,225,98.37Z"
              style="fill:url(#47703768-c101-44e6-97e9-0627a888ec93)"/>
    </g>
    <g id="cart3" data-name="Layer 36">
        <path d="M332.27,5.4,177.58,94.71c-4.22,2.43-7.63,9-7.63,14.59V319.36c0,5.62,3.42,8.21,7.63,5.77l154.69-89.31c4.22-2.43,7.63-9,7.63-14.59V11.17C339.91,5.55,336.49,3,332.27,5.4Z"
              style="fill:url(#1ee8a376-93fe-406a-9528-fc0a64a1187a)"/>
    </g>
    <g id="cart4" data-name="Layer 35">
        <path d="M380.12,43.22l-7.67-4.4-.16-.09,0,0h0a5,5,0,0,0-4.76.52L212.79,128.54c-4.22,2.43-7.63,9-7.63,14.59v219.4c0,3.19,1.1,5.4,2.82,6.27v0l7.57,4.31.25-6.57L367.48,279c4.22-2.43,7.63-9,7.63-14.59V49.87Z"
              style="fill:url(#75072529-6a39-4d46-a89a-f461b714d47d)"/>
        <path d="M375,43.52,220.27,132.84c-4.22,2.43-7.63,9-7.63,14.59v219.4c0,5.62,3.42,8.21,7.63,5.77L375,283.28c4.22-2.43,7.63-9,7.63-14.59V49.3C382.59,43.67,379.18,41.09,375,43.52Z"
              style="fill:url(#04b62db3-45b3-4d0c-8544-e6c587a3b326)"/>
        <path d="M357.81,253.67,240.15,321.6c-4.11,2.37-7.44-.15-7.44-5.62V224.91c0-5.48,3.33-11.84,7.44-14.21l117.66-67.93c4.11-2.37,7.44.15,7.44,5.62v91.07C365.25,244.93,361.92,251.3,357.81,253.67Z"
              style="fill:#fff"/>
        <path d="M277.28,258.14l-20.71.89V251.4l20.71-23v9l-12.17,12.77L277.28,249Z"
              style="fill:url(#600130d5-ff40-4a38-8c4e-88dcce2b5993)"/>
        <path d="M280.62,264.51l22-62.22,9.14-5.27-22.07,62.25Z"
              style="fill:url(#77579553-942e-4c5c-a84b-abd8f110fb13)"/>
        <path d="M315.08,236.47v-9.19L327,214.56l-11.89,1.18v-9L335.7,206v7.36Z"
              style="fill:url(#8f22956e-c97d-4a8c-b297-e915b61f4235)"/>
        <path d="M252.63,175.43l-4.71,2.72c-8.4,4.85-15.21-.3-15.21-11.5h0c0-11.2,6.81-24.21,15.21-29.06l4.71-2.72c8.4-4.85,15.21.3,15.21,11.5h0C267.83,157.57,261,170.58,252.63,175.43Z"
              style="fill:#fff"/>
        <text transform="matrix(0.87, -0.5, 0, 1, 282.99, 137.65)"
              style="font-size:20.924423217773438px;fill:#fff;font-family:Axiforma-SemiBold, Axiforma;font-weight:700">
            <tspan style="letter-spacing:-0.0030335080359832484em">S
                <tspan x="12.41" y="0" style="letter-spacing:0.00004666935439974228em">ma</tspan>
                <tspan x="47.35" y="0" style="letter-spacing:0.012974080523128354em">r</tspan>
                <tspan x="56.26" y="0" style="letter-spacing:0.00004666935439974228em">t</tspan>
            </tspan>
            <tspan x="0" y="17.79" style="letter-spacing:-0.0020067822391889177em">c</tspan>
            <tspan x="12.55" y="17.79" style="letter-spacing:0.00004666935439974228em">o</tspan>
            <tspan x="26.2" y="17.79" style="letter-spacing:-0.0060203467175667545em">n</tspan>
            <tspan x="39.4" y="17.79" style="letter-spacing:0.00004666935439974228em">t</tspan>
            <tspan x="48.88" y="17.79" style="letter-spacing:-0.019974483683089694em">r</tspan>
            <tspan x="57.1" y="17.79">act</tspan>
        </text>
    </g>
    <g id="2c676b0a-fbd3-4ac4-ac2e-fe04f900b906" data-name="Layer 34">
        <line x1="295.08" y1="322.74" x2="295.08" y2="328.24"
              style="fill:none;stroke-linecap:round;stroke-linejoin:round;stroke:url(#44cc1612-0ed8-40d7-9ce2-db22132c42aa)"/>
        <path d="M295.08,339v15.31a3.13,3.13,0,0,0,1.58,2.72l123.68,70.4a3.13,3.13,0,0,1,0,5.44L328.28,486a3.13,3.13,0,0,0,0,5.43l105.37,60.91"
              style="fill:none;stroke-linecap:round;stroke-linejoin:round;stroke-dasharray:10.722071647644043,10.722071647644043;stroke:url(#9775dcb7-a06e-4d4a-88ca-76f7f4aef503)"/>
        <line x1="438.29" y1="555.02" x2="443.05" y2="557.78"
              style="fill:none;stroke-linecap:round;stroke-linejoin:round;stroke:url(#c4c2d8ee-d389-4770-a47c-90a9ea6ecf5c)"/>
    </g>
    <g id="dc8f1801-bf8a-4454-864a-37e97a0f81e7" data-name="Layer 33">
        <path d="M351,635.37a7.21,7.21,0,0,0-1.49-1.9,5.68,5.68,0,0,0-1-.67h0l-10.44-5.91,0,0-.43-.24h0c-1.76-.87-3.92-.75-6.27.6l-48.86,28.21c-2.93,1.69-5.58,5-7.51,8.88-2.72,5.56-3.45,12-2.33,16.76,1.16,4.9,3.57,11.78,8.66,16.42a18,18,0,0,0,5.88,3.66c.34.13.67.23,1,.34a31.67,31.67,0,1,0,38.69-3.93c.73-.8,1.4-1.61,2-2.4A113.15,113.15,0,0,0,343.16,674s5.38-8.45,8.7-26.67C352.72,642.64,352.55,638.16,351,635.37Z"
              style="opacity:0.4;fill:url(#2e190174-c67a-4036-b45e-9616e8283964)"/>
    </g>
    <g id="ed0fa5c2-057a-4214-b342-86581c45d6b3" data-name="Layer 32">
        <path d="M474.17,562.63a7.21,7.21,0,0,0-1.49-1.9,5.68,5.68,0,0,0-1-.67h0l-10.44-5.91,0,0-.43-.24h0c-1.76-.87-3.92-.75-6.27.6L405.67,582.7c-2.93,1.69-5.58,5-7.51,8.88-2.72,5.56-3.45,12-2.33,16.76,1.16,4.9,3.57,11.78,8.66,16.42a18,18,0,0,0,5.88,3.66c.34.13.67.23,1,.34a31.67,31.67,0,1,0,38.69-3.93c.73-.8,1.4-1.61,2-2.4a113.15,113.15,0,0,0,14.29-21.2s5.38-8.45,8.7-26.67C475.91,569.9,475.74,565.42,474.17,562.63Z"
              style="opacity:0.4;fill:url(#14559a95-449b-4626-a2fe-a461d10b7044)"/>
    </g>
    <g id="6a994106-da05-4635-bd2c-5992b738a7f5" data-name="Layer 31">
        <path d="M593.63,490.38a7.21,7.21,0,0,0-1.49-1.9,5.68,5.68,0,0,0-1-.67h0l-10.44-5.91,0,0-.43-.24h0c-1.76-.87-3.92-.75-6.27.6l-48.86,28.21c-2.93,1.69-5.58,5-7.51,8.88-2.72,5.56-3.45,12-2.33,16.76,1.16,4.9,3.57,11.78,8.66,16.42a18,18,0,0,0,5.88,3.66c.34.13.67.23,1,.34a31.67,31.67,0,1,0,38.69-3.93c.73-.8,1.4-1.61,2-2.4A113.15,113.15,0,0,0,585.81,529s5.38-8.45,8.7-26.67C595.36,497.65,595.19,493.17,593.63,490.38Z"
              style="opacity:0.4;fill:url(#c065315c-6f74-43e3-8207-ec369ec3c0ba)"/>
    </g>
    <g id="396c7beb-ac46-4a21-8eef-3067c6f631ad" data-name="Layer 30">
        <path d="M354.38,605.47c-1.23-5.21-3.79-12.52-9.21-17.46a19.2,19.2,0,0,0-6.26-3.89,18.79,18.79,0,0,0-3.52-.94c-.49-.54-1-1.08-1.54-1.58a19.18,19.18,0,0,0-6.26-3.89,19.48,19.48,0,0,0-8.93-1.12,38.32,38.32,0,0,0-20.56,9.91,34.16,34.16,0,0,0-3.52,4A120.31,120.31,0,0,0,279.4,613s-5.72,9-9.25,28.36c-.9,4.95-.72,9.71.94,12.68a7.67,7.67,0,0,0,1.59,2,6,6,0,0,0,1,.71h0l11.1,6.28,0,0,.46.26h0c1.87.93,4.17.8,6.67-.64l52-30c3.12-1.8,5.94-5.28,8-9.44C354.79,617.39,355.57,610.52,354.38,605.47Z"
              style="fill:url(#7c65728c-25a1-4ef9-8237-aaf6ddcdf237)"/>
        <circle cx="314.6" cy="559.41" r="33.68" style="fill:url(#f32ac58e-ec3a-4d42-8231-e54762622934)"/>
    </g>
    <g id="9a7fbe9c-55ee-480a-953e-560f44a850d5" data-name="Layer 29">
        <path d="M479.95,530.8c-1.23-5.21-3.79-12.52-9.21-17.46a19.2,19.2,0,0,0-6.26-3.89,18.76,18.76,0,0,0-3.52-.94c-.49-.54-1-1.08-1.54-1.58a19.19,19.19,0,0,0-6.26-3.89,19.48,19.48,0,0,0-8.93-1.12,38.31,38.31,0,0,0-20.56,9.91,34.1,34.1,0,0,0-3.52,4A120.3,120.3,0,0,0,405,538.36s-5.72,9-9.25,28.36c-.9,4.95-.72,9.71.94,12.68a7.66,7.66,0,0,0,1.59,2,6,6,0,0,0,1,.71h0l11.1,6.28,0,0,.46.26h0c1.87.93,4.17.8,6.67-.64l52-30c3.12-1.8,5.94-5.28,8-9.44C480.36,542.71,481.14,535.84,479.95,530.8Z"
              style="fill:url(#6514638b-d182-440f-8ec0-92145a06436e)"/>
        <circle cx="440.17" cy="484.73" r="33.68" style="fill:url(#876ac0f1-8bd0-48ed-9171-89441da4951e)"/>
    </g>
    <g id="7a5457bb-f058-4d3f-9ed7-c6ce0b31fadb" data-name="Layer 28">
        <path d="M599.56,459c-1.23-5.21-3.79-12.52-9.21-17.46a19.19,19.19,0,0,0-6.26-3.89,18.74,18.74,0,0,0-3.52-.94c-.49-.54-1-1.08-1.54-1.58a19.19,19.19,0,0,0-6.26-3.89,19.49,19.49,0,0,0-8.93-1.12A38.31,38.31,0,0,0,543.29,440a34.14,34.14,0,0,0-3.52,4,120.31,120.31,0,0,0-15.19,22.54s-5.72,9-9.25,28.36c-.9,4.95-.72,9.71.94,12.68a7.66,7.66,0,0,0,1.59,2,6,6,0,0,0,1,.71h0L530,516.6l0,0,.46.26h0c1.87.93,4.17.8,6.67-.64l52-30c3.12-1.8,5.94-5.28,8-9.44C600,470.89,600.75,464,599.56,459Z"
              style="fill:url(#403338e3-0725-475b-8708-4944f4ea6088)"/>
        <circle cx="559.78" cy="412.9" r="33.68" style="fill:url(#736b3c73-07f5-4428-9b9a-1a3d8c77cbbb)"/>
    </g>
    <g id="9dc913f5-3a14-4581-8b1d-95941e3192f6" data-name="Layer 27">
        <polygon points="330.59 680.52 330.59 728.44 375.93 710.98 375.93 663.65 356.51 663.65 330.59 680.52"
                 style="opacity:0.39;fill:url(#4f7ab274-6882-4181-9dbc-00af3ffd7763)"/>
    </g>
    <g id="bb588e3c-484f-47d4-abea-35beaa325b42" data-name="Layer 26">
        <polygon points="451.48 609.18 451.48 657.11 496.82 639.64 496.82 592.31 477.4 592.31 451.48 609.18"
                 style="opacity:0.39;fill:url(#2aeffb7c-68a6-4788-a942-9fbdcadca237)"/>
    </g>
    <g id="3630ec91-90b1-4da3-a33a-d75f1004eca9" data-name="Layer 25">
        <polygon points="571.8 535.96 571.8 583.89 617.14 566.42 617.14 519.1 597.72 519.1 571.8 535.96"
                 style="opacity:0.39;fill:url(#d178327a-3566-47f4-92bd-48db319df7fb)"/>
    </g>
    <g id="249a091b-76de-4536-86aa-a9137d410cdd" data-name="Layer 24">
        <path d="M371.29,633.64a4.7,4.7,0,0,0-4.89-.11l-31.29,18.1a4.93,4.93,0,0,0-2.45,3.86l-2.07,25,7.7,4.86,29.94-26.59,5.32-23.7Z"
              style="fill:url(#4bb8c1de-0545-4b44-8ab3-55d7b543d206)"/>
        <path d="M372.15,635.23,339.56,654a4.93,4.93,0,0,0-2.46,4.48l1.19,26.85,37.64-21.73-1.2-27A1.73,1.73,0,0,0,372.15,635.23Z"
              style="fill:url(#a1b9ce8d-b216-4629-9151-3960b959af6e)"/>
        <polygon points="332.71 681.86 334.49 658.5 335.3 683.49 332.71 681.86"
                 style="fill:url(#c679e762-6638-4918-9cd1-40bd6d1aa25e)"/>
        <path d="M349.13,637.58a2.79,2.79,0,0,0-1.39,2.42v6.27l1.13.71.63-1.73V641a2.79,2.79,0,0,1,1.39-2.41l6.21-3.59v5.83l1.13.71.63-1.73.6-6.58-.67-.42a1.38,1.38,0,0,0-1.42,0l-.71.41Z"
              style="fill:url(#5c9fa0a7-3519-407f-b9d1-62a8ebefe1b4)"/>
        <path d="M350.26,638.29a2.79,2.79,0,0,0-1.39,2.41V647l1.77-1v-4.22a2.79,2.79,0,0,1,1.39-2.41l5.58-3.22a.42.42,0,0,1,.63.37v5.1l1.77-1V634a.77.77,0,0,0-1.15-.66Z"
              style="fill:url(#e9fb883d-4730-46cb-ac77-32d2a0d024d9)"/>
    </g>
    <g id="4c7a5ee7-a358-4e0a-9249-ef8a8f92242e" data-name="Layer 23">
        <path d="M492.18,562.3a4.7,4.7,0,0,0-4.89-.11L456,580.29a4.93,4.93,0,0,0-2.45,3.86l-2.07,25,7.7,4.86,29.94-26.59,5.32-23.7Z"
              style="fill:url(#0d7dbb6c-c3ae-4b2d-b5bf-f1f42787a112)"/>
        <path d="M493,563.9l-32.59,18.81a4.93,4.93,0,0,0-2.46,4.48L459.18,614l37.64-21.73-1.2-27A1.73,1.73,0,0,0,493,563.9Z"
              style="fill:url(#3f952e95-a30b-4cdb-bfcf-d18406016ca4)"/>
        <polygon points="453.6 610.52 455.38 587.16 456.19 612.16 453.6 610.52"
                 style="fill:url(#f22cbe61-3460-4525-9542-835b35a93383)"/>
        <path d="M470,566.25a2.79,2.79,0,0,0-1.39,2.42v6.27l1.13.71.63-1.73V569.7a2.79,2.79,0,0,1,1.39-2.41l6.21-3.59v5.83l1.13.71.63-1.73.6-6.58-.67-.42a1.38,1.38,0,0,0-1.42,0l-.71.41Z"
              style="fill:url(#d237d574-f110-4371-bcd8-cccbb7276a33)"/>
        <path d="M471.15,567a2.79,2.79,0,0,0-1.39,2.41v6.27l1.77-1V570.4a2.79,2.79,0,0,1,1.39-2.41l5.58-3.22a.42.42,0,0,1,.63.37v5.1l1.77-1v-6.55a.77.77,0,0,0-1.15-.66Z"
              style="fill:url(#0f5d7d64-e7d1-4964-9f8e-c10f5ca37838)"/>
    </g>
    <g id="e00446be-91ec-48cb-a663-d43bd3559c14" data-name="Layer 22">
        <path d="M612.5,489.08a4.7,4.7,0,0,0-4.89-.11l-31.29,18.1a4.93,4.93,0,0,0-2.45,3.86l-2.07,25,7.7,4.86,29.94-26.59,5.32-23.7Z"
              style="fill:url(#57ccdbf7-e0d0-46fd-afe0-500b0c937900)"/>
        <path d="M613.36,490.68l-32.59,18.81a4.93,4.93,0,0,0-2.46,4.48l1.19,26.85,37.64-21.73-1.2-27A1.73,1.73,0,0,0,613.36,490.68Z"
              style="fill:url(#f6ef5166-61f8-45a6-bcde-a49b276446ea)"/>
        <polygon points="573.92 537.3 575.7 513.95 576.51 538.94 573.92 537.3"
                 style="fill:url(#779c192f-c657-49ce-8044-baa817359e2e)"/>
        <path d="M590.34,493a2.79,2.79,0,0,0-1.39,2.42v6.27l1.13.71.63-1.73v-4.22a2.79,2.79,0,0,1,1.39-2.41l6.21-3.59v5.83l1.13.71.63-1.73.6-6.58-.67-.42a1.38,1.38,0,0,0-1.42,0l-.71.41Z"
              style="fill:url(#4b71a61b-3b5e-40cc-a7fe-9f6c47457434)"/>
        <path d="M591.47,493.74a2.79,2.79,0,0,0-1.39,2.41v6.27l1.77-1v-4.22a2.79,2.79,0,0,1,1.39-2.41l5.58-3.22a.42.42,0,0,1,.63.37V497l1.77-1v-6.55a.77.77,0,0,0-1.15-.66Z"
              style="fill:url(#18a76b40-2a62-43ad-8ae1-16c40ee03412)"/>
    </g>
    <g id="10716489-5591-4999-bf0c-402e322c6be8" data-name="Layer 21">
        <path d="M309,610.32,264.15,636.2c-4.74,2.73-8.61,10.14-8.61,16.45h0c0,6.31,3.87,9.24,8.61,6.51L309,633.28c4.74-2.73,8.61-10.14,8.61-16.45h0C317.6,610.51,313.72,607.59,309,610.32Z"
              style="fill:#fff"/>
        <path d="M312.38,609.29c3.06,0,5.21,2.83,5.21,7.53,0,6.31-3.87,13.72-8.61,16.45l-44.83,25.88a6.85,6.85,0,0,1-3.4,1c-3.06,0-5.21-2.83-5.21-7.53h0c0-6.31,3.87-13.72,8.61-16.45L309,610.32a6.85,6.85,0,0,1,3.4-1m0-2a8.8,8.8,0,0,0-4.4,1.29l-44.83,25.88c-5.39,3.11-9.61,11.1-9.61,18.18,0,6.59,3.62,9.53,7.21,9.53a8.8,8.8,0,0,0,4.4-1.29L310,635c5.39-3.11,9.61-11.1,9.61-18.18,0-6.59-3.62-9.53-7.21-9.53Z"
              style="fill:url(#634ab7d8-c615-4934-88d4-36b1c97fd412)"/>
        <path d="M310,620.53l-1.7-1h0a.3.3,0,0,0-.32,0l-4.12,2.38-.83-2.41.78-1.43-1.69-1h0c-.22-.1-.61.2-.72.64l-1.62,6.53-4.12,2.38c-.42.24-.59.92-.31,1.06h0l1.66,1,.23-.62,1.55.27-1.33,5.41c-.06.23,0,.38.09.45h0l1.69,1,.4-1.2.5-2.79-.1.12,1.76-2.44h0l0,0,3.66.85c.35.08.82-.59.68-1l-1.33-3.87,1.54-2,0,.06Z"
              style="fill:url(#351bd4c0-73bc-4496-86fc-43ffdc41388d)"/>
        <path d="M309.62,620.53l-4.12,2.38-1.62-4.66c-.14-.39-.71-.06-.85.49l-1.62,6.53-4.12,2.38c-.45.26-.62,1-.24,1.09l3.36.58-1.33,5.41c-.14.55.33.68.68.19l3.66-5.08h0l0,0,3.66.85c.35.08.82-.59.68-1l-1.33-3.87,3.36-4.46C310.24,620.85,310.06,620.28,309.62,620.53Z"
              style="fill:url(#bca4c0fe-1f98-4dcc-b4d5-6a9e91b84457)"/>
        <path d="M295.08,629l-1.7-1h0a.3.3,0,0,0-.32,0l-4.12,2.38-.83-2.41.78-1.43-1.69-1h0c-.22-.1-.61.2-.72.64l-1.62,6.53-4.12,2.38c-.42.24-.59.92-.31,1.06h0l1.66,1,.23-.62,1.55.27-1.33,5.41c-.06.23,0,.38.09.45h0l1.69,1,.4-1.2.5-2.79-.1.12,1.76-2.44h0l0,0,3.66.85c.35.08.82-.59.68-1l-1.33-3.87,1.54-2,0,.06Z"
              style="fill:url(#c4c36b7e-31f4-4557-afba-a39898c49035)"/>
        <path d="M294.73,629l-4.12,2.38L289,626.76c-.14-.39-.71-.06-.85.49l-1.62,6.53-4.12,2.38c-.45.26-.62,1-.24,1.09l3.36.58-1.33,5.41c-.14.55.33.68.68.19l3.66-5.08h0l0,0,3.66.85c.35.08.82-.59.68-1l-1.33-3.87,3.36-4.46C295.34,629.36,295.17,628.79,294.73,629Z"
              style="fill:url(#8cdf19cd-622c-4d14-8b75-f2cf41f55223)"/>
        <path d="M280.3,637.67l-1.7-1h0a.3.3,0,0,0-.32,0l-4.12,2.38-.83-2.41.78-1.43-1.69-1h0c-.22-.1-.61.2-.72.64l-1.62,6.53-4.12,2.38c-.42.24-.59.92-.31,1.06h0l1.66,1,.23-.62,1.55.27-1.33,5.41c-.06.23,0,.38.09.45h0l1.69,1,.4-1.2.5-2.79-.1.12,1.76-2.44h0l0,0,3.66.85c.35.08.82-.59.68-1L275.16,642l1.54-2,0,.06Z"
              style="fill:url(#3e7732ba-075a-4dfd-bb2a-3d1e8fcd7f62)"/>
        <path d="M279.94,637.67l-4.12,2.38-1.62-4.66c-.14-.39-.71-.06-.85.49l-1.62,6.53-4.12,2.38c-.45.26-.62,1-.24,1.09l3.36.58-1.33,5.41c-.14.55.33.68.68.19l3.66-5.08h0l0,0,3.66.85c.35.08.82-.59.68-1l-1.33-3.87,3.36-4.46C280.56,638,280.39,637.41,279.94,637.67Z"
              style="fill:url(#d4a2516a-49de-4c2b-8cf3-9e5d435a735d)"/>
    </g>
    <g id="6eed989d-7285-40e2-92d6-85da121e4a3c" data-name="Layer 20">
        <path d="M421,544.51l-30.89,18c-4.81,2.77-8.74,10.29-8.74,16.69h0c0,6.41,3.93,9.38,8.74,6.61l30.89-18c4.81-2.77,8.74-10.29,8.74-16.69h0C429.73,544.71,425.8,541.73,421,544.51Z"
              style="fill:#fff"/>
        <path d="M424.44,543.47c3.1,0,5.29,2.87,5.29,7.64h0c0,6.41-3.93,13.92-8.74,16.69l-30.89,18a7,7,0,0,1-3.45,1c-3.1,0-5.29-2.87-5.29-7.64,0-6.41,3.93-13.92,8.74-16.69l30.89-18a7,7,0,0,1,3.45-1m0-2a8.9,8.9,0,0,0-4.45,1.31l-30.9,18c-5.45,3.15-9.73,11.24-9.73,18.42,0,6.66,3.66,9.64,7.29,9.64a8.9,8.9,0,0,0,4.45-1.31l30.9-18c5.45-3.15,9.73-11.24,9.73-18.42,0-6.66-3.66-9.64-7.29-9.64Z"
              style="fill:url(#feaf8ec8-6389-4cdc-899f-58d3b6ad12e2)"/>
        <path d="M421.49,555.21l-1.73-1h0a.31.31,0,0,0-.32,0l-4.18,2.42-.85-2.44.79-1.45-1.71-1h0c-.23-.1-.62.2-.73.65L411.11,559l-4.18,2.42c-.42.24-.6.93-.31,1.08h0l1.68,1,.23-.63,1.57.27-1.35,5.49c-.06.23,0,.39.1.46h0l1.72,1,.41-1.22.51-2.83-.1.12,1.79-2.48h0l0,0,3.72.86c.36.08.83-.59.69-1l-1.35-3.93,1.56-2.07,0,.06Z"
              style="fill:url(#41e2955f-19fa-4804-8f5e-1466904ca7af)"/>
        <path d="M421.13,555.22l-4.18,2.42-1.64-4.73c-.14-.4-.72-.06-.86.5L412.8,560l-4.18,2.42c-.45.26-.63,1-.25,1.11l3.41.59-1.35,5.49c-.14.56.33.69.69.19l3.72-5.15h0l0,0,3.72.86c.36.08.83-.59.69-1L418,560.57l3.41-4.53C421.76,555.54,421.58,555,421.13,555.22Z"
              style="fill:url(#f9e6b431-6b12-481a-a7e6-95967eedff5b)"/>
        <path d="M406.49,564l-1.73-1h0a.31.31,0,0,0-.32,0l-4.18,2.42-.85-2.44.79-1.45-1.71-1h0c-.23-.1-.62.2-.73.65l-1.64,6.63-4.18,2.42c-.42.24-.6.93-.31,1.08h0l1.68,1,.23-.63,1.57.27-1.35,5.49c-.06.23,0,.39.1.46h0l1.72,1,.41-1.22.51-2.83-.1.12,1.79-2.48h0l0,0,3.72.86c.36.08.83-.59.69-1l-1.35-3.93,1.56-2.07,0,.06Z"
              style="fill:url(#db59b6e0-8f16-4136-81c7-ef440a5385fd)"/>
        <path d="M406.13,564l-4.18,2.42-1.64-4.73c-.14-.4-.72-.06-.86.5l-1.64,6.63-4.18,2.42c-.45.26-.63,1-.25,1.11l3.41.59-1.35,5.49c-.14.56.33.69.69.19l3.72-5.15h0l0,0,3.72.86c.36.08.83-.59.69-1L403,569.32l3.41-4.53C406.76,564.29,406.58,563.71,406.13,564Z"
              style="fill:url(#0224f6e6-8d17-45ef-b130-9708d4e7e1de)"/>
    </g>
    <g id="c10cacdf-8349-4856-ab6a-6b3aeb2dad42" data-name="Layer 19">
        <path d="M555.12,462.65l-44.83,25.88c-4.74,2.73-8.61,10.14-8.61,16.45h0c0,6.31,3.87,9.24,8.61,6.51l44.83-25.88c4.74-2.73,8.61-10.14,8.61-16.45h0C563.73,462.85,559.85,459.92,555.12,462.65Z"
              style="fill:#fff"/>
        <path d="M558.51,461.63c3.06,0,5.21,2.83,5.21,7.53,0,6.31-3.87,13.72-8.61,16.45L510.28,511.5a6.85,6.85,0,0,1-3.4,1c-3.06,0-5.21-2.83-5.21-7.53h0c0-6.31,3.87-13.72,8.61-16.45l44.83-25.88a6.85,6.85,0,0,1,3.4-1m0-2a8.8,8.8,0,0,0-4.4,1.29l-44.83,25.88c-5.39,3.11-9.61,11.1-9.61,18.18,0,6.59,3.62,9.53,7.21,9.53a8.8,8.8,0,0,0,4.4-1.29l44.83-25.88c5.39-3.11,9.61-11.1,9.61-18.18,0-6.59-3.62-9.53-7.21-9.53Z"
              style="fill:url(#0fb3f80c-1071-4da7-86a1-a8959d6893f1)"/>
        <path d="M556.1,472.86l-1.7-1h0a.3.3,0,0,0-.32,0L550,474.28l-.83-2.41.78-1.43-1.69-1h0c-.22-.1-.61.2-.72.64l-1.62,6.53L541.75,479c-.42.24-.59.92-.31,1.06h0l1.66,1,.23-.62,1.55.27-1.33,5.41c-.06.23,0,.38.09.45h0l1.69,1,.4-1.2.5-2.79-.1.12,1.76-2.44h0l0,0,3.66.85c.35.08.82-.59.68-1L551,477.17l1.54-2,0,.06Z"
              style="fill:url(#0e24380e-8e23-4437-904d-a034dc28e89f)"/>
        <path d="M555.75,472.87l-4.12,2.38L550,470.58c-.14-.39-.71-.06-.85.49l-1.62,6.53L543.42,480c-.45.26-.62,1-.24,1.09l3.36.58-1.33,5.41c-.14.55.33.68.68.19l3.66-5.08h0l0,0,3.66.85c.35.08.82-.59.68-1l-1.33-3.87,3.36-4.46C556.37,473.18,556.19,472.61,555.75,472.87Z"
              style="fill:url(#7187a3e2-9ec9-4693-a0d4-c5dea549741d)"/>
        <path d="M541.21,481.37l-1.7-1h0a.3.3,0,0,0-.32,0l-4.12,2.38-.83-2.41L535,479l-1.69-1h0c-.22-.1-.61.2-.72.64L531,485.15l-4.12,2.38c-.42.24-.59.92-.31,1.06h0l1.66,1,.23-.62,1.55.27-1.33,5.41c-.06.23,0,.38.09.45h0l1.69,1,.4-1.2.5-2.79-.1.12,1.76-2.44h0l0,0,3.66.85c.35.08.82-.59.68-1l-1.33-3.87,1.54-2,0,.06Z"
              style="fill:url(#0c42d715-99a8-4344-bc69-5f130e0fc0cd)"/>
        <path d="M540.86,481.38l-4.12,2.38-1.62-4.66c-.14-.39-.71-.06-.85.49l-1.62,6.53-4.12,2.38c-.45.26-.62,1-.24,1.09l3.36.58-1.33,5.41c-.14.55.33.68.68.19l3.66-5.08h0l0,0,3.66.85c.35.08.82-.59.68-1l-1.33-3.87,3.36-4.46C541.47,481.69,541.3,481.12,540.86,481.38Z"
              style="fill:url(#982b528c-1116-4115-aa6b-f0c16c5039e1)"/>
        <path d="M526.43,490l-1.7-1h0a.3.3,0,0,0-.32,0l-4.12,2.38-.83-2.41.78-1.43-1.69-1h0c-.22-.1-.61.2-.72.64l-1.62,6.53-4.12,2.38c-.42.24-.59.92-.31,1.06h0l1.66,1,.23-.62,1.55.27-1.33,5.41c-.06.23,0,.38.09.45h0l1.69,1,.4-1.2.5-2.79-.1.12,1.76-2.44h0l0,0,3.66.85c.35.08.82-.59.68-1l-1.33-3.87,1.54-2,0,.06Z"
              style="fill:url(#420f7d53-2a6b-45ab-87ff-607f3f6d2874)"/>
        <path d="M526.07,490,522,492.39l-1.62-4.66c-.14-.39-.71-.06-.85.49l-1.62,6.53-4.12,2.38c-.45.26-.62,1-.24,1.09l3.36.58-1.33,5.41c-.14.55.33.68.68.19l3.66-5.08h0l0,0,3.66.85c.35.08.82-.59.68-1L523,495.28l3.36-4.46C526.69,490.32,526.52,489.75,526.07,490Z"
              style="fill:url(#955b7faa-84df-4966-bee9-2df0b3bfc378)"/>
    </g>
    <g id="8a99f52b-76a4-483b-8f75-3659745912cf" data-name="Layer 11">
        <path d="M235.44,567.45c-3.91-2.26-7.45-2.44-10-.91h0l-4.73,2.73h0c-2.89,1.29-4.73,4.53-4.73,9.35,0,8.91,6.26,19.75,14,24.21,3.82,2.21,7.29,2.43,9.81,1h0l4.78-2.76v0c3-1.25,4.84-4.53,4.84-9.41C249.41,582.75,243.16,571.91,235.44,567.45Z"
              style="opacity:0.42;fill:url(#ef08a518-50f6-4333-aa58-6289ad1c9cf7)"/>
        <path d="M222.35,543.74l-1.63-.59,4.73-2.73h0c2.54-1.53,6.07-1.35,10,.91,7.72,4.46,14,15.29,14,24.21,0,4.88-1.88,8.16-4.84,9.41v0l-4.78,2.76v-2.21l.27-.15a14.15,14.15,0,0,1-4.62-1.76c-7.72-4.46-14-15.29-14-24.21a13,13,0,0,1,1.27-6Z"
              style="fill:url(#358f490e-372a-4f66-8aaf-b1a05c6f28ef)"/>
        <path d="M216,552.51c0,8.91,6.26,19.75,14,24.21s14,.84,14-8.07-6.26-19.75-14-24.21S216,543.6,216,552.51Z"
              style="fill:url(#9b9aa51e-466b-43a2-8dc6-6fe3b6ea87ba)"/>
        <path d="M218.91,554.18c0,7.06,5,15.66,11.08,19.19s11.08.67,11.08-6.4-5-15.66-11.08-19.19S218.91,547.12,218.91,554.18Z"
              style="fill:#fff"/>
        <path d="M230.54,566.75v1.69l-1.72-1v-1.62a9,9,0,0,1-2.9-4l1.35-.72a5.93,5.93,0,0,0,2.25,3c.81.47,1.31.25,1.31-.44a2.81,2.81,0,0,0-.87-1.73c-.1-.12-.3-.35-.6-.68-.6-.68-1.13-1.29-1.52-1.81a6.24,6.24,0,0,1-1.41-3.62c0-1.69,1-2.33,2.43-1.85v-1.53l1.74,1v1.53a9.47,9.47,0,0,1,2.25,2.78l-1.12,1a6.25,6.25,0,0,0-2-2.26c-.71-.41-1.18-.22-1.18.43a1.72,1.72,0,0,0,.33.95c.23.34.36.49.68.92.1.12.41.49.94,1.1s.93,1.07,1.19,1.41a5.78,5.78,0,0,1,1.38,3.48C233.07,566.53,232.06,567.24,230.54,566.75Z"
              style="fill:url(#38612624-a09a-4873-9692-1ccf18e279dc)"/>
        <path d="M334.41,371c-3.91-2.26-7.45-2.44-10-.91h0l-4.73,2.73h0c-2.89,1.29-4.73,4.53-4.73,9.35,0,8.91,6.26,19.75,14,24.21,3.82,2.21,7.29,2.43,9.81,1h0l4.78-2.76v0c3-1.25,4.84-4.53,4.84-9.41C348.39,386.3,342.13,375.47,334.41,371Z"
              style="opacity:0.42;fill:url(#a8df70e4-0cf6-4b8e-8590-a309a04adeab)"/>
        <path d="M321.33,347.3l-1.63-.59,4.73-2.73h0c2.54-1.53,6.07-1.35,10,.91,7.72,4.46,14,15.29,14,24.21,0,4.88-1.88,8.16-4.84,9.41v0l-4.78,2.76v-2.21l.27-.15a14.15,14.15,0,0,1-4.62-1.76c-7.72-4.46-14-15.29-14-24.21a13,13,0,0,1,1.27-6Z"
              style="fill:url(#62598d3b-829a-4101-afb4-dd391cf8256a)"/>
        <path d="M315,356.07c0,8.91,6.26,19.75,14,24.21s14,.84,14-8.07-6.26-19.75-14-24.21S315,347.15,315,356.07Z"
              style="fill:url(#6eb96bb9-2bf8-495a-8854-c2e2b13f9706)"/>
        <path d="M317.88,357.74c0,7.06,5,15.66,11.08,19.19s11.08.67,11.08-6.4-5-15.66-11.08-19.19S317.88,350.67,317.88,357.74Z"
              style="fill:#fff"/>
        <path d="M329.51,370.31V372l-1.72-1v-1.62a9,9,0,0,1-2.9-4l1.35-.72a5.93,5.93,0,0,0,2.25,3c.81.47,1.31.25,1.31-.44a2.81,2.81,0,0,0-.87-1.73c-.1-.12-.3-.35-.6-.68-.6-.68-1.13-1.29-1.52-1.81a6.24,6.24,0,0,1-1.41-3.62c0-1.69,1-2.33,2.43-1.85V356l1.74,1v1.53a9.47,9.47,0,0,1,2.25,2.78l-1.12,1a6.25,6.25,0,0,0-2-2.26c-.71-.41-1.18-.22-1.18.43a1.72,1.72,0,0,0,.33.95c.23.34.36.49.68.92.1.12.41.49.94,1.1s.93,1.07,1.19,1.41a5.78,5.78,0,0,1,1.38,3.48C332,370.09,331,370.8,329.51,370.31Z"
              style="fill:url(#dfff348c-4959-4afe-84bc-19c9021e6529)"/>
        <path d="M460.5,279.91c-3.91-2.26-7.45-2.44-10-.91h0l-4.73,2.73h0c-2.89,1.29-4.73,4.53-4.73,9.35,0,8.91,6.26,19.75,14,24.21,3.82,2.21,7.29,2.43,9.81,1h0l4.78-2.76v0c3-1.25,4.84-4.53,4.84-9.41C474.48,295.2,468.22,284.36,460.5,279.91Z"
              style="opacity:0.42;fill:url(#dac48ce3-0c8d-46cc-acf7-f2e8fdb2fbff)"/>
        <path d="M447.42,256.2l-1.63-.59,4.73-2.73h0c2.54-1.53,6.07-1.35,10,.91,7.72,4.46,14,15.29,14,24.21,0,4.88-1.88,8.16-4.84,9.41v0l-4.78,2.76V288l.27-.15a14.15,14.15,0,0,1-4.62-1.76c-7.72-4.46-14-15.29-14-24.21a13,13,0,0,1,1.27-6Z"
              style="fill:url(#fbfaa3e3-bdb2-459b-a74e-d000c2a697f3)"/>
        <path d="M441.07,265c0,8.91,6.26,19.75,14,24.21s14,.84,14-8.07-6.26-19.75-14-24.21S441.07,256,441.07,265Z"
              style="fill:url(#a31d04df-6fbb-47cf-ab0f-9a9415aea525)"/>
        <path d="M444,266.63c0,7.06,5,15.66,11.08,19.19s11.08.67,11.08-6.4-5-15.66-11.08-19.19S444,259.57,444,266.63Z"
              style="fill:#fff"/>
        <path d="M455.6,279.2v1.69l-1.72-1v-1.62a9,9,0,0,1-2.9-4l1.35-.72a5.93,5.93,0,0,0,2.25,3c.81.47,1.31.25,1.31-.44a2.81,2.81,0,0,0-.87-1.73c-.1-.12-.3-.35-.6-.68-.6-.68-1.13-1.29-1.52-1.81a6.24,6.24,0,0,1-1.41-3.62c0-1.69,1-2.33,2.43-1.85v-1.53l1.74,1v1.53a9.47,9.47,0,0,1,2.25,2.78l-1.12,1a6.25,6.25,0,0,0-2-2.26c-.71-.41-1.18-.22-1.18.43a1.72,1.72,0,0,0,.33.95c.23.34.36.49.68.92.1.12.41.49.94,1.1s.93,1.07,1.19,1.41a5.78,5.78,0,0,1,1.38,3.48C458.13,279,457.12,279.7,455.6,279.2Z"
              style="fill:url(#396d0f94-e7f3-4618-9d2c-3a2a0be68116)"/>
        <path d="M547.93,327.67c-3.91-2.26-7.45-2.44-10-.91h0l-4.73,2.73h0c-2.89,1.29-4.73,4.53-4.73,9.35,0,8.91,6.26,19.75,14,24.21,3.82,2.21,7.29,2.43,9.81,1h0l4.78-2.76v0c3-1.25,4.84-4.53,4.84-9.41C561.9,343,555.65,332.13,547.93,327.67Z"
              style="opacity:0.42;fill:url(#16416db9-9314-4887-b492-27d20c3acfae)"/>
        <path d="M534.84,304l-1.63-.59,4.73-2.73h0c2.54-1.53,6.07-1.35,10,.91,7.72,4.46,14,15.29,14,24.21,0,4.88-1.88,8.16-4.84,9.41v0L552.28,338v-2.21l.27-.15a14.15,14.15,0,0,1-4.62-1.76c-7.72-4.46-14-15.29-14-24.21a13,13,0,0,1,1.27-6Z"
              style="fill:url(#4f20067b-4fa9-44b0-84c7-636e83215db5)"/>
        <path d="M528.5,312.73c0,8.91,6.26,19.75,14,24.21s14,.84,14-8.07-6.26-19.75-14-24.21S528.5,303.81,528.5,312.73Z"
              style="fill:url(#bcf91080-3551-4d1c-b39a-815db1740197)"/>
        <path d="M531.4,314.4c0,7.06,5,15.66,11.08,19.19s11.08.67,11.08-6.4-5-15.66-11.08-19.19S531.4,307.33,531.4,314.4Z"
              style="fill:#fff"/>
        <path d="M543,327v1.69l-1.72-1V326a9,9,0,0,1-2.9-4l1.35-.72a5.93,5.93,0,0,0,2.25,3c.81.47,1.31.25,1.31-.44a2.81,2.81,0,0,0-.87-1.73c-.1-.12-.3-.35-.6-.68-.6-.68-1.13-1.29-1.52-1.81a6.24,6.24,0,0,1-1.41-3.62c0-1.69,1-2.33,2.43-1.85v-1.53l1.74,1v1.53a9.47,9.47,0,0,1,2.25,2.78l-1.12,1a6.25,6.25,0,0,0-2-2.26c-.71-.41-1.18-.22-1.18.43a1.72,1.72,0,0,0,.33.95c.23.34.36.49.68.92.1.12.41.49.94,1.1s.93,1.07,1.19,1.41a5.78,5.78,0,0,1,1.38,3.48C545.55,326.75,544.54,327.46,543,327Z"
              style="fill:url(#439f36c5-b2bd-48fa-a296-e721443c1bfa)"/>
        <path d="M378.11,512.26c-3.91-2.26-7.45-2.44-10-.91h0l-4.73,2.73h0c-2.89,1.29-4.73,4.53-4.73,9.35,0,8.91,6.26,19.75,14,24.21,3.82,2.21,7.29,2.43,9.81,1h0l4.78-2.76v0c3-1.25,4.84-4.53,4.84-9.41C392.08,527.55,385.82,516.72,378.11,512.26Z"
              style="opacity:0.42;fill:url(#892e5361-2e5b-41a4-a46f-c3da5e5a21b6)"/>
        <path d="M365,488.55l-1.63-.59,4.73-2.73h0c2.54-1.53,6.07-1.35,10,.91,7.72,4.46,14,15.29,14,24.21,0,4.88-1.88,8.16-4.84,9.41v0l-4.78,2.76v-2.21l.27-.15a14.15,14.15,0,0,1-4.62-1.76c-7.72-4.46-14-15.29-14-24.21a13,13,0,0,1,1.27-6Z"
              style="fill:url(#c28f7461-7c44-4556-a6bd-065dec1d4397)"/>
        <path d="M358.68,497.32c0,8.91,6.26,19.75,14,24.21s14,.84,14-8.07-6.26-19.75-14-24.21S358.68,488.4,358.68,497.32Z"
              style="fill:url(#de8f1f1e-7b76-4826-b959-6d4c513d1f4d)"/>
        <path d="M361.57,499c0,7.06,5,15.66,11.08,19.19s11.08.67,11.08-6.4-5-15.66-11.08-19.19S361.57,491.92,361.57,499Z"
              style="fill:#fff"/>
        <path d="M373.21,511.56v1.69l-1.72-1v-1.62a9,9,0,0,1-2.9-4l1.35-.72a5.93,5.93,0,0,0,2.25,3c.81.47,1.31.25,1.31-.44a2.81,2.81,0,0,0-.87-1.73c-.1-.12-.3-.35-.6-.68-.6-.68-1.13-1.29-1.52-1.81a6.24,6.24,0,0,1-1.41-3.62c0-1.69,1-2.33,2.43-1.85v-1.53l1.74,1v1.53a9.47,9.47,0,0,1,2.25,2.78l-1.12,1a6.25,6.25,0,0,0-2-2.26c-.71-.41-1.18-.22-1.18.43a1.72,1.72,0,0,0,.33.95c.23.34.36.49.68.92.1.12.41.49.94,1.1s.93,1.07,1.19,1.41a5.78,5.78,0,0,1,1.38,3.48C375.73,511.34,374.72,512.05,373.21,511.56Z"
              style="fill:url(#892cb6ce-b88b-4fd2-9cfc-4cda499d5b21)"/>
        <path d="M392,440.43c3.91-2.26,7.45-2.44,10-.91h0l4.73,2.73h0c2.89,1.29,4.73,4.53,4.73,9.35,0,8.91-6.26,19.75-14,24.2-3.82,2.21-7.29,2.43-9.81,1h0l-4.78-2.76v0c-3-1.25-4.84-4.53-4.84-9.41C378,455.72,384.28,444.89,392,440.43Z"
              style="opacity:0.42;fill:url(#1fe32eb3-bd06-416a-a18b-0956d8005a40)"/>
        <path d="M405.08,416.92l1.63-.59L402,413.6h0c-2.54-1.53-6.07-1.35-10,.91-7.72,4.46-14,15.29-14,24.2,0,4.88,1.88,8.16,4.84,9.41v0l4.78,2.76V448.7l-.27-.15a14.15,14.15,0,0,0,4.62-1.76c7.72-4.46,14-15.29,14-24.2a13,13,0,0,0-1.27-6Z"
              style="fill:url(#cb0a58f9-514d-4bca-bcf8-22c16029b803)"/>
        <path d="M411.42,425.68c0,8.91-6.26,19.75-14,24.2s-14,.84-14-8.07,6.26-19.75,14-24.2S411.42,416.77,411.42,425.68Z"
              style="fill:url(#7a83e9c4-e68b-4add-9207-6e72f58ec4fe)"/>
        <path d="M408.53,427.36c0,7.06-5,15.65-11.08,19.19s-11.08.67-11.08-6.4,5-15.65,11.08-19.19S408.53,420.29,408.53,427.36Z"
              style="fill:#fff"/>
        <path d="M398.49,439v1.68l-1.72,1V440a2.2,2.2,0,0,1-2.89-.65l1.35-2.27a1.58,1.58,0,0,0,2.25.35,2.45,2.45,0,0,0,1.31-2c0-.55-.31-.72-.87-.72-.1,0-.3,0-.6,0a7.41,7.41,0,0,1-1.51-.05,1.76,1.76,0,0,1-1.4-2,6.28,6.28,0,0,1,2.43-4.64V426.6l1.73-1v1.53a2.49,2.49,0,0,1,2.25.18l-1.12,2.31a2,2,0,0,0-2,.08,2.22,2.22,0,0,0-1.17,1.78.53.53,0,0,0,.33.57,3.94,3.94,0,0,0,.68.13c.1,0,.41,0,.94,0a8.12,8.12,0,0,1,1.19,0c.91.13,1.38.76,1.38,1.88A6.67,6.67,0,0,1,398.49,439Z"
              style="fill:url(#8e5f7c44-6814-477e-97db-cc7d87b3c80b)"/>
        <path d="M627.44,439.45c3.91-2.26,7.45-2.44,10-.91h0l4.73,2.73h0c2.89,1.29,4.73,4.53,4.73,9.35,0,8.91-6.26,19.75-14,24.2-3.82,2.21-7.29,2.43-9.81,1h0l-4.78-2.76v0c-3-1.25-4.84-4.53-4.84-9.41C613.46,454.74,619.72,443.9,627.44,439.45Z"
              style="opacity:0.42;fill:url(#7e041f0d-8c7a-4773-b349-6ab0967b7606)"/>
        <path d="M640.52,415.94l1.63-.59-4.73-2.73h0c-2.54-1.53-6.07-1.35-10,.91-7.72,4.46-14,15.29-14,24.2,0,4.88,1.88,8.16,4.84,9.41v0l4.78,2.76v-2.21l-.27-.15a14.15,14.15,0,0,0,4.62-1.76c7.72-4.46,14-15.29,14-24.2a13,13,0,0,0-1.27-6Z"
              style="fill:url(#d4799013-4da8-41f8-8f50-9e8cccef4c1f)"/>
        <path d="M646.87,424.7c0,8.91-6.26,19.75-14,24.2s-14,.84-14-8.07,6.26-19.75,14-24.2S646.87,415.79,646.87,424.7Z"
              style="fill:url(#a61f1436-a6df-4777-9017-5f302056f840)"/>
        <path d="M644,426.38c0,7.06-5,15.65-11.08,19.19s-11.08.67-11.08-6.4,5-15.65,11.08-19.19S644,419.31,644,426.38Z"
              style="fill:#fff"/>
        <path d="M633.94,438v1.68l-1.72,1v-1.62a2.2,2.2,0,0,1-2.89-.65l1.35-2.27a1.58,1.58,0,0,0,2.25.35,2.45,2.45,0,0,0,1.31-2c0-.55-.31-.72-.87-.72-.1,0-.3,0-.6,0a7.41,7.41,0,0,1-1.51-.05,1.76,1.76,0,0,1-1.4-2,6.28,6.28,0,0,1,2.43-4.64v-1.53l1.73-1v1.53a2.49,2.49,0,0,1,2.25.18l-1.12,2.31a2,2,0,0,0-2,.08,2.22,2.22,0,0,0-1.17,1.78.53.53,0,0,0,.33.57,3.94,3.94,0,0,0,.68.13c.1,0,.41,0,.94,0a8.12,8.12,0,0,1,1.19,0c.91.13,1.38.76,1.38,1.88A6.67,6.67,0,0,1,633.94,438Z"
              style="fill:url(#021393ea-e5bf-40bc-acd8-a7dbddfe5a71)"/>
    </g>
    <g id="gold2">
        <g id="08804418-cf71-4fc9-bf9d-dc5e357d6d0a" data-name="Layer 18">
            <path d="M121.34,500.42c-3.91-2.26-7.45-2.44-10-.91h0l-4.73,2.73h0c-2.89,1.29-4.73,4.53-4.73,9.35,0,8.91,6.26,19.75,14,24.21,3.82,2.21,7.29,2.43,9.81,1h0l4.78-2.76v0c3-1.25,4.84-4.53,4.84-9.41C135.32,515.72,129.06,504.88,121.34,500.42Z"
                  style="opacity:0.42;fill:url(#12818c20-95e3-4f36-8dfa-dfbedca1e2ae)"/>
        </g>
        <g id="111653dd-0e33-4f0f-b7c1-76bf86ded406" data-name="Layer 9">
            <path d="M108.26,476.72l-1.63-.59,4.73-2.73h0c2.54-1.53,6.07-1.35,10,.91,7.72,4.46,14,15.29,14,24.21,0,4.88-1.88,8.16-4.84,9.41v0l-4.78,2.76V508.5l.27-.15a14.15,14.15,0,0,1-4.62-1.76c-7.72-4.46-14-15.29-14-24.21a13,13,0,0,1,1.27-6Z"
                  style="fill:url(#b31b615d-a7fa-4a81-9467-8b23c790e5de)"/>
            <path d="M101.91,485.48c0,8.91,6.26,19.75,14,24.21s14,.84,14-8.07-6.26-19.75-14-24.21S101.91,476.57,101.91,485.48Z"
                  style="fill:url(#ee6649ea-6a26-4017-b3c7-e4a5763b3d44)"/>
            <path d="M104.81,487.15c0,7.06,5,15.66,11.08,19.19S127,507,127,499.95s-5-15.66-11.08-19.19S104.81,480.09,104.81,487.15Z"
                  style="fill:#fff"/>
            <path d="M116.44,499.72v1.69l-1.72-1v-1.62a9,9,0,0,1-2.9-4l1.35-.72a5.93,5.93,0,0,0,2.25,3c.81.47,1.31.25,1.31-.44a2.81,2.81,0,0,0-.87-1.73c-.1-.12-.3-.35-.6-.68-.6-.68-1.13-1.29-1.52-1.81a6.24,6.24,0,0,1-1.41-3.62c0-1.69,1-2.33,2.43-1.85v-1.53l1.74,1v1.53a9.47,9.47,0,0,1,2.25,2.78l-1.12,1a6.25,6.25,0,0,0-2-2.26c-.71-.41-1.18-.22-1.18.43a1.72,1.72,0,0,0,.33.95c.23.34.36.49.68.92.1.12.41.49.94,1.1s.93,1.07,1.19,1.41a5.78,5.78,0,0,1,1.38,3.48C119,499.51,118,500.22,116.44,499.72Z"
                  style="fill:url(#0400511d-5c6c-46ab-8be5-ef2cef771594)"/>
        </g>
    </g>
    <g id="gold1">
        <g id="9d0d434d-aa29-401b-b329-5c4b9ac19b28" data-name="Layer 17">
            <path d="M181,411.12c3.91-2.26,7.45-2.44,10-.91h0l4.73,2.73h0c2.89,1.29,4.73,4.53,4.73,9.35,0,8.91-6.26,19.75-14,24.2-3.82,2.21-7.29,2.43-9.81,1h0l-4.78-2.76v0c-3-1.25-4.84-4.53-4.84-9.41C167.06,426.41,173.32,415.57,181,411.12Z"
                  style="opacity:0.42;fill:url(#820637b9-4dfe-409f-98d9-412309d566c2)"/>
        </g>
        <g id="0bb4d239-8b36-470d-923d-b6d699c09b1f" data-name="Layer 10">
            <path d="M194.12,387.61l1.63-.59L191,384.29h0c-2.54-1.53-6.07-1.35-10,.91-7.72,4.46-14,15.29-14,24.2,0,4.88,1.88,8.16,4.84,9.41v0l4.78,2.76v-2.21l-.27-.15a14.15,14.15,0,0,0,4.62-1.76c7.72-4.46,14-15.29,14-24.2a13,13,0,0,0-1.27-6Z"
                  style="fill:url(#208e48e3-469d-4b4e-b2aa-812a25ba37e1)"/>
            <path d="M200.47,396.37c0,8.91-6.26,19.75-14,24.2s-14,.84-14-8.07,6.26-19.75,14-24.2S200.47,387.46,200.47,396.37Z"
                  style="fill:url(#13c28a07-67cd-4525-8f44-1a47b40ec332)"/>
            <path d="M197.57,398c0,7.06-5,15.65-11.08,19.19s-11.08.67-11.08-6.4,5-15.65,11.08-19.19S197.57,391,197.57,398Z"
                  style="fill:#fff"/>
            <path d="M187.53,409.67v1.68l-1.72,1v-1.62a2.2,2.2,0,0,1-2.89-.65l1.35-2.27a1.58,1.58,0,0,0,2.25.35,2.45,2.45,0,0,0,1.31-2c0-.55-.31-.72-.87-.72-.1,0-.3,0-.6,0a7.41,7.41,0,0,1-1.51-.05,1.76,1.76,0,0,1-1.4-2,6.28,6.28,0,0,1,2.43-4.64v-1.53l1.73-1v1.53a2.49,2.49,0,0,1,2.25.18l-1.12,2.31a2,2,0,0,0-2,.08,2.22,2.22,0,0,0-1.17,1.78.53.53,0,0,0,.33.57,3.94,3.94,0,0,0,.68.13c.1,0,.41,0,.94,0a8.12,8.12,0,0,1,1.19,0c.91.13,1.38.76,1.38,1.88A6.67,6.67,0,0,1,187.53,409.67Z"
                  style="fill:url(#6b8d1597-a9ac-416e-9cd5-0b6d2247aed4)"/>
        </g>
    </g>

</svg>