<?xml version="1.0" encoding="utf-8"?><svg xmlns="http://www.w3.org/2000/svg" xmlns:xlink="http://www.w3.org/1999/xlink"><symbol viewBox="0 0 447.42 511.12" id="Advice" xmlns="http://www.w3.org/2000/svg"><title>4Artboard 2</title><path d="M213.8 511.12c9.94-1.88 20.06-3.1 29.79-5.77 28.05-7.69 56.06-15.57 83.84-24.2 11-3.42 21.38-3.69 32.24-.29 13.81 4.32 27.73 8.25 41.62 12.3 15.21 4.43 25.21-1.13 28.92-16.28q8.42-34.4 16.55-68.88c2.79-11.79-3.37-22-15.05-24.63-38.28-8.65-76.61-17.1-114.9-25.7-23.43-5.27-45.21-1.83-62.84 15-12.97 12.33-28.08 16.41-44.86 17.58-9.62.68-19.32.75-28.84 2.08-12 1.67-19.71 8.86-20.68 17.86s5.11 17.66 16.14 22.25c14.54 6.06 29.9 5.59 45.27 5.24a106 106 0 0 0 55.6-17c4.89-3.11 10.31-5.41 15.58-7.89 4-1.87 7.59-1.26 9.86 2.82s.55 7.11-2.69 9.56c-23.11 17.55-48.48 28.95-78.12 29-13.83 0-27.67.52-41.22-3-10.16-2.62-19.38-7.1-26.83-14.68-13-13.29-13.93-31.66-2.32-46.17.6-.75 1.18-1.52 2.09-2.7-15-5.7-29.56-11.26-44.13-16.78-12.13-4.6-24.25-9.23-36.42-13.73-11.6-4.28-20-2-25.48 6.64s-4 19.23 3.81 27.31a3 3 0 0 1 .91 2.25c-7.33-2.86-14.64-5.76-22-8.59-12.25-4.72-24.22.88-28.46 13.26-3.15 9.2-.06 17.6 9.07 22.92q23.94 14 48.18 27.4c32.92 18.2 65.86 36.48 101.53 48.85 15.18 5.27 31 8.69 46.53 13a21.12 21.12 0 0 1 2.29.92zM224 322.25c-81.77.95-159.59-62.14-161.34-159.92C61.2 79.68 125.23 1.38 223.09 0 306-1.14 382.8 63.32 385.28 160.91 384.49 243.3 322 321.11 224 322.25zm6.54-299.74C148.11 19 87.76 84.86 85.15 155c-3 81 60.77 141.1 130.66 144.71 84.95 4.4 148.33-65.36 146.47-138.71 1.23-73.86-59.45-135.38-131.72-138.49z" fill="#fff"/><path d="M210.65 138.33c6.83 0 13.66-.11 20.49 0 8.11.17 11.14 3.17 10.33 11.08-1.64 16-3.69 32-5.62 48-1.37 11.38-3.07 22.72-4.15 34.12-.46 4.86 1.43 9.29 6.27 11.54 5.84 2.72 11.46 1.84 16.36-2.17a22.57 22.57 0 0 0 4.54-5.86c2.38-3.91 6-4.39 9.53-2.87 4 1.71 2.62 5.05 1.37 8.11-6.73 16.55-24.25 30.17-44.74 30-23.51-.23-37.66-17.9-35.93-37.87q2.88-33.26 6.08-66.5c.64-6.8-1.31-9.11-8.11-9.33-4.09-.13-9.49 1.48-10.38-4.82s4.52-12.93 11-13.25c7.64-.38 15.32-.09 23-.09zM230 113.75c-17.76-.24-31.11-13.9-30.57-31.82.5-16.64 12.84-29.87 31.11-30.06 17.38-.18 31.3 15 30.89 32.1-.43 16.47-14.7 30.03-31.43 29.78z" fill="#fff"/></symbol><symbol viewBox="0 0 140.5 45" id="AppStore" xmlns="http://www.w3.org/2000/svg"><title>4Artboard 3</title><rect width="140.5" height="45" rx="22.5" ry="22.5"/><g data-name="Group"><g data-name="Group 2"><g data-name="Group 3" fill="#fff"><path data-name="Path" d="M31 21.6a5.35 5.35 0 0 1 2.55-4.48 5.47 5.47 0 0 0-4.31-2.33c-1.81-.19-3.57 1.09-4.5 1.09s-2.37-1.07-3.9-1a5.74 5.74 0 0 0-4.84 2.9c-2.09 3.62-.53 8.93 1.47 11.86 1 1.43 2.17 3 3.7 3s2.06-1 3.87-1 2.32 1 3.88.92 2.62-1.44 3.59-2.88a11.84 11.84 0 0 0 1.64-3.34A5.17 5.17 0 0 1 31 21.6z"/><path data-name="Path 2" d="M28 12.86a5.26 5.26 0 0 0 1.2-3.77 5.35 5.35 0 0 0-3.46 1.79 5 5 0 0 0-1.24 3.63 4.43 4.43 0 0 0 3.5-1.65z"/></g></g><path d="M48.94 29.13H44l-1.18 3.49h-2.06l4.66-12.9h2.16l4.66 12.9h-2.12zm-4.41-1.61h3.9l-1.92-5.66h-.05zm17.76.4c0 2.92-1.56 4.8-3.92 4.8a3.19 3.19 0 0 1-3-1.65v4.66h-1.94V23.21h1.87v1.56a3.34 3.34 0 0 1 3-1.66c2.42.01 3.99 1.89 3.99 4.81zm-2 0c0-1.9-1-3.16-2.49-3.16s-2.44 1.24-2.44 3.16 1 3.16 2.47 3.16 2.49-1.24 2.49-3.16zm12.35 0c0 2.92-1.56 4.8-3.92 4.8a3.19 3.19 0 0 1-3-1.65v4.66h-1.94V23.21h1.87v1.56a3.34 3.34 0 0 1 3-1.66c2.42.01 3.99 1.89 3.99 4.81zm-2 0c0-1.9-1-3.16-2.49-3.16s-2.44 1.24-2.44 3.16 1 3.16 2.47 3.16 2.48-1.24 2.48-3.16zM79.48 29c.14 1.28 1.39 2.12 3.08 2.12s2.8-.84 2.8-2c0-1-.71-1.6-2.38-2l-1.67-.4c-2.37-.57-3.47-1.68-3.47-3.48 0-2.23 1.94-3.75 4.69-3.75s4.6 1.51 4.67 3.77h-1.95c-.12-1.29-1.18-2.06-2.74-2.06s-2.62.79-2.62 1.93c0 .91.68 1.45 2.34 1.86l1.42.35C86.3 26 87.4 27 87.4 28.91c0 2.41-1.92 3.92-5 3.92-2.86 0-4.79-1.48-4.92-3.81zm12.09-8v2.23h1.79v1.53h-1.79v5.18c0 .81.36 1.18 1.14 1.18a6 6 0 0 0 .63 0v1.52a5.3 5.3 0 0 1-1.07.09c-1.9 0-2.65-.72-2.65-2.54v-5.45h-1.36v-1.53h1.37V21zm2.82 6.92c0-3 1.74-4.82 4.46-4.82s4.46 1.86 4.46 4.82-1.73 4.82-4.46 4.82-4.46-1.86-4.46-4.82zm7 0c0-2-.93-3.23-2.49-3.23s-2.49 1.21-2.49 3.23.93 3.23 2.49 3.23 2.49-1.19 2.49-3.23zm3.51-4.71h1.84v1.6a2.24 2.24 0 0 1 2.26-1.7 3 3 0 0 1 .66.07V25a2.7 2.7 0 0 0-.87-.12 1.95 1.95 0 0 0-2 2.16v5.58h-1.89zm13.71 6.65c-.26 1.71-1.92 2.88-4 2.88-2.74 0-4.43-1.83-4.43-4.77s1.71-4.86 4.35-4.86 4.24 1.79 4.24 4.64v.66h-6.64v.12a2.45 2.45 0 0 0 2.22 2.66h.31a2.13 2.13 0 0 0 2.17-1.32zM112.09 27h4.7a2.26 2.26 0 0 0-2.13-2.38h-.17a2.38 2.38 0 0 0-2.4 2.38z" fill="#fff"/></g><path d="M44.29 10a2.74 2.74 0 0 1 2.92 3.08c0 2-1.07 3.12-2.92 3.12h-2.24V10zM43 15.33h1.17a1.95 1.95 0 0 0 2-2.23 2 2 0 0 0-2-2.22H43zm5.29-1.46a2.22 2.22 0 1 1 4.41 0 2.22 2.22 0 1 1-4.41 0zm3.46 0c0-1-.46-1.61-1.25-1.61s-1.25.59-1.25 1.61.45 1.61 1.25 1.61 1.25-.59 1.25-1.61zm6.82 2.34h-1l-1-3.44h-.07l-1 3.44h-.95l-1.29-4.68h.94l.84 3.57h.07l1-3.57H57l1 3.57h.07l.83-3.57h.92zm2.37-4.68h.89v.74h.07a1.4 1.4 0 0 1 1.4-.83 1.52 1.52 0 0 1 1.62 1.74v3H64v-2.8c0-.75-.33-1.13-1-1.13a1.07 1.07 0 0 0-1.12 1.19v2.74h-.92zm5.44-1.82h.92v6.5h-.92zm2.21 4.16a2.22 2.22 0 1 1 4.41 0 2.22 2.22 0 1 1-4.41 0zm3.46 0c0-1-.46-1.61-1.25-1.61s-1.25.59-1.25 1.61.45 1.61 1.25 1.61 1.2-.59 1.2-1.61zM74 14.89c0-.84.63-1.33 1.74-1.4l1.26-.07V13c0-.49-.33-.77-1-.77s-.87.19-1 .52h-.89c.09-.8.85-1.32 1.91-1.32s1.87.57 1.87 1.57v3.2H77v-.66h-.07a1.57 1.57 0 0 1-1.4.73A1.41 1.41 0 0 1 74 15v-.11zm3-.4v-.39l-1.14.07c-.64 0-.94.26-.94.67s.37.67.87.67a1.1 1.1 0 0 0 1.21-1zm2.11-.62c0-1.48.76-2.41 1.94-2.41a1.54 1.54 0 0 1 1.43.82h.07V9.71h.92v6.5h-.88v-.74h-.07a1.62 1.62 0 0 1-1.47.82c-1.19 0-1.94-.94-1.94-2.42zm1 0c0 1 .47 1.59 1.25 1.59s1.26-.61 1.26-1.58-.49-1.59-1.26-1.59-1.25.6-1.25 1.58zm7.18 0a2.22 2.22 0 1 1 4.41 0 2.22 2.22 0 1 1-4.41 0zm3.46 0c0-1-.46-1.61-1.25-1.61s-1.25.59-1.25 1.61.45 1.61 1.25 1.61 1.26-.59 1.26-1.61zm2.19-2.34h.89v.74h.07a1.4 1.4 0 0 1 1.4-.83 1.52 1.52 0 0 1 1.62 1.74v3H96v-2.8c0-.75-.33-1.13-1-1.13a1.07 1.07 0 0 0-1.12 1.19v2.74h-.92zm9.19-1.16v1.19h1v.78h-1v2.4c0 .49.2.7.66.7h.35v.77a3 3 0 0 1-.5 0c-1 0-1.44-.36-1.44-1.26v-2.62h-.74v-.78h.74v-1.18zm2.28-.66h.91v2.58h.07a1.44 1.44 0 0 1 1.43-.84 1.54 1.54 0 0 1 1.61 1.74v3h-.92v-2.77c0-.75-.35-1.13-1-1.13a1.09 1.09 0 0 0-1.18 1.19v2.73h-.92zm9.4 5.24a1.9 1.9 0 0 1-2 1.35 2.12 2.12 0 0 1-2.16-2.41 2.16 2.16 0 0 1 1.85-2.42h.3c1.3 0 2.09.89 2.09 2.36v.32h-3.3v.05a1.24 1.24 0 0 0 1.13 1.34h.12a1.12 1.12 0 0 0 1.11-.57zm-3.25-1.51h2.36a1.13 1.13 0 0 0-1-1.21h-.11a1.2 1.2 0 0 0-1.21 1.18z" data-name="Group 4" fill="#fff"/></symbol><symbol viewBox="0 0 235 75" id="AppStore_large" xmlns="http://www.w3.org/2000/svg"><title>4Artboard 2</title><path d="M37.63 0h159.74A37.63 37.63 0 0 1 235 37.63a37.63 37.63 0 0 1-37.63 37.63H37.63A37.63 37.63 0 0 1 0 37.63 37.63 37.63 0 0 1 37.63 0z"/><g data-name="9ea871c8-9ffa-4131-96eb-a1b1b08339df"><g data-name="cf7ece8d-6c0e-4b6e-8e39-425bb29a1b54"><g data-name="45b8ebed-6528-4875-ac25-3f3f50b0a0dd" fill="#fff"><path data-name="128556b0-0f65-4dc7-b2b6-1d619617e327" d="M51.85 36.13a9 9 0 0 1 4.27-7.49 9.15 9.15 0 0 0-7.21-3.9c-3-.32-6 1.82-7.53 1.82s-4-1.79-6.52-1.67a9.6 9.6 0 0 0-8.1 4.85c-3.5 6.05-.89 14.94 2.46 19.84 1.67 2.39 3.63 5 6.19 5s3.45-1.67 6.47-1.67 3.88 1.67 6.49 1.54 4.38-2.41 6-4.82a19.8 19.8 0 0 0 2.74-5.59 8.65 8.65 0 0 1-5.26-7.91z"/><path data-name="d7de5815-cae1-42e2-8f13-a9a2c81fabd5" d="M46.83 21.51a8.8 8.8 0 0 0 2-6.31 9 9 0 0 0-5.79 3A8.36 8.36 0 0 0 41 24.27a7.41 7.41 0 0 0 5.83-2.76z"/></g></g><path d="M81.86 48.72h-8.27l-2 5.84h-3.41L76 33h3.61l7.79 21.58h-3.57zM74.48 46H81l-3.21-9.47h-.08zm29.71.7c0 4.88-2.61 8-6.56 8a5.34 5.34 0 0 1-5-2.76v7.79h-3.26V38.82h3.13v2.61a5.59 5.59 0 0 1 5-2.78c4.06.02 6.69 3.16 6.69 8.05zm-3.35 0c0-3.18-1.67-5.29-4.16-5.29s-4.08 2.08-4.08 5.29 1.67 5.3 4.13 5.3 4.16-2.07 4.16-5.29zm20.66 0c0 4.88-2.61 8-6.56 8a5.34 5.34 0 0 1-5-2.76v7.79h-3.24V38.82h3.13v2.61a5.59 5.59 0 0 1 5-2.78c4.04.02 6.67 3.16 6.67 8.05zm-3.35 0c0-3.18-1.67-5.29-4.16-5.29s-4.08 2.07-4.08 5.29S111.58 52 114 52s4.15-2.07 4.15-5.29zm14.79 1.81c.23 2.14 2.32 3.55 5.15 3.55s4.68-1.4 4.68-3.35c0-1.67-1.19-2.68-4-3.35l-2.77-.67c-4-1-5.8-2.81-5.8-5.82 0-3.73 3.24-6.27 7.84-6.27s7.69 2.53 7.81 6.31h-3.26c-.2-2.16-2-3.45-4.58-3.45s-4.38 1.32-4.38 3.23c0 1.52 1.14 2.43 3.91 3.11l2.38.59c4.43 1.1 6.27 2.78 6.27 6 0 4-3.21 6.56-8.36 6.56-4.78 0-8-2.48-8.23-6.37zm20.22-13.39v3.73h3v2.56h-3v8.66c0 1.35.6 2 1.91 2a10 10 0 0 0 1.05 0v2.54a8.86 8.86 0 0 1-1.79.15c-3.18 0-4.43-1.2-4.43-4.25v-9.13h-2.27v-2.56h2.29v-3.7zm4.72 11.58c0-5 2.91-8.06 7.46-8.06s7.46 3.11 7.46 8.06-2.89 8.06-7.46 8.06-7.46-3.11-7.46-8.06zm11.71 0c0-3.35-1.56-5.4-4.16-5.4s-4.16 2-4.16 5.4 1.56 5.4 4.16 5.4 4.15-1.99 4.15-5.4zm5.87-7.88h3.08v2.68a3.75 3.75 0 0 1 3.78-2.84 5 5 0 0 1 1.1.12v3a4.52 4.52 0 0 0-1.46-.2 3.26 3.26 0 0 0-3.35 3.61v9.33h-3.16zm22.93 11.12c-.43 2.86-3.21 4.82-6.69 4.82-4.58 0-7.41-3.06-7.41-8s2.86-8.13 7.28-8.13 7.09 3 7.09 7.76v1.1h-11.11v.2a4.1 4.1 0 0 0 3.71 4.45h.52a3.56 3.56 0 0 0 3.63-2.14zm-10.91-4.78h7.86a3.78 3.78 0 0 0-3.56-4h-.28a4 4 0 0 0-4 3.95z" fill="#fff"/></g><path d="M74.08 16.73A4.58 4.58 0 0 1 79 21.88c0 3.35-1.79 5.22-4.88 5.22h-3.79V16.73zm-2.16 8.91h2a3.26 3.26 0 0 0 3.35-3.73 3.35 3.35 0 0 0-3-3.69h-2.39zm8.85-2.44a3.71 3.71 0 1 1 7.38 0 3.71 3.71 0 1 1-7.38 0zm5.79 0c0-1.67-.77-2.69-2.09-2.69s-2.09 1-2.09 2.69.75 2.69 2.09 2.69 2.09-.99 2.09-2.69zM98 27.11h-1.71l-1.67-5.75h-.12l-1.67 5.75h-1.59l-2.16-7.83h1.57l1.4 6h.12l1.67-6h1.49l1.67 6h.12l1.39-6h1.54zm3.93-7.82h1.49v1.24h.12a2.34 2.34 0 0 1 2.34-1.39 2.54 2.54 0 0 1 2.71 2.86v5H107v-4.62c0-1.25-.55-1.89-1.67-1.89a1.79 1.79 0 0 0-1.87 2v4.58H102zm9.07-3.05h1.54v10.87H111zm3.72 6.96a3.71 3.71 0 1 1 7.38 0 3.71 3.71 0 1 1-7.38 0zm5.79 0c0-1.67-.77-2.69-2.09-2.69s-2.09 1-2.09 2.69.75 2.69 2.09 2.69 2-1 2-2.69zm3.26 1.7c0-1.4 1.05-2.22 2.91-2.34l2.11-.12v-.7c0-.82-.55-1.29-1.67-1.29s-1.46.32-1.67.87H124c.15-1.34 1.42-2.21 3.19-2.21s3.13 1 3.13 2.63v5.36h-1.49V26h-.12a2.63 2.63 0 0 1-2.34 1.22 2.36 2.36 0 0 1-2.56-2.12zm5-.67v-.65l-1.91.12c-1.07 0-1.57.43-1.57 1.12s.62 1.12 1.46 1.12a1.84 1.84 0 0 0 2-1.64v-.07zm3.55-1.03c0-2.48 1.27-4 3.24-4a2.58 2.58 0 0 1 2.44 1.34h.12v-4.3h1.54v10.87h-1.47v-1.23H138a2.71 2.71 0 0 1-2.46 1.37c-1.97 0-3.22-1.58-3.22-4.05zm1.67 0c0 1.67.79 2.66 2.09 2.66s2.11-1 2.11-2.64-.82-2.66-2.11-2.66-2.08 1-2.08 2.64zm12.01 0a3.71 3.71 0 1 1 7.38 0 3.71 3.71 0 1 1-7.38 0zm5.79 0c0-1.67-.77-2.69-2.09-2.69s-2.09 1-2.09 2.69.75 2.69 2.09 2.69 2.11-1 2.11-2.69zm3.66-3.91h1.49v1.24h.12a2.34 2.34 0 0 1 2.34-1.39 2.54 2.54 0 0 1 2.71 2.86v5h-1.54v-4.62c0-1.25-.55-1.89-1.67-1.89a1.79 1.79 0 0 0-1.87 2v4.58h-1.54zm15.37-1.95v2h1.67v1.3h-1.67v4c0 .82.33 1.17 1.1 1.17h.59v1.29a5 5 0 0 1-.84 0c-1.67 0-2.41-.6-2.41-2.11v-4.37H168v-1.3h1.24v-2zm3.82-1.1h1.52v4.32h.12a2.41 2.41 0 0 1 2.39-1.4 2.58 2.58 0 0 1 2.69 2.91v5h-1.54v-4.62c0-1.25-.59-1.89-1.67-1.89a1.82 1.82 0 0 0-2 2v4.57h-1.54zM190.36 25a3.18 3.18 0 0 1-3.36 2.26 3.55 3.55 0 0 1-3.61-4 3.61 3.61 0 0 1 3.09-4h.5c2.17 0 3.5 1.49 3.5 3.95v.54H185v.08a2.07 2.07 0 0 0 1.86 2.17h.2a1.87 1.87 0 0 0 1.86-1zm-5.44-2.53h3.95a1.89 1.89 0 0 0-1.67-2h-.2a2 2 0 0 0-2 2z" data-name="16310d75-e40c-4881-b262-75111197f740" fill="#fff"/></symbol><symbol viewBox="0 0 80 80" id="Bank" xmlns="http://www.w3.org/2000/svg"><defs><linearGradient id="ada" x1="11.73" y1="68.27" x2="68.27" y2="11.73" gradientUnits="userSpaceOnUse"><stop offset="0" stop-color="#c64df9"/><stop offset="1" stop-color="#525ffc"/></linearGradient><linearGradient id="adb" x1="26.09" y1="57.12" x2="53.93" y2="29.28" xlink:href="#ada"/></defs><title>4Artboard 4</title><path d="M40 80a40 40 0 1 1 40-40 40 40 0 0 1-40 40zm0-79a39 39 0 1 0 39 39A39.06 39.06 0 0 0 40 1z" fill="url(#ada)"/><g data-name="&lt;Group>"><path data-name="&lt;Compound Path>" d="M40 25l16.05 6.42v2.16h-2.13a1 1 0 0 1-.35.76 1.09 1.09 0 0 1-.82.29h-25.5a1.39 1.39 0 0 1-.82-.29.94.94 0 0 1-.35-.76h-2.16v-2.16zM28.24 35.74h4.26v12.84h2.16V35.74h4.26v12.84h2.16V35.74h4.26v12.84h2.16V35.74h4.26v12.84h1a1.39 1.39 0 0 1 .82.29.94.94 0 0 1 .35.76v1.05H26.14v-1.05a1 1 0 0 1 .35-.76 1.09 1.09 0 0 1 .82-.29h1V35.74zm26.67 16.05a1.39 1.39 0 0 1 .82.29 1 1 0 0 1 .35.76V55H24v-2.16a1 1 0 0 1 .35-.76 1.09 1.09 0 0 1 .82-.29z" fill="url(#adb)"/></g></symbol><symbol viewBox="0 0 512 512.22" id="CashBack" xmlns="http://www.w3.org/2000/svg"><title>4Artboard 2</title><path d="M0 247c2-6.18 6.19-8.29 12.59-8 8.64.43 17.32.12 26 .1 10.07 0 12.46 2.3 12.3 12.25-.61 36.58 7.43 71.17 25.54 102.94C109.86 413 160.13 448.42 227 458.11c107.75 15.62 207.14-54.83 229.72-161.63 23-109-48.51-219-157.93-241.4-66.89-13.67-126.7 2.37-178.72 46.79-1 .85-1.92 1.81-3.26 3.09 1.31 1.4 2.48 2.73 3.73 4 9.65 9.67 19.26 19.38 29 29 3 3 4.51 6.31 3 10.32-1.6 4.16-5.21 5.12-9.37 5.12h-98c-8.29 0-10.92-2.84-10.93-11.26V42.66c.1-3.82 1.59-6.92 5.28-8.29s6.79-.52 9.57 2.32C59.48 47.2 69.94 57.7 80.62 68.49c1.48-1.14 2.69-1.94 3.75-2.89C121 32.73 163.56 12.15 211.93 3.48 219.58 2.11 227.31 1.15 235 0h40c3.11.43 6.21.91 9.32 1.29 44.86 5.47 85.93 20.84 122.25 47.86C461 89.65 495.08 143.2 507.9 210c1.65 8.61 2.75 17.33 4.1 26v40a32 32 0 0 0-1 4.33 250.22 250.22 0 0 1-19.85 77.51c-45.1 104.09-155.51 171.3-278.71 150.66-60-10-110.11-38.87-149.93-84.9C29.78 385.76 9.94 341.84 3 292.2c-1.17-8.38-2-16.8-3-25.2z" fill="#fff"/><path d="M265.06 106.36v21.83q42.33.67 68.78 23.48l-26.79 27.78q-15.87-17.52-42-17.53v66.8a206.18 206.18 0 0 1 25.63 9.42A137.39 137.39 0 0 1 312.52 251a51.87 51.87 0 0 1 17.2 20.34q5.78 12.24 5.79 28.11 0 32.74-20.5 51.26t-49.93 19.18v23.81h-17.87v-23.78q-47.62-1.66-77.71-30.75l29.1-27.78a69.68 69.68 0 0 0 22.49 17.36q13.56 6.78 26.12 7.11v-73.41q-33.73-9.25-51.42-24.14t-17.69-44q0-28.1 20.5-45.8t48.61-19.68v-22.47zm-17.85 117.73v-62.17a35.58 35.58 0 0 0-21 9.09q-8.43 7.77-8.43 21.33-.01 23.15 29.43 31.75zm17.86 43.65v68.12q13.89-.66 22.32-10.09t8.43-24q0-13.56-7.94-21.33t-22.82-12.7z" fill="#fff"/></symbol><symbol viewBox="0 0 57.99 19" id="DGreen" xmlns="http://www.w3.org/2000/svg"><title>4Artboard 3</title><path d="M6.32 0v1.44A6.89 6.89 0 0 1 10.86 3L9.09 4.83a3.57 3.57 0 0 0-2.77-1.16v4.42A13.59 13.59 0 0 1 8 8.71a9.08 9.08 0 0 1 1.44.85 3.43 3.43 0 0 1 1.14 1.34 4.31 4.31 0 0 1 .42 1.87 4.33 4.33 0 0 1-1.36 3.39 4.92 4.92 0 0 1-3.3 1.27V19h-1.2v-1.58a7.48 7.48 0 0 1-5.14-2l1.92-1.84a4.61 4.61 0 0 0 1.49 1.12 4.1 4.1 0 0 0 1.73.47v-4.85a9 9 0 0 1-3.4-1.6 3.58 3.58 0 0 1-1.17-2.9 3.81 3.81 0 0 1 1.35-3 5.37 5.37 0 0 1 3.21-1.3V0zM5.14 7.78V3.67a2.36 2.36 0 0 0-1.39.6 1.82 1.82 0 0 0-.56 1.41q0 1.53 1.95 2.1zm1.18 2.89v4.5a2 2 0 0 0 1.48-.67 2.29 2.29 0 0 0 .56-1.59 1.88 1.88 0 0 0-.52-1.41 3.89 3.89 0 0 0-1.52-.83zm34.57-.27h14l-4.83 4.83a.9.9 0 1 0 1.27 1.27l6.36-6.36.11-.14v-.15a.8.8 0 0 0 0-.09v-.07a.9.9 0 0 0 0-.18.91.91 0 0 0 0-.17v-.08a.84.84 0 0 0 0-.09v-.16l-.11-.14-6.33-6.37a.9.9 0 1 0-1.27 1.27l4.83 4.83h-14a.9.9 0 0 0 0 1.8z" fill="#3cce6c"/><rect x="18.37" y="8.6" width="8" height="1.8" rx=".9" ry=".9" fill="#3cce6c"/><rect x="29.18" y="8.6" width="8" height="1.8" rx=".9" ry=".9" fill="#3cce6c"/></symbol><symbol viewBox="0 0 57.99 19" id="DRed" xmlns="http://www.w3.org/2000/svg"><title>4Artboard 3</title><path d="M53.34 0v1.44A6.89 6.89 0 0 1 57.88 3l-1.77 1.83a3.57 3.57 0 0 0-2.78-1.16v4.42a13.59 13.59 0 0 1 1.67.62 9.08 9.08 0 0 1 1.44.85 3.43 3.43 0 0 1 1.14 1.34 4.31 4.31 0 0 1 .42 1.87 4.33 4.33 0 0 1-1.36 3.39 4.92 4.92 0 0 1-3.3 1.27V19h-1.18v-1.58a7.48 7.48 0 0 1-5.14-2l1.92-1.84a4.61 4.61 0 0 0 1.49 1.15 4.1 4.1 0 0 0 1.73.47v-4.88a9 9 0 0 1-3.4-1.6 3.58 3.58 0 0 1-1.17-2.91 3.81 3.81 0 0 1 1.35-3 5.37 5.37 0 0 1 3.21-1.3V0zm-1.18 7.78V3.67a2.36 2.36 0 0 0-1.39.6 1.82 1.82 0 0 0-.56 1.41q0 1.53 1.95 2.1zm1.18 2.89v4.5a2 2 0 0 0 1.48-.67 2.29 2.29 0 0 0 .56-1.59 1.88 1.88 0 0 0-.52-1.41 3.89 3.89 0 0 0-1.52-.83zm-30.82-.27h14l-4.83 4.83A.9.9 0 1 0 33 16.5l6.36-6.36.11-.14v-.15a.8.8 0 0 0 0-.09v-.07a.9.9 0 0 0 0-.18.91.91 0 0 0 0-.17v-.08a.84.84 0 0 0 0-.09v-.16l-.11-.14L33 2.5a.9.9 0 1 0-1.27 1.27l4.82 4.83h-14a.9.9 0 1 0 0 1.8z" fill="#ff7374"/><rect y="8.6" width="8" height="1.8" rx=".9" ry=".9" fill="#ff7374"/><rect x="10.81" y="8.6" width="8" height="1.8" rx=".9" ry=".9" fill="#ff7374"/></symbol><symbol viewBox="0 0 80 80" id="Friends" xmlns="http://www.w3.org/2000/svg"><defs><linearGradient id="aha" x1="11.73" y1="68.27" x2="68.27" y2="11.73" gradientUnits="userSpaceOnUse"><stop offset="0" stop-color="#ff9f74"/><stop offset="1" stop-color="#ff6a75"/></linearGradient><linearGradient id="ahb" x1="24.9" y1="56.3" x2="46.63" y2="34.57" xlink:href="#aha"/><linearGradient id="ahc" x1="43.8" y1="44.27" x2="57.12" y2="30.95" xlink:href="#aha"/></defs><title>4Artboard 4</title><path d="M40 80a40 40 0 1 1 40-40 40 40 0 0 1-40 40zm0-79a39 39 0 1 0 39 39A39.06 39.06 0 0 0 40 1z" fill="url(#aha)"/><path d="M40.4 41.36a.15.15 0 0 1 0-.26 7.82 7.82 0 1 0-9.6-12.37 7.47 7.47 0 0 0-2.8 5.13 7.73 7.73 0 0 0 3.17 7.24.15.15 0 0 1 0 .26l-.18.06a14.54 14.54 0 0 0-5.48 3.23A10.45 10.45 0 0 0 22.26 50c-.07.32-.12.64-.19 1v1.13a1.14 1.14 0 0 1 .06.21 3.6 3.6 0 0 0 2.2 3 8 8 0 0 0 3 .72c1.74.09 3.49.16 5.23.16q5.47 0 10.94-.09a9.83 9.83 0 0 0 3.34-.63 3.79 3.79 0 0 0 2.63-3.76 8.54 8.54 0 0 0-1.65-5.1 14 14 0 0 0-7.42-5.28z" fill="url(#ahb)"/><path d="M58.28 43.05a14 14 0 0 0-7.39-5.31.15.15 0 0 1 0-.26 7.82 7.82 0 1 0-9.56-12.37 8.2 8.2 0 0 0-1.53 1.66 7.78 7.78 0 0 1 4.67 2.57 7.87 7.87 0 0 1-1.29 11.48.15.15 0 0 0 0 .26 14 14 0 0 1 7.39 5.31 8.54 8.54 0 0 1 1.65 5.1 4.93 4.93 0 0 1-.13 1.08h1.86a9.83 9.83 0 0 0 3.34-.63 3.79 3.79 0 0 0 2.63-3.76 8.54 8.54 0 0 0-1.64-5.13z" fill="url(#ahc)"/></symbol><symbol viewBox="0 0 54.99 54.99" id="GoUp" xmlns="http://www.w3.org/2000/svg"><title>4Artboard 3</title><circle cx="27.5" cy="27.5" r="27.5" fill="#9972ff"/><path d="M28.45 36V21.24l5.1 5.1A.95.95 0 1 0 34.89 25l-6.72-6.72-.17-.12h-1.04l-.15.12-6.7 6.72a.95.95 0 1 0 1.34 1.34l5.1-5.1V36a1 1 0 1 0 1.9 0z" fill="#d8c0ff"/></symbol><symbol viewBox="0 0 140.5 45" id="GooglePlay" xmlns="http://www.w3.org/2000/svg"><defs><linearGradient id="aja" x1="23.91" y1="176.77" x2="7.13" y2="159.99" gradientTransform="matrix(1 0 0 -1 0 188.96)" gradientUnits="userSpaceOnUse"><stop offset="0" stop-color="#00a0ff"/><stop offset=".01" stop-color="#00a1ff"/><stop offset=".26" stop-color="#00beff"/><stop offset=".51" stop-color="#00d2ff"/><stop offset=".76" stop-color="#00dfff"/><stop offset="1" stop-color="#00e3ff"/></linearGradient><linearGradient id="ajb" x1="35.95" y1="165.48" x2="11.75" y2="165.48" gradientTransform="matrix(1 0 0 -1 0 188.96)" gradientUnits="userSpaceOnUse"><stop offset="0" stop-color="#ffe000"/><stop offset=".41" stop-color="#ffbd00"/><stop offset=".78" stop-color="orange"/><stop offset="1" stop-color="#ff9c00"/></linearGradient><linearGradient id="ajc" x1="26.94" y1="163.18" x2="4.18" y2="140.43" gradientTransform="matrix(1 0 0 -1 0 188.96)" gradientUnits="userSpaceOnUse"><stop offset="0" stop-color="#ff3a44"/><stop offset="1" stop-color="#c31162"/></linearGradient><linearGradient id="ajd" x1="9.41" y1="185.3" x2="19.57" y2="175.14" gradientTransform="matrix(1 0 0 -1 0 188.96)" gradientUnits="userSpaceOnUse"><stop offset="0" stop-color="#32a071"/><stop offset=".07" stop-color="#2da771"/><stop offset=".48" stop-color="#15cf74"/><stop offset=".8" stop-color="#06e775"/><stop offset="1" stop-color="#00f076"/></linearGradient></defs><title>4Artboard 2</title><rect width="140.5" height="45" rx="22.5" ry="22.5"/><path d="M49.53 13.72a2.71 2.71 0 0 1-.75 2 2.91 2.91 0 0 1-2.2.89 3.09 3.09 0 0 1-3.12-3.13 3.09 3.09 0 0 1 3.12-3.13 3.1 3.1 0 0 1 1.23.25 2.47 2.47 0 0 1 .94.67l-.53.53a2 2 0 0 0-1.64-.71 2.32 2.32 0 0 0-2.33 2.4 2.36 2.36 0 0 0 4 1.73 1.89 1.89 0 0 0 .5-1.22h-2.17v-.72h2.91a2.54 2.54 0 0 1 .04.44zm4.61-2.5h-2.73v1.9h2.46v.72h-2.46v1.9h2.73v.74h-3.5v-6h3.5zm3.25 5.26h-.77v-5.26h-1.67v-.74h4.12v.74h-1.68zm4.66 0v-6h.77v6zm4.19 0h-.77v-5.26H63.8v-.74h4.12v.74h-1.68zm9.48-.77a3.12 3.12 0 0 1-4.4 0 3.07 3.07 0 0 1-.88-2.22 3.07 3.07 0 0 1 .88-2.22 3.1 3.1 0 0 1 4.4 0 3.23 3.23 0 0 1 0 4.45zm-3.83-.5a2.31 2.31 0 0 0 3.26 0 2.35 2.35 0 0 0 .67-1.72 2.35 2.35 0 0 0-.67-1.72 2.31 2.31 0 0 0-3.26 0 2.35 2.35 0 0 0-.67 1.72 2.35 2.35 0 0 0 .67 1.71zm5.8 1.27v-6h.94l2.92 4.67v-4.67h.77v6h-.8l-3.05-4.89v4.9z" fill="#fff" stroke="#fff" stroke-miterlimit="10" stroke-width=".2"/><path d="M70.25 25.23a4.25 4.25 0 1 0 4.27 4.25 4.19 4.19 0 0 0-4.27-4.25zm0 6.83a2.58 2.58 0 1 1 2.4-2.58 2.46 2.46 0 0 1-2.4 2.58zm-9.31-6.83a4.25 4.25 0 1 0 4.27 4.25 4.19 4.19 0 0 0-4.27-4.25zm0 6.83a2.58 2.58 0 1 1 2.4-2.58 2.46 2.46 0 0 1-2.4 2.58zm-11.08-5.52v1.8h4.32a3.77 3.77 0 0 1-1 2.27 4.42 4.42 0 0 1-3.33 1.32 4.8 4.8 0 0 1 0-9.6 4.6 4.6 0 0 1 3.25 1.29l1.27-1.27a6.29 6.29 0 0 0-4.53-1.82 6.61 6.61 0 1 0 0 13.21 6 6 0 0 0 4.61-1.85A6 6 0 0 0 56 27.66a5.87 5.87 0 0 0-.1-1.13zm45.31 1.4a4 4 0 0 0-3.64-2.71 4 4 0 0 0-4 4.25 4.16 4.16 0 0 0 4.22 4.25 4.23 4.23 0 0 0 3.54-1.88l-1.45-1a2.43 2.43 0 0 1-2.09 1.18 2.16 2.16 0 0 1-2.06-1.29l5.69-2.35zm-5.8 1.42a2.33 2.33 0 0 1 2.22-2.48 1.65 1.65 0 0 1 1.58.9zm-4.62 4.12h1.87V21h-1.88zm-3.06-7.3h-.06a3 3 0 0 0-2.24-1 4.26 4.26 0 0 0 0 8.51 2.9 2.9 0 0 0 2.24-1h.06v.61c0 1.63-.87 2.5-2.27 2.5a2.35 2.35 0 0 1-2.14-1.51l-1.64.71a4.05 4.05 0 0 0 3.77 2.51c2.19 0 4-1.29 4-4.43v-7.59h-1.73zm-2.14 5.88a2.59 2.59 0 0 1 0-5.16 2.4 2.4 0 0 1 2.27 2.59 2.38 2.38 0 0 1-2.28 2.57zM103.92 21h-4.47v12.5h1.87v-4.76h2.61a3.89 3.89 0 1 0 0-7.76zm0 6h-2.65v-4.28H104a2.14 2.14 0 1 1 0 4.28zm11.53-1.8a3.5 3.5 0 0 0-3.33 1.91l1.66.69a1.77 1.77 0 0 1 1.7-.92 1.8 1.8 0 0 1 2 1.61v.13a4.13 4.13 0 0 0-1.95-.48c-1.79 0-3.6 1-3.6 2.81a2.89 2.89 0 0 0 3.1 2.75 2.63 2.63 0 0 0 2.38-1.22h.06v1h1.8v-4.81c.03-2.22-1.63-3.46-3.77-3.46zm-.23 6.85c-.61 0-1.46-.31-1.46-1.06 0-1 1.06-1.33 2-1.33a3.32 3.32 0 0 1 1.7.42 2.26 2.26 0 0 1-2.19 1.98zm10.58-6.58l-2.14 5.42h-.06l-2.22-5.42h-2l3.33 7.58-1.9 4.21h1.95l5.13-11.79zm-16.81 8h1.87V21h-1.87z" fill="#fff"/><path d="M12.55 11a2 2 0 0 0-.46 1.4v22.14a2 2 0 0 0 .46 1.4l.07.07L25 23.63v-.29L12.62 10.95z" fill="url(#aja)"/><path d="M29.14 27.76L25 23.63v-.29l4.13-4.13.09.05L34.13 22c1.4.79 1.4 2.09 0 2.89l-4.89 2.78z" fill="url(#ajb)"/><path d="M29.24 27.71L25 23.48 12.55 35.94a1.63 1.63 0 0 0 2.08.06l14.61-8.3" fill="url(#ajc)"/><path d="M29.24 19.26L14.63 11a1.63 1.63 0 0 0-2.08.06L25 23.48z" fill="url(#ajd)"/><path d="M29.14 27.61l-14.51 8.25a1.67 1.67 0 0 1-2 0l-.07.07.07.07a1.66 1.66 0 0 0 2 0l14.61-8.3z" style="isolation:isolate" opacity=".2"/><path d="M12.55 35.8a2 2 0 0 1-.46-1.4v.15a2 2 0 0 0 .46 1.4l.07-.07zm21.58-11.02l-5 2.83.09.09 4.89-2.78a1.75 1.75 0 0 0 1-1.44 1.86 1.86 0 0 1-.98 1.3z" style="isolation:isolate" opacity=".12"/><path d="M14.63 11.1l19.5 11.08a1.86 1.86 0 0 1 1 1.3 1.75 1.75 0 0 0-1-1.44L14.63 11c-1.4-.79-2.54-.13-2.54 1.47v.15c0-1.62 1.14-2.31 2.54-1.52z" style="isolation:isolate" fill="#fff" opacity=".25"/></symbol><symbol viewBox="0 0 235 75" id="GooglePlay_large" xmlns="http://www.w3.org/2000/svg"><defs><linearGradient id="aka" x1="40.69" y1="-48.65" x2="12.73" y2="-20.69" gradientTransform="translate(0 68.96)" gradientUnits="userSpaceOnUse"><stop offset="0" stop-color="#00a0ff"/><stop offset=".01" stop-color="#00a1ff"/><stop offset=".26" stop-color="#00beff"/><stop offset=".51" stop-color="#00d2ff"/><stop offset=".76" stop-color="#00dfff"/><stop offset="1" stop-color="#00e3ff"/></linearGradient><linearGradient id="akb" x1="60.77" y1="-29.82" x2="20.44" y2="-29.82" gradientTransform="translate(0 68.96)" gradientUnits="userSpaceOnUse"><stop offset="0" stop-color="#ffe000"/><stop offset=".41" stop-color="#ffbd00"/><stop offset=".78" stop-color="orange"/><stop offset="1" stop-color="#ff9c00"/></linearGradient><linearGradient id="akc" x1="45.75" y1="-26" x2="7.82" y2="11.92" gradientTransform="translate(0 68.96)" gradientUnits="userSpaceOnUse"><stop offset="0" stop-color="#ff3a44"/><stop offset="1" stop-color="#c31162"/></linearGradient><linearGradient id="akd" x1="16.52" y1="-62.85" x2="33.46" y2="-45.91" gradientTransform="translate(0 68.96)" gradientUnits="userSpaceOnUse"><stop offset="0" stop-color="#32a071"/><stop offset=".07" stop-color="#2da771"/><stop offset=".48" stop-color="#15cf74"/><stop offset=".8" stop-color="#06e775"/><stop offset="1" stop-color="#00f076"/></linearGradient></defs><title>4Artboard 2</title><path d="M37.63 0h159.74A37.57 37.57 0 0 1 235 37.5 37.57 37.57 0 0 1 197.37 75H37.63A37.57 37.57 0 0 1 0 37.5 37.57 37.57 0 0 1 37.63 0z"/><path d="M83.4 22.87a4.52 4.52 0 0 1-1.25 3.33 4.85 4.85 0 0 1-3.67 1.48 5.15 5.15 0 0 1-5.2-5.1v-.12a5.15 5.15 0 0 1 5.08-5.22h.12a5.17 5.17 0 0 1 2 .42 4.12 4.12 0 0 1 1.57 1.12l-.88.88a3.33 3.33 0 0 0-2.73-1.18 3.87 3.87 0 0 0-3.89 3.85v.15a3.93 3.93 0 0 0 6.67 2.88 3.15 3.15 0 0 0 .83-2h-3.56v-1.2h4.85a4.23 4.23 0 0 1 .06.71zm7.69-4.17h-4.55v3.17h4.1v1.2h-4.1v3.17h4.55v1.23h-5.84v-10h5.83zm5.41 8.77h-1.28V18.7h-2.78v-1.23h6.86v1.23h-2.8zm7.77 0v-10h1.28v10zm6.98 0H110V18.7h-2.78v-1.23h6.87v1.23h-2.8zm15.8-1.29a5.2 5.2 0 0 1-7.33 0 5.12 5.12 0 0 1-1.47-3.7 5.13 5.13 0 0 1 8.75-3.72 5.38 5.38 0 0 1 0 7.42zm-6.38-.83a3.85 3.85 0 0 0 5.43 0 3.92 3.92 0 0 0 1.12-2.87 3.92 3.92 0 0 0-1.12-2.87 3.85 3.85 0 0 0-5.43 0 3.92 3.92 0 0 0-1.12 2.87 3.92 3.92 0 0 0 1.12 2.85zm9.67 2.12v-10h1.57l4.87 7.78v-7.78h1.28v10h-1.33l-5.08-8.15v8.17z" fill="#fff" stroke="#fff" stroke-miterlimit="10" stroke-width=".2"/><path d="M117.94 42a7.08 7.08 0 1 0 7.12 7.08 7 7 0 0 0-6.89-7.08zm0 11.38a4.3 4.3 0 1 1 4-4.59v.29a4.1 4.1 0 0 1-3.89 4.3zM102.42 42a7.08 7.08 0 1 0 7.12 7.08 7 7 0 0 0-6.88-7.08zm0 11.38a4.3 4.3 0 1 1 4-4.59v.29a4.1 4.1 0 0 1-3.89 4.3zM84 44.23v3h7.2A6.28 6.28 0 0 1 89.49 51a7.37 7.37 0 0 1-5.55 2.2 8 8 0 0 1 0-16 7.67 7.67 0 0 1 5.42 2.15l2.12-2.12a10.48 10.48 0 0 0-7.55-3 11 11 0 1 0-.86 22h.86A9.7 9.7 0 0 0 94.19 46.1a9.78 9.78 0 0 0-.19-1.88zm75.52 2.33a6.53 6.53 0 0 0-12.75 2.14v.43a6.93 6.93 0 0 0 6.78 7.08h.25a7.05 7.05 0 0 0 5.9-3.13l-2.42-1.67a4 4 0 0 1-3.48 2 3.6 3.6 0 0 1-3.43-2.15l9.48-3.92zm-9.67 2.37a3.88 3.88 0 0 1 3.62-4.13h.08a2.75 2.75 0 0 1 2.63 1.5zm-7.7 6.87h3.12V35h-3.13zM137 43.63h-.1a5 5 0 0 0-3.73-1.63 7.1 7.1 0 0 0 0 14.18 4.83 4.83 0 0 0 3.73-1.67h.1v1c0 2.72-1.45 4.17-3.78 4.17a3.92 3.92 0 0 1-3.57-2.52l-2.73 1.18a6.75 6.75 0 0 0 6.28 4.18c3.65 0 6.67-2.15 6.67-7.38V42.48H137zm-3.57 9.8a4.32 4.32 0 0 1 0-8.6 4 4 0 0 1 3.79 4.2v.12a4 4 0 0 1-3.63 4.27h-.15zM174.05 35h-7.45v20.83h3.12V47.9h4.35a6.48 6.48 0 1 0 0-12.93zm0 10h-4.42v-7.13h4.55a3.57 3.57 0 0 1 0 7.13h-.13zm19.22-3a5.83 5.83 0 0 0-5.55 3.18l2.77 1.15a3 3 0 0 1 2.83-1.53 3 3 0 0 1 3.33 2.63v.27a6.88 6.88 0 0 0-3.25-.8c-3 0-6 1.67-6 4.68a4.82 4.82 0 0 0 5 4.59h.13a4.38 4.38 0 0 0 4-2h.1v1.63h3v-8c.05-3.7-2.72-5.77-6.28-5.77zm-.38 11.42c-1 0-2.43-.52-2.43-1.77 0-1.67 1.77-2.22 3.33-2.22a5.53 5.53 0 0 1 2.83.7 3.77 3.77 0 0 1-3.65 3.3zm17.63-11l-3.57 9h-.1l-3.7-9h-3.33l5.55 12.63-3.17 7h3.25l8.55-19.6zm-28 13.33h3.12V35h-3.14z" fill="#fff"/><path d="M21.77 18.33a3.33 3.33 0 0 0-.77 2.34v36.9a3.33 3.33 0 0 0 .77 2.33l.12.12 20.63-20.64v-.48L21.89 18.25z" fill="url(#aka)"/><path d="M49.42 46.27l-6.9-6.88v-.49L49.4 32l.15.08 8.18 4.57c2.33 1.32 2.33 3.48 0 4.82l-8.15 4.63z" fill="url(#akb)"/><path d="M49.59 46.18l-7.07-7L21.77 59.9a2.72 2.72 0 0 0 3.47.1l24.35-13.83" fill="url(#akc)"/><path d="M49.59 32.1L25.24 18.33a2.72 2.72 0 0 0-3.47.1l20.75 20.7z" fill="url(#akd)"/><path d="M49.42 46L25.24 59.77a2.78 2.78 0 0 1-3.33 0l-.12.12.12.12a2.77 2.77 0 0 0 3.33 0l24.35-13.84z" style="isolation:isolate" opacity=".2"/><path d="M21.77 59.67a3.33 3.33 0 0 1-.77-2.34v.25a3.33 3.33 0 0 0 .77 2.33l.12-.12zM57.74 41.3L49.4 46l.15.15 8.15-4.63a2.92 2.92 0 0 0 1.67-2.4 3.1 3.1 0 0 1-1.63 2.18z" style="isolation:isolate" opacity=".12"/><path d="M25.24 18.5L57.74 37a3.1 3.1 0 0 1 1.67 2.17 2.92 2.92 0 0 0-1.67-2.4l-32.5-18.4C22.9 17 21 18.12 21 20.78V21c0-2.67 1.9-3.82 4.24-2.5z" style="isolation:isolate" fill="#fff" opacity=".25"/></symbol><symbol viewBox="0 0 95 120" id="KB_01" xmlns="http://www.w3.org/2000/svg"><defs><linearGradient id="ala" x1="47.5" y1="108" x2="47.5" y2="13" gradientUnits="userSpaceOnUse"><stop offset="0" stop-color="#c64df9"/><stop offset="1" stop-color="#525ffc"/></linearGradient><linearGradient id="alb" x1="47.5" y1="117.5" x2="47.5" y2="2.5" xlink:href="#ala"/></defs><title>4Artboard 1</title><circle cx="47.5" cy="60.5" r="47.5" fill="url(#ala)"/><rect x="21" y="2.5" width="53" height="115" rx="5" ry="5" fill="url(#alb)"/><path d="M76.58 60v51.56a8.1 8.1 0 0 1-8.32 8.4H26.78a8.1 8.1 0 0 1-8.35-8.49V8.59C18.44 3.45 21.88 0 27 0h40.93c5.17 0 8.63 3.39 8.64 8.56q.03 25.73.01 51.44zm-3 0V9.31a5.49 5.49 0 0 0-5.8-5.89h-4.49a1.16 1.16 0 0 0-1.33.95c-.68 2.37-2.07 3.54-4.48 3.56q-10 .08-19.9 0a4.28 4.28 0 0 1-4.48-3.5 1.2 1.2 0 0 0-1.37-1h-4.37a5.52 5.52 0 0 0-5.9 5.92v100.93c0 4.17 2.16 6.32 6.32 6.32h39.57c3.94 0 6.19-2.24 6.19-6.23q.01-25.21.01-50.37z" fill="#fff"/><path d="M55.65 49.18a8.35 8.35 0 1 0-16.3 0 8.35 8.35 0 1 0 8.15 14.18 8.35 8.35 0 1 0 8.15-14.18z" fill="#3364ae" fill-rule="evenodd"/><path d="M42 48.76a8.32 8.32 0 0 1 5.55 2.11 8.37 8.37 0 0 1 8.15-1.69 8.35 8.35 0 1 0-16.3 0 8.34 8.34 0 0 1 2.6-.42z" fill="#3364ae" fill-rule="evenodd"/><path d="M47.5 50.87a8.37 8.37 0 0 0-8.15-1.69 8.37 8.37 0 0 0 5.55 6.11 8.35 8.35 0 0 1 2.6-4.42z" fill="#78298a" fill-rule="evenodd"/><path d="M44.89 55.29a8.37 8.37 0 0 1-5.55-6.11 8.35 8.35 0 1 0 8.16 14.18 8.37 8.37 0 0 1-2.61-8.07z" fill="#d91918" fill-rule="evenodd"/><path d="M44.89 55.29a8.37 8.37 0 0 0 2.61 8.07 8.37 8.37 0 0 0 2.61-8.07 8.4 8.4 0 0 1-5.21 0z" fill="#e95506" fill-rule="evenodd"/><path d="M50.31 57.11a8.33 8.33 0 0 1-2.81 6.25 8.35 8.35 0 1 0 8.15-14.18 8.37 8.37 0 0 1-5.55 6.11 8.38 8.38 0 0 1 .21 1.82z" fill="#f39d00" fill-rule="evenodd"/><path d="M50.11 55.29a8.37 8.37 0 0 0 5.55-6.11 8.37 8.37 0 0 0-8.15 1.69 8.35 8.35 0 0 1 2.6 4.42z" fill="#23923b" fill-rule="evenodd"/><path d="M50.11 55.29a8.35 8.35 0 0 0-2.61-4.42 8.35 8.35 0 0 0-2.61 4.42 8.4 8.4 0 0 0 5.21 0z" fill="#191b1f" fill-rule="evenodd"/><path d="M46.81 70a3.15 3.15 0 0 0-1.66-1c-5.66-.69-5.74 7.91-.85 8a3.15 3.15 0 0 0 2.5-1.36v1.13h1.9v-7.63c-.83 0-1.65.17-1.89.84zm7.37 4.5l-1.27-4a1.73 1.73 0 0 0-1.78-1.27h-1L53 76.77h2.28l2.9-7.58h-1a1.73 1.73 0 0 0-1.78 1.27l-1.27 4zm-15.25-3.18c-1.66-.8-3-.82-3.28-.4-.85 1.1 4.23 1.22 3.93 3.82-.28 2.4-3 2.44-4.83 2.1-1-.13-1.29-1.11-1-2.35 1.76.91 3.23.8 3.59.41 1-1-2.62-1.07-3.54-2.54-1.48-2.38 2-4.37 4.7-3.14.52.24.7.89.46 2.1zm20.67-5.23v10.68h2V67c0-.49-.73-.93-1.14-.93zM46.81 72v2c-1.52 2-3.92.94-3.92-1s2.44-3 3.92-1z" fill="#fff" fill-rule="evenodd"/></symbol><symbol viewBox="0 0 95 120" id="KB_02" xmlns="http://www.w3.org/2000/svg"><defs><linearGradient id="ama" x1="47.5" y1="108" x2="47.5" y2="13" gradientUnits="userSpaceOnUse"><stop offset="0" stop-color="#ff9f74"/><stop offset="1" stop-color="#ff6a75"/></linearGradient><linearGradient id="amc" x1="47.5" y1="51" x2="47.5" y2="2.5" xlink:href="#ama"/><linearGradient id="amd" x1="47.5" y1="117" x2="47.5" y2="45" gradientUnits="userSpaceOnUse"><stop offset="0" stop-color="#ffcdb7"/><stop offset=".19" stop-color="#ffdbcc"/><stop offset=".51" stop-color="#ffefe8"/><stop offset=".79" stop-color="#fffbf9"/><stop offset="1" stop-color="#fff"/></linearGradient><linearGradient id="amb" x1="47.5" y1="59" x2="47.5" y2="24" gradientUnits="userSpaceOnUse"><stop offset="0" stop-color="#ff7d38"/><stop offset="1" stop-color="#ff6a48"/></linearGradient><linearGradient id="ame" x1="30" y1="74" x2="30" y2="70" xlink:href="#amb"/><linearGradient id="amf" x1="52" y1="73" x2="52" y2="71" xlink:href="#amb"/><linearGradient id="amg" x1="30" y1="86" x2="30" y2="82" xlink:href="#amb"/><linearGradient id="amh" x1="52" y1="85" x2="52" y2="83" xlink:href="#amb"/><linearGradient id="ami" x1="30" y1="98" x2="30" y2="94" xlink:href="#amb"/><linearGradient id="amj" x1="52" y1="97" x2="52" y2="95" xlink:href="#amb"/></defs><title>4Artboard 1</title><circle cx="47.5" cy="60.5" r="47.5" fill="url(#ama)"/><rect x="21" y="2.5" width="53" height="48.5" rx="5" ry="5" fill="url(#amc)"/><rect x="21" y="45" width="53" height="72" rx="5" ry="5" fill="url(#amd)"/><path d="M76.58 60v51.56a8.1 8.1 0 0 1-8.32 8.4H26.78a8.1 8.1 0 0 1-8.35-8.49V8.59C18.44 3.45 21.88 0 27 0h40.93c5.17 0 8.63 3.39 8.64 8.56q.03 25.73.01 51.44zm-3 0V9.31a5.49 5.49 0 0 0-5.8-5.89h-4.49a1.16 1.16 0 0 0-1.33.95c-.68 2.37-2.07 3.54-4.48 3.56q-10 .08-19.9 0a4.28 4.28 0 0 1-4.48-3.5 1.2 1.2 0 0 0-1.37-1h-4.37a5.52 5.52 0 0 0-5.9 5.92v100.93c0 4.17 2.16 6.32 6.32 6.32h39.57c3.94 0 6.19-2.24 6.19-6.23q.01-25.21.01-50.37z" fill="#fff"/><path d="M47.5 59A17.5 17.5 0 1 1 65 41.5 17.5 17.5 0 0 1 47.5 59z" fill="url(#amb)"/><path d="M47 39.86a2.31 2.31 0 0 0-1.21-.73c-4.15-.51-4.21 5.79-.62 5.88A2.31 2.31 0 0 0 47 44v.83h1.39v-5.59c-.61 0-1.21.13-1.39.61zm5.41 3.3l-.93-2.95a1.27 1.27 0 0 0-1.3-.93h-.73l2.12 5.55h1.67l2.12-5.55h-.73a1.27 1.27 0 0 0-1.3.93l-.93 2.95zm-11.19-2.32c-1.22-.59-2.17-.6-2.4-.29-.62.81 3.1.9 2.88 2.8s-2.22 1.79-3.54 1.54c-.72-.1-.94-.81-.75-1.73 1.29.67 2.37.59 2.63.3.7-.76-1.92-.78-2.59-1.86-1.09-1.74 1.49-3.2 3.45-2.3.38.17.52.66.34 1.54zM56.37 37v7.83h1.46v-7.15c0-.36-.54-.68-.84-.68zM47 41.31v1.45a1.53 1.53 0 1 1 0-1.45z" fill="#fff" fill-rule="evenodd"/><path d="M30 74a2 2 0 1 1 2-2 2 2 0 0 1-2 2z" fill="url(#ame)"/><rect x="37" y="71" width="30" height="2" rx="1" ry="1" fill="url(#amf)"/><path d="M30 86a2 2 0 1 1 2-2 2 2 0 0 1-2 2z" fill="url(#amg)"/><rect x="37" y="83" width="30" height="2" rx="1" ry="1" fill="url(#amh)"/><path d="M30 98a2 2 0 1 1 2-2 2 2 0 0 1-2 2z" fill="url(#ami)"/><rect x="37" y="95" width="30" height="2" rx="1" ry="1" fill="url(#amj)"/></symbol><symbol viewBox="0 0 80 80" id="MoneyBag" xmlns="http://www.w3.org/2000/svg"><defs><linearGradient id="ana" x1="11.73" y1="68.27" x2="68.27" y2="11.73" gradientUnits="userSpaceOnUse"><stop offset="0" stop-color="#c64df9"/><stop offset="1" stop-color="#525ffc"/></linearGradient><linearGradient id="anb" x1="29.08" y1="58.05" x2="50.92" y2="36.21" xlink:href="#ana"/><linearGradient id="anc" x1="35.2" y1="31.21" x2="44.8" y2="21.61" xlink:href="#ana"/></defs><title>4Artboard 4</title><path d="M40 80a40 40 0 1 1 40-40 40 40 0 0 1-40 40zm0-79a39 39 0 1 0 39 39A39.06 39.06 0 0 0 40 1z" fill="url(#ana)"/><path d="M46.66 32H33.34S24 40 24 49.32c0 5.33 4 8 6.66 8h18.66c2.66 0 6.66-2.66 6.66-8C56 40 46.66 32 46.66 32zm-5.33 18.52v2.13h-2.66v-2.13c-2-.37-3.19-1.57-3.26-3.33h2.31c.11.92 1 1.52 2.39 1.52s2.12-.6 2.12-1.46-.57-1.15-2-1.45l-1.48-.32c-2.08-.43-3.1-1.52-3.1-3.25a3.45 3.45 0 0 1 3-3.41v-2.15h2.66v2.15a3.55 3.55 0 0 1 3.06 3.28h-2.22A1.9 1.9 0 0 0 40 40.6c-1.19 0-2 .55-2 1.42 0 .7.54 1.11 1.88 1.39l1.37.29c2.29.48 3.28 1.47 3.28 3.24s-1.16 3.19-3.2 3.58z" fill="url(#anb)"/><path d="M33.34 29.35h13.32l1.23-3.5A1.33 1.33 0 0 0 46.66 24H43a4 4 0 0 0-6 0h-3.7a1.33 1.33 0 0 0-1.24 1.83z" fill="url(#anc)"/></symbol><symbol viewBox="0 0 25 25" id="P2P" xmlns="http://www.w3.org/2000/svg"><defs><linearGradient id="aoa" x1="18.75" y1="1.67" x2="6.25" y2="23.33" gradientUnits="userSpaceOnUse"><stop offset="0" stop-color="#525ffc"/><stop offset="1" stop-color="#c64df9"/></linearGradient></defs><title>4Artboard 1</title><circle cx="12.5" cy="12.5" r="12.5" fill="url(#aoa)"/><path d="M22.57 10.47l-.06-.08-.16-.18L18.17 6a.46.46 0 0 0-.53-.15.48.48 0 0 0-.26.48v3.28h-3.72v.84h4.58V7.37l3.25 3.25-3.25 3.25v-1.25c0-.39-.16-.55-.55-.55H7.63v-1.93a.49.49 0 0 0-.26-.52.47.47 0 0 0-.56.17l-1.53 1.53L2.64 14l-.16.18-.06.08v.24l.05.07.13.15 2.67 2.67L6.83 19a.52.52 0 0 0 .36.19.41.41 0 0 0 .15 0 .47.47 0 0 0 .29-.49v-3.29h3.72v-.84H6.76v3.05l-3.25-3.24 3.26-3.26v1.25c0 .37.15.55.55.55h10.05v2.01a.51.51 0 0 0 .2.41.37.37 0 0 0 .34 0 .71.71 0 0 0 .27-.18L22.4 11l.13-.15.05-.07v-.24z" fill="#fff"/></symbol><symbol viewBox="0 0 80 80" id="Percent" xmlns="http://www.w3.org/2000/svg"><defs><linearGradient id="apa" x1="11.73" y1="68.27" x2="68.27" y2="11.73" gradientUnits="userSpaceOnUse"><stop offset="0" stop-color="#ff9f74"/><stop offset="1" stop-color="#ff6a75"/></linearGradient><linearGradient id="apb" x1="27.91" y1="52" x2="52" y2="27.91" xlink:href="#apa"/><linearGradient id="apc" x1="27.53" y1="36.06" x2="36.06" y2="27.53" xlink:href="#apa"/><linearGradient id="apd" x1="43.94" y1="52.47" x2="52.47" y2="43.94" xlink:href="#apa"/></defs><title>4Artboard 4</title><path d="M40 80a40 40 0 1 1 40-40 40 40 0 0 1-40 40zm0-79a39 39 0 1 0 39 39A39.06 39.06 0 0 0 40 1z" fill="url(#apa)"/><path d="M52 27.91a2.24 2.24 0 0 0-3.17 0L27.91 48.83A2.24 2.24 0 1 0 31.08 52L52 31.08a2.24 2.24 0 0 0 0-3.17z" fill="url(#apb)"/><path d="M31.79 37.83a6 6 0 1 0-6-6 6 6 0 0 0 6 6zm0-9.08a3 3 0 1 1-3 3 3.05 3.05 0 0 1 3-3z" fill="url(#apc)"/><path d="M48.21 42.17a6 6 0 1 0 6 6 6 6 0 0 0-6-6zm0 9.08a3 3 0 1 1 3-3 3.05 3.05 0 0 1-3 3z" fill="url(#apd)"/></symbol><symbol viewBox="0 0 25 25" id="Safety" xmlns="http://www.w3.org/2000/svg"><defs><linearGradient id="aqa" x1="18.75" y1="1.67" x2="6.25" y2="23.33" gradientUnits="userSpaceOnUse"><stop offset="0" stop-color="#ff6a75"/><stop offset="1" stop-color="#ff9f74"/></linearGradient></defs><title>4Artboard 1</title><circle cx="12.5" cy="12.5" r="12.5" fill="url(#aqa)"/><path d="M18.6 6.43h-.11a8.24 8.24 0 0 1-5.7-1.37.51.51 0 0 0-.57 0 8.24 8.24 0 0 1-5.73 1.38H6v5.85a8.42 8.42 0 0 0 5.77 8l.67.22h.32l.67-.22a8.42 8.42 0 0 0 5.77-8V6.94a.5.5 0 0 0-.6-.51zm-.5 1.06v5.18a7.42 7.42 0 0 1-5.08 7l-.51.17-.51-.12a7.41 7.41 0 0 1-5.08-7V7.49h.66a9.23 9.23 0 0 0 4.92-1.4 9.3 9.3 0 0 0 5.59 1.4z" fill="#fff"/><path d="M14.54 11.36A2 2 0 1 0 11.25 13l-.18 2.34a.5.5 0 0 0 .5.54h1.87a.5.5 0 0 0 .5-.54L13.75 13a2 2 0 0 0 .79-1.64zm-1.82 1.4l.16 2.09h-.78l.16-2.09a.5.5 0 0 0-.26-.48 1 1 0 1 1 1 0 .5.5 0 0 0-.27.48z" fill="#fff"/></symbol><symbol viewBox="0 0 97.99 34" id="SavlLogo_black" xmlns="http://www.w3.org/2000/svg"><title>4Artboard 2</title><path d="M28.32 13.07a10.73 10.73 0 1 0-20.94 0 10.73 10.73 0 1 0 10.47 18.22 10.73 10.73 0 1 0 10.47-18.22z" fill="#3365af" fill-rule="evenodd"/><path d="M10.73 12.54a10.69 10.69 0 0 1 7.12 2.71 10.75 10.75 0 0 1 10.47-2.17 10.73 10.73 0 1 0-20.94 0 10.72 10.72 0 0 1 3.35-.54z" fill="#3365af" fill-rule="evenodd"/><path d="M17.85 15.24a10.75 10.75 0 0 0-10.47-2.17 10.75 10.75 0 0 0 7.12 7.85 10.72 10.72 0 0 1 3.35-5.68z" fill="#792a8b" fill-rule="evenodd"/><path d="M14.5 20.92a10.75 10.75 0 0 1-7.12-7.85 10.73 10.73 0 1 0 10.47 18.22 10.75 10.75 0 0 1-3.35-10.37z" fill="#da1918" fill-rule="evenodd"/><path d="M14.5 20.92a10.75 10.75 0 0 0 3.35 10.37 10.75 10.75 0 0 0 3.35-10.37 10.79 10.79 0 0 1-6.7 0z" fill="#ea5506" fill-rule="evenodd"/><path d="M21.46 23.27a10.7 10.7 0 0 1-3.61 8 10.73 10.73 0 1 0 10.47-18.2 10.75 10.75 0 0 1-7.12 7.85 10.77 10.77 0 0 1 .26 2.35z" fill="#f49e00" fill-rule="evenodd"/><path d="M21.2 20.92a10.75 10.75 0 0 0 7.12-7.85 10.75 10.75 0 0 0-10.47 2.17 10.72 10.72 0 0 1 3.35 5.68z" fill="#25933a" fill-rule="evenodd"/><path d="M21.2 20.92a10.72 10.72 0 0 0-3.35-5.68 10.72 10.72 0 0 0-3.35 5.68 10.79 10.79 0 0 0 6.7 0zm51.34-8.36a5.42 5.42 0 0 0-2.85-1.72c-9.75-1.19-9.88 13.61-1.46 13.81a5.42 5.42 0 0 0 4.31-2.34v1.94h3.26V11.11c-1.43 0-2.83.3-3.26 1.44zm12.7 7.74l-2.18-6.92A3 3 0 0 0 80 11.19h-1.71l5 13h3.91l5-13h-1.72a3 3 0 0 0-3.06 2.19l-2.18 6.92zM59 14.86c-2.85-1.38-5.09-1.41-5.65-.68-1.46 1.89 7.29 2.11 6.76 6.58-.49 4.13-5.2 4.2-8.32 3.62-1.69-.22-2.21-1.91-1.76-4.05 3 1.57 5.56 1.38 6.18.7 1.66-1.79-4.51-1.84-6.09-4.38-2.55-4.09 3.49-7.53 8.1-5.4.89.41 1.21 1.54.79 3.61zm35.6-9v18.38H98V7.45c0-.84-1.26-1.61-2-1.61zM72.54 16v3.41c-2.61 3.46-6.76 1.61-6.76-1.74S70 12.56 72.54 16z" fill="#1a1b1f" fill-rule="evenodd"/></symbol><symbol viewBox="0 0 97.99 34" id="SavlLogo_white" xmlns="http://www.w3.org/2000/svg"><title>4Artboard 2</title><path d="M28.32 13.07a10.73 10.73 0 1 0-20.94 0 10.73 10.73 0 1 0 10.47 18.22 10.73 10.73 0 1 0 10.47-18.22z" fill="#3365af" fill-rule="evenodd"/><path d="M10.73 12.54a10.69 10.69 0 0 1 7.12 2.71 10.75 10.75 0 0 1 10.47-2.17 10.73 10.73 0 1 0-20.94 0 10.72 10.72 0 0 1 3.35-.54z" fill="#3365af" fill-rule="evenodd"/><path d="M17.85 15.24a10.75 10.75 0 0 0-10.47-2.17 10.75 10.75 0 0 0 7.12 7.85 10.72 10.72 0 0 1 3.35-5.68z" fill="#792a8b" fill-rule="evenodd"/><path d="M14.5 20.92a10.75 10.75 0 0 1-7.12-7.85 10.73 10.73 0 1 0 10.47 18.22 10.75 10.75 0 0 1-3.35-10.37z" fill="#da1918" fill-rule="evenodd"/><path d="M14.5 20.92a10.75 10.75 0 0 0 3.35 10.37 10.75 10.75 0 0 0 3.35-10.37 10.79 10.79 0 0 1-6.7 0z" fill="#ea5506" fill-rule="evenodd"/><path d="M21.46 23.27a10.7 10.7 0 0 1-3.61 8 10.73 10.73 0 1 0 10.47-18.2 10.75 10.75 0 0 1-7.12 7.85 10.77 10.77 0 0 1 .26 2.35z" fill="#f49e00" fill-rule="evenodd"/><path d="M21.2 20.92a10.75 10.75 0 0 0 7.12-7.85 10.75 10.75 0 0 0-10.47 2.17 10.72 10.72 0 0 1 3.35 5.68z" fill="#25933a" fill-rule="evenodd"/><path d="M21.2 20.92a10.72 10.72 0 0 0-3.35-5.68 10.72 10.72 0 0 0-3.35 5.68 10.79 10.79 0 0 0 6.7 0z" fill="#1a1b1f" fill-rule="evenodd"/><path d="M72.54 12.56a5.42 5.42 0 0 0-2.85-1.72c-9.75-1.19-9.88 13.61-1.46 13.81a5.42 5.42 0 0 0 4.31-2.34v1.94h3.26V11.11c-1.43 0-2.83.3-3.26 1.44zm12.7 7.74l-2.18-6.92A3 3 0 0 0 80 11.19h-1.71l5 13h3.91l5-13h-1.72a3 3 0 0 0-3.06 2.19l-2.18 6.92zM59 14.86c-2.85-1.38-5.09-1.41-5.65-.68-1.46 1.89 7.29 2.11 6.76 6.58-.49 4.13-5.2 4.2-8.32 3.62-1.69-.22-2.21-1.91-1.76-4.05 3 1.57 5.56 1.38 6.18.7 1.66-1.79-4.51-1.84-6.09-4.38-2.55-4.09 3.49-7.53 8.1-5.4.89.41 1.21 1.54.79 3.61zm35.6-9v18.38H98V7.45c0-.84-1.26-1.61-2-1.61zM72.54 16v3.41c-2.61 3.46-6.76 1.61-6.76-1.74S70 12.56 72.54 16z" fill="#fff" fill-rule="evenodd"/></symbol><symbol viewBox="0 0 54.99 54.99" id="ScrollDown" xmlns="http://www.w3.org/2000/svg"><title>4Artboard 3</title><circle cx="27.5" cy="27.5" r="27.5" fill="#fff"/><path d="M26.55 18.95v14.8l-5.1-5.1A.95.95 0 1 0 20.11 30l6.72 6.72.14.12h1.04l.15-.12L34.89 30a.95.95 0 1 0-1.34-1.34l-5.1 5.1V18.95a.95.95 0 0 0-1.9 0z" fill="#58637e"/></symbol><symbol viewBox="0 0 392.54 452.34" id="Taxes" xmlns="http://www.w3.org/2000/svg"><title>4Artboard 2</title><path d="M392.42 347.49a11.35 11.35 0 0 1-3.14 7.25Q344 399.6 298.34 444.09a11 11 0 0 1-6.83 3c-45 .18-90 .13-135 .12a4 4 0 0 1-4-4v-20.12a4.12 4.12 0 0 1 4.12-4.11h107.92v-89.69a14.21 14.21 0 0 1 14.21-14.21h85.16V55a27.07 27.07 0 0 0-27.07-27H112.27A27.07 27.07 0 0 0 85.2 55v278.59a14 14 0 0 1-14 14 14 14 0 0 1-14-14V15.22A15.22 15.22 0 0 1 72.33 0h302.35a17.87 17.87 0 0 1 17.87 17.87zm-99.25 62.34l67.39-66.17h-67.39z" fill="#fff"/><path d="M67.6 419.18c7.51-7.6 13.67-13.91 19.9-20.15 21.07-21.1 42.06-42.29 63.39-63.14a21.81 21.81 0 0 1 11.23-5.35c5.56-.89 10 2.37 12.51 7.36a13.5 13.5 0 0 1-1.13 14.65 29.15 29.15 0 0 1-3.38 3.67q-44.86 44.9-89.76 89.78c-8.41 8.41-15.76 8.45-24.07.16q-25.81-25.8-51.59-51.62c-4.23-4.24-5.87-9.23-3.83-15.05a13.36 13.36 0 0 1 11.8-9.39c5-.59 9 1.49 12.47 5 12.67 12.78 25.45 25.44 38.12 38.22 1.52 1.53 2.6 3.47 4.34 5.86z" fill="#fff"/><rect x="144.68" y="149.21" width="166.08" height="28.2" rx="14.1" ry="14.1" transform="rotate(-45 227.726 163.313)" fill="#fff"/><path d="M172.56 64.45a44.1 44.1 0 1 0 44.1 44.1 44.1 44.1 0 0 0-44.1-44.1zm0 64.05a20 20 0 1 1 20-20 20 20 0 0 1-20 20zm109.28 45.22a44.1 44.1 0 1 0 44.1 44.1 44.1 44.1 0 0 0-44.1-44.1zm0 64.05a20 20 0 1 1 20-20 20 20 0 0 1-20 20.01z" fill="#fff"/></symbol><symbol viewBox="0 0 14 10.73" id="Tick_purple" xmlns="http://www.w3.org/2000/svg"><title>4Artboard 2</title><path d="M13.75 1.48L12.52.25a.87.87 0 0 0-1.23 0L5.37 6.19 2.71 3.52a.84.84 0 0 0-.61-.25.84.84 0 0 0-.61.25L.25 4.75A.87.87 0 0 0 .25 6l3.27 3.25 1.23 1.23a.87.87 0 0 0 1.23 0l1.23-1.23 6.54-6.54A.84.84 0 0 0 14 2.1a.84.84 0 0 0-.25-.62z" fill="#705afb"/></symbol><symbol viewBox="0 0 14 10.73" id="Tick_red" xmlns="http://www.w3.org/2000/svg"><title>4Artboard 2</title><path d="M13.75 1.48L12.52.25a.87.87 0 0 0-1.23 0L5.37 6.19 2.71 3.52a.84.84 0 0 0-.61-.25.84.84 0 0 0-.61.25L.25 4.75A.87.87 0 0 0 .25 6l3.27 3.25 1.23 1.23a.87.87 0 0 0 1.23 0l1.23-1.23 6.54-6.54A.84.84 0 0 0 14 2.1a.84.84 0 0 0-.25-.62z" fill="#ff7374"/></symbol><symbol viewBox="0 0 25 25" id="Updates" xmlns="http://www.w3.org/2000/svg"><defs><linearGradient id="axa" x1="18.75" y1="1.67" x2="6.25" y2="23.33" gradientUnits="userSpaceOnUse"><stop offset="0" stop-color="#3fcf65"/><stop offset="1" stop-color="#25c89c"/></linearGradient></defs><title>4Artboard 1</title><circle cx="12.5" cy="12.5" r="12.5" fill="url(#axa)"/><path d="M18.9 5.87l.74 5.18-5.17-.74 1.67-1.63a5.09 5.09 0 0 0-4.76-1.43C8.46 7.91 7.11 9.89 7 12.86c-.34 0-.69-.09-1-.15-.51-.09-.51-.1-.49-.62a6.89 6.89 0 0 1 5.3-6.34 6.81 6.81 0 0 1 6.27 1.63c.15.13.23.14.36 0 .45-.5.94-.98 1.46-1.51zM6.1 19.32l-.74-5.19 5.12.73-1.63 1.63a5.14 5.14 0 0 0 4.9 1.15c2.62-.76 3.87-2.64 4-5.35l1 .11c.6.06.61.06.55.66a6.66 6.66 0 0 1-3.83 5.62A6.67 6.67 0 0 1 8 17.82c-.19-.14-.28-.13-.43 0-.47.51-.95.98-1.47 1.5z" fill="#fff"/></symbol><symbol viewBox="0 0 37 37" id="facebook" xmlns="http://www.w3.org/2000/svg"><title>4Artboard 1</title><path d="M18.5 1A17.5 17.5 0 1 1 1 18.5 17.52 17.52 0 0 1 18.5 1m0-1A18.5 18.5 0 1 0 37 18.5 18.5 18.5 0 0 0 18.5 0z" fill="#898fb0"/><path d="M22.41 11.11v2.38H21a1.33 1.33 0 0 0-1 .32 1.49 1.49 0 0 0-.27 1v1.7h2.65L22 19.16h-2.3V26h-2.8v-6.84h-2.31v-2.67h2.31v-2a3.48 3.48 0 0 1 .94-2.6 3.42 3.42 0 0 1 2.51-.89 15 15 0 0 1 2.06.11z" fill="#58637e"/></symbol><symbol viewBox="0 0 37 37" id="instagram" xmlns="http://www.w3.org/2000/svg"><title>4Artboard 1</title><path d="M18.5 1A17.5 17.5 0 1 1 1 18.5 17.52 17.52 0 0 1 18.5 1m0-1A18.5 18.5 0 1 0 37 18.5 18.5 18.5 0 0 0 18.5 0z" fill="#898fb0"/><path d="M18.5 14.74a3.75 3.75 0 0 0-3.76 3.76 3.75 3.75 0 0 0 3.76 3.76 3.75 3.75 0 0 0 3.76-3.76 3.75 3.75 0 0 0-3.76-3.76zm1.73 5.49a2.44 2.44 0 1 1 .72-1.73 2.35 2.35 0 0 1-.72 1.73zm2.19-6.52A.88.88 0 1 0 23 14a.85.85 0 0 0-.58-.29z" fill="#58637e"/><path d="M25.79 15.47a4.48 4.48 0 0 0-1.19-3.07 4.48 4.48 0 0 0-3.08-1.18h-6a4.48 4.48 0 0 0-3.12 1.18 4.48 4.48 0 0 0-1.18 3.07v6a4.48 4.48 0 0 0 1.18 3.13 4.49 4.49 0 0 0 3.08 1.18h6a4.48 4.48 0 0 0 3.12-1.18 4.48 4.48 0 0 0 1.18-3.07v-3q0-2.16.01-3.06zm-1.27 3.76v1.92a7.65 7.65 0 0 1-.1 1 3.81 3.81 0 0 1-.18.68 2.5 2.5 0 0 1-1.39 1.39 3.81 3.81 0 0 1-.68.18 7.5 7.5 0 0 1-1 .1h-5.33a7.5 7.5 0 0 1-1-.1 3.81 3.81 0 0 1-.68-.18 2.5 2.5 0 0 1-1.39-1.39 3.81 3.81 0 0 1-.18-.68 7.48 7.48 0 0 1-.1-1v-5.3a7.5 7.5 0 0 1 .1-1 3.81 3.81 0 0 1 .18-.68 2.5 2.5 0 0 1 1.39-1.39 3.81 3.81 0 0 1 .68-.18 7.58 7.58 0 0 1 1-.1h5.32a7.58 7.58 0 0 1 1 .1 3.81 3.81 0 0 1 .68.18 2.5 2.5 0 0 1 1.39 1.39 3.81 3.81 0 0 1 .18.68 7.67 7.67 0 0 1 .1 1v2.65s.01.29.01.73z" fill="#58637e"/></symbol><symbol viewBox="0 0 0 0" id="symbol--svg--sprite.symbol" xmlns="http://www.w3.org/2000/svg"/><symbol viewBox="0 0 37 37" id="telegram" xmlns="http://www.w3.org/2000/svg"><title>4Artboard 1</title><path d="M18.5 1A17.5 17.5 0 1 1 1 18.5 17.52 17.52 0 0 1 18.5 1m0-1A18.5 18.5 0 1 0 37 18.5 18.5 18.5 0 0 0 18.5 0z" fill="#898fb0"/><path d="M18 22.58l-1.76 1.72a.92.92 0 0 1-.72.3.37.37 0 0 1-.37-.29c-.45-1.38-.9-2.76-1.34-4.15a.32.32 0 0 0-.24-.24l-3.14-1a1.79 1.79 0 0 1-.46-.21.33.33 0 0 1-.05-.55 2.13 2.13 0 0 1 .61-.38c1.28-.51 2.57-1 3.86-1.5l9.81-3.79a.7.7 0 0 1 1 .77 11.58 11.58 0 0 1-.2 1.29q-1.06 5-2.13 10.06c-.17.8-.73 1-1.38.52l-3.32-2.43zm-2.46 1a.77.77 0 0 0 0-.09l.21-2.28a.56.56 0 0 1 .2-.4l3-2.72 3.34-3a.94.94 0 0 0 .14-.25.94.94 0 0 0-.31 0 1.36 1.36 0 0 0-.37.18l-7.38 4.65a.22.22 0 0 0-.11.31c.18.52.35 1 .52 1.57z" fill="#58637e"/></symbol><symbol viewBox="0 0 37 37" id="vk" xmlns="http://www.w3.org/2000/svg"><title>4Artboard 1</title><path d="M18.5 1A17.5 17.5 0 1 1 1 18.5 17.52 17.52 0 0 1 18.5 1m0-1A18.5 18.5 0 1 0 37 18.5 18.5 18.5 0 0 0 18.5 0z" fill="#898fb0"/><path d="M27.24 14.72q.21.58-1.37 2.68l-.59.78-.5.66a4.43 4.43 0 0 0-.28.45.6.6 0 0 0-.11.38 2.07 2.07 0 0 0 .12.31 1.31 1.31 0 0 0 .3.39l.52.48a9.07 9.07 0 0 1 1.74 2l.06.11a1.2 1.2 0 0 1 .06.24.7.7 0 0 1 0 .31.45.45 0 0 1-.23.25 1.06 1.06 0 0 1-.54.11h-2.34a1 1 0 0 1-.51 0 2.2 2.2 0 0 1-.47-.2l-.1-.04a4.25 4.25 0 0 1-.64-.58q-.37-.39-.63-.71a3 3 0 0 0-.56-.53.58.58 0 0 0-.52-.14h-.07a.77.77 0 0 0-.16.13 1.16 1.16 0 0 0-.2.27 1.88 1.88 0 0 0-.15.47 3 3 0 0 0-.06.71.92.92 0 0 1 0 .25.62.62 0 0 1-.07.17.73.73 0 0 1-.48.2h-1A4.17 4.17 0 0 1 17 23.8a5.15 5.15 0 0 1-1.2-.48 10.86 10.86 0 0 1-.94-.6 5.4 5.4 0 0 1-.64-.52L14 22l-.25-.27q-.16-.18-.65-.83t-1-1.38q-.47-.73-1.12-1.93t-1.19-2.51a.73.73 0 0 1-.06-.25.29.29 0 0 1 0-.15v-.05a.63.63 0 0 1 .52-.17h2.5l.21.06.15.08a.6.6 0 0 1 .22.29c.12.3.26.62.42.94s.28.57.37.74l.15.26q.26.55.51.95a4.71 4.71 0 0 0 .44.63 2.19 2.19 0 0 0 .38.35.58.58 0 0 0 .31.13.67.67 0 0 0 .25 0l.11-.2a1.52 1.52 0 0 0 .12-.43q0-.26.09-.74a7.22 7.22 0 0 0 0-1.14 4.42 4.42 0 0 0-.08-.67 1.79 1.79 0 0 0-.13-.42l-.06-.11a1.12 1.12 0 0 0-.78-.39c-.08 0-.06-.09 0-.22a1.08 1.08 0 0 1 .35-.27 6 6 0 0 1 2.39-.3 6.07 6.07 0 0 1 1.23.12 1 1 0 0 1 .31.12.49.49 0 0 1 .19.22 1.42 1.42 0 0 1 .1.29 2.09 2.09 0 0 1 0 .42v2.71a3.68 3.68 0 0 0 0 .37 1 1 0 0 0 .11.36.6.6 0 0 0 .21.22h.15c.05 0 .13 0 .24-.1a3.3 3.3 0 0 0 .35-.31 4.78 4.78 0 0 0 .47-.61q.28-.42.62-1a14.85 14.85 0 0 0 1-2.05.63.63 0 0 1 .09-.16.41.41 0 0 1 .1-.1h2.93a1.43 1.43 0 0 1 .58 0 .53.53 0 0 1 .28.15z" fill="#58637e"/></symbol></svg>