<?xml version="1.0" encoding="iso-8859-1"?>
<!-- Generator: Adobe Illustrator 19.0.0, SVG Export Plug-In . SVG Version: 6.00 Build 0)  -->
<svg version="1.1" id="Capa_1" xmlns="http://www.w3.org/2000/svg" xmlns:xlink="http://www.w3.org/1999/xlink" x="0px" y="0px"
	 viewBox="0 0 512 512" style="enable-background:new 0 0 512 512;" xml:space="preserve">
<g>
	<g>
		<polygon points="181,46 181,76 219.789,76 140.395,155.395 161.605,176.605 241,97.211 241,136 271,136 271,46 		"/>
	</g>
</g>
<g>
	<g>
		<circle cx="61" cy="166" r="30"/>
	</g>
</g>
<g>
	<g>
		<path d="M61,226c-16.569,0-30,13.431-30,30v61.516c4.849-0.989,9.864-1.516,15-1.516h43.081L91,314.321V256
			C91,239.431,77.569,226,61,226z"/>
	</g>
</g>
<g>
	<g>
		<path d="M467.234,136H340.36l-240,210H45c-24.814,0-45,20.186-45,44.985V466h126.07l274.29-240H512v-45.117
			C512,156.127,491.917,136,467.234,136z"/>
	</g>
</g>
<g>
	<g>
		<polygon points="411.64,256 171.632,466 171.64,466 512,466 512,256 		"/>
	</g>
</g>
<g>
</g>
<g>
</g>
<g>
</g>
<g>
</g>
<g>
</g>
<g>
</g>
<g>
</g>
<g>
</g>
<g>
</g>
<g>
</g>
<g>
</g>
<g>
</g>
<g>
</g>
<g>
</g>
<g>
</g>
</svg>
