<svg version="1" xmlns="http://www.w3.org/2000/svg" width="682.667" height="682.667" viewBox="0 0 512.000000 512.000000"><path d="M236.5 38c-32.7 5.6-63.1 21.6-83.5 43.7-9.2 9.9-11.1 12.3-16.5 20.2-15.9 23.5-25.3 52.8-25.5 79.1v8.5l-6.2 3.3c-25.3 13.3-48.8 38-62.2 65.6-5 10.4-10.7 26.2-11.9 33.1-.3 1.6-1.1 5.5-1.7 8.5-.7 3-1.3 13.1-1.5 22.5-.6 26.8 3.5 45.8 15.1 70.2 3 6.4 13.6 24 15.3 25.3.3.3 1.8 2.1 3.2 4 1.5 1.9 5.5 6.3 8.9 9.8 21.6 21.7 45.9 35.1 75.3 41.4 13.6 2.9 41.6 3.1 55.1.4 17.7-3.5 35.7-10.6 50.4-19.8 5.6-3.6 6.5-3.9 8-2.6 4.8 4.1 21.8 12.6 33.6 16.7 17.5 6.2 30.1 8 51.1 7.6 15.8-.4 17-.5 30.5-3.6 46.1-10.6 86.1-46.2 103.4-92.3 2.9-7.5 6.5-21 7.3-26.6.3-1.9.9-5.5 1.3-8 1.6-8.7.5-36.6-1.9-48-5.2-24.7-16.2-48.2-31.3-66.5-9.2-11.2-29.4-28.4-38.7-33.1-1.7-.8-3.3-1.9-3.5-2.2-.2-.4-.6-6.6-.7-13.7-1.2-66.3-48.4-125-113-140.9-15-3.6-15.7-3.7-33.9-4.1-12.3-.2-19.1.2-26.5 1.5z"/></svg>